<?xml version="1.0" encoding="utf-8"?>
<!-- Generator: Adobe Illustrator 16.0.0, SVG Export Plug-In . SVG Version: 6.00 Build 0)  -->
<!DOCTYPE svg PUBLIC "-//W3C//DTD SVG 1.1//EN" "http://www.w3.org/Graphics/SVG/1.1/DTD/svg11.dtd">
<svg version="1.1" id="Layer_1" xmlns="http://www.w3.org/2000/svg" xmlns:xlink="http://www.w3.org/1999/xlink" x="0px" y="0px"
	 width="1498.575px" height="32.5px" viewBox="0 0 1498.575 32.5" enable-background="new 0 0 1498.575 32.5" xml:space="preserve">
<g>
	<defs>
		<polygon id="SVGID_1_" points="1498.575,32.5 1498.575,-0.354 0,0 0,33.583 		"/>
	</defs>
	<clipPath id="SVGID_2_">
		<use xlink:href="#SVGID_1_"  overflow="visible"/>
	</clipPath>
	<g clip-path="url(#SVGID_2_)">
		<rect x="-353.925" y="18.522" fill="#303030" stroke="#515151" stroke-miterlimit="10" width="2006.254" height="6.5"/>
		<rect x="-351.325" y="25.022" fill="#303030" stroke="#515151" stroke-miterlimit="10" width="13.65" height="3.25"/>
		<rect x="-326.625" y="25.022" fill="#303030" stroke="#515151" stroke-miterlimit="10" width="13.65" height="3.25"/>
		<rect x="-301.925" y="25.022" fill="#303030" stroke="#515151" stroke-miterlimit="10" width="13.65" height="3.25"/>
		<rect x="-277.225" y="25.022" fill="#303030" stroke="#515151" stroke-miterlimit="10" width="13.65" height="3.25"/>
		<rect x="-252.525" y="25.022" fill="#303030" stroke="#515151" stroke-miterlimit="10" width="13.65" height="3.25"/>
		<rect x="-227.825" y="25.022" fill="#303030" stroke="#515151" stroke-miterlimit="10" width="13.65" height="3.25"/>
		<rect x="-203.125" y="25.022" fill="#303030" stroke="#515151" stroke-miterlimit="10" width="13.65" height="3.25"/>
		<rect x="-178.425" y="25.022" fill="#303030" stroke="#515151" stroke-miterlimit="10" width="13.65" height="3.25"/>
		<rect x="-153.725" y="25.022" fill="#303030" stroke="#515151" stroke-miterlimit="10" width="13.65" height="3.25"/>
		<rect x="-129.025" y="25.022" fill="#303030" stroke="#515151" stroke-miterlimit="10" width="13.65" height="3.25"/>
		<rect x="-104.325" y="25.022" fill="#303030" stroke="#515151" stroke-miterlimit="10" width="13.65" height="3.25"/>
		<rect x="-79.625" y="25.022" fill="#303030" stroke="#515151" stroke-miterlimit="10" width="13.65" height="3.25"/>
		<rect x="-54.925" y="25.022" fill="#303030" stroke="#515151" stroke-miterlimit="10" width="13.65" height="3.25"/>
		<rect x="-30.225" y="25.022" fill="#303030" stroke="#515151" stroke-miterlimit="10" width="14.3" height="3.25"/>
		<rect x="-5.525" y="25.022" fill="#303030" stroke="#515151" stroke-miterlimit="10" width="14.3" height="3.25"/>
		<rect x="19.175" y="25.022" fill="#303030" stroke="#515151" stroke-miterlimit="10" width="14.3" height="3.25"/>
		<rect x="43.875" y="25.022" fill="#303030" stroke="#515151" stroke-miterlimit="10" width="14.3" height="3.25"/>
		<rect x="68.575" y="25.022" fill="#303030" stroke="#515151" stroke-miterlimit="10" width="14.3" height="3.25"/>
		<rect x="93.275" y="25.022" fill="#303030" stroke="#515151" stroke-miterlimit="10" width="14.3" height="3.25"/>
		<rect x="117.975" y="25.022" fill="#303030" stroke="#515151" stroke-miterlimit="10" width="14.3" height="3.25"/>
		<rect x="142.675" y="25.022" fill="#303030" stroke="#515151" stroke-miterlimit="10" width="14.3" height="3.25"/>
		<rect x="167.375" y="25.022" fill="#303030" stroke="#515151" stroke-miterlimit="10" width="14.3" height="3.25"/>
		<rect x="192.075" y="25.022" fill="#303030" stroke="#515151" stroke-miterlimit="10" width="14.3" height="3.25"/>
		<rect x="216.775" y="25.022" fill="#303030" stroke="#515151" stroke-miterlimit="10" width="14.3" height="3.25"/>
		<rect x="241.475" y="25.022" fill="#303030" stroke="#515151" stroke-miterlimit="10" width="14.3" height="3.25"/>
		<rect x="266.175" y="25.022" fill="#303030" stroke="#515151" stroke-miterlimit="10" width="14.3" height="3.25"/>
		<rect x="290.875" y="25.022" fill="#303030" stroke="#515151" stroke-miterlimit="10" width="14.3" height="3.25"/>
		<rect x="315.575" y="25.022" fill="#303030" stroke="#515151" stroke-miterlimit="10" width="14.3" height="3.25"/>
		<rect x="340.275" y="25.022" fill="#303030" stroke="#515151" stroke-miterlimit="10" width="14.3" height="3.25"/>
		<rect x="364.975" y="25.022" fill="#303030" stroke="#515151" stroke-miterlimit="10" width="14.3" height="3.25"/>
		<rect x="389.675" y="25.022" fill="#303030" stroke="#515151" stroke-miterlimit="10" width="14.3" height="3.25"/>
		<rect x="414.375" y="25.022" fill="#303030" stroke="#515151" stroke-miterlimit="10" width="14.3" height="3.25"/>
		<rect x="439.075" y="25.022" fill="#303030" stroke="#515151" stroke-miterlimit="10" width="14.3" height="3.25"/>
		<rect x="464.425" y="25.022" fill="#303030" stroke="#515151" stroke-miterlimit="10" width="13.65" height="3.25"/>
		<rect x="489.125" y="25.022" fill="#303030" stroke="#515151" stroke-miterlimit="10" width="13.65" height="3.25"/>
		<rect x="513.825" y="25.022" fill="#303030" stroke="#515151" stroke-miterlimit="10" width="13.65" height="3.25"/>
		<rect x="538.525" y="25.022" fill="#303030" stroke="#515151" stroke-miterlimit="10" width="13.65" height="3.25"/>
		<rect x="563.225" y="25.022" fill="#303030" stroke="#515151" stroke-miterlimit="10" width="13.65" height="3.25"/>
		<rect x="587.925" y="25.022" fill="#303030" stroke="#515151" stroke-miterlimit="10" width="13.65" height="3.25"/>
		<rect x="612.625" y="25.022" fill="#303030" stroke="#515151" stroke-miterlimit="10" width="13.65" height="3.25"/>
		<rect x="637.325" y="25.022" fill="#303030" stroke="#515151" stroke-miterlimit="10" width="13.65" height="3.25"/>
		<rect x="662.025" y="25.022" fill="#303030" stroke="#515151" stroke-miterlimit="10" width="13.65" height="3.25"/>
		<rect x="686.726" y="25.022" fill="#303030" stroke="#515151" stroke-miterlimit="10" width="13.649" height="3.25"/>
		<rect x="711.425" y="25.022" fill="#303030" stroke="#515151" stroke-miterlimit="10" width="13.65" height="3.25"/>
		<rect x="736.125" y="25.022" fill="#303030" stroke="#515151" stroke-miterlimit="10" width="13.65" height="3.25"/>
		<rect x="760.825" y="25.022" fill="#303030" stroke="#515151" stroke-miterlimit="10" width="13.65" height="3.25"/>
		<rect x="785.525" y="25.022" fill="#303030" stroke="#515151" stroke-miterlimit="10" width="13.649" height="3.25"/>
		<rect x="810.226" y="25.022" fill="#303030" stroke="#515151" stroke-miterlimit="10" width="13.649" height="3.25"/>
		<rect x="834.925" y="25.022" fill="#303030" stroke="#515151" stroke-miterlimit="10" width="13.65" height="3.25"/>
		<rect x="859.625" y="25.022" fill="#303030" stroke="#515151" stroke-miterlimit="10" width="13.65" height="3.25"/>
		<rect x="-338.975" y="15.272" fill="#303030" stroke="#515151" stroke-miterlimit="10" width="13.65" height="3.25"/>
		<rect x="-314.275" y="15.272" fill="#303030" stroke="#515151" stroke-miterlimit="10" width="13.65" height="3.25"/>
		<rect x="-289.575" y="15.272" fill="#303030" stroke="#515151" stroke-miterlimit="10" width="13.65" height="3.25"/>
		<rect x="-264.875" y="15.272" fill="#303030" stroke="#515151" stroke-miterlimit="10" width="13.65" height="3.25"/>
		<rect x="-240.175" y="15.272" fill="#303030" stroke="#515151" stroke-miterlimit="10" width="13.65" height="3.25"/>
		<rect x="-215.475" y="15.272" fill="#303030" stroke="#515151" stroke-miterlimit="10" width="13.65" height="3.25"/>
		<rect x="-190.775" y="15.272" fill="#303030" stroke="#515151" stroke-miterlimit="10" width="13.65" height="3.25"/>
		<rect x="-166.075" y="15.272" fill="#303030" stroke="#515151" stroke-miterlimit="10" width="13.65" height="3.25"/>
		<rect x="-141.375" y="15.272" fill="#303030" stroke="#515151" stroke-miterlimit="10" width="13.65" height="3.25"/>
		<rect x="-116.675" y="15.272" fill="#303030" stroke="#515151" stroke-miterlimit="10" width="13.65" height="3.25"/>
		<rect x="-91.975" y="15.272" fill="#303030" stroke="#515151" stroke-miterlimit="10" width="13.65" height="3.25"/>
		<rect x="-67.275" y="15.272" fill="#303030" stroke="#515151" stroke-miterlimit="10" width="13.65" height="3.25"/>
		<rect x="-42.575" y="15.272" fill="#303030" stroke="#515151" stroke-miterlimit="10" width="13.65" height="3.25"/>
		<rect x="-17.875" y="15.272" fill="#303030" stroke="#515151" stroke-miterlimit="10" width="14.3" height="3.25"/>
		<rect x="6.825" y="15.272" fill="#303030" stroke="#515151" stroke-miterlimit="10" width="14.3" height="3.25"/>
		<rect x="31.525" y="15.272" fill="#303030" stroke="#515151" stroke-miterlimit="10" width="14.3" height="3.25"/>
		<rect x="56.225" y="15.272" fill="#303030" stroke="#515151" stroke-miterlimit="10" width="14.3" height="3.25"/>
		<rect x="80.925" y="15.272" fill="#303030" stroke="#515151" stroke-miterlimit="10" width="14.3" height="3.25"/>
		<rect x="105.625" y="15.272" fill="#303030" stroke="#515151" stroke-miterlimit="10" width="14.3" height="3.25"/>
		<rect x="130.325" y="15.272" fill="#303030" stroke="#515151" stroke-miterlimit="10" width="14.3" height="3.25"/>
		<rect x="155.025" y="15.272" fill="#303030" stroke="#515151" stroke-miterlimit="10" width="14.3" height="3.25"/>
		<rect x="179.725" y="15.272" fill="#303030" stroke="#515151" stroke-miterlimit="10" width="14.3" height="3.25"/>
		<rect x="204.425" y="15.272" fill="#303030" stroke="#515151" stroke-miterlimit="10" width="14.3" height="3.25"/>
		<rect x="229.125" y="15.272" fill="#303030" stroke="#515151" stroke-miterlimit="10" width="14.3" height="3.25"/>
		<rect x="253.825" y="15.272" fill="#303030" stroke="#515151" stroke-miterlimit="10" width="14.3" height="3.25"/>
		<rect x="278.525" y="15.272" fill="#303030" stroke="#515151" stroke-miterlimit="10" width="14.3" height="3.25"/>
		<rect x="303.225" y="15.272" fill="#303030" stroke="#515151" stroke-miterlimit="10" width="14.3" height="3.25"/>
		<rect x="327.925" y="15.272" fill="#303030" stroke="#515151" stroke-miterlimit="10" width="14.3" height="3.25"/>
		<rect x="352.625" y="15.272" fill="#303030" stroke="#515151" stroke-miterlimit="10" width="14.3" height="3.25"/>
		<rect x="377.325" y="15.272" fill="#303030" stroke="#515151" stroke-miterlimit="10" width="14.3" height="3.25"/>
		<rect x="402.025" y="15.272" fill="#303030" stroke="#515151" stroke-miterlimit="10" width="14.3" height="3.25"/>
		<rect x="426.725" y="15.272" fill="#303030" stroke="#515151" stroke-miterlimit="10" width="14.3" height="3.25"/>
		<rect x="451.425" y="15.272" fill="#303030" stroke="#515151" stroke-miterlimit="10" width="14.3" height="3.25"/>
		<rect x="476.775" y="15.272" fill="#303030" stroke="#515151" stroke-miterlimit="10" width="13.65" height="3.25"/>
		<rect x="501.475" y="15.272" fill="#303030" stroke="#515151" stroke-miterlimit="10" width="13.65" height="3.25"/>
		<rect x="526.175" y="15.272" fill="#303030" stroke="#515151" stroke-miterlimit="10" width="13.65" height="3.25"/>
		<rect x="550.875" y="15.272" fill="#303030" stroke="#515151" stroke-miterlimit="10" width="13.65" height="3.25"/>
		<rect x="575.575" y="15.272" fill="#303030" stroke="#515151" stroke-miterlimit="10" width="13.65" height="3.25"/>
		<rect x="600.275" y="15.272" fill="#303030" stroke="#515151" stroke-miterlimit="10" width="13.65" height="3.25"/>
		<rect x="624.975" y="15.272" fill="#303030" stroke="#515151" stroke-miterlimit="10" width="13.65" height="3.25"/>
		<rect x="649.675" y="15.272" fill="#303030" stroke="#515151" stroke-miterlimit="10" width="13.65" height="3.25"/>
		<rect x="674.375" y="15.272" fill="#303030" stroke="#515151" stroke-miterlimit="10" width="13.65" height="3.25"/>
		<rect x="699.075" y="15.272" fill="#303030" stroke="#515151" stroke-miterlimit="10" width="13.65" height="3.25"/>
		<rect x="723.775" y="15.272" fill="#303030" stroke="#515151" stroke-miterlimit="10" width="13.649" height="3.25"/>
		<rect x="748.476" y="15.272" fill="#303030" stroke="#515151" stroke-miterlimit="10" width="13.649" height="3.25"/>
		<rect x="773.175" y="15.272" fill="#303030" stroke="#515151" stroke-miterlimit="10" width="13.65" height="3.25"/>
		<rect x="797.875" y="15.272" fill="#303030" stroke="#515151" stroke-miterlimit="10" width="13.65" height="3.25"/>
		<rect x="822.575" y="15.272" fill="#303030" stroke="#515151" stroke-miterlimit="10" width="13.65" height="3.25"/>
		<rect x="847.275" y="15.272" fill="#303030" stroke="#515151" stroke-miterlimit="10" width="13.649" height="3.25"/>
		<rect x="859.625" y="25.022" fill="#303030" stroke="#515151" stroke-miterlimit="10" width="13.65" height="3.25"/>
		<rect x="884.325" y="25.022" fill="#303030" stroke="#515151" stroke-miterlimit="10" width="13.65" height="3.25"/>
		<rect x="909.025" y="25.022" fill="#303030" stroke="#515151" stroke-miterlimit="10" width="13.649" height="3.25"/>
		<rect x="933.726" y="25.022" fill="#303030" stroke="#515151" stroke-miterlimit="10" width="13.649" height="3.25"/>
		<rect x="958.425" y="25.022" fill="#303030" stroke="#515151" stroke-miterlimit="10" width="13.65" height="3.25"/>
		<rect x="958.425" y="25.022" fill="#303030" stroke="#515151" stroke-miterlimit="10" width="13.65" height="3.25"/>
		<rect x="983.125" y="25.022" fill="#303030" stroke="#515151" stroke-miterlimit="10" width="13.65" height="3.25"/>
		<rect x="1007.825" y="25.022" fill="#303030" stroke="#515151" stroke-miterlimit="10" width="13.65" height="3.25"/>
		<rect x="1032.525" y="25.022" fill="#303030" stroke="#515151" stroke-miterlimit="10" width="13.649" height="3.25"/>
		<rect x="1057.226" y="25.022" fill="#303030" stroke="#515151" stroke-miterlimit="10" width="13.649" height="3.25"/>
		<rect x="1081.925" y="25.022" fill="#303030" stroke="#515151" stroke-miterlimit="10" width="13.65" height="3.25"/>
		<rect x="1106.625" y="25.022" fill="#303030" stroke="#515151" stroke-miterlimit="10" width="13.65" height="3.25"/>
		<rect x="1131.325" y="25.022" fill="#303030" stroke="#515151" stroke-miterlimit="10" width="13.65" height="3.25"/>
		<rect x="1156.134" y="25.022" fill="#303030" stroke="#515151" stroke-miterlimit="10" width="13.65" height="3.25"/>
		<rect x="1180.833" y="25.022" fill="#303030" stroke="#515151" stroke-miterlimit="10" width="13.65" height="3.25"/>
		<rect x="1205.534" y="25.022" fill="#303030" stroke="#515151" stroke-miterlimit="10" width="13.649" height="3.25"/>
		<rect x="1230.233" y="25.022" fill="#303030" stroke="#515151" stroke-miterlimit="10" width="13.65" height="3.25"/>
		<rect x="1254.934" y="25.022" fill="#303030" stroke="#515151" stroke-miterlimit="10" width="13.649" height="3.25"/>
		<rect x="1279.634" y="25.022" fill="#303030" stroke="#515151" stroke-miterlimit="10" width="13.65" height="3.25"/>
		<rect x="1304.333" y="25.022" fill="#303030" stroke="#515151" stroke-miterlimit="10" width="13.65" height="3.25"/>
		<rect x="1329.034" y="25.022" fill="#303030" stroke="#515151" stroke-miterlimit="10" width="13.649" height="3.25"/>
		<rect x="1353.733" y="25.022" fill="#303030" stroke="#515151" stroke-miterlimit="10" width="13.65" height="3.25"/>
		<rect x="1378.434" y="25.022" fill="#303030" stroke="#515151" stroke-miterlimit="10" width="13.649" height="3.25"/>
		<rect x="1403.134" y="25.022" fill="#303030" stroke="#515151" stroke-miterlimit="10" width="13.65" height="3.25"/>
		<rect x="1427.833" y="25.022" fill="#303030" stroke="#515151" stroke-miterlimit="10" width="13.65" height="3.25"/>
		<rect x="1427.833" y="25.022" fill="#303030" stroke="#515151" stroke-miterlimit="10" width="13.65" height="3.25"/>
		<rect x="1452.534" y="25.022" fill="#303030" stroke="#515151" stroke-miterlimit="10" width="13.649" height="3.25"/>
		<rect x="1477.233" y="25.022" fill="#303030" stroke="#515151" stroke-miterlimit="10" width="13.65" height="3.25"/>
		<rect x="1501.934" y="25.022" fill="#303030" stroke="#515151" stroke-miterlimit="10" width="13.649" height="3.25"/>
		<rect x="1526.634" y="25.022" fill="#303030" stroke="#515151" stroke-miterlimit="10" width="13.65" height="3.25"/>
		<rect x="1526.634" y="25.022" fill="#303030" stroke="#515151" stroke-miterlimit="10" width="13.65" height="3.25"/>
		<rect x="1551.333" y="25.022" fill="#303030" stroke="#515151" stroke-miterlimit="10" width="13.65" height="3.25"/>
		<rect x="1576.034" y="25.022" fill="#303030" stroke="#515151" stroke-miterlimit="10" width="13.649" height="3.25"/>
		<rect x="1600.733" y="25.022" fill="#303030" stroke="#515151" stroke-miterlimit="10" width="13.65" height="3.25"/>
		<rect x="1625.434" y="25.022" fill="#303030" stroke="#515151" stroke-miterlimit="10" width="13.649" height="3.25"/>
		<rect x="1650.134" y="25.022" fill="#303030" stroke="#515151" stroke-miterlimit="10" width="13.65" height="3.25"/>
		<rect x="1674.833" y="25.022" fill="#303030" stroke="#515151" stroke-miterlimit="10" width="13.65" height="3.25"/>
		<rect x="1699.534" y="25.022" fill="#303030" stroke="#515151" stroke-miterlimit="10" width="13.649" height="3.25"/>
		<rect x="847.275" y="15.272" fill="#303030" stroke="#515151" stroke-miterlimit="10" width="13.649" height="3.25"/>
		<rect x="921.375" y="15.272" fill="#303030" stroke="#515151" stroke-miterlimit="10" width="13.65" height="3.25"/>
		<rect x="946.075" y="15.272" fill="#303030" stroke="#515151" stroke-miterlimit="10" width="13.65" height="3.25"/>
		<g>
			<circle fill="#515151" cx="-344.708" cy="21.99" r="1.229"/>
			<circle fill="#515151" cx="-332.349" cy="21.99" r="1.229"/>
			<circle fill="#515151" cx="-319.99" cy="21.99" r="1.229"/>
			<circle fill="#515151" cx="-307.631" cy="21.99" r="1.229"/>
			<circle fill="#515151" cx="-295.272" cy="21.99" r="1.229"/>
			<circle fill="#515151" cx="-282.913" cy="21.99" r="1.229"/>
			<circle fill="#515151" cx="-270.554" cy="21.99" r="1.229"/>
			<circle fill="#515151" cx="-258.195" cy="21.99" r="1.229"/>
			<circle fill="#515151" cx="-245.836" cy="21.99" r="1.229"/>
			<circle fill="#515151" cx="-233.477" cy="21.99" r="1.229"/>
			<circle fill="#515151" cx="-221.118" cy="21.99" r="1.229"/>
			<circle fill="#515151" cx="-208.76" cy="21.99" r="1.229"/>
			<circle fill="#515151" cx="-196.401" cy="21.99" r="1.229"/>
			<circle fill="#515151" cx="-184.042" cy="21.99" r="1.229"/>
			<circle fill="#515151" cx="-171.683" cy="21.99" r="1.229"/>
			<circle fill="#515151" cx="-159.324" cy="21.99" r="1.229"/>
			<circle fill="#515151" cx="-146.965" cy="21.99" r="1.229"/>
			<circle fill="#515151" cx="-134.606" cy="21.99" r="1.229"/>
			<circle fill="#515151" cx="-122.247" cy="21.99" r="1.229"/>
			<circle fill="#515151" cx="-109.888" cy="21.99" r="1.229"/>
			<circle fill="#515151" cx="-97.529" cy="21.99" r="1.229"/>
			<circle fill="#515151" cx="-85.17" cy="21.99" r="1.229"/>
			<circle fill="#515151" cx="-72.811" cy="21.99" r="1.229"/>
			<circle fill="#515151" cx="-60.452" cy="21.99" r="1.229"/>
			<circle fill="#515151" cx="-48.094" cy="21.99" r="1.229"/>
			<circle fill="#515151" cx="-35.735" cy="21.99" r="1.229"/>
			<circle fill="#515151" cx="-23.375" cy="21.99" r="1.229"/>
			<circle fill="#515151" cx="-11.017" cy="21.99" r="1.229"/>
			<circle fill="#515151" cx="1.342" cy="21.99" r="1.229"/>
			<circle fill="#515151" cx="13.701" cy="21.99" r="1.229"/>
			<circle fill="#515151" cx="26.06" cy="21.99" r="1.229"/>
			<circle fill="#515151" cx="38.419" cy="21.99" r="1.229"/>
			<circle fill="#515151" cx="50.778" cy="21.99" r="1.229"/>
			<circle fill="#515151" cx="63.137" cy="21.99" r="1.229"/>
			<circle fill="#515151" cx="75.496" cy="21.99" r="1.229"/>
			<circle fill="#515151" cx="87.854" cy="21.99" r="1.229"/>
			<circle fill="#515151" cx="100.213" cy="21.99" r="1.229"/>
			<circle fill="#515151" cx="112.572" cy="21.99" r="1.229"/>
			<circle fill="#515151" cx="124.931" cy="21.99" r="1.229"/>
			<circle fill="#515151" cx="137.29" cy="21.99" r="1.229"/>
			<circle fill="#515151" cx="149.649" cy="21.99" r="1.229"/>
			<circle fill="#515151" cx="162.008" cy="21.99" r="1.229"/>
			<circle fill="#515151" cx="174.367" cy="21.99" r="1.229"/>
			<circle fill="#515151" cx="186.726" cy="21.99" r="1.229"/>
			<circle fill="#515151" cx="199.085" cy="21.99" r="1.229"/>
			<circle fill="#515151" cx="211.444" cy="21.99" r="1.229"/>
			<circle fill="#515151" cx="223.803" cy="21.99" r="1.229"/>
			<circle fill="#515151" cx="236.162" cy="21.99" r="1.229"/>
			<circle fill="#515151" cx="248.521" cy="21.99" r="1.229"/>
			<circle fill="#515151" cx="260.88" cy="21.99" r="1.229"/>
			<circle fill="#515151" cx="273.239" cy="21.99" r="1.229"/>
			<circle fill="#515151" cx="285.597" cy="21.99" r="1.229"/>
			<circle fill="#515151" cx="297.956" cy="21.99" r="1.229"/>
			<circle fill="#515151" cx="310.315" cy="21.99" r="1.229"/>
			<circle fill="#515151" cx="322.674" cy="21.99" r="1.229"/>
			<circle fill="#515151" cx="335.033" cy="21.99" r="1.229"/>
			<circle fill="#515151" cx="347.392" cy="21.99" r="1.229"/>
			<circle fill="#515151" cx="359.751" cy="21.99" r="1.229"/>
			<circle fill="#515151" cx="372.11" cy="21.99" r="1.229"/>
			<circle fill="#515151" cx="384.469" cy="21.99" r="1.229"/>
			<circle fill="#515151" cx="396.828" cy="21.99" r="1.229"/>
			<circle fill="#515151" cx="409.187" cy="21.99" r="1.229"/>
			<circle fill="#515151" cx="421.545" cy="21.99" r="1.229"/>
			<circle fill="#515151" cx="433.904" cy="21.99" r="1.229"/>
			<circle fill="#515151" cx="446.263" cy="21.99" r="1.229"/>
			<circle fill="#515151" cx="458.623" cy="21.99" r="1.229"/>
			<circle fill="#515151" cx="470.981" cy="21.99" r="1.229"/>
			<circle fill="#515151" cx="483.34" cy="21.99" r="1.229"/>
			<circle fill="#515151" cx="495.699" cy="21.99" r="1.229"/>
			<circle fill="#515151" cx="508.058" cy="21.99" r="1.229"/>
			<circle fill="#515151" cx="520.417" cy="21.99" r="1.229"/>
			<circle fill="#515151" cx="532.776" cy="21.99" r="1.229"/>
			<circle fill="#515151" cx="545.135" cy="21.99" r="1.229"/>
			<circle fill="#515151" cx="557.494" cy="21.99" r="1.229"/>
			<circle fill="#515151" cx="569.853" cy="21.99" r="1.229"/>
			<circle fill="#515151" cx="582.211" cy="21.99" r="1.229"/>
			<circle fill="#515151" cx="594.57" cy="21.99" r="1.229"/>
			<circle fill="#515151" cx="606.929" cy="21.99" r="1.229"/>
			<circle fill="#515151" cx="619.288" cy="21.99" r="1.229"/>
			<circle fill="#515151" cx="631.647" cy="21.99" r="1.229"/>
			<circle fill="#515151" cx="644.006" cy="21.99" r="1.229"/>
			<circle fill="#515151" cx="656.365" cy="21.99" r="1.229"/>
			<circle fill="#515151" cx="668.724" cy="21.99" r="1.229"/>
			<circle fill="#515151" cx="681.083" cy="21.99" r="1.229"/>
			<circle fill="#515151" cx="693.442" cy="21.99" r="1.229"/>
			<circle fill="#515151" cx="705.801" cy="21.99" r="1.229"/>
			<circle fill="#515151" cx="718.159" cy="21.99" r="1.229"/>
			<circle fill="#515151" cx="730.519" cy="21.99" r="1.229"/>
			<circle fill="#515151" cx="742.878" cy="21.99" r="1.229"/>
			<circle fill="#515151" cx="755.236" cy="21.99" r="1.229"/>
			<circle fill="#515151" cx="767.595" cy="21.99" r="1.229"/>
			<circle fill="#515151" cx="779.954" cy="21.99" r="1.229"/>
			<circle fill="#515151" cx="792.313" cy="21.99" r="1.229"/>
			<circle fill="#515151" cx="804.672" cy="21.99" r="1.229"/>
			<circle fill="#515151" cx="817.031" cy="21.99" r="1.229"/>
			<circle fill="#515151" cx="829.39" cy="21.99" r="1.229"/>
			<circle fill="#515151" cx="841.749" cy="21.99" r="1.229"/>
			<circle fill="#515151" cx="854.108" cy="21.99" r="1.229"/>
			<circle fill="#515151" cx="866.467" cy="21.99" r="1.229"/>
			<circle fill="#515151" cx="878.826" cy="21.99" r="1.229"/>
			<circle fill="#515151" cx="891.185" cy="21.99" r="1.229"/>
			<circle fill="#515151" cx="903.544" cy="21.99" r="1.229"/>
			<circle fill="#515151" cx="915.84" cy="21.99" r="1.229"/>
			<circle fill="#515151" cx="928.199" cy="21.99" r="1.229"/>
			<circle fill="#515151" cx="940.558" cy="21.99" r="1.229"/>
			<circle fill="#515151" cx="952.917" cy="21.99" r="1.229"/>
			<circle fill="#515151" cx="965.276" cy="21.99" r="1.229"/>
			<circle fill="#515151" cx="977.609" cy="21.99" r="1.229"/>
			<circle fill="#515151" cx="989.968" cy="21.99" r="1.229"/>
			<circle fill="#515151" cx="1002.327" cy="21.99" r="1.229"/>
			<circle fill="#515151" cx="1014.687" cy="21.99" r="1.229"/>
			<circle fill="#515151" cx="1027.045" cy="21.99" r="1.229"/>
			<circle fill="#515151" cx="1039.403" cy="21.99" r="1.229"/>
			<circle fill="#515151" cx="1051.7" cy="21.99" r="1.229"/>
			<circle fill="#515151" cx="1064.059" cy="21.99" r="1.229"/>
			<circle fill="#515151" cx="1076.418" cy="21.99" r="1.229"/>
			<circle fill="#515151" cx="1088.777" cy="21.99" r="1.229"/>
			<circle fill="#515151" cx="1101.136" cy="21.99" r="1.229"/>
			<circle fill="#515151" cx="1113.313" cy="21.99" r="1.229"/>
			<circle fill="#515151" cx="1125.671" cy="21.99" r="1.229"/>
			<circle fill="#515151" cx="1138.03" cy="21.99" r="1.229"/>
			<circle fill="#515151" cx="1150.39" cy="21.99" r="1.229"/>
			<circle fill="#515151" cx="1162.749" cy="21.99" r="1.229"/>
			<circle fill="#515151" cx="1175.107" cy="21.99" r="1.229"/>
			<circle fill="#515151" cx="1187.467" cy="21.99" r="1.229"/>
			<circle fill="#515151" cx="1199.825" cy="21.99" r="1.229"/>
			<circle fill="#515151" cx="1212.185" cy="21.99" r="1.229"/>
			<circle fill="#515151" cx="1224.544" cy="21.99" r="1.229"/>
			<circle fill="#515151" cx="1236.902" cy="21.99" r="1.229"/>
			<circle fill="#515151" cx="1249.261" cy="21.99" r="1.229"/>
			<circle fill="#515151" cx="1261.62" cy="21.99" r="1.229"/>
			<circle fill="#515151" cx="1273.979" cy="21.99" r="1.229"/>
			<circle fill="#515151" cx="1286.338" cy="21.99" r="1.229"/>
			<circle fill="#515151" cx="1298.696" cy="21.99" r="1.229"/>
			<circle fill="#515151" cx="1311.056" cy="21.99" r="1.229"/>
			<circle fill="#515151" cx="1323.415" cy="21.99" r="1.229"/>
			<circle fill="#515151" cx="1335.773" cy="21.99" r="1.229"/>
			<circle fill="#515151" cx="1348.132" cy="21.99" r="1.229"/>
			<circle fill="#515151" cx="1360.491" cy="21.99" r="1.229"/>
			<circle fill="#515151" cx="1372.851" cy="21.99" r="1.229"/>
			<circle fill="#515151" cx="1385.209" cy="21.99" r="1.229"/>
			<circle fill="#515151" cx="1397.568" cy="21.99" r="1.229"/>
			<circle fill="#515151" cx="1409.927" cy="21.99" r="1.229"/>
			<circle fill="#515151" cx="1422.286" cy="21.99" r="1.229"/>
			<circle fill="#515151" cx="1434.646" cy="21.99" r="1.229"/>
			<circle fill="#515151" cx="1447.004" cy="21.99" r="1.229"/>
			<circle fill="#515151" cx="1459.3" cy="21.99" r="1.229"/>
			<circle fill="#515151" cx="1471.659" cy="21.99" r="1.229"/>
			<circle fill="#515151" cx="1484.018" cy="21.99" r="1.229"/>
			<circle fill="#515151" cx="1496.378" cy="21.99" r="1.229"/>
			<circle fill="#515151" cx="1508.736" cy="21.99" r="1.229"/>
			<circle fill="#515151" cx="1521.069" cy="21.99" r="1.229"/>
			<circle fill="#515151" cx="1533.428" cy="21.99" r="1.229"/>
			<circle fill="#515151" cx="1545.788" cy="21.99" r="1.229"/>
			<circle fill="#515151" cx="1558.146" cy="21.99" r="1.229"/>
			<circle fill="#515151" cx="1570.505" cy="21.99" r="1.229"/>
			<circle fill="#515151" cx="1582.864" cy="21.99" r="1.229"/>
			<circle fill="#515151" cx="1595.161" cy="21.99" r="1.229"/>
			<circle fill="#515151" cx="1607.519" cy="21.99" r="1.229"/>
			<circle fill="#515151" cx="1619.878" cy="21.99" r="1.229"/>
			<circle fill="#515151" cx="1632.237" cy="21.99" r="1.229"/>
			<circle fill="#515151" cx="1644.597" cy="21.99" r="1.229"/>
		</g>
		<rect x="871.976" y="15.272" fill="#303030" stroke="#515151" stroke-miterlimit="10" width="13.649" height="3.25"/>
		<rect x="896.675" y="15.272" fill="#303030" stroke="#515151" stroke-miterlimit="10" width="13.65" height="3.25"/>
		<rect x="970.775" y="15.272" fill="#303030" stroke="#515151" stroke-miterlimit="10" width="13.649" height="3.25"/>
		<rect x="970.775" y="15.272" fill="#303030" stroke="#515151" stroke-miterlimit="10" width="13.649" height="3.25"/>
		<rect x="1044.875" y="15.272" fill="#303030" stroke="#515151" stroke-miterlimit="10" width="13.65" height="3.25"/>
		<rect x="1069.575" y="15.272" fill="#303030" stroke="#515151" stroke-miterlimit="10" width="13.65" height="3.25"/>
		<rect x="995.476" y="15.272" fill="#303030" stroke="#515151" stroke-miterlimit="10" width="13.649" height="3.25"/>
		<rect x="1020.175" y="15.272" fill="#303030" stroke="#515151" stroke-miterlimit="10" width="13.65" height="3.25"/>
		<rect x="1094.275" y="15.272" fill="#303030" stroke="#515151" stroke-miterlimit="10" width="13.649" height="3.25"/>
		<rect x="1118.976" y="15.272" fill="#303030" stroke="#515151" stroke-miterlimit="10" width="13.649" height="3.25"/>
		<rect x="1143.676" y="15.272" fill="#303030" stroke="#515151" stroke-miterlimit="10" width="13.649" height="3.25"/>
		<rect x="1168.376" y="15.272" fill="#303030" stroke="#515151" stroke-miterlimit="10" width="13.65" height="3.25"/>
		<rect x="1193.075" y="15.272" fill="#303030" stroke="#515151" stroke-miterlimit="10" width="13.65" height="3.25"/>
		<rect x="1217.776" y="15.272" fill="#303030" stroke="#515151" stroke-miterlimit="10" width="13.649" height="3.25"/>
		<rect x="1242.476" y="15.272" fill="#303030" stroke="#515151" stroke-miterlimit="10" width="13.65" height="3.25"/>
		<rect x="1267.176" y="15.272" fill="#303030" stroke="#515151" stroke-miterlimit="10" width="13.649" height="3.25"/>
		<rect x="1291.876" y="15.272" fill="#303030" stroke="#515151" stroke-miterlimit="10" width="13.65" height="3.25"/>
		<rect x="1316.575" y="15.272" fill="#303030" stroke="#515151" stroke-miterlimit="10" width="13.65" height="3.25"/>
		<rect x="1341.276" y="15.272" fill="#303030" stroke="#515151" stroke-miterlimit="10" width="13.649" height="3.25"/>
		<rect x="1365.976" y="15.272" fill="#303030" stroke="#515151" stroke-miterlimit="10" width="13.65" height="3.25"/>
		<rect x="1390.676" y="15.272" fill="#303030" stroke="#515151" stroke-miterlimit="10" width="13.649" height="3.25"/>
		<rect x="1415.376" y="15.272" fill="#303030" stroke="#515151" stroke-miterlimit="10" width="13.65" height="3.25"/>
		<rect x="1440.075" y="15.272" fill="#303030" stroke="#515151" stroke-miterlimit="10" width="13.65" height="3.25"/>
		<rect x="1440.075" y="15.272" fill="#303030" stroke="#515151" stroke-miterlimit="10" width="13.65" height="3.25"/>
		<rect x="1514.176" y="15.272" fill="#303030" stroke="#515151" stroke-miterlimit="10" width="13.649" height="3.25"/>
		<rect x="1538.876" y="15.272" fill="#303030" stroke="#515151" stroke-miterlimit="10" width="13.65" height="3.25"/>
		<rect x="1464.776" y="15.272" fill="#303030" stroke="#515151" stroke-miterlimit="10" width="13.649" height="3.25"/>
		<rect x="1489.476" y="15.272" fill="#303030" stroke="#515151" stroke-miterlimit="10" width="13.65" height="3.25"/>
		<rect x="1563.575" y="15.272" fill="#303030" stroke="#515151" stroke-miterlimit="10" width="13.65" height="3.25"/>
		<rect x="1563.575" y="15.272" fill="#303030" stroke="#515151" stroke-miterlimit="10" width="13.65" height="3.25"/>
		<rect x="1637.676" y="15.272" fill="#303030" stroke="#515151" stroke-miterlimit="10" width="13.649" height="3.25"/>
		<rect x="1662.376" y="15.272" fill="#303030" stroke="#515151" stroke-miterlimit="10" width="13.65" height="3.25"/>
		<rect x="1588.276" y="15.272" fill="#303030" stroke="#515151" stroke-miterlimit="10" width="13.649" height="3.25"/>
		<rect x="1612.976" y="15.272" fill="#303030" stroke="#515151" stroke-miterlimit="10" width="13.65" height="3.25"/>
		<rect x="1687.075" y="15.272" fill="#303030" stroke="#515151" stroke-miterlimit="10" width="13.65" height="3.25"/>
		<rect x="1711.776" y="15.272" fill="#303030" stroke="#515151" stroke-miterlimit="10" width="13.649" height="3.25"/>
	</g>
</g>
</svg>
