<?xml version="1.0" encoding="utf-8"?>
<!-- Generator: Adobe Illustrator 16.0.0, SVG Export Plug-In . SVG Version: 6.00 Build 0)  -->
<!DOCTYPE svg PUBLIC "-//W3C//DTD SVG 1.1//EN" "http://www.w3.org/Graphics/SVG/1.1/DTD/svg11.dtd">
<svg version="1.1" xmlns="http://www.w3.org/2000/svg" xmlns:xlink="http://www.w3.org/1999/xlink" x="0px" y="0px" width="310px"
	 height="306px" viewBox="0 0 310 306" enable-background="new 0 0 310 306" xml:space="preserve">
<g id="Layer_2">
	<path fill="#FFFFFF" d="M1.5,166l1.25,10l116.125,126l178.062-11l3.031-2c0,0-3.484,3,1.516,2s2.516,3,2.516-5s0-4,0-4l2-1V100
		L161.75,2l-9.875,1l1.062,156L1.5,166z"/>
</g>
<g id="Layer_1">
	<g id="XMLID_1_">
		<g>
			<path fill="#FFFFFF" d="M94.09,214.03l30.31,33.12l-26,3.47l-44.2-47.67l27.46-1.69c0.03,3.391,0.06,5.59,0.06,5.59
				s4.33,9.53,8.23,10.83c3.9,1.301,4.77-0.43,4.77-0.43C94.64,216.16,94.41,215.08,94.09,214.03z"/>
			<polygon fill="#EF6A2E" points="288.64,104.5 288.64,265.21 159.94,155.24 159.94,17.41 210.13,51.05 211.57,61.42 231.03,74.68 
				236.15,68.79 			"/>
			<path fill="#303030" d="M121.59,81.62c1.3,3.46,13.43,31.2,6.5,39c0,0-6.07,0-14.3-9.97c0,0-1.73,30.77-1.3,45.93
				c0,0,0.02,1.55,0.05,4.08l-13.85,0.67l-17.29,0.82c0.13-2.33,0.32-4.271,0.32-4.271s-3.03,1.74-5.63,0.87
				c-2.6-0.87,2.6-6.93,3.03-9.53c0.43-2.6-10.4-12.14-9.97-23.4c0.44-11.27,13.44-27.3,17.34-29.9c0,0,3.9-2.17,6.93-2.6
				c3.03-0.44,3.03-4.77,3.03-4.77s-9.96-4.77-11.7-15.6c-1.73-10.83-3.03-23.4,10.4-25.13c13.44-1.74,17.34,9.53,18.2,15.16
				c0,0,1.64,12.23-1.04,17.71c0.93-0.07,1.77-0.14,2.34-0.37C116.82,79.45,120.29,78.15,121.59,81.62z M123.75,111.08
				c0,0-3.03-18.63-3.9-21.66c-0.86-3.04-2.6-4.34-5.2-3.9c-1.99,0.33-5.27,1.94-6.88,0.7c-1.73,1.5-2.55,2.76-4.82,2.76
				c0,0-1.3,3.9-0.43,3.9c2.74,0,7.37,0.87,11.27,6.07C117.69,104.15,123.75,111.08,123.75,111.08z M82.59,140.12
				c0,0,2.16-14.74,0.43-22.97c0,0-6.07,6.5-6.5,9.1S77.82,134.05,82.59,140.12z"/>
			<path fill="#303030" d="M121.15,205.12c0,0,0,0-0.01,0l-5.19-5.55C118.15,200.69,120.68,202.52,121.15,205.12z"/>
			<path fill="#303030" d="M115.95,199.57l5.19,5.55c-0.42,0.04-11.53,1.11-16.62-2.49l-0.69-0.74c0.03-0.71,0.16-3.33,0.32-6.84
				l7.14-0.479l1.28,1.37c-0.03,0.84-0.05,1.59-0.08,2.239C112.49,198.18,114.1,198.63,115.95,199.57z"/>
			<path fill="#303030" d="M112.68,182.32c0,4.52-0.02,8.84-0.08,12.16l-1.31,0.09l-6.84-7.33c0.08-2.11,0.15-4.271,0.2-6.36
				l6.23-0.41L112.68,182.32z"/>
			<path fill="#303030" d="M112.67,180.35c0.01,0.66,0.01,1.32,0.01,1.971l-1.8-1.851L112.67,180.35z"/>
			<path fill="#303030" d="M112.67,180.35l-1.79,0.12l-6.11-6.29c0.02-2.239,0-4.149-0.08-5.46c0,0,0-0.31-0.05-0.8l7.96-0.43
				C112.64,171.38,112.67,175.91,112.67,180.35z"/>
			<path fill="#303030" d="M111.29,194.57l1.31-0.09c-0.01,0.51-0.02,1-0.03,1.46L111.29,194.57z"/>
			<path fill="#303030" d="M104.45,187.24l6.84,7.33l-7.14,0.479C104.24,192.74,104.35,190.03,104.45,187.24z"/>
			<path fill="#303030" d="M104.77,174.18l6.11,6.29l-6.23,0.41C104.72,178.5,104.76,176.2,104.77,174.18z"/>
			<path fill="#303030" d="M103.83,201.89l0.69,0.74c-0.25-0.17-0.48-0.35-0.7-0.55C103.82,202.08,103.82,202.01,103.83,201.89z"/>
			<path fill="#303030" d="M99.92,162.22c0,0-0.48-0.06-1.19-0.029l-0.04-0.86l13.85-0.67c0.02,1.83,0.04,4.189,0.06,6.83
				l-7.96,0.43C104.46,166.19,103.65,162.22,99.92,162.22z"/>
			<path fill="#303030" d="M98.69,161.33l0.04,0.86c-1.93,0.069-5.54,0.81-6.18,5.229c0,0-0.04,0.41-0.1,1.15l-5.1,0.27l-6.04,0.33
				c-0.01-1.74-0.02-2.979-0.02-3.49c0-1.14,0.05-2.39,0.11-3.529L98.69,161.33z"/>
			<path fill="#303030" d="M94.09,214.03c0.32,1.05,0.55,2.13,0.63,3.22c0,0-0.87,1.73-4.77,0.43c-3.9-1.3-8.23-10.83-8.23-10.83
				s-0.03-2.199-0.06-5.59l0.71-0.04L94.09,214.03z"/>
			<path fill="#303030" d="M87.35,168.84l5.1-0.27c-0.1,1.12-0.27,2.989-0.47,5.319l-4.63-4.96V168.84z"/>
			<path fill="#303030" d="M87.35,168.93l4.63,4.96c-0.19,2.28-0.42,4.99-0.66,7.87l-5.93,0.391l-3.99-4.271
				c-0.03-3.42-0.06-6.479-0.09-8.71l6.04-0.33V168.93z"/>
			<path fill="#303030" d="M85.39,182.15l5.93-0.391c-0.16,2.021-0.32,4.13-0.48,6.221L85.39,182.15z"/>
			<path fill="#303030" d="M85.39,182.15l5.45,5.83c-0.21,2.77-0.4,5.51-0.55,8.01l-5.8,0.39l-2.93-3.21
				c-0.03-3.439-0.07-7.18-0.12-10.76L85.39,182.15z"/>
			<path fill="#303030" d="M84.49,196.38l5.8-0.39c-0.16,2.43-0.28,4.63-0.33,6.39L84.49,196.38z"/>
			<path fill="#303030" d="M94.09,214.03L82.37,201.22l-0.71,0.04c-0.03-2.27-0.06-5.069-0.1-8.09l2.93,3.21l5.47,6
				c-0.06,1.63-0.07,2.88-0.01,3.601C89.95,205.98,92.78,209.65,94.09,214.03z"/>
			<path fill="#303030" d="M81.4,177.88l3.99,4.271l-3.95,0.26C81.43,180.86,81.42,179.34,81.4,177.88z"/>
		</g>
		<g>
			<polyline fill="none" stroke="#EF6A2E" stroke-width="3" stroke-linejoin="bevel" stroke-miterlimit="10" points="297.41,281.71 
				297.41,282.03 254.84,245.6 153.32,158.71 153.11,158.53 153.11,1.88 297.41,99.38 			"/>
			<polyline fill="none" stroke="#EF6A2E" stroke-width="3" stroke-linejoin="bevel" stroke-miterlimit="10" points="81.4,162.15 
				2.64,165.93 120.92,295.34 120.94,295.36 297.41,282.38 297.74,282.36 254.84,245.6 153.44,158.7 153.32,158.71 112.54,160.66 
							"/>
			<polyline fill="none" stroke="#EF6A2E" stroke-width="3" stroke-linejoin="bevel" stroke-miterlimit="10" points="120.61,303.81 
				297.41,290.81 297.41,287.74 297.41,285.43 297.41,282.38 297.41,282.36 120.92,295.34 120.61,295.36 			"/>
			<polygon fill="none" stroke="#EF6A2E" stroke-width="3" stroke-linejoin="bevel" stroke-miterlimit="10" points="120.61,303.81 
				2.31,174.54 2.31,165.68 120.61,295.03 120.61,295.36 			"/>
			<polygon fill="none" stroke="#EF6A2E" stroke-width="3" stroke-miterlimit="10" points="307.36,98.76 307.81,98.73 307.81,99.06 
				307.81,281.71 297.41,281.71 297.41,99.38 302.53,99.06 			"/>
			<polygon fill="none" stroke="#EF6A2E" stroke-width="3" stroke-linejoin="bevel" stroke-miterlimit="10" points="302.53,99.06 
				297.09,99.06 153.44,1.56 163.51,1.56 307.36,98.76 307.81,99.06 			"/>
			<path fill="none" stroke="#EF6A2E" stroke-width="3" stroke-miterlimit="10" d="M297.41,285.43c0.5-1.859,2.2-3.229,4.229-3.229
				c2.42,0,4.391,1.96,4.391,4.38c0,2.43-1.971,4.39-4.391,4.39c-2.029,0-3.729-1.37-4.229-3.229c-0.11-0.37-0.16-0.76-0.16-1.16
				S297.3,285.79,297.41,285.43z"/>
			<polygon fill="none" stroke="#EF6A2E" stroke-miterlimit="10" points="222.66,63.98 216.81,59.53 216.16,54.84 222.66,59.38 			
				"/>
			<path fill="none" stroke="#EF6A2E" stroke-miterlimit="10" d="M226.85,66.26c1.19,0.9,2.561,0.74,3.07-0.35
				c0.51-1.09-0.04-2.7-1.22-3.6c-1.19-0.9-2.57-0.75-3.08,0.35C225.12,63.75,225.66,65.36,226.85,66.26z"/>
			<line fill="none" stroke="#EF6A2E" stroke-miterlimit="10" x1="204.42" y1="233.59" x2="216.58" y2="232.25"/>
			<line fill="none" stroke="#EF6A2E" stroke-miterlimit="10" x1="189.1" y1="219.31" x2="200.76" y2="218.25"/>
			<line fill="none" stroke="#EF6A2E" stroke-miterlimit="10" x1="222.01" y1="249.98" x2="204.42" y2="233.59"/>
			<line fill="none" stroke="#EF6A2E" stroke-miterlimit="10" x1="112.92" y1="211.18" x2="125.54" y2="209.84"/>
			<line fill="none" stroke="#EF6A2E" stroke-miterlimit="10" x1="125.92" y1="225.05" x2="138.66" y2="223.89"/>
			<line fill="none" stroke="#EF6A2E" stroke-miterlimit="10" x1="153" y1="239.24" x2="140.22" y2="240.65"/>
			<line fill="none" stroke="#EF6A2E" stroke-miterlimit="10" x1="181.83" y1="253.5" x2="166.53" y2="237.76"/>
			<line fill="none" stroke="#EF6A2E" stroke-miterlimit="10" x1="153" y1="239.24" x2="167.48" y2="254.76"/>
			<line fill="none" stroke="#EF6A2E" stroke-miterlimit="10" x1="137.77" y1="192.78" x2="124.91" y2="179.55"/>
			<line fill="none" stroke="#EF6A2E" stroke-miterlimit="10" x1="173.47" y1="204.74" x2="184.22" y2="203.6"/>
			<line fill="none" stroke="#EF6A2E" stroke-miterlimit="10" x1="123.75" y1="193.73" x2="112.68" y2="182.32"/>
			<line fill="none" stroke="#EF6A2E" stroke-miterlimit="10" x1="159.09" y1="191.34" x2="169.57" y2="190.63"/>
			<line fill="none" stroke="#EF6A2E" stroke-miterlimit="10" x1="134.72" y1="178.91" x2="148.24" y2="192.07"/>
			<line fill="none" stroke="#EF6A2E" stroke-miterlimit="10" x1="159.09" y1="191.34" x2="145.02" y2="178.23"/>
			<line fill="none" stroke="#EF6A2E" stroke-miterlimit="10" x1="121.14" y1="205.12" x2="125.54" y2="209.84"/>
			<line fill="none" stroke="#EF6A2E" stroke-miterlimit="10" x1="112.57" y1="195.94" x2="115.95" y2="199.57"/>
			<line fill="none" stroke="#EF6A2E" stroke-miterlimit="10" x1="123.75" y1="193.73" x2="112.6" y2="194.48"/>
			<line fill="none" stroke="#EF6A2E" stroke-miterlimit="10" x1="165.61" y1="221.44" x2="151.89" y2="222.69"/>
			<line fill="none" stroke="#EF6A2E" stroke-miterlimit="10" x1="166.53" y1="237.76" x2="180.02" y2="236.27"/>
			<polyline fill="none" stroke="#EF6A2E" stroke-miterlimit="10" points="138.66,223.89 153,239.24 166.53,237.76 151.89,222.69 
							"/>
			<line fill="none" stroke="#EF6A2E" stroke-miterlimit="10" x1="97.84" y1="195.48" x2="104.15" y2="195.05"/>
			<line fill="none" stroke="#EF6A2E" stroke-miterlimit="10" x1="104.45" y1="187.24" x2="98.87" y2="181.26"/>
			<line fill="none" stroke="#EF6A2E" stroke-miterlimit="10" x1="151.64" y1="207.06" x2="165.61" y2="221.44"/>
			<polyline fill="none" stroke="#EF6A2E" stroke-miterlimit="10" points="266.46,276.4 279.13,275.34 263.37,261.92 			"/>
			<polygon fill="none" stroke="#EF6A2E" stroke-miterlimit="10" points="138.11,208.5 125.54,209.84 138.66,223.89 151.89,222.69 
							"/>
			<line fill="none" stroke="#EF6A2E" stroke-miterlimit="10" x1="151.64" y1="207.06" x2="162.45" y2="205.91"/>
			<line fill="none" stroke="#EF6A2E" stroke-miterlimit="10" x1="148.24" y1="192.07" x2="137.77" y2="192.78"/>
			<polyline fill="none" stroke="#EF6A2E" stroke-miterlimit="10" points="173.47,204.74 159.09,191.34 148.24,192.07 
				162.45,205.91 			"/>
			<polygon fill="none" stroke="#EF6A2E" stroke-miterlimit="10" points="151.64,207.06 137.77,192.78 123.75,193.73 138.11,208.5 
							"/>
			<polyline fill="none" stroke="#EF6A2E" stroke-miterlimit="10" points="189.1,219.31 173.47,204.74 162.45,205.91 177.3,220.38 
							"/>
			<polyline fill="none" stroke="#EF6A2E" stroke-miterlimit="10" points="192.24,234.93 204.42,233.59 189.1,219.31 177.3,220.38 
							"/>
			<polyline fill="none" stroke="#EF6A2E" stroke-miterlimit="10" points="192.24,234.93 177.3,220.38 165.61,221.44 180.02,236.27 
							"/>
			<polyline fill="none" stroke="#EF6A2E" stroke-miterlimit="10" points="208.88,251.13 192.24,234.93 180.02,236.27 195.58,252.3 
							"/>
			<line fill="none" stroke="#EF6A2E" stroke-miterlimit="10" x1="112.67" y1="180.35" x2="124.91" y2="179.55"/>
			<line fill="none" stroke="#EF6A2E" stroke-miterlimit="10" x1="104.64" y1="167.92" x2="98.98" y2="168.22"/>
			<line fill="none" stroke="#EF6A2E" stroke-miterlimit="10" x1="113.17" y1="167.46" x2="112.6" y2="167.49"/>
			<line fill="none" stroke="#EF6A2E" stroke-miterlimit="10" x1="91.32" y1="181.76" x2="98.87" y2="181.26"/>
			<line fill="none" stroke="#EF6A2E" stroke-miterlimit="10" x1="81.31" y1="169.17" x2="73.65" y2="169.58"/>
			<polyline fill="none" stroke="#EF6A2E" stroke-miterlimit="10" points="104.77,174.18 98.98,168.22 92.45,168.57 			"/>
			<line fill="none" stroke="#EF6A2E" stroke-miterlimit="10" x1="98.87" y1="181.26" x2="104.65" y2="180.88"/>
			<line fill="none" stroke="#EF6A2E" stroke-miterlimit="10" x1="91.98" y1="173.89" x2="98.87" y2="181.26"/>
			<line fill="none" stroke="#EF6A2E" stroke-miterlimit="10" x1="145.02" y1="178.23" x2="154.83" y2="177.58"/>
			<line fill="none" stroke="#EF6A2E" stroke-miterlimit="10" x1="141.68" y1="165.94" x2="132.37" y2="166.44"/>
			<polyline fill="none" stroke="#EF6A2E" stroke-miterlimit="10" points="81.4,177.88 73.65,169.58 60.68,170.27 72.3,183.01 			
				"/>
			<polyline fill="none" stroke="#EF6A2E" stroke-miterlimit="10" points="134.72,178.91 145.02,178.23 132.37,166.44 
				122.46,166.97 			"/>
			<polygon fill="none" stroke="#EF6A2E" stroke-miterlimit="10" points="134.72,178.91 122.46,166.97 113.17,167.46 124.91,179.55 
							"/>
			<polyline fill="none" stroke="#EF6A2E" stroke-miterlimit="10" points="153.65,272.24 165.16,284.86 179.69,283.65 185,283.21 
				193.38,282.51 			"/>
			<line fill="none" stroke="#EF6A2E" stroke-miterlimit="10" x1="179.65" y1="283.12" x2="168.22" y2="270.87"/>
			<line fill="none" stroke="#EF6A2E" stroke-miterlimit="10" x1="222.56" y1="280.07" x2="237.33" y2="278.84"/>
			<polyline fill="none" stroke="#EF6A2E" stroke-miterlimit="10" points="251.69,277.64 266.46,276.4 251.37,263.04 			"/>
			<polyline fill="none" stroke="#EF6A2E" stroke-miterlimit="10" points="223.78,265.64 237.33,278.84 251.69,277.64 
				237.44,264.36 			"/>
			<polyline fill="none" stroke="#EF6A2E" stroke-miterlimit="10" points="208.75,281.22 222.56,280.07 209.83,266.96 			"/>
			<polyline fill="none" stroke="#EF6A2E" stroke-miterlimit="10" points="181.37,269.63 193.38,282.51 208.75,281.22 
				196.14,268.24 			"/>
			<line fill="none" stroke="#EF6A2E" stroke-miterlimit="10" x1="200.76" y1="218.25" x2="216.58" y2="232.25"/>
			<polyline fill="none" stroke="#EF6A2E" stroke-miterlimit="10" points="246.8,247.8 227.03,230.96 211.01,217.31 			"/>
			<polyline fill="none" stroke="#EF6A2E" stroke-miterlimit="10" points="226.89,231.12 216.58,232.25 235.29,248.81 			"/>
			<line fill="none" stroke="#EF6A2E" stroke-miterlimit="10" x1="208.88" y1="251.13" x2="195.58" y2="252.3"/>
			<line fill="none" stroke="#EF6A2E" stroke-miterlimit="10" x1="209.83" y1="266.96" x2="223.78" y2="265.64"/>
			<line fill="none" stroke="#EF6A2E" stroke-miterlimit="10" x1="235.29" y1="248.81" x2="222.01" y2="249.98"/>
			<line fill="none" stroke="#EF6A2E" stroke-miterlimit="10" x1="237.44" y1="264.36" x2="251.37" y2="263.04"/>
			<polygon fill="none" stroke="#EF6A2E" stroke-miterlimit="10" points="208.88,251.13 223.78,265.64 237.44,264.36 222.01,249.98 
							"/>
			<polyline fill="none" stroke="#EF6A2E" stroke-miterlimit="10" points="196.14,268.24 209.83,266.96 195.58,252.3 181.83,253.5 
							"/>
			<polyline fill="none" stroke="#EF6A2E" stroke-miterlimit="10" points="163.68,177 150.17,165.49 141.68,165.94 154.83,177.58 
							"/>
			<line fill="none" stroke="#EF6A2E" stroke-miterlimit="10" x1="167.48" y1="254.76" x2="154.27" y2="255.92"/>
			<line fill="none" stroke="#EF6A2E" stroke-miterlimit="10" x1="168.22" y1="270.87" x2="181.37" y2="269.63"/>
			<polygon fill="none" stroke="#EF6A2E" stroke-miterlimit="10" points="167.48,254.76 181.37,269.63 196.14,268.24 181.83,253.5 
							"/>
			<polyline fill="none" stroke="#EF6A2E" stroke-miterlimit="10" points="89.96,202.38 140.22,257.51 153.65,272.24 168.22,270.87 
				154.27,255.92 140.65,257.12 			"/>
			<line fill="none" stroke="#EF6A2E" stroke-miterlimit="10" x1="103.83" y1="201.89" x2="97.84" y2="195.48"/>
			<polyline fill="none" stroke="#EF6A2E" stroke-miterlimit="10" points="154.27,255.92 140.11,240.75 125.67,225.29 
				112.69,211.39 104.52,202.63 			"/>
			<line fill="none" stroke="#EF6A2E" stroke-miterlimit="10" x1="169.57" y1="190.63" x2="184.22" y2="203.6"/>
			<line fill="none" stroke="#EF6A2E" stroke-miterlimit="10" x1="193.72" y1="202.59" x2="178.94" y2="190"/>
			<polygon fill="none" stroke="#EF6A2E" stroke-miterlimit="10" points="169.57,190.63 178.94,190 163.68,177 154.83,177.58 			"/>
			<polygon fill="none" stroke="#EF6A2E" stroke-miterlimit="10" points="200.76,218.25 211.01,217.31 193.72,202.59 184.22,203.6 
							"/>
			<polyline fill="none" stroke="#EF6A2E" stroke-miterlimit="10" points="90.29,195.99 97.84,195.48 90.84,187.98 			"/>
			<polyline fill="none" stroke="#EF6A2E" stroke-miterlimit="10" points="81.44,182.41 72.3,183.01 81.56,193.17 			"/>
			<polygon fill="none" stroke="#EF6A2E" stroke-miterlimit="10" points="251.37,263.04 263.37,261.92 246.8,247.8 235.29,248.81 
							"/>
			<polyline fill="none" stroke="#EF6A2E" stroke-miterlimit="10" points="81.66,201.26 54.2,202.95 98.4,250.62 124.4,247.15 
				94.09,214.03 			"/>
			<polyline fill="none" stroke="#EF6A2E" stroke-miterlimit="10" points="103.86,66.02 106.96,73.88 103.39,74.84 			"/>
		</g>
	</g>
	<polygon fill="none" stroke="#EF6A2E" stroke-width="3" stroke-miterlimit="10" points="3225.209,569.699 3080.908,446.199 
		3080.908,289.549 3225.209,387.049 	"/>
	<polygon fill="none" stroke="#EF6A2E" stroke-width="3" stroke-miterlimit="10" points="3225.533,570.023 3081.233,446.361 
		2930.434,453.592 3048.733,583.023 	"/>
	<polygon fill="none" stroke="#EF6A2E" stroke-width="3" stroke-miterlimit="10" points="3048.408,583.023 3048.408,591.475 
		3225.209,578.475 3225.209,570.023 	"/>
	<polygon fill="none" stroke="#EF6A2E" stroke-width="3" stroke-miterlimit="10" points="3048.408,582.699 3048.408,591.475 
		2930.108,462.205 2930.108,453.35 	"/>
	<g>
		<polygon fill="#EF6A2E" points="3163.945,356.458 3158.826,362.348 3139.367,349.084 3137.926,338.713 3087.733,305.074 
			3087.733,442.908 3216.434,552.873 3216.434,392.162 		"/>
	</g>
	<polygon fill="none" stroke="#EF6A2E" stroke-width="3" stroke-miterlimit="10" points="3235.608,386.398 3235.608,569.373 
		3225.209,569.373 3225.209,387.049 	"/>
	<polygon fill="none" stroke="#EF6A2E" stroke-width="3" stroke-miterlimit="10" points="3081.233,289.225 3091.309,289.225 
		3235.608,386.725 3224.883,386.725 	"/>
	<circle fill="none" stroke="#EF6A2E" stroke-width="3" stroke-miterlimit="10" cx="3229.433" cy="574.248" r="4.387"/>
	<polygon fill="none" stroke="#EF6A2E" stroke-miterlimit="10" points="3150.459,351.645 3144.608,347.195 3143.959,342.504 
		3150.459,347.043 	"/>
	<path fill="none" stroke="#EF6A2E" stroke-miterlimit="10" d="M3154.645,353.926c1.188,0.898,2.562,0.743,3.072-0.348
		c0.51-1.092-0.04-2.705-1.227-3.604c-1.186-0.898-2.561-0.744-3.07,0.348S3153.46,353.026,3154.645,353.926z"/>
	<g>
		<polygon fill="none" stroke="#EF6A2E" stroke-miterlimit="10" points="3149.804,537.643 3163.086,536.479 3144.378,519.916 
			3132.217,521.254 		"/>
		<polygon fill="none" stroke="#EF6A2E" stroke-miterlimit="10" points="3132.217,521.254 3144.378,519.916 3128.559,505.912 
			3116.892,506.973 		"/>
		<polygon fill="none" stroke="#EF6A2E" stroke-miterlimit="10" points="3116.892,506.973 3128.559,505.912 3112.014,491.266 
			3101.264,492.408 		"/>
		<polygon fill="none" stroke="#EF6A2E" stroke-miterlimit="10" points="3120.037,522.594 3136.674,538.797 3149.804,537.643 
			3132.217,521.254 		"/>
		<polygon fill="none" stroke="#EF6A2E" stroke-miterlimit="10" points="3094.322,525.422 3109.621,541.17 3123.38,539.963 
			3107.812,523.939 		"/>
		<polygon fill="none" stroke="#EF6A2E" stroke-miterlimit="10" points="3068.016,528.316 3080.791,526.91 3066.457,511.557 
			3053.716,512.717 3066.457,511.557 3053.34,497.506 3040.716,498.85 3053.34,497.506 3039.083,482.234 3025.631,483.145 
			3082.061,543.588 3095.278,542.428 3080.791,526.91 		"/>
		<polygon fill="none" stroke="#EF6A2E" stroke-miterlimit="10" points="3080.791,526.91 3095.278,542.428 3109.621,541.17 
			3094.322,525.422 		"/>
		<polygon fill="none" stroke="#EF6A2E" stroke-miterlimit="10" points="3076.031,479.738 3062.511,466.572 3052.709,467.217 
			3065.561,480.447 		"/>
		<polygon fill="none" stroke="#EF6A2E" stroke-miterlimit="10" points="3065.561,480.447 3052.709,467.217 3038.674,468.139 
			3051.549,481.393 		"/>
		<polygon fill="none" stroke="#EF6A2E" stroke-miterlimit="10" points="3101.264,492.408 3112.014,491.266 3097.365,478.297 
			3086.881,479.006 		"/>
		<polygon fill="none" stroke="#EF6A2E" stroke-miterlimit="10" points="3051.549,481.393 3038.674,468.139 3026.66,468.93 
			3039.083,482.234 		"/>
		<polygon fill="none" stroke="#EF6A2E" stroke-miterlimit="10" points="3097.365,478.297 3082.627,465.25 3072.812,465.896 
			3086.881,479.006 		"/>
		<polygon fill="none" stroke="#EF6A2E" stroke-miterlimit="10" points="3086.881,479.006 3072.812,465.896 3062.511,466.572 
			3076.031,479.738 		"/>
		<polygon fill="none" stroke="#EF6A2E" stroke-miterlimit="10" points="3093.405,509.107 3079.438,494.73 3065.904,496.17 
			3079.686,510.355 		"/>
		<polygon fill="none" stroke="#EF6A2E" stroke-miterlimit="10" points="3065.904,496.17 3051.549,481.393 3039.083,482.234 
			3053.34,497.506 		"/>
		<polygon fill="none" stroke="#EF6A2E" stroke-miterlimit="10" points="3079.686,510.355 3094.322,525.422 3107.812,523.939 
			3093.405,509.107 		"/>
		<polygon fill="none" stroke="#EF6A2E" stroke-miterlimit="10" points="3066.457,511.557 3080.791,526.91 3094.322,525.422 
			3079.686,510.355 		"/>
		<polygon fill="none" stroke="#EF6A2E" stroke-miterlimit="10" points="3039.083,482.234 3026.66,468.93 3013.188,469.814 
			3025.631,483.145 		"/>
		<polygon fill="none" stroke="#EF6A2E" stroke-miterlimit="10" points="3105.098,508.045 3090.244,493.58 3079.438,494.73 
			3093.405,509.107 		"/>
		<polygon fill="none" stroke="#EF6A2E" stroke-miterlimit="10" points="3194.252,564.068 3206.929,563.01 3191.164,549.582 
			3179.164,550.711 		"/>
		<polygon fill="none" stroke="#EF6A2E" stroke-miterlimit="10" points="3065.904,496.17 3053.34,497.506 3066.457,511.557 
			3079.686,510.355 		"/>
		<polygon fill="none" stroke="#EF6A2E" stroke-miterlimit="10" points="3090.244,493.58 3076.031,479.738 3065.561,480.447 
			3079.438,494.73 		"/>
		<polygon fill="none" stroke="#EF6A2E" stroke-miterlimit="10" points="3101.264,492.408 3086.881,479.006 3076.031,479.738 
			3090.244,493.58 		"/>
		<polygon fill="none" stroke="#EF6A2E" stroke-miterlimit="10" points="3079.438,494.73 3065.561,480.447 3051.549,481.393 
			3065.904,496.17 		"/>
		<polygon fill="none" stroke="#EF6A2E" stroke-miterlimit="10" points="3105.098,508.045 3116.892,506.973 3101.264,492.408 
			3090.244,493.58 		"/>
		<polygon fill="none" stroke="#EF6A2E" stroke-miterlimit="10" points="3120.037,522.594 3132.217,521.254 3116.892,506.973 
			3105.098,508.045 		"/>
		<polygon fill="none" stroke="#EF6A2E" stroke-miterlimit="10" points="3093.405,509.107 3107.812,523.939 3120.037,522.594 
			3105.098,508.045 		"/>
		<polygon fill="none" stroke="#EF6A2E" stroke-miterlimit="10" points="3107.812,523.939 3123.38,539.963 3136.674,538.797 
			3120.037,522.594 		"/>
		<polygon fill="none" stroke="#EF6A2E" stroke-miterlimit="10" points="3052.709,467.217 3040.968,455.131 3026.773,455.889 
			3038.674,468.139 		"/>
		<polygon fill="none" stroke="#EF6A2E" stroke-miterlimit="10" points="3026.66,468.93 3015.149,456.6 3026.66,468.93 
			3038.674,468.139 3026.773,455.889 3001.449,457.242 3013.188,469.814 		"/>
		<polygon fill="none" stroke="#EF6A2E" stroke-miterlimit="10" points="3082.627,465.25 3069.477,453.609 3060.162,454.105 
			3072.812,465.896 		"/>
		<polygon fill="none" stroke="#EF6A2E" stroke-miterlimit="10" points="3013.188,469.814 3001.449,457.242 2988.475,457.934 
			3000.091,470.676 		"/>
		<polygon fill="none" stroke="#EF6A2E" stroke-miterlimit="10" points="3072.812,465.896 3060.162,454.105 3050.253,454.635 
			3062.511,466.572 		"/>
		<polygon fill="none" stroke="#EF6A2E" stroke-miterlimit="10" points="3062.511,466.572 3050.253,454.635 3040.968,455.131 
			3052.709,467.217 		"/>
		<path fill="none" stroke="#EF6A2E" stroke-miterlimit="10" d="M3026.199,538.283L2982,490.615l28.166-1.732l42.033,45.934
			L3026.199,538.283z"/>
		<polygon fill="none" stroke="#EF6A2E" stroke-miterlimit="10" points="3096.018,558.537 3107.449,570.783 3096.018,558.537 
			3081.449,559.908 3092.955,572.531 3112.793,570.873 3121.18,570.172 3109.162,557.301 		"/>
		<polygon fill="none" stroke="#EF6A2E" stroke-miterlimit="10" points="3137.621,554.621 3150.36,567.736 3165.125,566.502 
			3151.577,553.309 		"/>
		<polygon fill="none" stroke="#EF6A2E" stroke-miterlimit="10" points="3179.164,550.711 3165.234,552.023 3179.484,565.303 
			3194.252,564.068 		"/>
		<polygon fill="none" stroke="#EF6A2E" stroke-miterlimit="10" points="3151.577,553.309 3165.125,566.502 3179.484,565.303 
			3165.234,552.023 		"/>
		<polygon fill="none" stroke="#EF6A2E" stroke-miterlimit="10" points="3123.939,555.91 3136.55,568.889 3150.36,567.736 
			3137.621,554.621 		"/>
		<polygon fill="none" stroke="#EF6A2E" stroke-miterlimit="10" points="3109.162,557.301 3121.18,570.172 3136.55,568.889 
			3123.939,555.91 		"/>
		<polygon fill="none" stroke="#EF6A2E" stroke-miterlimit="10" points="3144.378,519.916 3154.684,518.783 3144.378,519.916 
			3163.086,536.479 3174.594,535.469 3138.803,504.98 3128.559,505.912 		"/>
		<polygon fill="none" stroke="#EF6A2E" stroke-miterlimit="10" points="3123.38,539.963 3137.621,554.621 3151.577,553.309 
			3136.674,538.797 		"/>
		<polygon fill="none" stroke="#EF6A2E" stroke-miterlimit="10" points="3149.804,537.643 3165.234,552.023 3179.164,550.711 
			3163.086,536.479 		"/>
		<polygon fill="none" stroke="#EF6A2E" stroke-miterlimit="10" points="3136.674,538.797 3151.577,553.309 3165.234,552.023 
			3149.804,537.643 		"/>
		<polygon fill="none" stroke="#EF6A2E" stroke-miterlimit="10" points="3109.621,541.17 3123.939,555.91 3137.621,554.621 
			3123.38,539.963 		"/>
		<polygon fill="none" stroke="#EF6A2E" stroke-miterlimit="10" points="3091.478,464.668 3077.961,453.156 3069.477,453.609 
			3082.627,465.25 		"/>
		<polygon fill="none" stroke="#EF6A2E" stroke-miterlimit="10" points="3082.061,543.588 3096.018,558.537 3109.162,557.301 
			3095.278,542.428 		"/>
		<polygon fill="none" stroke="#EF6A2E" stroke-miterlimit="10" points="3095.278,542.428 3109.162,557.301 3123.939,555.91 
			3109.621,541.17 		"/>
		<polygon fill="none" stroke="#EF6A2E" stroke-miterlimit="10" points="3068.449,544.783 3082.061,543.588 3025.631,483.145 
			3012.281,484.047 3081.449,559.908 3096.018,558.537 3082.061,543.588 		"/>
		<polygon fill="none" stroke="#EF6A2E" stroke-miterlimit="10" points="3112.014,491.266 3121.514,490.254 3106.734,477.664 
			3097.365,478.297 		"/>
		<polygon fill="none" stroke="#EF6A2E" stroke-miterlimit="10" points="3097.365,478.297 3106.734,477.664 3091.478,464.668 
			3082.627,465.25 		"/>
		<polygon fill="none" stroke="#EF6A2E" stroke-miterlimit="10" points="3128.559,505.912 3138.803,504.98 3121.514,490.254 
			3112.014,491.266 		"/>
		<polygon fill="none" stroke="#EF6A2E" stroke-miterlimit="10" points="3013.188,469.814 3000.091,470.676 3012.281,484.047 
			3025.631,483.145 		"/>
		<polygon fill="none" stroke="#EF6A2E" stroke-miterlimit="10" points="3179.164,550.711 3191.164,549.582 3174.594,535.469 
			3163.086,536.479 		"/>
		<polygon fill="none" stroke="#EF6A2E" stroke-miterlimit="10" points="2982,490.615 3026.199,538.283 3052.199,534.816 
			3010.166,488.883 		"/>
	</g>
	<path fill="#303030" d="M3055.883,408.283c6.934-7.801-5.199-35.533-6.5-39c-1.299-3.467-4.766-2.166-6.934-1.3
		c-0.571,0.229-1.415,0.307-2.339,0.376c2.671-5.479,1.04-17.709,1.04-17.709c-0.867-5.635-4.768-16.9-18.201-15.167
		c-13.433,1.733-12.133,14.3-10.398,25.134c1.732,10.832,11.699,15.6,11.699,15.6s0,4.333-3.033,4.767s-6.934,2.601-6.934,2.601
		c-3.9,2.6-16.9,18.633-17.334,29.898c-0.433,11.268,10.4,20.801,9.968,23.4s-5.634,8.666-3.034,9.533
		c2.602,0.867,5.635-0.867,5.635-0.867s-0.434,4.334-0.434,7.801s0.434,41.166,0.434,41.166s4.332,9.533,8.232,10.834
		s4.768-0.434,4.768-0.434c-0.434-5.633-4.768-11.266-4.768-11.266c-0.434-5.201,2.6-38.566,2.6-38.566
		c0.867-6.066,7.367-5.201,7.367-5.201c4.768,0,4.768,6.5,4.768,6.5c0.433,7.367-0.867,33.367-0.867,33.367
		c4.766,4.334,17.332,3.033,17.332,3.033c-0.865-4.768-8.666-6.934-8.666-6.934c0.434-9.533,0-41.6,0-41.6
		c-0.433-15.166,1.301-45.934,1.301-45.934C3049.816,408.283,3055.883,408.283,3055.883,408.283z M3010.383,427.783
		c-4.766-6.066-6.5-11.268-6.066-13.867s6.5-9.1,6.5-9.1C3012.551,413.049,3010.383,427.783,3010.383,427.783z M3030.316,380.55
		c-0.867,0,0.434-3.899,0.434-3.899c2.264,0,3.085-1.26,4.814-2.766c1.607,1.244,4.887-0.368,6.885-0.701
		c2.602-0.434,4.334,0.866,5.201,3.9c0.866,3.033,3.9,21.666,3.9,21.666s-6.066-6.934-9.967-12.133
		C3037.684,381.416,3033.058,380.55,3030.316,380.55z"/>
	<polyline fill="none" stroke="#EF6A2E" stroke-miterlimit="10" points="3031.66,353.684 3034.758,361.549 3031.182,362.502 	"/>
</g>
</svg>
