<?xml version="1.0" encoding="utf-8"?>
<!-- Generator: Adobe Illustrator 16.0.0, SVG Export Plug-In . SVG Version: 6.00 Build 0)  -->
<!DOCTYPE svg PUBLIC "-//W3C//DTD SVG 1.1//EN" "http://www.w3.org/Graphics/SVG/1.1/DTD/svg11.dtd">
<svg version="1.1" id="Layer_1" xmlns="http://www.w3.org/2000/svg" xmlns:xlink="http://www.w3.org/1999/xlink" x="0px" y="0px"
	 width="40px" height="40px" viewBox="0 0 40 40" enable-background="new 0 0 40 40" xml:space="preserve">
<path fill="none" stroke="#515151" stroke-miterlimit="10" d="M29.418,21.697l0.037-3.332l-2.988-0.259
	c-0.131-0.467-0.311-0.914-0.533-1.334l1.98-2.254l-2.33-2.383l-2.295,1.93c-0.416-0.232-0.857-0.422-1.322-0.562l-0.191-2.996
	l-3.334-0.038l-0.258,2.99c-0.465,0.13-0.912,0.31-1.332,0.532l-2.256-1.98l-2.382,2.33l1.929,2.297
	c-0.232,0.414-0.422,0.857-0.562,1.32l-2.996,0.193l-0.039,3.332l2.991,0.26c0.13,0.466,0.309,0.911,0.531,1.331l-1.98,2.255
	l2.331,2.383l2.296-1.929c0.414,0.231,0.857,0.421,1.318,0.563l0.193,2.995l3.332,0.037l0.262-2.989
	c0.465-0.132,0.912-0.31,1.332-0.533l2.254,1.98l2.383-2.329l-1.93-2.296c0.232-0.416,0.422-0.857,0.564-1.322L29.418,21.697z
	 M17.961,19.9c0.012-1.126,0.938-2.028,2.062-2.017c1.129,0.014,2.031,0.937,2.018,2.064c-0.014,1.125-0.936,2.029-2.062,2.016
	C18.852,21.951,17.947,21.028,17.961,19.9z"/>
</svg>
