<?xml version="1.0" encoding="utf-8"?>
<!-- Generator: Adobe Illustrator 16.0.0, SVG Export Plug-In . SVG Version: 6.00 Build 0)  -->
<!DOCTYPE svg PUBLIC "-//W3C//DTD SVG 1.1//EN" "http://www.w3.org/Graphics/SVG/1.1/DTD/svg11.dtd">
<svg version="1.1" id="Layer_1" xmlns="http://www.w3.org/2000/svg" xmlns:xlink="http://www.w3.org/1999/xlink" x="0px" y="0px"
	 width="40px" height="40px" viewBox="0 0 40 40" enable-background="new 0 0 40 40" xml:space="preserve">
<path fill="none" stroke="#515151" stroke-miterlimit="10" d="M22.453,5.722l-5.014,0.02l-0.32,4.501
	c-0.699,0.207-1.366,0.486-1.993,0.832l-3.434-2.927l-3.53,3.558l2.955,3.408c-0.341,0.629-0.616,1.299-0.818,2l-4.5,0.357
	l0.019,5.011l4.502,0.32c0.207,0.699,0.486,1.367,0.832,1.992L8.225,28.23l3.558,3.531l3.411-2.955
	c0.627,0.342,1.295,0.615,1.995,0.816l0.361,4.502l5.01-0.021l0.324-4.5c0.697-0.207,1.363-0.486,1.99-0.832l3.434,2.928
	l3.531-3.559l-2.953-3.412c0.34-0.625,0.613-1.293,0.816-1.992l4.5-0.361l-0.02-5.012L29.68,17.04
	c-0.209-0.697-0.488-1.365-0.832-1.992l2.928-3.432l-3.557-3.531l-3.408,2.955c-0.631-0.341-1.301-0.615-2.002-0.818L22.453,5.722z
	 M20.012,22.992c-1.695,0.006-3.074-1.363-3.08-3.057c-0.006-1.695,1.361-3.074,3.057-3.081c1.693-0.006,3.074,1.362,3.08,3.058
	S21.705,22.986,20.012,22.992z"/>
</svg>
