<?xml version="1.0" encoding="utf-8"?>
<!-- Generator: Adobe Illustrator 16.0.0, SVG Export Plug-In . SVG Version: 6.00 Build 0)  -->
<!DOCTYPE svg PUBLIC "-//W3C//DTD SVG 1.1//EN" "http://www.w3.org/Graphics/SVG/1.1/DTD/svg11.dtd">
<svg version="1.1" id="Layer_1" xmlns="http://www.w3.org/2000/svg" xmlns:xlink="http://www.w3.org/1999/xlink" x="0px" y="0px"
	 width="46px" height="46px" viewBox="0 0 46 46" enable-background="new 0 0 46 46" xml:space="preserve">
<path fill="none" stroke="#515151" stroke-miterlimit="10" d="M43.196,26.566v-7.134l-6.402-0.48
	c-0.293-0.996-0.688-1.948-1.176-2.842l4.186-4.871l-5.043-5.043l-4.867,4.188c-0.895-0.489-1.846-0.884-2.842-1.176l-0.485-6.405
	h-7.132l-0.48,6.404c-0.994,0.291-1.945,0.685-2.838,1.173l-4.874-4.184l-5.044,5.043l4.186,4.871
	c-0.488,0.891-0.881,1.841-1.173,2.834l-6.406,0.488v7.134l6.405,0.484c0.291,0.994,0.684,1.943,1.172,2.834L6.198,34.76
	l5.044,5.043l4.87-4.186c0.891,0.488,1.84,0.881,2.834,1.172l0.488,6.408h7.132l0.485-6.406c0.995-0.291,1.945-0.686,2.838-1.174
	l4.871,4.186l5.043-5.043l-4.187-4.867c0.489-0.893,0.883-1.846,1.175-2.842L43.196,26.566z M18.634,23
	c0-2.412,1.956-4.367,4.367-4.367c2.412,0,4.367,1.955,4.367,4.367s-1.955,4.367-4.367,4.367C20.59,27.367,18.634,25.412,18.634,23z
	"/>
</svg>
