<?xml version="1.0" encoding="utf-8"?>
<!-- Generator: Adobe Illustrator 16.0.0, SVG Export Plug-In . SVG Version: 6.00 Build 0)  -->
<!DOCTYPE svg PUBLIC "-//W3C//DTD SVG 1.1//EN" "http://www.w3.org/Graphics/SVG/1.1/DTD/svg11.dtd">
<svg version="1.1" id="Layer_1" xmlns="http://www.w3.org/2000/svg" xmlns:xlink="http://www.w3.org/1999/xlink" x="0px" y="0px"
	 width="18px" height="18px" viewBox="0 0 18 18" enable-background="new 0 0 18 18" xml:space="preserve">
<g>
	<g>
		<path fill="#303030" d="M8.327,7.194C8.018,5.431,8.062,3.224,8.283,2.208c0.265-1.235,0.75-1.986,2.074-1.896
			c1.323,0.132,3.176,0.882,4.324,1.853c-1.104,0.089-2.56,2.206-4.369,5.604c1.589-0.795,3.663-1.412,4.722-1.545
			c1.279-0.177,2.162,0.045,2.515,1.368c0.221,1.323,0.133,3.31-0.44,4.677c-0.397-1.014-2.913-1.721-6.663-2.426
			c1.235,1.279,2.471,3.045,2.956,4.016c0.53,1.146,0.574,2.074-0.573,2.734c-1.147,0.707-2.912,1.104-4.634,1.104
			c0.927-0.75,0.794-3.354,0.265-7.104c-0.794,1.588-2.118,3.354-2.913,4.059c-0.971,0.84-1.854,1.104-2.868,0.221
			c-0.971-0.926-1.941-2.516-2.338-3.971c0.971,0.617,3.397-0.221,6.839-1.941c-1.765-0.265-3.883-0.928-4.766-1.5
			C1.311,6.842,0.781,6.136,1.222,4.899c0.441-1.235,1.765-2.735,3.133-3.574C4.046,2.429,5.635,4.415,8.327,7.194z"/>
	</g>
</g>
</svg>
