<?xml version="1.0" encoding="utf-8"?>
<!-- Generator: Adobe Illustrator 16.0.0, SVG Export Plug-In . SVG Version: 6.00 Build 0)  -->
<!DOCTYPE svg PUBLIC "-//W3C//DTD SVG 1.1//EN" "http://www.w3.org/Graphics/SVG/1.1/DTD/svg11.dtd">
<svg version="1.1" id="Layer_1" xmlns="http://www.w3.org/2000/svg" xmlns:xlink="http://www.w3.org/1999/xlink" x="0px" y="0px"
	 width="441.545px" height="656.701px" viewBox="0 0 441.545 656.701" enable-background="new 0 0 441.545 656.701"
	 xml:space="preserve">
<g>
	<path fill="#303030" d="M440.851,404.781c-30.224-82.871-201.464-138.52-201.464-138.52s-3.105-38.803-2.138-38.92
		c23.858-2.862,38.374-12.272,47.572-70.233c10.118,2.466,5.031-11.263,8.776-17.381c3.94-6.437,11.926-13.159,5.688-18.448
		c-3.812-3.232-8.503-2.99-11.575-2.314C287.4,67.602,270.828,2.158,208.418,0.145c-59.292-1.913-83.698,51.545-88.633,104.869
		c-2.722-0.967-9.988-2.865-15.579,1.874c-7.014,5.946,1.965,13.507,6.395,20.744c4.122,6.733-1.272,21.668,9.161,19.702
		c0.185,2.012,0.395,3.997,0.63,5.953c7.531,62.764,67.471,72.807,67.471,72.807c4.394,37.658-21.966,42.68-21.966,42.68
		C85.559,283.836-4.821,369.195,0.2,434.469c4.234,55.049,90.604,120.811,125.091,131.027c-2.098,53.54-4.59,92.411-4.59,92.411
		l233.476-2.511c14.705-38.924,13.91-87.383,6.553-134.188C454.507,447.461,440.851,404.781,440.851,404.781z M93.09,477.148
		c-32.638-27.616-20.607-60.665-20.607-60.665c2.511-40.169,53.242-72.396,53.242-72.396c2.891,45.291,2.822,102.047,1.641,154.795
		C113.955,486.968,93.09,477.148,93.09,477.148z M352.776,480.682c-16.8-72.182-43.798-131.572-43.798-131.572
		s60.965,25.959,73.518,58.598C392.205,432.951,365.414,466.688,352.776,480.682z"/>
</g>
<polyline fill="none" stroke="#EF6A2E" stroke-width="3" stroke-miterlimit="10" points="231.724,98.322 243.424,159.744 
	220.999,166.569 "/>
</svg>
