<?xml version="1.0" encoding="utf-8"?>
<!-- Generator: Adobe Illustrator 16.0.0, SVG Export Plug-In . SVG Version: 6.00 Build 0)  -->
<!DOCTYPE svg PUBLIC "-//W3C//DTD SVG 1.1//EN" "http://www.w3.org/Graphics/SVG/1.1/DTD/svg11.dtd">
<svg version="1.1" id="Layer_1" xmlns="http://www.w3.org/2000/svg" xmlns:xlink="http://www.w3.org/1999/xlink" x="0px" y="0px"
	 width="358px" height="232.649px" viewBox="0 0 358 232.649" enable-background="new 0 0 358 232.649" xml:space="preserve">
<path fill="#303030" d="M328.505,15.636c0,0-20.28,0.39-22.229,19.5c-1.95,19.11-1.321,27.646,12.869,28.471
	c0,0,0.977,3.51-0.323,7.844c-1.3,4.332-1.3,2.6-3.9,2.6c-2.6,0-8.233,2.166-12.566,9.967c-4.333,7.799-7.8,11.7-13.434,11.267
	s-14.3-11.267-17.767-17.333c-3.467-6.067-27.733-1.301-15.167,4.766c0,0,7.367,0.434,9.967,0.434c2.601,0,12.134,22.967,23.4,22.1
	s18.633-10.833,18.633-10.833s-17.333,52.434-9.1,121.333c0,0-12.134,2.167-13.434,9.101c0,0,13,3.9,24.7-3.466
	c0,0-4.983-63.268,0.434-74.968c0,0,0-3.899,3.858-2.742c0.653,0.196,1.342,1.117,2.208,2.742c0,0-0.434,54.167,16.9,71.067
	c0,0-15.167,1.732-16.467,10.832c0,0,19.934,2.167,28.166-5.199c0,0-19.066-38.566-13.866-81.467c0,0,6.716-38.999,7.149-45.066
	c0,0,0.924-5.084,3.034-1.3c6.283,11.267,5.85,32.5,4.983,40.3c-0.867,7.801-5.2,18.199,3.467,18.633
	c8.666,0.434,7.366-11.699,6.933-20.8c-0.433-9.101-3.899-51.999-13.433-57.2c-9.534-5.199-14.301-0.865-13.434-6.5
	c0,0-0.413-2.6,0.757-5.72c0,0,8.971-1.56,12.091-10.14C346.055,45.276,352.295,15.636,328.505,15.636z"/>
<g>
	<path fill="#303030" d="M234.754,74.916c-7.8-0.434-12.209,12.519-17.129,14.647c-4.919,2.129-9.266-2.541-17.714-14.208
		c-5.023-6.939-11.957-12.573-20.624-13.872c-4.714-0.707-7.985-2.492-7.985-2.492c-1.49-3.707-2.385-8.261-2.385-8.261
		c6.416-1.849,10.716-4.534,8.96-27.169c-1.756-22.637-23.876-22.546-23.876-22.546s-19.812-0.292-20.804,17.659
		c-0.993,17.95,10.776,34.192,22.447,33.059c0,0,2.629,2.818,1.694,7.804c0,0-1.499,1.565-4.708,3.411
		c-3.209,1.848-42.718,25.928-36.689,41.184s29.113,21.051,29.98,30.584c0,0,1.529,2.082,3.112,0.697
		c0.14,1.369,0.26,2.598,0.354,3.637c0.433,4.766,0.28,1.787,0.866,17.334c0.867,22.966-4.116,64.566-4.116,64.566
		c6.5,9.1,29.467,8.666,29.467,8.666c-3.033-9.533-16.033-13.867-16.033-13.867c3.033-23.399,8.883-52.434,7.583-65
		c-0.466-4.5,2.167-12.133,5.85-1.732c5.308,14.984,0.867,65.867,0.867,65.867c17.334,14.299,30.333,5.199,30.333,5.199
		c-3.033-5.633-16.467-10.4-16.467-10.4c0.866-9.1,0.867-55.467-1.3-63.699c-2.167-8.233,1.3-48.751,0.867-59.584
		c-0.346-8.671,2.657-4.156,2.657-4.156c2.772,3.496,15.604,19.41,25.146,21.35c9.543,1.939,17.242-7.908,21.813-14.811
		C241.491,81.88,242.883,75.368,234.754,74.916z M141.587,113.483c0,0-13.393-9.614-9.747-16.804
		c3.646-7.188,11.914-7.03,11.914-7.03s1.607,13.217,3.139,26.469C144.248,114.42,141.587,113.483,141.587,113.483z"/>
</g>
<g>
	<path fill="#303030" d="M89.718,91.089c-12.913,12.86-17.463,0.727-17.463,0.727c-3.9-7.583-8.667-21.233-21.638-26.975
		c0,0-6.655-1.819-5.977-8.62c0,0,11.061-3.231,13.097-12.072s6.5-32.5-14.3-35.75c0,0-15.937,0.218-19.501,20.449
		c0,0-28.894-3.357-25.321,18.913s8.733,27.839,2.382,34.6c0,0,15.481-4.375,14.688-18.692c-0.794-14.316-0.912-29.379,8.592-31.42
		c0,0-5.77,19.893,11.2,22.953c0,0,0.056,3.276,0.056,6.061c0,2.783-8.932,5.567-12.504,9.941
		c-2.026,2.482-24.473,23.147-18.657,34.6c5.756,11.335,24.016,11.932,24.413,12.329c0,0-0.517,6.911,1.344,9.46
		c-1.125,4.328-1.362,7.121-0.124,13.624c1.733,9.101,8.245,23.677,8.687,37.849c0.418,13.396-5.014,47.305-5.014,47.305
		s4.178,5.442,20.057,6.279c0,0-2.925-7.117-10.864-12.978c0,0,8.801-31.222,8.774-43.536c-0.021-10.238,0.027-20.836-0.835-36.422
		c-0.046-0.836,2.266-2.527,3.238,0.785c0.783,2.669,5.171,9.733-6.999,82.104c0,0,6.686,4.186,20.475,4.186
		c0,0-4.126-5.18-12.065-8.11c0,0,15.879-57.456,16.923-73.155c1.17-17.588-6.679-28.384-9.458-35.543
		c-2.778-7.158-8.738-15.612-7.785-16.43c5.265-4.515,3.52-7.468,1.733-13.434c0,0,5.153,10.48,5.851,11.7
		c2.6,4.55,4.512,10.476,13.216,14.517c6.067,2.816,17.353-11.266,17.353-11.266s6.352,3.977,9.527,1.59
		C105.993,94.27,99.922,80.928,89.718,91.089z M37.914,111.571c-0.328,0.658-1.242,1.781-2.385,3.54
		c-3.68-4.987-22.043-5.804-22.425-12.679c-0.396-7.159,11.909-18.899,11.909-18.899s1.587,7.954,6.749,15.112
		C36.922,105.803,39.502,108.389,37.914,111.571z"/>
</g>
<path fill="none" stroke="#EF6A2E" stroke-width="3" stroke-miterlimit="10" d="M49.288,35.7"/>
<polyline fill="none" stroke="#EF6A2E" stroke-miterlimit="10" points="167.154,18.584 172.787,32.883 166.287,34.618 "/>
<polyline fill="none" stroke="#EF6A2E" stroke-miterlimit="10" points="313.945,41.008 312.32,49.674 317.738,49.674 "/>
<polyline fill="none" stroke="#EF6A2E" stroke-miterlimit="10" points="50.154,33.316 52.754,38.516 49.071,40.249 "/>
</svg>
