<?xml version="1.0" encoding="utf-8"?>
<!-- Generator: Adobe Illustrator 16.0.0, SVG Export Plug-In . SVG Version: 6.00 Build 0)  -->
<!DOCTYPE svg PUBLIC "-//W3C//DTD SVG 1.1//EN" "http://www.w3.org/Graphics/SVG/1.1/DTD/svg11.dtd">
<svg version="1.1" id="Layer_1" xmlns="http://www.w3.org/2000/svg" xmlns:xlink="http://www.w3.org/1999/xlink" x="0px" y="0px"
	 width="123.578px" height="58.561px" viewBox="0 0 123.578 58.561" enable-background="new 0 0 123.578 58.561"
	 xml:space="preserve">
<g>
	<path fill="#F2F2F2" d="M29.801,31.206c0.201,8.537,5.022,18.682,1.306,26.215c-6.628-1.709-16.672-2.109-27.921-0.502
		c2.01-8.035-2.008-15.568-2.209-26.314c-0.101-9.943,4.016-18.379,12.051-23.1c6.428,1.606,21.594,1.808,31.537-0.2
		C34.02,12.626,29.5,21.163,29.801,31.206z M16.845,50.792c3.314,0,5.926-2.41,5.926-5.324c0-2.41-2.109-4.721-5.725-4.721
		c-3.214,0-5.223,2.311-5.223,5.324C11.824,48.883,14.134,50.792,16.845,50.792z M122.603,14.133c0,3.917-5.926,7.432-26.514,6.528
		C95.285,15.237,83.937,9.413,70.076,9.413c-9.441,0-18.279,2.711-23.099,6.527c6.327-3.013,13.658-5.022,20.79-5.022
		c15.266,0,26.313,5.625,26.313,10.446c0,3.615-2.913,6.327-10.345,6.327c-4.218,0-10.847-1.606-15.467-4.118
		c-1.708,7.232-8.437,14.664-16.471,16.271c7.432-0.201,14.964-6.227,17.777-14.162c1.104,0.603,2.31,1.104,3.415,1.506
		c0.2,1.809,0.803,3.214,1.808,4.521c-4.019,0.701-6.528,3.312-6.528,6.627c0,1.105,0.201,2.109,0.804,3.113
		c-4.922,0.703-6.931,2.914-6.931,6.328c0,1.908,1.206,4.117,3.314,5.625C46.373,59.629,31.91,48.18,31.91,30.202
		c0-15.667,15.266-29.226,48.109-29.226C99.201,0.976,122.603,7.504,122.603,14.133z M76.805,55.411
		c-7.835,0-12.957-3.715-12.957-7.734c0-2.309,1.908-4.418,6.228-4.82c2.512,3.014,7.633,5.123,15.166,4.52
		C86.748,51.092,84.238,55.411,76.805,55.411z M94.783,39.643c0,3.414-3.816,6.428-10.846,6.428c-8.84,0-13.962-3.717-13.962-7.633
		c0-2.311,1.708-4.721,6.026-5.424c3.916,3.615,11.048,4.52,17.274,2.912C94.281,36.731,94.783,38.137,94.783,39.643z
		 M99.502,26.987c0,4.621-4.62,8.337-11.649,8.337c-7.936,0-12.354-3.516-12.756-7.433c3.314,1.105,6.729,1.607,9.843,1.607
		c6.931,0,11.048-3.214,11.249-7.834C98.197,22.771,99.502,24.88,99.502,26.987z"/>
	<path fill="#EF6A2E" d="M31.63,58.561l-0.767-0.197c-3.773-0.973-8.589-1.486-13.926-1.486c-4.364,0-8.945,0.34-13.613,1.006
		l-1.436,0.205l0.352-1.406c1.113-4.453,0.283-8.775-0.678-13.779c-0.691-3.602-1.476-7.684-1.561-12.281
		C-0.106,19.98,4.344,11.475,12.534,6.663l0.343-0.201l0.387,0.096c3.072,0.768,8.385,1.227,14.213,1.227
		c6.308,0,12.307-0.51,16.895-1.438l5.556-1.121C57.947,1.792,68.181,0,80.019,0c17.541,0,43.559,5.935,43.559,14.133
		c0,5.073-7.181,7.646-21.344,7.646c-1.358,0-2.793-0.023-4.286-0.072c1.571,1.354,2.53,3.302,2.53,5.281
		c0,3.724-2.528,6.742-6.498,8.255c1.131,0.963,1.778,2.557,1.778,4.4c0,3.229-3.034,6.68-9.64,7.303l0.025,0.064
		c0.802,1.975,0.61,4.074-0.524,5.76c-1.57,2.332-4.701,3.615-8.814,3.615c-3.929,0-7.379-0.916-9.863-2.441l-1.184,0.385
		c-3.578,1.168-7.1,1.76-10.468,1.76c0,0-0.002,0-0.002,0c-6.946,0-13.191-2.586-17.584-7.283
		c-4.365-4.666-6.769-11.273-6.769-18.604c0-7.144,3.099-13.662,8.814-18.708c-6.135,4.845-9.217,11.551-8.973,19.683
		c0.068,2.902,0.706,6.098,1.322,9.188c1.204,6.041,2.449,12.287-0.116,17.488L31.63,58.561z M16.938,54.928
		c5.133,0,9.817,0.465,13.614,1.352c1.834-4.494,0.716-10.104-0.367-15.535c-0.632-3.172-1.287-6.451-1.358-9.516
		c-0.279-9.326,3.48-16.91,10.929-22.182c-3.726,0.448-7.934,0.687-12.278,0.687c-5.829,0-10.998-0.432-14.29-1.188
		C5.839,13.022,1.853,20.836,1.952,30.594c0.083,4.422,0.816,8.244,1.526,11.941c0.871,4.535,1.699,8.844,0.947,13.23
		C8.708,55.209,12.911,54.928,16.938,54.928z M69.679,43.881c-3.052,0.4-4.855,1.801-4.855,3.795c0,3.324,4.481,6.76,11.981,6.76
		c3.444,0,6.001-0.979,7.197-2.756c0.654-0.971,0.843-2.115,0.551-3.279C77.987,48.778,72.691,47.143,69.679,43.881z M80.019,1.95
		c-15.131,0-27.52,2.964-35.825,8.571c-7.398,4.995-11.309,11.8-11.309,19.68c0,6.834,2.216,12.967,6.242,17.271
		c4.079,4.361,9.667,6.666,16.161,6.666c0,0,0.001,0,0.001,0c2.64,0,5.388-0.391,8.191-1.16c-1.457-1.521-2.314-3.402-2.314-5.201
		c0-3.75,2.183-6.121,6.491-7.064c-0.246-0.723-0.364-1.502-0.364-2.377c0-3.408,2.278-6.141,5.918-7.252
		c-0.557-0.982-0.919-2.025-1.11-3.185c-0.717-0.275-1.387-0.562-2.004-0.856c-3.226,7.842-10.75,13.571-18.274,13.776l-0.217-1.932
		c7.207-1.441,13.962-8.121,15.714-15.538l0.293-1.243l1.121,0.611c4.194,2.279,10.643,3.998,15.001,3.998
		c4.274,0,9.37-0.928,9.37-5.352c0-3.771-10.106-9.471-25.339-9.471c-6.463,0-13.697,1.75-20.37,4.928l-7.784,3.706l6.76-5.351
		c5.17-4.094,14.475-6.739,23.704-6.739c12.857,0,24.971,5.185,26.799,11.28c1.882,0.074,3.682,0.111,5.359,0.111
		c17.504,0,19.395-3.984,19.395-5.696C121.628,8.554,99.074,1.95,80.019,1.95z M75.711,34.057c-2.991,0.607-4.761,2.223-4.761,4.381
		c0,3.227,4.551,6.658,12.986,6.658c6.781,0,9.871-2.828,9.871-5.453c0-1.074-0.301-2.025-0.821-2.641
		c-1.88,0.439-3.813,0.664-5.756,0.664C82.599,37.667,78.435,36.356,75.711,34.057z M76.486,29.33
		c1.207,2.686,4.904,5.02,11.367,5.02c6.186,0,10.674-3.098,10.674-7.363c0-1.288-0.612-2.602-1.607-3.574
		c-1.086,4.343-5.587,7.06-11.979,7.06C82.132,30.473,79.243,30.081,76.486,29.33z M73.945,26.964l0.014,0.118
		c0.043,0.397,0.108,0.774,0.196,1.136c-0.011-0.075-0.02-0.15-0.027-0.227l-0.103-1.003C73.998,26.98,73.972,26.972,73.945,26.964z
		 M94.081,18.538c0.638,0.938,0.974,1.891,0.974,2.826c0,1.717-0.583,4.166-3.472,5.744c2.224-1.189,3.527-3.08,3.632-5.485
		l0.008-0.164l-0.098-0.655C95.014,20.06,94.656,19.296,94.081,18.538z M16.845,51.766c-3.419,0-5.997-2.449-5.997-5.695
		c0-3.709,2.548-6.299,6.198-6.299c4.352,0,6.7,2.936,6.7,5.695C23.746,48.94,20.65,51.766,16.845,51.766z M17.046,41.723
		c-2.541,0-4.248,1.746-4.248,4.348c0,2.135,1.74,3.744,4.047,3.744c2.73,0,4.951-1.949,4.951-4.348
		C21.796,43.608,20.165,41.723,17.046,41.723z"/>
</g>
</svg>
