<?xml version="1.0" encoding="utf-8"?>
<!-- Generator: Adobe Illustrator 16.0.0, SVG Export Plug-In . SVG Version: 6.00 Build 0)  -->
<!DOCTYPE svg PUBLIC "-//W3C//DTD SVG 1.1//EN" "http://www.w3.org/Graphics/SVG/1.1/DTD/svg11.dtd">
<svg version="1.1" id="Layer_1" xmlns="http://www.w3.org/2000/svg" xmlns:xlink="http://www.w3.org/1999/xlink" x="0px" y="0px"
	 width="177px" height="251px" viewBox="0 0 177 251" enable-background="new 0 0 177 251" xml:space="preserve">
<path opacity="0.25" fill="#EF6A2E" d="M94.044,128.465c0,0-18.416,9.404-33.306,3.135c-14.89-6.27-20.375-19.982-20.375-19.982
	s-19.2-0.001-19.984-14.891c-0.784-14.89,13.012-61.293,71.706-57.992c62.693,3.526,73.273,67.003,56.033,77.192
	c0,0-3.527,25.077-27.038,19.983c0,0,10.188,22.334,2.352,23.51C115.596,160.596,106.191,150.8,94.044,128.465z"/>
<path fill="#303030" stroke="#FFFFFF" stroke-width="3" stroke-miterlimit="10" d="M100.544,121.965c0,0-18.416,9.404-33.306,3.135
	c-14.89-6.27-20.375-19.982-20.375-19.982s-19.2-0.001-19.984-14.891c-0.784-14.89,13.012-61.293,71.706-57.992
	c62.693,3.526,73.273,67.003,56.033,77.192c0,0-3.527,25.077-27.038,19.983c0,0,10.188,22.334,2.352,23.51
	C122.096,154.096,112.691,144.3,100.544,121.965z"/>
<path fill="none" d="M14.518,76.398c0.584-16.687,25.695-57.157,84.85-55.919c44.917,0.94,71.903,31.899,74.73,54.062"/>
<text transform="matrix(0.5592 -0.8291 0.8291 0.5592 18.1343 62.3188)"><tspan x="0" y="0" fill="#F5F5F5" font-family="'House-A-Rama-League-Night'" font-size="36.2559">¿</tspan><tspan x="14.701" y="-0.848" fill="#F5F5F5" font-family="'House-A-Rama-League-Night'" font-size="36.2559" rotate="15.564">Q</tspan><tspan x="38.795" y="6.471" fill="#F5F5F5" font-family="'House-A-Rama-League-Night'" font-size="36.2559" rotate="29.071">u</tspan><tspan x="50.522" y="13.014" fill="#F5F5F5" font-family="'House-A-Rama-League-Night'" font-size="36.2559" rotate="37.208">é</tspan><tspan x="59.7" y="19.987" fill="#F5F5F5" font-family="'House-A-Rama-League-Night'" font-size="36.2559" rotate="43.809"> </tspan><tspan x="67.179" y="27.08" fill="#F5F5F5" font-family="'House-A-Rama-League-Night'" font-size="36.2559" rotate="49.847">e</tspan><tspan x="74.722" y="35.922" fill="#F5F5F5" font-family="'House-A-Rama-League-Night'" font-size="36.2559" rotate="55.964">s</tspan><tspan x="82.072" y="46.815" fill="#F5F5F5" font-family="'House-A-Rama-League-Night'" font-size="36.2559" rotate="62.521"> </tspan><tspan x="86.829" y="56.014" fill="#F5F5F5" font-family="'House-A-Rama-League-Night'" font-size="36.2559" rotate="68.289">l</tspan><tspan x="89.904" y="63.23" fill="#F5F5F5" font-family="'House-A-Rama-League-Night'" font-size="36.2559" rotate="75.028">o</tspan><tspan x="93.106" y="75.269" fill="#F5F5F5" font-family="'House-A-Rama-League-Night'" font-size="36.2559" rotate="82.822"> </tspan><tspan x="94.599" y="85.229" fill="#F5F5F5" font-family="'House-A-Rama-League-Night'" font-size="36.2559" rotate="91.534">q</tspan><tspan x="94.298" y="99.312" fill="#F5F5F5" font-family="'House-A-Rama-League-Night'" font-size="36.2559" rotate="101.845">u</tspan><tspan x="91.622" y="112.23" fill="#F5F5F5" font-family="'House-A-Rama-League-Night'" font-size="36.2559" rotate="112.02">e</tspan></text>
<path fill="none" stroke="#EF6A2E" stroke-width="3" stroke-miterlimit="10" d="M38.83,82.193c0,0-3.33,3.527-1.763,9.014
	c0,0,3.918,5.484,13.126-1.372"/>
<path fill="none" stroke="#EF6A2E" stroke-width="3" stroke-miterlimit="10" d="M38.046,68.676c0,0-2.352,6.27,1.567,5.094
	c3.918-1.176,6.857-11.363,16.262-13.322"/>
<path fill="none" stroke="#EF6A2E" stroke-width="3" stroke-miterlimit="10" d="M61.36,45.949c0,0-1.959,8.033-3.135,10.58
	c-1.175,2.546-3.33,7.249,0.588,10.775c3.918,3.526,13.323,7.641,8.816,13.714"/>
<path fill="none" stroke="#EF6A2E" stroke-width="3" stroke-miterlimit="10" d="M47.254,81.019c0,0,1.567-5.878,6.661-7.054
	c5.094-1.175,8.032,2.156,8.032,2.156"/>
<path fill="none" stroke="#EF6A2E" stroke-width="3" stroke-miterlimit="10" d="M56.462,79.646c0,0-1.176,13.911,14.302,10.973
	c15.478-2.939,8.424-14.107,13.714-15.674c0,0,1.763-0.392,1.567,2.742"/>
<path fill="none" stroke="#EF6A2E" stroke-width="3" stroke-miterlimit="10" d="M73.508,67.892c0,0,9.991-8.425,20.179-2.743
	c10.188,5.681-3.134,24.686-7.444,26.448"/>
<path fill="none" stroke="#EF6A2E" stroke-width="3" stroke-miterlimit="10" d="M102.308,81.215c0,0-0.196-15.674,14.89-12.343
	s10.188,23.902,3.723,23.51"/>
<path fill="none" stroke="#EF6A2E" stroke-width="3" stroke-miterlimit="10" d="M107.988,77.296c0.588,0,1.764-2.938,7.445-1.175
	c5.682,1.763,4.311,8.815,0.98,9.012c-3.332,0.195-2.352-4.898-2.352-4.898"/>
<path fill="none" stroke="#EF6A2E" stroke-width="3" stroke-miterlimit="10" d="M81.344,104.92c0,0,6.662-13.126,24.295-11.95
	c17.632,1.176,15.869,18.024,6.465,21.942"/>
<path fill="none" stroke="#EF6A2E" stroke-width="3" stroke-miterlimit="10" d="M61.36,98.848c0,0-6.27,14.302,8.425,17.045
	c14.693,2.742,28.408-10.776,29.584-13.323c1.175-2.547-3.919-3.722-5.878,0.392"/>
<path fill="none" stroke="#EF6A2E" stroke-width="3" stroke-miterlimit="10" d="M84.675,42.031c0,0-12.539,0.392-12.931,8.816
	c0,0-0.195,4.506,9.404,4.506"/>
<path fill="none" stroke="#EF6A2E" stroke-width="3" stroke-miterlimit="10" d="M80.952,49.083c0,0,6.27,2.547,8.816,3.331
	c2.547,0.783,12.538,1.567,15.085-1.567c2.548-3.135-0.587-5.094-0.587-5.094"/>
<path fill="none" stroke="#EF6A2E" stroke-width="3" stroke-miterlimit="10" d="M96.038,45.557c0,0,1.567-7.249,8.425-6.465
	c6.856,0.784,15.673,9.796,10.971,17.829c-4.702,8.033-12.146,5.877-12.146,5.877"/>
<path fill="none" stroke="#EF6A2E" stroke-width="3" stroke-miterlimit="10" d="M126.209,67.892c0,0-7.444-12.147,2.742-14.89
	c10.189-2.743,20.181,14.302,18.417,16.849c-1.763,2.547-5.29,2.351-7.053-0.588"/>
<path fill="none" stroke="#EF6A2E" stroke-width="3" stroke-miterlimit="10" d="M134.242,62.21c0,0-5.486,13.126,5.877,19.983
	c11.363,6.857,15.87-2.35,13.127-6.465"/>
<path fill="none" stroke="#EF6A2E" stroke-width="3" stroke-miterlimit="10" d="M149.132,87.875c0,0-3.526,0.196-3.331,2.352
	c0.196,2.155,7.053,6.27,5.486,8.816c-1.568,2.547-9.601,3.526-14.106-1.567"/>
<path fill="none" stroke="#EF6A2E" stroke-width="3" stroke-miterlimit="10" d="M134.635,101.786c0,0-5.487-6.661-2.156-10.188
	c3.331-3.526,9.404,1.764,9.404,1.764"/>
<path fill="none" stroke="#EF6A2E" stroke-width="3" stroke-miterlimit="10" d="M130.52,104.137c0,0-0.783,1.176-2.547,1.764
	s-5.877,5.682-0.979,8.816"/>
<path fill="none" stroke="#EF6A2E" stroke-width="3" stroke-miterlimit="10" d="M129.344,110.015c0,0,11.748,4.702,23.314-0.588"/>
<path fill="none" stroke="#EF6A2E" stroke-width="3" stroke-miterlimit="10" d="M121.311,113.933c0,0-5.289,6.073-1.566,9.601"/>
<g>
	<path fill="#F5F5F5" d="M43.599,240.537c0,3.933-0.197,9.342-9.815,9.342h-9.815v-46.852h9.815c9.618,0,9.815,5.339,9.815,9.272
		v7.586c0,2.037-1.251,4.354-3.689,5.269c2.438,0.913,3.689,3.301,3.689,5.268V240.537z M35.431,210.263
		c0-0.983-0.725-1.757-1.647-1.757h-1.712v13.908h1.712c0.922,0,1.647-0.772,1.647-1.756V210.263z M35.431,229.72
		c0-0.983-0.725-1.826-1.647-1.826h-1.712v16.437h1.712c0.922,0,1.647-0.773,1.647-1.756V229.72z"/>
	<path fill="#F5F5F5" d="M56.575,250.371c-9.618,0-9.815-5.339-9.815-9.272v-38.071h8.103v40.108c0,0.983,0.791,1.755,1.713,1.755
		c0.922,0,1.647-0.771,1.647-1.755v-40.108h8.168v38.071C66.391,245.032,66.193,250.371,56.575,250.371z"/>
	<path fill="#F5F5F5" d="M89.446,241.099c0,3.934-0.197,9.272-9.816,9.272c-9.618,0-9.815-5.339-9.815-9.272v-9.553h8.103v11.59
		c0,0.983,0.791,1.755,1.712,1.755c0.923,0,1.647-0.771,1.647-1.755v-15.173H69.814v-16.154c0-3.934,0.198-9.271,9.815-9.271
		c9.619,0,9.816,5.338,9.816,9.271v7.094h-8.168v-9.131c0-0.984-0.725-1.756-1.647-1.756c-0.922,0-1.646,0.771-1.646,1.756v12.713
		h11.462V241.099z"/>
	<path fill="#F5F5F5" d="M102.686,250.371c-9.618,0-9.816-5.339-9.816-9.272v-29.29c0-4.004,0.198-9.342,9.816-9.342
		s9.815,5.338,9.815,9.342v10.605h-8.169v-12.643c0-0.984-0.725-1.826-1.646-1.826s-1.713,0.842-1.713,1.826v33.364
		c0,0.983,0.791,1.755,1.713,1.755s1.646-0.771,1.646-1.755v-15.031h8.169v12.994C112.501,245.032,112.304,250.371,102.686,250.371z
		"/>
	<path fill="#F5F5F5" d="M127.387,249.879v-21.774h-3.359v21.774h-8.103v-38.07c0-4.004,0.197-9.342,9.815-9.342
		s9.815,5.338,9.815,9.342v38.07H127.387z M127.387,209.771c0-0.984-0.725-1.826-1.646-1.826s-1.713,0.842-1.713,1.826v12.643h3.359
		V209.771z"/>
	<path fill="#F5F5F5" d="M152.88,229.578v7.938h-8.169v-8.851l5.731-9.834v-9.623c0-0.982-0.725-1.756-1.647-1.756
		c-0.922,0-1.646,0.773-1.646,1.756v9.553h-8.169v-7.516c0-3.934,0.198-9.271,9.815-9.271c9.619,0,9.816,5.338,9.816,9.271v8.289
		L152.88,229.578z M144.711,249.879v-8.71h8.169v8.71H144.711z"/>
</g>
<g>
	<path fill="#F5F5F5" d="M37.855,196.295v-17.056l-2.557,17.056h-4.045l-2.519-17.056v17.056h-4.733v-27.15h6.526l2.748,15.346
		l2.748-15.346h6.526v27.15H37.855z"/>
	<path fill="#F5F5F5" d="M51.178,196.295v-12.619h-1.947v12.619h-4.694v-22.062c0-2.32,0.114-5.414,5.687-5.414
		c5.572,0,5.687,3.094,5.687,5.414v22.062H51.178z M51.178,173.053c0-0.57-0.42-1.059-0.954-1.059c-0.535,0-0.993,0.488-0.993,1.059
		v7.326h1.947V173.053z"/>
	<path fill="#F5F5F5" d="M64.918,173.337v22.958h-4.732v-22.958H57.17v-4.192h10.763v4.192H64.918z"/>
	<path fill="#F5F5F5" d="M73.888,173.337v7.042h3.893v3.297h-3.893v8.426h3.931v4.193h-8.625v-27.15h8.625v4.192H73.888z"/>
	<path fill="#F5F5F5" d="M86.102,196.295l-1.984-12.7h-0.077v12.7h-4.694v-27.15h5.687c5.571,0,5.687,3.094,5.687,5.373v3.663
		c0,1.628-0.038,3.663-2.1,4.722l2.1,13.393H86.102z M85.987,173.378c0-0.569-0.42-1.059-0.954-1.059h-0.993v8.101h0.993
		c0.534,0,0.954-0.488,0.954-1.059V173.378z"/>
	<path fill="#F5F5F5" d="M92.552,196.295v-27.15h4.733v27.15H92.552z M96.751,167.354h-3.168l1.717-5.414h4.733L96.751,167.354z"/>
	<path fill="#F5F5F5" d="M105.949,196.295v-12.619h-1.947v12.619h-4.693v-22.062c0-2.32,0.113-5.414,5.686-5.414
		s5.688,3.094,5.688,5.414v22.062H105.949z M105.949,173.053c0-0.57-0.42-1.059-0.955-1.059c-0.533,0-0.992,0.488-0.992,1.059v7.326
		h1.947V173.053z"/>
</g>
<g>
	<path fill="#303030" d="M122.923,197.189l-0.153-3.256c-0.19,2.32-1.145,3.297-2.633,3.46c-4.008,0.448-6.336-1.059-6.336-4.804
		v-17.462c0-2.319,0.115-5.413,5.688-5.413s5.687,3.094,5.687,5.413v5.739h-4.732v-6.92c0-0.569-0.42-1.059-0.954-1.059
		c-0.535,0-0.992,0.489-0.992,1.059v19.335c0,0.57,0.457,1.018,0.992,1.018c0.534,0,0.954-0.447,0.954-1.018v-7.042h-0.954v-3.297
		h5.687v14.246H122.923z"/>
	<path fill="#303030" d="M133.916,197.189l-1.984-12.699h-0.077v12.699h-4.694v-27.148h5.688c5.571,0,5.686,3.093,5.686,5.372v3.663
		c0,1.629-0.037,3.664-2.099,4.723l2.099,13.391H133.916z M133.801,174.273c0-0.57-0.42-1.059-0.953-1.059h-0.993v8.1h0.993
		c0.533,0,0.953-0.487,0.953-1.058V174.273z"/>
	<path fill="#303030" d="M140.176,197.189v-27.148h4.732v27.148H140.176z"/>
	<path fill="#303030" d="M158.343,192.102c0,2.279-0.114,5.373-5.687,5.373s-5.687-3.094-5.687-5.373v-5.535h4.694v6.716
		c0,0.57,0.458,1.018,0.992,1.018s0.954-0.447,0.954-1.018v-8.792h-6.641v-9.362c0-2.279,0.114-5.372,5.687-5.372
		s5.687,3.093,5.687,5.372v4.111h-4.732v-5.292c0-0.569-0.42-1.017-0.954-1.017s-0.954,0.447-0.954,1.017v7.367h6.641V192.102z"/>
</g>
</svg>
