<?xml version="1.0" encoding="utf-8"?>
<!-- Generator: Adobe Illustrator 16.0.0, SVG Export Plug-In . SVG Version: 6.00 Build 0)  -->
<!DOCTYPE svg PUBLIC "-//W3C//DTD SVG 1.1//EN" "http://www.w3.org/Graphics/SVG/1.1/DTD/svg11.dtd">
<svg version="1.1" id="Layer_2" xmlns="http://www.w3.org/2000/svg" xmlns:xlink="http://www.w3.org/1999/xlink" x="0px" y="0px"
	 width="70.239px" height="70.24px" viewBox="0 0 70.239 70.24" enable-background="new 0 0 70.239 70.24" xml:space="preserve">
<g>
	<polygon fill="#303030" points="70.083,45.879 55.67,33.332 70.059,16.803 49.147,-0.355 34.229,11.547 17.001,-0.33 -0.157,20.58 
		14.198,34.837 -0.133,49.266 23.85,69.885 35.737,59.348 49.463,69.86 	"/>
</g>
<g>
	<path fill="#303030" d="M57.19,26.62h-4.371h-3.201h-6.053h-2.633H37.62v0.737l0.169-0.737h-2.759h-3.374h-2.347l-0.813,2.264
		c-0.942-1.301-2.707-2.264-5.874-2.264H13.62v0.63c-1-0.273-1.378-0.63-2.747-0.63H2.62v14h8.463c1.239,0,1.537,0.488,2.537,0.216
		V40.62h10.497h6.719h2.243l0.261-0.919l0.262,0.919h4.382h4.998h4.094h2.748h2.996h4.354c4.829,0,7.829-2.553,7.829-7.024
		C65.002,29.02,62.155,26.62,57.19,26.62z"/>
</g>
<g>
	<path fill="#EF6A2E" d="M4.981,29.092h5.892c3.22,0,4.491,0.805,4.491,2.607c0,1.32-0.547,1.803-1.706,2.109
		c1.32,0.306,1.98,0.998,1.98,2.447c0,1.85-1.835,2.736-4.556,2.736H4.981V29.092z M10.262,33.068c0.885,0,1.062-0.274,1.062-0.902
		c0-0.627-0.226-0.869-1.175-0.869H9.022v1.771H10.262z M10.31,36.787c1.143,0,1.271-0.307,1.271-0.982
		c0-0.66-0.161-0.966-1.24-0.966H9.022v1.948H10.31z"/>
	<path fill="#EF6A2E" d="M26.404,36.496l1.03,2.496h-4.33l-1.063-2.656c-0.177-0.451-0.434-0.645-0.981-0.645
		c0.016,0-0.354,0-0.354,0v3.301h-4.202v-9.9h6.117c3.381,0,4.572,1.143,4.572,3.381c0,1.561-0.854,2.334-1.996,2.769
		C25.68,35.434,26.114,35.805,26.404,36.496z M21.816,33.551c0.95,0,1.368-0.242,1.368-1.047c0-0.74-0.354-0.981-1.223-0.981h-1.255
		v2.028H21.816z"/>
	<path fill="#EF6A2E" d="M31.359,38.992h-4.008l3.558-9.9h5.279l3.559,9.9h-4.427l-0.403-1.417h-3.155L31.359,38.992z
		 M33.742,33.454c-0.209-0.725-0.402-2.157-0.402-2.157s-0.194,1.417-0.403,2.157c0,0-0.482,1.723-0.499,1.723h1.787L33.742,33.454z
		"/>
	<path fill="#EF6A2E" d="M40.258,29.092h4.281l1.738,3.3c0.436,0.806,0.822,1.933,0.822,1.933s-0.082-1.256-0.082-2.383v-2.85h3.525
		v9.9h-4.232l-1.771-3.349c-0.418-0.805-0.836-1.933-0.836-1.933s0.08,1.128,0.08,2.206v3.075h-3.525V29.092z"/>
	<path fill="#EF6A2E" d="M51.893,29.092h5.297c3.444,0,5.537,1.449,5.537,4.926c0,3.381-2.109,4.975-5.554,4.975h-5.28V29.092z
		 M56.819,36.238c1.336,0,1.643-0.338,1.643-2.107c0-1.771-0.307-2.286-1.643-2.286h-0.725v4.394H56.819z"/>
</g>
</svg>
