<?xml version="1.0" encoding="utf-8"?>
<!-- Generator: Adobe Illustrator 14.0.0, SVG Export Plug-In . SVG Version: 6.00 Build 43363)  -->
<!DOCTYPE svg PUBLIC "-//W3C//DTD SVG 1.1//EN" "http://www.w3.org/Graphics/SVG/1.1/DTD/svg11.dtd">
<svg version="1.1" id="Layer_1" xmlns="http://www.w3.org/2000/svg" xmlns:xlink="http://www.w3.org/1999/xlink" x="0px" y="0px"
	 width="6927.601px" height="500px" viewBox="0 0 6927.601 500" enable-background="new 0 0 6927.601 500" xml:space="preserve">
<path fill="#303030" d="M1298.014,426.861c-30.223-82.871-201.464-138.521-201.464-138.521s-3.104-38.803-2.137-38.918
	c23.857-2.863,38.373-12.273,47.572-70.234c10.118,2.465,5.031-11.263,8.776-17.381c3.939-6.437,11.924-13.16,5.688-18.448
	c-3.813-3.233-8.503-2.992-11.575-2.315c-0.31-51.364-16.883-116.807-79.292-118.821c-59.292-1.913-83.699,51.545-88.634,104.87
	c-2.722-0.967-9.988-2.866-15.578,1.874c-7.015,5.946,1.965,13.507,6.395,20.744c4.123,6.734-1.273,21.668,9.161,19.702
	c0.186,2.012,0.396,3.997,0.63,5.953c7.531,62.764,67.471,72.806,67.471,72.806c4.393,37.658-21.967,42.68-21.967,42.68
	c-80.338,15.063-170.717,100.422-165.696,165.695c4.234,55.05,90.604,120.811,125.091,131.027
	c-2.098,53.541-4.59,92.412-4.59,92.412l233.476-2.511c14.705-38.924,13.911-87.384,6.553-134.188
	C1311.67,469.541,1298.014,426.861,1298.014,426.861 M950.253,499.228c-32.638-27.615-20.607-60.664-20.607-60.664
	c2.512-40.17,53.242-72.396,53.242-72.396c2.892,45.291,2.823,102.047,1.641,154.796
	C971.118,509.048,950.253,499.228,950.253,499.228 M1209.94,502.761c-16.8-72.181-43.798-131.571-43.798-131.571
	s60.964,25.959,73.517,58.597C1249.368,455.031,1222.578,488.769,1209.94,502.761"/>
<polygon fill="#EF6A2E" points="1078.447,189.582 1077.879,187.716 1099.466,181.146 1087.93,120.585 1089.845,120.22 
	1101.709,182.502 "/>
<path fill="#EF6A2E" d="M1077.706,334.653c3.98-14.066,19.815-16.066,24.635-16.066c10.927,0,20.167,7.48,21.421,16.602
	c5.891,42.843-41.771,41.235-46.056,68.549c2.242-14.293-48.843-28.946-52.416-58.331c-1.507-12.406,7.361-23.04,20.82-24.677
	C1058.824,319.183,1070.31,320.644,1077.706,334.653"/>
<path fill="#FFFFFF" d="M1080.087,359.694c0.395-5.479-0.327-7.654-1.964-7.654c-1.77,0-4.717,3.58-4.717,7.248
	c0,2.626,2.292,2.763,7.729,3.483c4.847,0.636,6.877,1.318,8.056,2.13c1.115,0.771,1.507,1.813,1.507,2.945
	c0,3.803-4.127,6.295-10.154,6.659c-0.063,2.671-0.13,5.614-0.13,5.614c-2.291,0.361-4.716,0.636-4.716,0.636
	s-0.196-3.263-0.392-6.478c-3.146-0.454-6.616-1.586-9.368-3.08c0.721-2.037,1.573-3.939,1.573-3.939
	c3.013,1.268,8.057,2.173,11.006,2.173c2.421,0,3.731-0.454,3.731-1.132c0-1.406-5.829-1.54-10.154-2.535
	c-4.715-1.09-6.875-2.764-6.875-5.527c0-5.117,3.73-10.1,9.037-12.319c-0.262-3.938-0.455-8.196-0.455-8.196
	c3.928,0.18,7.532,0.453,7.532,0.453s-0.132,3.487-0.264,6.611c6.42,0.451,7.988,5.254,5.502,12.139
	C1086.571,358.925,1083.034,359.332,1080.087,359.694"/>
<path fill="#303030" d="M3097.214,517.532c-30.223-82.871-201.465-138.521-201.465-138.521s-3.104-38.803-2.136-38.919
	c23.858-2.863,38.374-12.273,47.571-70.234c10.119,2.468,5.032-11.262,8.777-17.381c3.94-6.436,11.926-13.16,5.688-18.447
	c-3.814-3.233-8.503-2.992-11.575-2.315c-0.31-51.363-16.883-116.807-79.292-118.82c-59.292-1.913-83.699,51.545-88.634,104.87
	c-2.722-0.967-9.988-2.866-15.578,1.873c-7.014,5.947,1.965,13.508,6.395,20.744c4.122,6.734-1.272,21.668,9.161,19.703
	c0.185,2.011,0.395,3.996,0.63,5.953c7.531,62.764,67.471,72.806,67.471,72.806c4.393,37.659-21.967,42.68-21.967,42.68
	c-80.338,15.063-170.718,100.422-165.696,165.695c4.234,55.05,90.604,120.811,125.091,131.028c-2.098,53.539-4.59,92.41-4.59,92.41
	l233.476-2.51c14.704-38.924,13.911-87.384,6.553-134.188C3110.87,560.212,3097.214,517.532,3097.214,517.532 M2749.453,589.898
	c-32.638-27.616-20.607-60.665-20.607-60.665c2.511-40.17,53.242-72.395,53.242-72.395c2.892,45.29,2.823,102.047,1.641,154.795
	C2770.318,599.718,2749.453,589.898,2749.453,589.898 M3009.14,593.432c-16.8-72.181-43.798-131.571-43.798-131.571
	s60.964,25.959,73.518,58.597C3048.568,545.702,3021.778,579.438,3009.14,593.432"/>
<polygon fill="#EF6A2E" points="2877.646,280.252 2877.079,278.388 2898.665,271.817 2887.129,211.256 2889.045,210.892 
	2900.908,273.173 "/>
<path fill="#303030" d="M1883.429,13.446c0,0-48.355-0.588-48.448,56.334c-0.085,50.623,6.501,79.084,33.406,78.958
	c0,0,3.222,9.025,0.852,20.679c-2.361,11.648-9.779,11.617-15.514,14.863c-14.947,8.465-18.781,13.271-25.73,35.532
	c-6.944,22.258-7.853,38.156-11.026,62.486c-3.676,28.18-6.84,56.724-9.803,75.964c-2.451,15.928-1.875,39.553,7.702,40.318
	c0,0,12.642,1.916,15.578-23.165c1.124-9.604,3.137-40.101,6.126-68.612c5.992-57.188,11.41-71.271,11.41-71.271
	s-6.706,58.188-9.228,165.663c-1.106,47.047,5.169,100.418-0.004,154.02c0,0-30.778,5.712-34.077,23.993
	c0,0,32.975,10.282,62.653-9.141c0,0-0.485-127.471,7.227-160.346c0,0,6.127-21.455,16.312-20.29
	c1.722,0.198,9.419-0.538,14.319,12.938c0,0,22.61,75.378,24.505,171.531c0,0-26.955,7.352-33.082,28.181
	c0,0,58.812,0,58.812-13.478c0-58.318-4.901-139.676-13.478-202.162c0,0-12.406-131.649-14.317-147.567c0,0,1.699-14.862,6.913-4.81
	c12.304,23.729,18.62,82.396,19.516,123.719c0.498,22.917,1.47,42.822,7.664,45.1c20.983,7.719,22.021-30.794,20.354-54.752
	c-3.89-55.937-23.32-138.441-46.032-154.473c-20.829-14.703-39.673-16.125-38.677-31.104c0,0-1.601-6.754,0.695-15.185
	c0,0,22.345-5.938,28.41-29.123C1932.532,95.062,1943.365,14.561,1883.429,13.446"/>
<polygon fill="#EF6A2E" points="1869.191,112.781 1854.127,111.152 1861.136,87.771 1863.004,88.331 1856.668,109.466 
	1869.401,110.843 "/>
<path fill="#303030" d="M1922.748,83.641c0,0,13.713-12.995,16.15-4.87c2.967,9.892-5.762,11.325-5.687,17.874
	c0.076,6.551-4.063,17.063-9.979,11.581C1916.255,101.764,1922.748,83.641,1922.748,83.641"/>
<polygon fill="#F2F2F2" points="1887.726,207.944 1895.388,196.611 1888.987,208.364 "/>
<path fill="#EF6A2E" d="M1889.143,208.759l-1.926-0.642l7.902-11.688l0.555,0.338L1889.143,208.759z M1888.235,207.771l0.596,0.199
	l3.027-5.559L1888.235,207.771z"/>
<polygon fill="#F2F2F2" points="1882.08,209.194 1877.32,196.368 1883.154,208.413 "/>
<path fill="#EF6A2E" d="M1881.924,209.708l-4.908-13.227l0.597-0.254l5.952,12.289L1881.924,209.708z M1879.986,202.617l2.25,6.062
	l0.507-0.369L1879.986,202.617z"/>
<path fill="#F2F2F2" d="M1884.579,210.2c0,0,11.438,0.104,19.834,1.679c0,0,2.307,0.21,2.832,1.154c0,0,3.252,2.624,3.358,6.087
	c0.105,3.463-1.47,18.392-1.47,18.392s-0.104,1.993-1.258,3.673c-1.155,1.678-1.784,2.834-4.408,2.938
	c-2.623,0.105-36.413,0.211-36.413,0.211s-2.307-0.211-3.043-1.68c-0.629-1.259-0.839-3.568-0.839-3.568s-0.944-11.045-0.839-23.219
	c0,0,0.21-2.099,0.839-3.147c0.631-1.05,2.099-1.68,3.463-1.888C1868,210.62,1880.172,210.096,1884.579,210.2"/>
<path fill="#EF6A2E" d="M1867.04,244.657h-0.015c-0.102-0.01-2.497-0.246-3.304-1.857c-0.649-1.301-0.864-3.588-0.873-3.685
	c-0.009-0.112-0.943-11.202-0.84-23.25c0.011-0.12,0.226-2.215,0.886-3.313c0.611-1.02,1.992-1.782,3.692-2.043
	c1.253-0.192,11.568-0.647,16.646-0.647c0.505,0,0.96,0.005,1.355,0.014c0.11,0.001,11.558,0.124,19.886,1.685
	c0.219,0.019,2.384,0.244,3.022,1.259c0.423,0.354,3.33,2.908,3.433,6.292c0.105,3.445-1.407,17.824-1.471,18.436
	c-0.003,0.069-0.122,2.088-1.314,3.822l-0.198,0.289c-1.063,1.559-1.831,2.686-4.465,2.79c-2.599,0.104-36.087,0.21-36.425,0.21
	H1867.04z M1883.232,210.511c-5.058,0-15.309,0.45-16.547,0.641c-1.167,0.179-2.63,0.729-3.233,1.734
	c-0.584,0.974-0.792,2.993-0.795,3.014c-0.101,11.989,0.83,23.049,0.84,23.158c0.002,0.021,0.212,2.262,0.806,3.45
	c0.62,1.237,2.586,1.48,2.768,1.499c0.919-0.002,33.82-0.106,36.384-0.209c2.307-0.092,2.927-1.001,3.955-2.507l0.198-0.291
	c1.089-1.585,1.201-3.487,1.202-3.506c0.018-0.166,1.572-14.962,1.469-18.364c-0.099-3.275-3.206-5.818-3.237-5.844l-0.08-0.096
	c-0.36-0.647-2.023-0.938-2.578-0.988c-8.302-1.554-19.693-1.676-19.807-1.678C1884.181,210.516,1883.73,210.511,1883.232,210.511"
	/>
<path fill="#EF6A2E" d="M1899.585,217.546c0,0,0-2.833-0.946-3.254c0,0-0.629-0.838-3.357-1.259
	c-2.728-0.42-17.208-0.944-27.281,0.315c0,0-1.155,0.209-2.52,0.84c-1.364,0.63-1.155,3.777-1.155,3.777s-0.315,14.562,0.63,19.912
	c0,0,0.21,1.785,1.155,2.625c0.943,0.839,3.462,0.734,3.462,0.734s17.629-0.053,24.765-0.578c0,0,1.364,0.105,2.729-0.734
	c1.364-0.84,1.258-3.043,1.258-3.043S1899.585,225.731,1899.585,217.546"/>
<path fill="#F2F2F2" d="M1885.839,207.683c2.666,0,4.833,1.182,4.876,2.647l-9.754-0.156
	C1881.003,208.707,1883.17,207.683,1885.839,207.683"/>
<path fill="#EF6A2E" d="M1891.051,210.661l-10.424-0.168l0.009-0.328c0.047-1.627,2.235-2.808,5.204-2.808
	c2.867,0,5.152,1.302,5.201,2.964L1891.051,210.661z M1881.344,209.854l8.987,0.146c-0.36-1.11-2.283-1.993-4.491-1.993
	C1883.552,208.007,1881.691,208.796,1881.344,209.854"/>
<path fill="#F2F2F2" d="M1900.529,231.374c0,0.781,0.681,1.416,1.521,1.416s1.521-0.635,1.521-1.416
	c0-0.783-0.681-1.417-1.521-1.417S1900.529,230.591,1900.529,231.374"/>
<path fill="#EF6A2E" d="M1902.051,233.114c-1.018,0-1.847-0.781-1.847-1.74c0-0.961,0.829-1.742,1.847-1.742
	c1.018,0,1.846,0.781,1.846,1.742C1903.896,232.333,1903.068,233.114,1902.051,233.114 M1902.051,230.282
	c-0.66,0-1.197,0.489-1.197,1.092c0,0.602,0.537,1.09,1.197,1.09c0.659,0,1.196-0.488,1.196-1.09
	C1903.247,230.771,1902.71,230.282,1902.051,230.282"/>
<path fill="#F2F2F2" d="M1900.058,237.039c0,0.782,0.681,1.417,1.521,1.417s1.522-0.635,1.522-1.417s-0.683-1.417-1.522-1.417
	S1900.058,236.257,1900.058,237.039"/>
<path fill="#EF6A2E" d="M1901.578,238.78c-1.018,0-1.846-0.781-1.846-1.741s0.828-1.741,1.846-1.741
	c1.018,0,1.847,0.781,1.847,1.741S1902.596,238.78,1901.578,238.78 M1901.578,235.947c-0.659,0-1.196,0.489-1.196,1.092
	s0.537,1.092,1.196,1.092c0.66,0,1.197-0.489,1.197-1.092S1902.238,235.947,1901.578,235.947"/>
<path fill="#F2F2F2" d="M1907.245,213.033c0,0,0.525,1.785,0.316,4.513"/>
<path fill="#EF6A2E" d="M1907.884,217.571l-0.648-0.051c0.202-2.638-0.299-4.379-0.304-4.396l0.624-0.183
	C1907.578,213.017,1908.095,214.815,1907.884,217.571"/>
<path fill="#F2F2F2" d="M1905.147,243.808c0,0,1.258-0.105,1.258-4.932"/>
<path fill="#EF6A2E" d="M1905.174,244.132l-0.054-0.647l0.027,0.323l-0.057-0.319c0.01-0.002,0.99-0.343,0.99-4.612h0.651
	C1906.73,243.755,1905.434,244.111,1905.174,244.132"/>
<path fill="#F2F2F2" d="M1864.326,217.966c0,0-0.209-3.147,1.154-3.777c1.366-0.631,2.52-0.84,2.52-0.84
	c5.051-0.632,12.155-0.814,17.069-0.787c-4.477,0.025-10.763,0.234-15.18,0.787c0,0-1.156,0.209-2.52,0.84
	c-1.365,0.63-1.155,3.777-1.155,3.777s-0.315,14.562,0.631,19.912c0,0,0.208,1.785,1.154,2.625c0.617,0.549,1.909,0.692,2.729,0.728
	c-0.734,0.005-1.155,0.006-1.155,0.006s-2.519,0.105-3.463-0.733c-0.944-0.84-1.154-2.625-1.154-2.625
	C1864.011,232.527,1864.326,217.966,1864.326,217.966"/>
<path fill="#EF6A2E" d="M1869.303,241.565c-0.929,0-2.606-0.106-3.409-0.82c-1.025-0.912-1.252-2.751-1.261-2.828
	c-0.937-5.304-0.645-19.361-0.632-19.957c-0.021-0.316-0.18-3.363,1.343-4.066c1.387-0.641,2.549-0.855,2.598-0.865
	c5.894-0.737,13.872-0.795,16.177-0.795l0.952,0.003v0.649c-2.179,0.014-9.713,0.106-15.142,0.785c0.003,0-1.119,0.21-2.423,0.813
	c-0.951,0.439-1.02,2.647-0.967,3.461c-0.002,0.174-0.303,14.619,0.627,19.877c0.004,0.035,0.209,1.691,1.05,2.438
	c0.407,0.362,1.327,0.598,2.526,0.646l-0.012,0.65l-1.155,0.006C1869.575,241.562,1869.471,241.565,1869.303,241.565
	 M1867.336,213.847c-0.445,0.127-1.059,0.332-1.72,0.637c-0.952,0.439-1.02,2.647-0.966,3.461
	c-0.002,0.174-0.303,14.619,0.626,19.877c0.004,0.035,0.211,1.691,1.05,2.438c0.341,0.304,0.951,0.468,1.542,0.556
	c-0.029-0.023-0.057-0.046-0.084-0.07c-1.027-0.911-1.252-2.751-1.261-2.829c-0.938-5.302-0.646-19.36-0.633-19.956
	c-0.022-0.316-0.179-3.363,1.344-4.066C1867.269,213.878,1867.302,213.862,1867.336,213.847"/>
<path fill="#F2F2F2" d="M1894.18,196.56c0,0.55,0.446,0.996,0.998,0.996c0.549,0,0.996-0.446,0.996-0.996
	c0-0.552-0.447-0.998-0.996-0.998C1894.626,195.562,1894.18,196.008,1894.18,196.56"/>
<path fill="#EF6A2E" d="M1895.178,197.882c-0.729,0-1.323-0.594-1.323-1.322c0-0.729,0.595-1.322,1.323-1.322
	c0.729,0,1.322,0.593,1.322,1.322C1896.5,197.288,1895.907,197.882,1895.178,197.882 M1895.178,195.887
	c-0.371,0-0.673,0.302-0.673,0.673c0,0.37,0.302,0.672,0.673,0.672c0.37,0,0.672-0.302,0.672-0.672
	C1895.85,196.188,1895.548,195.887,1895.178,195.887"/>
<path fill="#F2F2F2" d="M1876.575,197.319c0.449,0.321,1.072,0.217,1.391-0.229c0.321-0.448,0.218-1.071-0.23-1.392
	c-0.447-0.32-1.071-0.217-1.391,0.23S1876.128,196.999,1876.575,197.319"/>
<path fill="#EF6A2E" d="M1877.155,197.831L1877.155,197.831c-0.277,0-0.543-0.086-0.77-0.247c-0.592-0.425-0.729-1.252-0.305-1.845
	c0.408-0.57,1.271-0.716,1.844-0.306c0.287,0.206,0.479,0.511,0.535,0.858c0.058,0.35-0.024,0.699-0.229,0.986
	C1877.984,197.624,1877.581,197.831,1877.155,197.831 M1877.157,195.837c-0.217,0-0.422,0.104-0.547,0.281
	c-0.216,0.301-0.146,0.721,0.155,0.938c0.115,0.082,0.249,0.125,0.39,0.125c0.217,0,0.421-0.104,0.546-0.28
	c0.105-0.147,0.147-0.325,0.118-0.502c-0.03-0.177-0.126-0.332-0.272-0.437C1877.432,195.88,1877.298,195.837,1877.157,195.837"/>
<path fill="#303030" d="M2092.729,13.446c0,0-48.355-0.588-48.448,56.334c-0.086,50.623,6.501,79.084,33.406,78.958
	c0,0,3.222,9.025,0.852,20.679c-2.36,11.648-9.779,11.617-15.514,14.863c-14.947,8.465-18.781,13.271-25.73,35.532
	c-6.944,22.258-7.854,38.156-11.026,62.486c-3.677,28.18-6.84,56.724-9.803,75.964c-2.451,15.928-1.875,39.553,7.702,40.318
	c0,0,12.642,1.916,15.578-23.165c1.124-9.604,3.137-40.101,6.126-68.612c5.992-57.188,11.41-71.271,11.41-71.271
	s-6.706,58.188-9.228,165.663c-1.106,47.047,5.169,100.418-0.004,154.02c0,0-30.779,5.712-34.077,23.993
	c0,0,32.975,10.282,62.653-9.141c0,0-0.485-127.471,7.227-160.346c0,0,6.127-21.455,16.312-20.29
	c1.723,0.198,9.419-0.538,14.319,12.938c0,0,22.61,75.378,24.504,171.531c0,0-26.954,7.352-33.081,28.181
	c0,0,58.811,0,58.811-13.478c0-58.318-4.901-139.676-13.477-202.162c0,0-12.406-131.649-14.317-147.567c0,0,1.699-14.862,6.913-4.81
	c12.304,23.729,18.62,82.396,19.516,123.719c0.498,22.917,1.47,42.822,7.664,45.1c20.983,7.719,22.021-30.794,20.354-54.752
	c-3.89-55.937-23.32-138.441-46.032-154.473c-20.83-14.703-39.673-16.125-38.677-31.104c0,0-1.601-6.754,0.695-15.185
	c0,0,22.345-5.938,28.411-29.123C2141.832,95.062,2152.665,14.561,2092.729,13.446"/>
<polygon fill="#EF6A2E" points="2078.491,112.781 2063.427,111.152 2070.436,87.771 2072.303,88.331 2065.968,109.466 
	2078.701,110.843 "/>
<path fill="#303030" d="M2132.047,83.641c0,0,13.713-12.995,16.15-4.87c2.968,9.892-5.762,11.325-5.687,17.874
	c0.076,6.551-4.063,17.063-9.979,11.581C2125.556,101.764,2132.047,83.641,2132.047,83.641"/>
<path fill="#F2F2F2" d="M2111.951,200.413c0,1.246,1.01,2.256,2.255,2.256c1.246,0,2.256-1.01,2.256-2.256
	c0-1.245-1.01-2.256-2.256-2.256C2112.961,198.157,2111.951,199.168,2111.951,200.413"/>
<path fill="#EF6A2E" d="M2114.206,202.993c-1.423,0-2.58-1.156-2.58-2.58c0-1.422,1.157-2.58,2.58-2.58
	c1.424,0,2.582,1.158,2.582,2.58C2116.788,201.837,2115.63,202.993,2114.206,202.993 M2114.206,198.483
	c-1.064,0-1.93,0.865-1.93,1.93s0.866,1.931,1.93,1.931c1.065,0,1.932-0.866,1.932-1.931S2115.271,198.483,2114.206,198.483"/>
<polygon fill="#F2F2F2" points="2111.951,200.413 2081.928,208.579 2082.86,210.913 "/>
<path fill="#EF6A2E" d="M2082.676,211.325l-1.185-2.963l30.375-8.262l0.195,0.619L2082.676,211.325z M2082.365,208.798l0.681,1.703
	l21.233-7.664L2082.365,208.798z"/>
<path fill="#F2F2F2" d="M2078.504,211.934c0-1.718,1.393-3.346,3.112-3.346c1.717,0,3.112,1.744,3.112,3.462
	c0,0.185-0.023-0.047-0.054,0.887h-6.116C2078.528,212.003,2078.504,212.117,2078.504,211.934"/>
<path fill="#EF6A2E" d="M2084.988,213.261h-6.745l-0.01-0.314c-0.019-0.592-0.036-0.75-0.045-0.839
	c-0.006-0.059-0.01-0.095-0.01-0.174c0-1.956,1.606-3.671,3.437-3.671c1.967,0,3.438,2,3.438,3.787c0,0.093-0.005,0.116-0.012,0.158
	c-0.007,0.04-0.023,0.136-0.042,0.738L2084.988,213.261z M2078.872,212.611h5.489c0.016-0.372,0.03-0.454,0.039-0.512
	c0.003-1.53-1.189-3.187-2.784-3.187c-1.484,0-2.787,1.412-2.787,3.021c0,0.048,0.003,0.069,0.007,0.106
	C2078.843,212.114,2078.856,212.238,2078.872,212.611"/>
<path fill="#F2F2F2" d="M2082.547,212.003h32.358c8.4,0.934,7.312,8.867,7.312,8.867v22.867h-51.336V220.87
	C2070.881,220.87,2072.903,212.003,2082.547,212.003"/>
<path fill="#EF6A2E" d="M2122.542,244.063h-51.986l0.008-23.265c0.021-0.092,2.192-9.12,11.982-9.12h32.358
	c2.682,0.296,4.689,1.299,6.001,2.983c2.094,2.688,1.653,6.109,1.633,6.253L2122.542,244.063z M2071.206,243.412h50.686V220.87
	c0.008-0.076,0.424-3.348-1.503-5.814c-1.2-1.538-3.057-2.457-5.52-2.73l-32.322,0.002c-9.06,0-11.176,7.904-11.341,8.58V243.412z"
	/>
<path fill="#F2F2F2" d="M2110.548,226.314c0,2.491-2.02,4.511-4.511,4.511s-4.51-2.02-4.51-4.511s2.019-4.512,4.51-4.512
	S2110.548,223.823,2110.548,226.314"/>
<path fill="#EF6A2E" d="M2106.037,231.15c-2.666,0-4.835-2.168-4.835-4.835s2.169-4.838,4.835-4.838
	c2.667,0,4.836,2.171,4.836,4.838S2108.704,231.15,2106.037,231.15 M2106.037,222.128c-2.308,0-4.186,1.878-4.186,4.188
	c0,2.307,1.878,4.186,4.186,4.186c2.308,0,4.186-1.879,4.186-4.186C2110.223,224.006,2108.345,222.128,2106.037,222.128"/>
<path fill="#EF6A2E" d="M2097.482,226.314c0-2.978,2.333-5.55,4.2-6.804v-1.908h-16.956c-6.431,0-8.245,5.289-8.245,5.289v15.246
	h25.201v-5.021C2099.814,231.863,2097.482,229.291,2097.482,226.314"/>
<path fill="#EF6A2E" d="M2105.337,217.758c-0.209,0-0.389,0.017-1.321,0.03v1.557c0.932-0.018,1.112-0.03,1.321-0.03
	c3.866,0,7.35,3.134,7.35,7s-3.659,7.001-7.525,7.001c-0.209,0-0.214-0.016-1.146-0.031v1.556c0.932,0.015,1.112,0.031,1.321,0.031
	c4.725,0,8.557-3.831,8.557-8.557S2110.062,217.758,2105.337,217.758"/>
<rect x="2078.814" y="220.078" fill="#F2F2F2" width="19.601" height="0.649"/>
<rect x="2076.947" y="223.812" fill="#F2F2F2" width="19.603" height="0.65"/>
<rect x="2076.947" y="227.547" fill="#F2F2F2" width="18.667" height="0.648"/>
<rect x="2076.947" y="231.278" fill="#F2F2F2" width="19.603" height="0.65"/>
<rect x="2076.947" y="235.014" fill="#F2F2F2" width="21.468" height="0.648"/>
<rect x="2116.847" y="219.003" fill="#EF6A2E" width="3.731" height="18.668"/>
<line fill="#F2F2F2" x1="2110.55" y1="226.937" x2="2105.883" y2="226.937"/>
<rect x="2105.883" y="226.612" fill="#EF6A2E" width="4.667" height="0.649"/>
<rect x="2118.948" y="220.078" fill="#F2F2F2" width="0.936" height="0.649"/>
<rect x="2118.948" y="223.812" fill="#F2F2F2" width="0.936" height="0.65"/>
<rect x="2118.948" y="227.547" fill="#F2F2F2" width="0.936" height="0.648"/>
<rect x="2118.948" y="231.278" fill="#F2F2F2" width="0.936" height="0.65"/>
<rect x="2118.948" y="235.014" fill="#F2F2F2" width="0.936" height="0.648"/>
<rect x="2117.083" y="221.945" fill="#F2F2F2" width="0.934" height="0.649"/>
<rect x="2117.083" y="225.68" fill="#F2F2F2" width="0.934" height="0.648"/>
<rect x="2117.083" y="229.411" fill="#F2F2F2" width="0.934" height="0.65"/>
<rect x="2117.083" y="233.146" fill="#F2F2F2" width="0.934" height="0.65"/>
<path fill="#303030" d="M2302.028,13.446c0,0-48.355-0.588-48.448,56.334c-0.086,50.623,6.501,79.084,33.406,78.958
	c0,0,3.222,9.025,0.852,20.679c-2.36,11.648-9.778,11.617-15.514,14.863c-14.947,8.465-18.781,13.271-25.73,35.532
	c-6.944,22.258-7.854,38.156-11.026,62.486c-3.676,28.18-6.839,56.724-9.802,75.964c-2.451,15.928-1.876,39.553,7.701,40.318
	c0,0,12.642,1.916,15.578-23.165c1.124-9.604,3.138-40.101,6.126-68.612c5.993-57.188,11.41-71.271,11.41-71.271
	s-6.706,58.188-9.228,165.663c-1.106,47.047,5.17,100.418-0.004,154.02c0,0-30.779,5.712-34.077,23.993
	c0,0,32.975,10.282,62.653-9.141c0,0-0.485-127.471,7.228-160.346c0,0,6.126-21.455,16.311-20.29
	c1.722,0.198,9.419-0.538,14.319,12.938c0,0,22.61,75.378,24.504,171.531c0,0-26.954,7.352-33.08,28.181c0,0,58.811,0,58.811-13.478
	c0-58.318-4.901-139.676-13.478-202.162c0,0-12.406-131.649-14.317-147.567c0,0,1.699-14.862,6.913-4.81
	c12.304,23.729,18.62,82.396,19.516,123.719c0.498,22.917,1.47,42.822,7.665,45.1c20.983,7.719,22.02-30.794,20.353-54.752
	c-3.89-55.937-23.32-138.441-46.032-154.473c-20.829-14.703-39.672-16.125-38.676-31.104c0,0-1.602-6.754,0.694-15.185
	c0,0,22.345-5.938,28.411-29.123C2351.132,95.062,2361.966,14.561,2302.028,13.446"/>
<polygon fill="#EF6A2E" points="2287.791,112.781 2272.727,111.152 2279.736,87.771 2281.604,88.331 2275.268,109.466 
	2288.001,110.843 "/>
<path fill="#303030" d="M2341.348,83.641c0,0,13.713-12.995,16.15-4.87c2.967,9.892-5.762,11.325-5.687,17.874
	c0.076,6.551-4.063,17.063-9.979,11.581C2334.855,101.764,2341.348,83.641,2341.348,83.641"/>
<path fill="#F2F2F2" d="M2295.766,203.216c0,0-3.58-0.354-3.93,3.157l-7.174,45.403c0,0-0.653,2.949,1.498,3.744
	c2.609,0.964,15.906,3.555,24.514,4.865c0,0,4.491,1.87,5.989-2.62c1.497-4.49,6.61-46.902,6.61-46.902s0.843-4.631-2.806-5.425
	c0,0-2.059-0.75-2.059-2.247l0.561-2.618c0,0,0.515-1.077-0.679-1.429c-1.192-0.35-2.315-0.842-2.595,0.772
	c-0.281,1.614-0.561,2.526-0.561,2.526s-0.211,1.403-1.194,1.403C2312.958,203.847,2295.766,203.216,2295.766,203.216"/>
<path fill="#EF6A2E" d="M2312.754,261.097c-1.083,0-1.97-0.319-2.167-0.396c-8.439-1.285-21.838-3.877-24.54-4.875
	c-1.912-0.707-1.95-3.004-1.703-4.119l7.17-45.384c0.318-3.192,3.13-3.442,3.984-3.442c0.188,0,0.299,0.012,0.299,0.012
	c0.153,0.006,17.179,0.631,18.143,0.631c0.683,0,0.87-1.116,0.871-1.127c0.014-0.057,0.29-0.963,0.563-2.533
	c0.161-0.928,0.626-1.396,1.382-1.396c0.415,0,0.865,0.137,1.34,0.281l0.285,0.086c0.457,0.134,0.766,0.378,0.92,0.725
	c0.214,0.479,0.04,0.968-0.022,1.115l-0.546,2.551c0.031,1.234,1.826,1.902,1.845,1.909c3.868,0.839,3.023,5.741,3.014,5.79
	c-0.206,1.714-5.131,42.476-6.621,46.945C2316.081,260.536,2314.186,261.097,2312.754,261.097 M2295.498,203.53
	c-0.917,0-3.08,0.28-3.339,2.875l-7.176,45.422c-0.027,0.129-0.568,2.701,1.289,3.389c2.626,0.97,16.22,3.596,24.45,4.848
	l0.076,0.021c0.009,0.004,0.887,0.361,1.956,0.361c1.773,0,2.984-0.937,3.6-2.783c1.47-4.408,6.545-46.414,6.596-46.838
	c0.034-0.195,0.743-4.352-2.553-5.069c-0.135-0.046-2.315-0.859-2.315-2.564l0.007-0.067l0.586-2.691
	c0.001-0.002,0.155-0.342,0.031-0.614c-0.073-0.163-0.244-0.284-0.508-0.362l-0.292-0.088c-0.428-0.13-0.831-0.253-1.15-0.253
	c-0.287,0-0.604,0.066-0.741,0.857c-0.281,1.616-0.559,2.528-0.571,2.566c0,0.021-0.256,1.633-1.504,1.633
	c-0.976,0-17.484-0.606-18.187-0.632C2295.727,203.538,2295.64,203.53,2295.498,203.53"/>
<path fill="#EF6A2E" d="M2296.818,205.039c0,0-2.736-0.444-3.205,1.802c-0.519,2.488-6.447,42.552-6.447,42.552
	s-0.702,2.104,1.404,2.384c2.104,0.282,15.016,2.105,22.454,2.387c0,0,1.826-0.211,2.317-2.457
	c0.491-2.244,5.091-41.754,5.091-41.754s0.49-2.105-2.316-2.879C2313.31,206.303,2300.116,205.393,2296.818,205.039"/>
<path fill="#F2F2F2" d="M2320.091,209.555l-0.467,5.007c0,0-0.234,0.84,0.421,0.981c0.655,0.14,1.077,0.187,1.077,0.187
	s0.56,0.047,0.747-0.795c0.188-0.844,0.656-5.053,0.656-5.053s0.045-0.561-0.374-0.795c-0.421-0.234-1.591-0.188-1.591-0.188
	S2320.232,208.946,2320.091,209.555"/>
<path fill="#EF6A2E" d="M2321.138,216.055l-0.044-0.002c-0.027-0.003-0.453-0.052-1.116-0.192c-0.253-0.055-0.452-0.191-0.576-0.396
	c-0.244-0.404-0.108-0.932-0.091-0.99l0.457-4.949c0.192-0.846,0.69-0.939,0.746-0.946c0.033-0.002,0.133-0.007,0.288-0.007
	c0.723,0,1.23,0.078,1.507,0.232c0.475,0.264,0.563,0.818,0.54,1.104c-0.02,0.183-0.474,4.247-0.662,5.097
	C2321.964,216.004,2321.274,216.055,2321.138,216.055 M2320.584,209.224c0.021,0.006-0.102,0.082-0.176,0.404l-0.461,4.963
	c-0.037,0.157-0.067,0.408,0.012,0.539c0.021,0.033,0.057,0.074,0.154,0.096c0.564,0.119,0.953,0.169,1.031,0.179
	c0.048-0.003,0.296-0.04,0.408-0.54c0.181-0.816,0.645-4.972,0.65-5.018c0,0,0.016-0.35-0.21-0.476
	c-0.131-0.073-0.512-0.15-1.19-0.15C2320.692,209.221,2320.613,209.223,2320.584,209.224"/>
<path fill="#F2F2F2" d="M2320.185,216.524c0,0-0.42-0.14-0.607,0.516c-0.188,0.654-0.329,2.385-0.329,2.385s0,0.516,0.656,0.562
	c0.655,0.048,0.747,0,0.889-0.562c0.141-0.562,0.328-2.199,0.328-2.199S2321.262,216.618,2320.185,216.524"/>
<path fill="#EF6A2E" d="M2320.205,220.325L2320.205,220.325c-0.091,0-0.198-0.006-0.324-0.015c-0.757-0.054-0.957-0.603-0.957-0.886
	c0.007-0.098,0.146-1.797,0.341-2.475c0.197-0.689,0.642-0.764,0.824-0.764c0.063,0,0.115,0.009,0.151,0.017
	c0.504,0.048,0.86,0.21,1.056,0.481c0.159,0.218,0.176,0.467,0.142,0.614c-0.002,0.032-0.185,1.63-0.329,2.205
	C2320.991,219.97,2320.85,220.325,2320.205,220.325 M2320.083,216.833c-0.064,0.004-0.141,0.115-0.192,0.296
	c-0.177,0.617-0.316,2.306-0.317,2.323c0.006,0.047,0.058,0.189,0.354,0.211c0.29,0.02,0.438-0.002,0.443-0.006
	c0.014-0.013,0.048-0.072,0.109-0.313c0.134-0.533,0.318-2.139,0.32-2.157c0.004-0.029,0.008-0.077-0.035-0.13
	c-0.041-0.051-0.183-0.172-0.608-0.209L2320.083,216.833z"/>
<path fill="#F2F2F2" d="M2294.721,254.116l6.129,0.889c0,0,1.029,0.234,0.935,0.982c-0.093,0.75-0.139,1.029-0.139,1.029
	s-0.375,0.749-1.03,0.609c-0.646-0.14-6.364-1.311-6.364-1.311s-0.606,0.047-0.56-0.608l0.187-0.843
	C2293.879,254.864,2293.832,254.023,2294.721,254.116"/>
<path fill="#EF6A2E" d="M2300.778,257.968c-0.076,0-0.154-0.009-0.231-0.024c-0.621-0.134-5.941-1.224-6.337-1.306
	c-0.177-0.006-0.435-0.051-0.63-0.258c-0.11-0.12-0.238-0.337-0.212-0.695l0.185-0.854c0.002-0.134,0.031-0.484,0.283-0.75
	c0.144-0.153,0.421-0.344,0.918-0.288l6.143,0.891c0.48,0.108,1.314,0.522,1.211,1.344c-0.095,0.759-0.142,1.042-0.142,1.042
	l-0.03,0.093C2301.92,257.194,2301.525,257.968,2300.778,257.968 M2294.589,254.435c-0.193,0-0.26,0.069-0.281,0.092
	c-0.107,0.113-0.105,0.318-0.105,0.32l0.002,0.045l-0.196,0.886c0.003,0.009,0.003,0.111,0.047,0.159
	c0.04,0.043,0.126,0.055,0.17,0.055l0.092,0.007c0,0,5.72,1.171,6.366,1.31c0.322,0.07,0.576-0.28,0.649-0.4
	c0.018-0.113,0.061-0.407,0.13-0.961c0.056-0.444-0.679-0.622-0.686-0.624l-6.103-0.884
	C2294.652,254.437,2294.62,254.435,2294.589,254.435"/>
<path fill="#F2F2F2" d="M2306.183,258.233l0.281-1.403c0,0,0.139-0.702,0.888-0.608s2.666,0.28,2.666,0.28"/>
<path fill="#EF6A2E" d="M2306.502,258.296l-0.637-0.127l0.28-1.402c0.08-0.402,0.479-0.965,1.248-0.867
	c0.746,0.093,2.656,0.279,2.657,0.279l-0.063,0.646c0,0-1.923-0.188-2.675-0.281c-0.425-0.051-0.516,0.281-0.529,0.35
	L2306.502,258.296z"/>
<path fill="#F2F2F2" d="M2290.042,255.333l0.188-1.17c0,0,0.14-0.607-0.469-0.654c0,0-1.777-0.469-2.338-0.562"/>
<path fill="#EF6A2E" d="M2290.363,255.385l-0.642-0.103l0.188-1.169c0.015-0.075,0.015-0.179-0.021-0.227
	c-0.029-0.039-0.108-0.05-0.151-0.054c-0.076-0.015-1.827-0.477-2.366-0.565l0.106-0.642c0.57,0.096,2.294,0.55,2.367,0.568
	c0.286,0.017,0.472,0.178,0.568,0.309c0.225,0.305,0.144,0.691,0.135,0.733L2290.363,255.385z"/>
<path fill="#F2F2F2" d="M2288.289,250.796c0,0,5.929-40.063,6.448-42.552c0.468-2.245,3.204-1.801,3.204-1.801
	c3.298,0.351,16.491,1.263,19.297,2.034c0.464,0.129,0.836,0.293,1.137,0.478c-0.188-0.654-0.739-1.462-2.259-1.882
	c-2.806-0.771-16-1.682-19.298-2.034c0,0-2.736-0.444-3.205,1.802c-0.518,2.488-6.447,42.551-6.447,42.551s-0.608,1.83,1.017,2.305
	C2288.15,251.209,2288.289,250.796,2288.289,250.796"/>
<path fill="#EF6A2E" d="M2288.538,252.14l-0.447-0.131c-0.531-0.155-0.915-0.453-1.141-0.885c-0.425-0.811-0.107-1.794-0.093-1.836
	c0.229-1.58,5.923-40.044,6.438-42.514c0.278-1.332,1.363-2.096,2.978-2.096c0.348,0,0.587,0.038,0.597,0.039
	c0.876,0.094,2.533,0.232,4.453,0.395c5.405,0.455,12.807,1.079,14.879,1.648c1.688,0.464,2.283,1.401,2.485,2.104l0.232,0.806
	l-0.714-0.439c-0.294-0.18-0.649-0.328-1.054-0.439c-2.022-0.557-9.725-1.205-14.821-1.634c-1.896-0.159-3.533-0.297-4.423-0.391
	c-0.029-0.005-0.225-0.035-0.512-0.035c-0.918,0-2.068,0.274-2.341,1.578c-0.51,2.45-6.385,42.132-6.444,42.532
	c-0.014,0.058-0.13,0.419-0.103,0.833L2288.538,252.14z M2296.273,205.329c-0.918,0-2.069,0.273-2.342,1.578
	c-0.511,2.451-6.385,42.131-6.444,42.531c-0.016,0.063-0.258,0.822,0.04,1.387c0.082,0.155,0.197,0.281,0.347,0.381
	c0.035-0.295,0.102-0.5,0.106-0.514c0.229-1.581,5.923-40.045,6.438-42.515c0.278-1.331,1.363-2.095,2.977-2.095
	c0.348,0,0.588,0.038,0.599,0.039c0.865,0.092,2.499,0.229,4.39,0.389c5.427,0.457,12.86,1.082,14.94,1.654
	c0.095,0.026,0.189,0.055,0.281,0.085c-0.358-0.382-0.89-0.673-1.576-0.862c-2.014-0.554-9.685-1.2-14.761-1.627
	c-1.923-0.162-3.584-0.303-4.484-0.398C2296.755,205.358,2296.559,205.329,2296.273,205.329"/>
<path fill="#303030" d="M2510.028,13.446c0,0-48.355-0.588-48.448,56.334c-0.086,50.623,6.501,79.084,33.406,78.958
	c0,0,3.222,9.025,0.852,20.679c-2.36,11.648-9.778,11.617-15.514,14.863c-14.947,8.465-18.781,13.271-25.73,35.532
	c-6.944,22.258-7.854,38.156-11.026,62.486c-3.676,28.18-6.84,56.724-9.802,75.964c-2.451,15.928-1.876,39.553,7.701,40.318
	c0,0,12.642,1.916,15.578-23.165c1.124-9.604,3.137-40.101,6.126-68.612c5.993-57.188,11.41-71.271,11.41-71.271
	s-6.706,58.188-9.228,165.663c-1.106,47.047,5.17,100.418-0.004,154.02c0,0-30.779,5.712-34.077,23.993
	c0,0,32.975,10.282,62.653-9.141c0,0-0.485-127.471,7.228-160.346c0,0,6.126-21.455,16.311-20.29
	c1.722,0.198,9.419-0.538,14.319,12.938c0,0,22.61,75.378,24.504,171.531c0,0-26.954,7.352-33.08,28.181c0,0,58.811,0,58.811-13.478
	c0-58.318-4.901-139.676-13.478-202.162c0,0-12.406-131.649-14.317-147.567c0,0,1.699-14.862,6.913-4.81
	c12.304,23.729,18.62,82.396,19.516,123.719c0.498,22.917,1.47,42.822,7.665,45.1c20.983,7.719,22.02-30.794,20.353-54.752
	c-3.89-55.937-23.32-138.441-46.032-154.473c-20.829-14.703-39.672-16.125-38.676-31.104c0,0-1.602-6.754,0.694-15.185
	c0,0,22.345-5.938,28.411-29.123C2559.132,95.062,2569.966,14.561,2510.028,13.446"/>
<polygon fill="#EF6A2E" points="2495.791,112.781 2480.727,111.152 2487.736,87.771 2489.604,88.331 2483.268,109.466 
	2496.001,110.843 "/>
<path fill="#303030" d="M2549.348,83.641c0,0,13.713-12.995,16.15-4.87c2.967,9.892-5.762,11.325-5.687,17.874
	c0.076,6.551-4.063,17.063-9.979,11.581C2542.855,101.764,2549.348,83.641,2549.348,83.641"/>
<path fill="#F2F2F2" d="M2505.514,215.417l-6.005,20.494c0,0-0.355,1.235-2.122,1.944c-1.766,0.706-14.133,4.593-14.133,4.593
	s-0.855,0.182-1.06,1.414c-0.177,1.06,0,1.943,0,1.943l42.049,13.427c0,0,1.589,0.353,3.002-0.53
	c1.414-0.883,9.187-10.246,9.187-10.246s0.531-0.884,0.707-1.769c0.177-0.882,6.361-23.144,6.361-23.144s0.529-2.12-1.944-3.004
	c-1.578-0.563-18.374-4.416-32.684-7.596C2508.872,212.944,2506.573,212.768,2505.514,215.417"/>
<path fill="#EF6A2E" d="M2525.028,259.628L2525.028,259.628c-0.502,0-0.842-0.074-0.856-0.078l-42.26-13.493l-0.038-0.188
	c-0.008-0.038-0.186-0.954-0.002-2.061c0.239-1.435,1.27-1.669,1.314-1.679c0.093-0.03,12.345-3.883,14.08-4.577
	c1.581-0.632,1.917-1.688,1.93-1.733l6.005-20.493c1.031-2.581,3.163-2.71,3.58-2.71c0.075,0,0.115,0.004,0.115,0.004
	c14.908,3.31,31.212,7.059,32.768,7.615c2.72,0.971,2.156,3.363,2.151,3.388c-0.064,0.23-6.185,22.268-6.358,23.13
	c-0.185,0.928-0.723,1.832-0.746,1.869c-0.348,0.425-7.853,9.455-9.294,10.355C2526.558,259.515,2525.644,259.628,2525.028,259.628
	 M2524.339,258.922c0.008,0,0.287,0.056,0.689,0.056c0.531,0,1.316-0.096,2.044-0.551c1.123-0.701,6.955-7.584,9.109-10.178
	c-0.004,0,0.479-0.824,0.639-1.624c0.177-0.886,6.114-22.259,6.367-23.168c0.015-0.065,0.413-1.841-1.742-2.61
	c-1.532-0.547-17.801-4.287-32.644-7.585l-0.02,0.005c-0.482,0-2.123,0.164-2.966,2.271l-5.996,20.465
	c-0.015,0.055-0.418,1.397-2.312,2.153c-1.758,0.704-13.651,4.443-14.156,4.603c-0.052,0.014-0.674,0.176-0.837,1.156
	c-0.118,0.709-0.068,1.342-0.03,1.643L2524.339,258.922z"/>
<path fill="#F2F2F2" d="M2483.43,243.331c0,0,36.042,12.014,40.635,13.252c0,0,1.591,0.176,2.65-0.531l8.657-9.363l-34.451-9.363
	L2483.43,243.331z"/>
<path fill="#EF6A2E" d="M2524.516,256.927c-0.297,0-0.487-0.021-0.487-0.021c-4.598-1.234-40.341-13.145-40.701-13.266l-0.911-0.303
	l18.493-6.352l0.096,0.025l34.969,9.505l-9.079,9.808C2526.146,256.822,2525.188,256.927,2524.516,256.927 M2524.148,256.267
	c0.095,0,1.442,0.122,2.356-0.465l8.266-8.939l-33.838-9.197l-16.487,5.662c5.637,1.876,35.554,11.821,39.698,12.939H2524.148z"/>
<path fill="#F2F2F2" d="M2497.386,246.513l13.605,4.239c0,0,0.795,0.177,1.59-0.176c0.411-0.185,1.767-1.149,1.767-1.149
	s0.53-0.618-0.531-1.148c-0.789-0.395-12.013-3.533-12.013-3.533s-0.733-0.214-1.591,0c-0.705,0.177-2.472,0.883-2.472,0.883
	S2496.679,245.981,2497.386,246.513"/>
<path fill="#EF6A2E" d="M2511.489,251.122c-0.325,0-0.545-0.047-0.568-0.053l-13.73-4.297c-0.355-0.266-0.394-0.537-0.365-0.717
	c0.076-0.469,0.69-0.695,0.812-0.736c0.055-0.021,1.778-0.709,2.496-0.889c0.279-0.07,0.573-0.105,0.873-0.105
	c0.512,0,0.873,0.104,0.888,0.107c1.148,0.322,11.273,3.158,12.067,3.555c0.477,0.238,0.754,0.538,0.825,0.891
	c0.085,0.421-0.164,0.727-0.193,0.76l-0.058,0.055c-0.141,0.101-1.394,0.988-1.823,1.18
	C2512.347,251.035,2511.924,251.122,2511.489,251.122 M2511.086,250.44c0.014,0,0.658,0.152,1.363-0.162
	c0.301-0.135,1.264-0.8,1.665-1.084c0.021-0.035,0.054-0.108,0.035-0.191c-0.032-0.142-0.201-0.295-0.478-0.434
	c-0.559-0.279-7.455-2.253-11.955-3.512c-0.005-0.001-0.296-0.082-0.709-0.082c-0.247,0-0.488,0.028-0.715,0.085
	c-0.676,0.169-2.413,0.862-2.431,0.87c-0.171,0.059-0.348,0.164-0.39,0.228c0.009,0.003,0.028,0.026,0.07,0.062L2511.086,250.44"/>
<polygon fill="#F2F2F2" points="2528.747,251.9 2493.324,241.034 2500.921,238.208 2533.605,247.396 "/>
<path fill="#EF6A2E" d="M2528.83,252.267l-0.179-0.056l-36.339-11.146l8.594-3.198l0.102,0.029l33.243,9.344L2528.83,252.267z
	 M2494.335,241.005l34.328,10.529l4.296-3.982l-32.024-9.002L2494.335,241.005z"/>
<path fill="#EF6A2E" d="M2501.804,235.293l5.477-18.551c0,0,0.707-2.031,2.12-1.854s31.447,7.509,31.447,7.509
	s1.238,0.44,0.531,2.649l-5.477,19.522c0,0-0.265,0.795-1.326,0.884c-1.059,0.088-31.976-8.834-31.976-8.834
	S2501.539,236.088,2501.804,235.293"/>
<path fill="#EF6A2E" d="M2534.559,245.777c-1.351,0-28.912-7.942-32.05-8.846c-0.542-0.267-1.293-0.903-1.014-1.741l5.474-18.54
	c0.035-0.104,0.823-2.296,2.471-2.085c1.416,0.177,30.258,7.215,31.485,7.516c0.095,0.031,1.557,0.584,0.763,3.064l-5.474,19.511
	c-0.018,0.056-0.352,1.015-1.611,1.119L2534.559,245.777z M2509.228,215.202c-1.038,0-1.634,1.631-1.64,1.646l-5.472,18.537
	c-0.175,0.526,0.622,0.938,0.631,0.941c12.208,3.518,30.8,8.783,31.81,8.801c0.814-0.071,1.029-0.642,1.038-0.666l5.472-19.504
	c0.596-1.863-0.295-2.242-0.333-2.258c-0.262-0.061-29.994-7.318-31.373-7.49C2509.314,215.204,2509.271,215.202,2509.228,215.202"
	/>
</svg>
