<?xml version="1.0" encoding="utf-8"?>
<!-- Generator: Adobe Illustrator 16.0.0, SVG Export Plug-In . SVG Version: 6.00 Build 0)  -->
<!DOCTYPE svg PUBLIC "-//W3C//DTD SVG 1.1//EN" "http://www.w3.org/Graphics/SVG/1.1/DTD/svg11.dtd">
<svg version="1.1" id="Layer_1" xmlns="http://www.w3.org/2000/svg" xmlns:xlink="http://www.w3.org/1999/xlink" x="0px" y="0px"
	 width="344.319px" height="499.2px" viewBox="0 0 344.319 499.2" enable-background="new 0 0 344.319 499.2" xml:space="preserve">
<polygon opacity="0.25" fill="#EF6A2E" points="6.5,499.2 277.315,499.2 329.315,0 58.5,0 "/>
<polygon fill="#EF6A2E" points="0,499.2 270.815,499.2 322.815,0 52,0 "/>
<g>
	<path fill="#FFFFFF" d="M203.79,222.758c-0.244,2.711-2.026,4.689-4.469,4.689c-1.782,0-3.32-1.173-3.223-3.736
		c0.072-3.883,3.564-8.938,7.13-8.938c1.758,0,2.515,1.002,2.491,2.32c-0.025,2.563-2.857,4.957-5.886,5.25
		c0.024,1.098,0.44,1.537,1.368,1.537C202.056,223.881,203.155,223.37,203.79,222.758z M202.618,216.997
		c-0.781,0-2.076,1.855-2.589,3.711c1.588-0.537,2.955-2.197,2.955-3.223C202.984,217.167,202.837,216.997,202.618,216.997z"/>
	<path fill="#FFFFFF" d="M209.258,216.068c0.317,0.464,0.465,1.026,0.317,1.856c1.124-1.93,2.54-2.931,3.663-2.931
		c1.172,0,1.709,0.978,1.709,2.173c0,1.246-0.732,3.199-1.66,5.396c-1.001,2.369-1.807,4.592-1.611,5.201
		c-0.732-0.17-1.539-0.537-2.101-1.025c-0.635-0.537-0.757-1.416-0.269-2.734c0.709-1.93,2.076-4.713,2.076-5.47
		c0-0.171-0.049-0.269-0.195-0.269c-0.439,0-1.808,1.88-2.76,4.078c-1.025,2.368-1.709,4.59-1.709,5.348
		c-0.635-0.172-1.588-0.684-2.002-1.124c-0.439-0.487-0.636-1.171-0.318-2.417c0.807-3.199,3.175-7.717,3.37-9.206
		C208.428,215.239,208.917,215.604,209.258,216.068z"/>
	<path fill="#FFFFFF" d="M217.658,215.628c0.854-1.978,1.611-3.663,1.831-4.493c0.732,0.465,1.295,1.1,1.637,1.783
		c0.317,0.635,0.244,1.318-0.049,2.197c-0.025,0.049-0.049,0.098-0.049,0.146c0.488,0.049,0.806,0.244,1.025,0.635
		c0.22,0.514,0.366,1.344,0.366,2.052c-0.415-0.171-1.368-0.122-2.394-0.024c-0.781,2.026-1.538,4.029-1.538,4.834
		c-0.024,0.781,0.391,1.002,0.83,1.002c0.392,0,0.88-0.171,1.294-0.439c-0.439,2.197-1.979,4.053-3.76,4.053
		c-1.393,0-2.246-0.951-2.223-2.71c0.049-1.563,0.953-4.077,1.979-6.569c-0.269-0.098-0.465-0.293-0.562-0.586
		c-0.195-0.463-0.317-1.098-0.317-1.782C216.071,215.776,216.828,215.702,217.658,215.628z"/>
	<path fill="#FFFFFF" d="M230.135,215.75c0.316,0.953,0.121,2.686-0.416,3.639c-0.293-0.439-0.635-0.708-1.147-0.708
		c-0.854,0-1.953,0.977-3.296,3.589c-1.026,2.003-1.759,4.298-1.759,5.422c-0.635-0.172-1.611-0.684-2.026-1.124
		c-0.439-0.487-0.635-1.171-0.317-2.417c0.806-3.199,3.174-7.766,3.394-9.206c0.586,0.269,1.1,0.659,1.441,1.123
		c0.342,0.513,0.439,1.05,0.22,1.881c0.464-1.075,1.196-2.173,1.855-2.687C228.987,214.579,229.792,214.75,230.135,215.75z"/>
	<path fill="#FFFFFF" d="M236.996,222.758c-0.244,2.711-2.026,4.689-4.469,4.689c-1.782,0-3.321-1.173-3.224-3.736
		c0.074-3.883,3.565-8.938,7.131-8.938c1.758,0,2.515,1.002,2.49,2.32c-0.024,2.563-2.856,4.957-5.885,5.25
		c0.024,1.098,0.439,1.537,1.367,1.537C235.262,223.881,236.361,223.37,236.996,222.758z M235.824,216.997
		c-0.782,0-2.076,1.855-2.589,3.711c1.587-0.537,2.955-2.197,2.955-3.223C236.19,217.167,236.043,216.997,235.824,216.997z"/>
</g>
<g>
	<path fill="#303030" d="M91.932,301.252c1.036,0,1.918-0.077,2.532-0.154v1.305c-0.576,0.076-1.305,0.173-2.647,0.173
		c-2.743,0-4.239-1.112-4.239-4.028c0-2.858,1.611-4.143,3.836-4.143c2.589,0,3.817,1.361,3.817,4.047v0.69h-1.554H89.17
		C89.304,300.85,90.11,301.252,91.932,301.252z M91.472,295.708c-1.304,0-2.13,0.441-2.283,2.168h4.47
		C93.582,296.284,92.949,295.708,91.472,295.708z"/>
	<path fill="#303030" d="M99.796,302.537c-1.534,0-2.359-0.076-3.012-0.191v-1.304c0.672,0.115,1.362,0.211,2.954,0.211
		c1.42,0,2.072-0.25,2.072-1.055c0-0.902-0.403-1.037-2.11-1.037c-1.976,0-3.165-0.556-3.165-2.396c0-1.766,1.458-2.264,3.587-2.264
		c1.285,0,2.033,0.076,2.59,0.172v1.285c-0.691-0.096-1.305-0.191-2.495-0.191c-1.745,0-2.224,0.23-2.224,1.017
		c0,0.825,0.441,1.017,2.187,1.017c2.091,0,3.107,0.614,3.107,2.417C103.288,302.039,102.233,302.537,99.796,302.537z"/>
	<path fill="#303030" d="M103.998,295.824v-1.267h1.458v-2.225h1.535v2.225h2.628v1.267h-2.628v3.318
		c0,1.592,0.403,2.071,1.554,2.071c0.307,0,0.556-0.019,0.825-0.057v1.285c-0.211,0.037-0.556,0.076-1.036,0.076
		c-1.688,0-2.877-0.729-2.877-3.241v-3.453H103.998z"/>
	<path fill="#303030" d="M113.665,302.633c-1.88,0-3.031-0.652-3.031-2.398c0-1.84,1.208-2.282,3.204-2.377
		c1.285-0.059,2.053-0.154,2.608-0.25c-0.058-1.344-0.422-1.822-2.014-1.822c-1.438,0-2.072,0.096-2.935,0.229v-1.266
		c0.844-0.153,1.554-0.288,3.069-0.288c2.705,0,3.415,1.266,3.415,3.453v4.564h-1.535v-0.939
		C115.947,302.211,115.123,302.633,113.665,302.633z M113.933,298.969c-1.228,0.057-1.726,0.25-1.726,1.189
		c0,0.883,0.441,1.229,1.803,1.229c1.688,0,2.436-0.73,2.436-1.766v-0.921C115.871,298.834,115.123,298.913,113.933,298.969z
		 M115.468,290.683h1.727l-1.918,2.685h-1.726L115.468,290.683z"/>
	<path fill="#303030" d="M129.509,290.683h1.535v11.796h-1.535v-0.863c-0.518,0.748-1.477,1.018-2.628,1.018
		c-2.456,0-3.568-1.305-3.568-4.182c0-2.705,1.112-4.047,3.568-4.047c1.151,0,2.091,0.287,2.628,1.111V290.683z M129.509,297.953
		c0-1.593-0.595-2.302-2.302-2.302c-1.823,0-2.321,0.807-2.321,2.82c0,2.109,0.498,2.916,2.321,2.916
		c1.708,0,2.302-0.711,2.302-2.188V297.953z"/>
	<path fill="#303030" d="M137.162,301.252c1.036,0,1.918-0.077,2.532-0.154v1.305c-0.575,0.076-1.304,0.173-2.646,0.173
		c-2.743,0-4.239-1.112-4.239-4.028c0-2.858,1.611-4.143,3.836-4.143c2.59,0,3.817,1.361,3.817,4.047v0.69h-1.554H134.4
		C134.534,300.85,135.34,301.252,137.162,301.252z M136.702,295.708c-1.304,0-2.129,0.441-2.282,2.168h4.469
		C138.812,296.284,138.179,295.708,136.702,295.708z"/>
	<path fill="#303030" d="M145.027,302.537c-1.535,0-2.359-0.076-3.012-0.191v-1.304c0.671,0.115,1.362,0.211,2.954,0.211
		c1.419,0,2.072-0.25,2.072-1.055c0-0.902-0.403-1.037-2.11-1.037c-1.976,0-3.165-0.556-3.165-2.396
		c0-1.766,1.458-2.264,3.587-2.264c1.285,0,2.034,0.076,2.589,0.172v1.285c-0.69-0.096-1.304-0.191-2.493-0.191
		c-1.746,0-2.226,0.23-2.226,1.017c0,0.825,0.441,1.017,2.187,1.017c2.091,0,3.107,0.614,3.107,2.417
		C148.518,302.039,147.462,302.537,145.027,302.537z"/>
	<path fill="#303030" d="M152.833,302.633c-1.88,0-3.031-0.652-3.031-2.398c0-1.84,1.208-2.282,3.204-2.377
		c1.285-0.059,2.052-0.154,2.608-0.25c-0.058-1.344-0.422-1.822-2.014-1.822c-1.438,0-2.072,0.096-2.935,0.229v-1.266
		c0.844-0.153,1.554-0.288,3.069-0.288c2.705,0,3.415,1.266,3.415,3.453v4.564h-1.535v-0.939
		C155.116,302.211,154.292,302.633,152.833,302.633z M153.102,298.969c-1.228,0.057-1.727,0.25-1.727,1.189
		c0,0.883,0.441,1.229,1.803,1.229c1.688,0,2.436-0.73,2.436-1.766v-0.921C155.04,298.834,154.292,298.913,153.102,298.969z"/>
	<path fill="#303030" d="M160.679,305.875h-1.535v-11.317h1.535v0.959c0.537-0.824,1.477-1.111,2.628-1.111
		c2.456,0,3.568,1.342,3.568,4.047c0,2.877-1.112,4.182-3.568,4.182c-1.151,0-2.11-0.27-2.628-1.018V305.875z M160.679,299.2
		c0,1.477,0.595,2.188,2.302,2.188c1.822,0,2.32-0.807,2.32-2.916c0-2.014-0.498-2.82-2.32-2.82c-1.707,0-2.302,0.709-2.302,2.302
		V299.2z"/>
	<path fill="#303030" d="M171.094,302.633c-1.88,0-3.03-0.652-3.03-2.398c0-1.84,1.208-2.282,3.203-2.377
		c1.284-0.059,2.053-0.154,2.608-0.25c-0.057-1.344-0.422-1.822-2.014-1.822c-1.438,0-2.071,0.096-2.935,0.229v-1.266
		c0.844-0.153,1.554-0.288,3.069-0.288c2.704,0,3.414,1.266,3.414,3.453v4.564h-1.535v-0.939
		C173.377,302.211,172.551,302.633,171.094,302.633z M171.363,298.969c-1.228,0.057-1.726,0.25-1.726,1.189
		c0,0.883,0.441,1.229,1.803,1.229c1.688,0,2.436-0.73,2.436-1.766v-0.921C173.299,298.834,172.551,298.913,171.363,298.969z"/>
	<path fill="#303030" d="M178.94,302.479h-1.535v-7.922h1.535v1.189c0.441-0.768,1.074-1.246,2.397-1.246
		c0.288,0,0.519,0.038,0.633,0.057v1.42c-0.191-0.02-0.537-0.038-0.997-0.038c-1.516,0-2.033,0.519-2.033,2.263V302.479z"/>
	<path fill="#303030" d="M187.246,301.252c1.035,0,1.918-0.077,2.532-0.154v1.305c-0.576,0.076-1.305,0.173-2.647,0.173
		c-2.743,0-4.239-1.112-4.239-4.028c0-2.858,1.611-4.143,3.836-4.143c2.59,0,3.817,1.361,3.817,4.047v0.69h-1.554h-4.508
		C184.618,300.85,185.423,301.252,187.246,301.252z M186.785,295.708c-1.304,0-2.129,0.441-2.282,2.168h4.469
		C188.895,296.284,188.262,295.708,186.785,295.708z"/>
	<path fill="#303030" d="M196.049,295.786c-1.516,0-2.513,0.556-2.513,2.801c0,2.205,1.094,2.685,2.552,2.685
		c1.246,0,1.86-0.096,2.455-0.173v1.266c-0.364,0.059-1.151,0.193-2.475,0.193c-2.397,0-4.105-1.151-4.105-4.01
		s1.727-4.066,4.01-4.066c1.17,0,2.091,0.115,2.57,0.23v1.266C197.967,295.881,197.392,295.786,196.049,295.786z"/>
	<path fill="#303030" d="M200.5,290.683h1.611v1.88H200.5V290.683z M200.538,294.557h1.535v7.922h-1.535V294.557z"/>
	<path fill="#303030" d="M208.364,301.252c1.036,0,1.919-0.077,2.532-0.154v1.305c-0.575,0.076-1.304,0.173-2.647,0.173
		c-2.742,0-4.238-1.112-4.238-4.028c0-2.858,1.611-4.143,3.836-4.143c2.59,0,3.817,1.361,3.817,4.047v0.69h-1.554h-4.508
		C205.737,300.85,206.542,301.252,208.364,301.252z M207.904,295.708c-1.304,0-2.129,0.441-2.282,2.168h4.469
		C210.014,296.284,209.381,295.708,207.904,295.708z"/>
	<path fill="#303030" d="M214.924,302.479h-1.535v-7.922h1.535v0.959c0.479-0.785,1.15-1.111,2.59-1.111
		c1.879,0,3.012,0.689,3.012,3.375v4.699h-1.535v-4.526c0-1.688-0.422-2.302-2.033-2.302s-2.033,0.613-2.033,2.302V302.479z"/>
	<path fill="#303030" d="M228.448,290.683h1.534v11.796h-1.534v-0.863c-0.519,0.748-1.478,1.018-2.628,1.018
		c-2.456,0-3.568-1.305-3.568-4.182c0-2.705,1.112-4.047,3.568-4.047c1.15,0,2.091,0.287,2.628,1.111V290.683z M228.448,297.953
		c0-1.593-0.595-2.302-2.303-2.302c-1.822,0-2.32,0.807-2.32,2.82c0,2.109,0.498,2.916,2.32,2.916c1.708,0,2.303-0.711,2.303-2.188
		V297.953z"/>
	<path fill="#303030" d="M231.747,298.547c0-2.916,1.784-4.143,4.066-4.143c2.283,0,4.048,1.227,4.048,4.143
		s-1.784,4.086-4.067,4.086C233.511,302.633,231.747,301.463,231.747,298.547z M238.288,298.567c0-2.226-0.824-2.954-2.494-2.954
		c-1.649,0-2.474,0.729-2.474,2.954c0,2.225,0.844,2.877,2.493,2.877C237.424,301.444,238.288,300.792,238.288,298.567z"/>
</g>
<g>
	<path fill="#303030" d="M87.976,183.399h10.409v17.508h9.93v7.019H87.976V183.399z"/>
	<path fill="#303030" d="M119.601,195.522c-3.23,0-6.261,0.279-7.657,0.519v-5.623c1.436-0.279,4.387-0.638,9.651-0.638
		c8.295,0,10.608,2.632,10.608,8.574v9.571h-9.173v-1.476c-1.396,1.316-3.19,1.795-5.703,1.795c-5.145,0-7.178-1.756-7.178-5.464
		c0-4.228,2.831-5.104,7.697-5.304c2.034-0.08,3.629-0.16,5.184-0.279C122.952,195.682,122.273,195.522,119.601,195.522z
		 M123.031,200.747c-0.558,0.04-1.156,0.119-1.754,0.119c-1.875,0.08-2.154,0.359-2.154,1.197c0,0.678,0.359,1.196,1.795,1.196
		c1.276,0,2.113-0.279,2.113-1.276V200.747z"/>
	<path fill="#303030" d="M141.057,182.202h9.73v25.724h-9.73V182.202z"/>
	<path fill="#303030" d="M153.978,190.059h9.731v17.866h-9.731V190.059z M154.297,188.583l5.185-7.577h9.252l-5.185,7.577H154.297z"
		/>
	<path fill="#303030" d="M181.775,189.581c4.945,0,7.219,2.193,7.219,8.933v9.412h-9.571v-9.532c0-1.834-0.319-2.432-1.516-2.432
		c-1.197,0-1.516,0.558-1.516,2.393v9.571h-9.571v-17.866h9.571v2.353C177.587,190.458,179.023,189.581,181.775,189.581z"/>
	<path fill="#303030" d="M204.786,202.701c3.23,0,5.465-0.199,7.379-0.358v5.225c-1.236,0.199-3.789,0.558-8.216,0.558
		c-9.571,0-12.962-3.03-12.962-9.332c0-6.54,4.068-9.212,11.566-9.212c7.577,0,10.887,3.03,10.887,8.613v2.473h-8.494h-4.147
		C201.118,202.301,202.075,202.701,204.786,202.701z M202.752,194.247c-1.476,0-2.193,0.438-2.313,3.031h4.467
		C204.786,194.804,204.148,194.247,202.752,194.247z"/>
	<path fill="#303030" d="M224.528,195.522c-3.23,0-6.262,0.279-7.658,0.519v-5.623c1.437-0.279,4.388-0.638,9.652-0.638
		c8.295,0,10.607,2.632,10.607,8.574v9.571h-9.172v-1.476c-1.396,1.316-3.191,1.795-5.703,1.795c-5.145,0-7.179-1.756-7.179-5.464
		c0-4.228,2.831-5.104,7.696-5.304c2.034-0.08,3.63-0.16,5.186-0.279C227.877,195.682,227.2,195.522,224.528,195.522z
		 M227.958,200.747c-0.559,0.04-1.158,0.119-1.755,0.119c-1.875,0.08-2.153,0.359-2.153,1.197c0,0.678,0.358,1.196,1.793,1.196
		c1.277,0,2.115-0.279,2.115-1.276V200.747z"/>
</g>
<g>
	<path fill="#FFFFFF" d="M100.276,283.752v-23.625h-3.645v23.625H87.84v-41.307c0-4.344,0.214-10.137,10.649-10.137
		c10.435,0,10.649,5.793,10.649,10.137v41.307H100.276z M100.276,240.235c0-1.066-0.786-1.98-1.787-1.98
		c-1,0-1.858,0.914-1.858,1.98v13.719h3.645V240.235z"/>
	<path fill="#FFFFFF" d="M126.005,240.769v42.983h-8.862v-42.983h-5.646v-7.85h20.155v7.85H126.005z"/>
	<path fill="#FFFFFF" d="M134.009,283.752v-50.833h8.791v42.982h5.861v7.851H134.009z"/>
</g>
<g>
	<path fill="#FFFFFF" d="M200.405,273.616c0,4.268-0.214,10.137-10.648,10.137h-10.649v-50.833h10.649
		c10.435,0,10.648,5.792,10.648,10.06v8.23c0,2.211-1.357,4.726-4.002,5.717c2.645,0.99,4.002,3.582,4.002,5.715V273.616z
		 M191.542,240.769c0-1.067-0.786-1.905-1.786-1.905h-1.858v15.09h1.858c1,0,1.786-0.838,1.786-1.905V240.769z M191.542,261.879
		c0-1.066-0.786-1.98-1.786-1.98h-1.858v17.832h1.858c1,0,1.786-0.838,1.786-1.905V261.879z"/>
	<path fill="#FFFFFF" d="M216.987,240.769v42.983h-8.863v-42.983h-5.646v-7.85h20.154v7.85H216.987z"/>
	<path fill="#FFFFFF" d="M224.991,283.752v-50.833h8.791v42.982h5.86v7.851H224.991z"/>
</g>
<g>
	<g>
		<path fill="#F2F2F2" d="M38.565,247.494v-10.972h8.716c3.307,0,4.209-1.502,4.209-6.161v-22.544
			c0-19.688,7.514-24.797,24.948-24.797h6.162v10.369h-7.364c-9.018,0-11.723,2.255-11.723,12.926v23.445
			c0,10.069-4.959,11.572-9.018,12.323c4.058,0.751,9.018,2.255,9.018,12.324v24.347c0,10.671,2.705,12.926,11.723,12.926h7.364
			v10.369h-6.162c-17.434,0-24.948-5.109-24.948-24.798v-23.595c0-4.66-0.902-6.163-4.209-6.163H38.565z"/>
	</g>
</g>
<g>
	<g>
		<path fill="#F2F2F2" d="M280.583,247.494c-3.306,0-4.208,1.503-4.208,6.163v23.595c0,19.688-7.515,24.798-24.948,24.798h-6.162
			V291.68h7.364c9.018,0,11.723-2.255,11.723-12.926v-24.347c0-10.069,4.959-11.573,9.018-12.324
			c-4.059-0.751-9.018-2.254-9.018-12.323v-23.445c0-10.671-2.705-12.926-11.723-12.926h-7.364V183.02h6.162
			c17.434,0,24.948,5.109,24.948,24.797v22.544c0,4.659,0.902,6.161,4.208,6.161h8.718v10.972H280.583z"/>
	</g>
</g>
<g>
	<rect x="87.514" y="216.45" fill="#F2F2F2" width="102.7" height="9.1"/>
</g>
<g>
	<path fill="#FFFFFF" d="M163.671,277.184c-1.193,1.887-2.664,2.83-3.94,2.83c-0.889,0-1.749-0.859-1.749-2.414
		c0-3.248,3.58-8.547,3.996-11.572c0.75,0.277,1.638,0.777,2.054,1.275c0.722,0.861,0.611,1.721,0.194,3.025
		c-0.582,1.805-1.637,3.664-2.081,5.328c-0.194,0.75,0.139,0.834,0.666,0.25c1.942-2.164,4.439-8.27,4.551-9.906
		c0.805,0.332,1.499,0.805,1.915,1.303c0.583,0.695,0.556,1.666,0.14,3.248c-0.723,2.746-2.748,8.02-3.997,10.711
		c-1.609,3.441-3.219,5.328-5.355,5.328c-2.72,0-3.636-2.803-2.72-5.41c0.528,0.693,1.277,1.193,2.082,1.193
		C160.73,282.374,162.034,280.985,163.671,277.184z"/>
</g>
</svg>
