<?xml version="1.0" encoding="utf-8"?>
<!-- Generator: Adobe Illustrator 16.0.0, SVG Export Plug-In . SVG Version: 6.00 Build 0)  -->
<!DOCTYPE svg PUBLIC "-//W3C//DTD SVG 1.1//EN" "http://www.w3.org/Graphics/SVG/1.1/DTD/svg11.dtd">
<svg version="1.1" id="Layer_1" xmlns="http://www.w3.org/2000/svg" xmlns:xlink="http://www.w3.org/1999/xlink" x="0px" y="0px"
	 width="344.318px" height="499.2px" viewBox="0 0 344.318 499.2" enable-background="new 0 0 344.318 499.2" xml:space="preserve">
<g id="Layer_3">
	<polygon opacity="0.25" fill="#EF6A2E" enable-background="new    " points="6.5,499.2 277.315,499.2 329.315,0 58.5,0 	"/>
	<polygon fill="#EF6A2E" points="0,499.2 270.815,499.2 322.815,0 52,0 	"/>
</g>
<g>
	<path fill="#FFFFFF" d="M184.115,216.863c1.074-1.538,2.051-2.271,2.734-2.394c1.465-0.244,2.124,1.394,2.124,2.955
		c0,4.053-2.979,9.719-5.958,9.719c-1.466,0-2.882-0.855-3.541-1.905c-0.562-0.879-0.685-1.71-0.195-3.395
		c1.025-3.762,4.641-11.94,4.836-13.431c0.707,0.366,1.318,0.903,1.709,1.44c0.537,0.732,0.537,1.514,0.122,2.613
		C185.554,213.519,184.822,215.276,184.115,216.863z M181.697,223.628c0.195,0.22,0.438,0.317,0.708,0.317
		c1.146,0,3.271-4.591,3.271-5.935c0-0.244-0.098-0.391-0.293-0.391C184.798,217.621,182.722,220.625,181.697,223.628z"/>
	<path fill="#FFFFFF" d="M196.738,222.406c-0.244,2.711-2.027,4.688-4.469,4.688c-1.782,0-3.32-1.173-3.225-3.736
		c0.073-3.883,3.565-8.938,7.131-8.938c1.759,0,2.516,1.002,2.49,2.32c-0.023,2.562-2.855,4.957-5.885,5.25
		c0.024,1.098,0.438,1.537,1.367,1.537C195.003,223.529,196.103,223.018,196.738,222.406z M195.566,216.645
		c-0.781,0-2.076,1.855-2.589,3.711c1.587-0.537,2.955-2.197,2.955-3.223C195.932,216.814,195.785,216.645,195.566,216.645z"/>
	<path fill="#FFFFFF" d="M201.132,215.276c0.854-1.978,1.611-3.663,1.831-4.493c0.732,0.465,1.294,1.1,1.637,1.783
		c0.317,0.635,0.243,1.318-0.05,2.197c-0.022,0.049-0.049,0.098-0.049,0.146c0.488,0.049,0.808,0.244,1.025,0.635
		c0.221,0.514,0.367,1.344,0.367,2.052c-0.416-0.171-1.367-0.122-2.395-0.023c-0.781,2.026-1.538,4.029-1.538,4.834
		c-0.023,0.781,0.392,1.002,0.83,1.002c0.392,0,0.879-0.171,1.294-0.439c-0.438,2.197-1.978,4.053-3.761,4.053
		c-1.391,0-2.246-0.951-2.222-2.71c0.049-1.563,0.951-4.077,1.978-6.569c-0.268-0.098-0.463-0.293-0.561-0.586
		c-0.195-0.463-0.318-1.098-0.318-1.782C199.544,215.424,200.302,215.35,201.132,215.276z"/>
	<path fill="#FFFFFF" d="M204.719,223.872c0.392-3.077,2.906-7.399,3.248-9.328c0.562,0.22,1.345,0.659,1.783,1.147
		c0.512,0.586,0.512,1.197,0.293,2.027c-0.438,1.636-1.562,4.053-1.832,5.226c-0.146,0.635,0.073,0.684,0.488,0.194
		c1.074-1.318,3.419-6.227,3.468-8.301c0.685,0.293,1.515,0.684,1.88,1.123c0.464,0.537,0.488,1.074,0.317,1.929
		c-0.366,1.807-1.343,3.979-1.636,5.494c-0.073,0.391,0.072,0.562,0.415,0.171c1.661-1.881,3.442-6.789,3.564-8.986
		c1.196,0.439,1.93,1.318,1.709,2.613c-0.487,3.003-2.369,6.739-4.469,8.741c-0.903,0.854-1.904,1.271-2.686,1.271
		c-1.246,0-1.905-1.051-1.71-3.053c-0.732,1.44-2.003,2.76-2.979,2.76C205.478,226.9,204.501,225.68,204.719,223.872z"/>
	<path fill="#FFFFFF" d="M225.548,222.406c-0.244,2.711-2.026,4.688-4.469,4.688c-1.782,0-3.32-1.173-3.223-3.736
		c0.071-3.883,3.563-8.938,7.13-8.938c1.758,0,2.515,1.002,2.49,2.32c-0.024,2.562-2.856,4.957-5.886,5.25
		c0.024,1.098,0.439,1.537,1.368,1.537C223.814,223.529,224.913,223.018,225.548,222.406z M224.376,216.645
		c-0.781,0-2.076,1.855-2.589,3.711c1.587-0.537,2.955-2.197,2.955-3.223C224.742,216.814,224.595,216.645,224.376,216.645z"/>
	<path fill="#FFFFFF" d="M234.216,222.406c-0.243,2.711-2.026,4.688-4.469,4.688c-1.783,0-3.321-1.173-3.223-3.736
		c0.071-3.883,3.563-8.938,7.13-8.938c1.758,0,2.515,1.002,2.49,2.32c-0.024,2.562-2.856,4.957-5.886,5.25
		c0.024,1.098,0.439,1.537,1.368,1.537C232.482,223.529,233.581,223.018,234.216,222.406z M233.044,216.645
		c-0.781,0-2.076,1.855-2.589,3.711c1.587-0.537,2.955-2.197,2.955-3.223C233.41,216.814,233.264,216.645,233.044,216.645z"/>
	<path fill="#FFFFFF" d="M239.685,215.716c0.316,0.464,0.464,1.026,0.316,1.856c1.123-1.93,2.54-2.931,3.663-2.931
		c1.172,0,1.709,0.978,1.709,2.173c0,1.246-0.731,3.199-1.66,5.396c-1.002,2.369-1.807,4.592-1.61,5.201
		c-0.733-0.17-1.539-0.537-2.102-1.025c-0.635-0.537-0.757-1.416-0.269-2.734c0.708-1.93,2.076-4.713,2.076-5.47
		c0-0.171-0.05-0.269-0.195-0.269c-0.441,0-1.808,1.88-2.76,4.078c-1.025,2.368-1.709,4.59-1.709,5.348
		c-0.636-0.172-1.588-0.684-2.003-1.124c-0.439-0.487-0.636-1.171-0.317-2.417c0.806-3.199,3.175-7.717,3.37-9.206
		C238.855,214.887,239.343,215.252,239.685,215.716z"/>
</g>
<g>
	<path fill="#FFFFFF" d="M156.868,283.067c-0.424-0.348-0.559-0.867-0.385-1.619c-0.85,1.561-1.754,2.217-2.545,2.217
		c-0.713,0-1.367-0.481-1.388-2.022c-0.039-2.813,2.582-7.748,5.011-7.748c0.771,0,1.271,0.56,1.369,1.312
		c0.229-0.521,0.403-0.963,0.501-1.176c0.424,0.192,0.827,0.538,1.06,0.887c0.327,0.502,0.404,1.021,0.039,2.102
		c-0.54,1.617-2.236,5.51-2.005,6.859C157.948,283.741,157.312,283.452,156.868,283.067z M155.327,280.502
		c0,0.174,0.076,0.289,0.25,0.289c0.481,0,1.311-1.31,2.101-2.892c0.231-0.442,0.481-0.981,0.732-1.521
		c-0.058-0.289-0.212-0.502-0.424-0.502C157.118,275.877,155.327,279.385,155.327,280.502z"/>
	<path fill="#FFFFFF" d="M163.943,274.704c0.251,0.365,0.366,0.809,0.251,1.463c0.886-1.521,2.004-2.312,2.891-2.312
		c0.925,0,1.35,0.771,1.35,1.718c0,0.98-0.578,2.521-1.312,4.258c-0.79,1.869-1.426,3.623-1.271,4.104
		c-0.578-0.136-1.216-0.425-1.657-0.812c-0.501-0.424-0.598-1.117-0.212-2.158c0.559-1.52,1.638-3.719,1.638-4.315
		c0-0.135-0.038-0.213-0.155-0.213c-0.346,0-1.425,1.483-2.177,3.22c-0.81,1.868-1.349,3.623-1.349,4.221
		c-0.501-0.135-1.253-0.539-1.58-0.887c-0.349-0.386-0.501-0.925-0.251-1.906c0.636-2.525,2.505-6.092,2.659-7.267
		C163.287,274.047,163.673,274.336,163.943,274.704z"/>
	<path fill="#FFFFFF" d="M177.376,270.733c0.424,0.578,0.386,1.252,0.077,2.119c-0.982,2.814-3.796,9.559-3.776,11.004
		c-0.54-0.174-1.194-0.539-1.504-0.906c-0.309-0.346-0.501-0.885-0.347-1.695c-0.867,1.695-1.85,2.371-2.659,2.371
		c-0.713,0-1.369-0.481-1.388-2.022c-0.038-2.813,2.544-7.709,4.972-7.709c0.713,0,1.195,0.481,1.33,1.155
		c0.944-2.428,1.792-4.953,1.869-5.549C176.509,269.788,177.048,270.27,177.376,270.733z M170.554,280.502
		c0,0.174,0.097,0.289,0.271,0.289c0.481,0,1.291-1.099,2.081-2.892c0.212-0.479,0.443-1.021,0.675-1.579
		c-0.077-0.271-0.212-0.443-0.405-0.443C172.308,275.877,170.554,279.385,170.554,280.502z"/>
</g>
<g>
	<path fill="#303030" d="M97.18,287.987h2.02v2.355h-2.02V287.987z M97.228,292.844h1.924v9.934h-1.924V292.844z"/>
	<path fill="#303030" d="M105.526,302.85c-1.924,0-2.958-0.096-3.776-0.24v-1.637c0.842,0.145,1.708,0.266,3.704,0.266
		c1.779,0,2.598-0.312,2.598-1.322c0-1.131-0.505-1.299-2.646-1.299c-2.478,0-3.968-0.699-3.968-3.008
		c0-2.213,1.828-2.838,4.498-2.838c1.61,0,2.549,0.096,3.247,0.217v1.611c-0.865-0.119-1.636-0.24-3.126-0.24
		c-2.189,0-2.79,0.289-2.79,1.273c0,1.035,0.553,1.275,2.74,1.275c2.623,0,3.897,0.77,3.897,3.03
		C109.903,302.225,108.58,302.85,105.526,302.85z"/>
	<path fill="#303030" d="M123.948,287.987h1.924v14.791h-1.924v-1.082c-0.65,0.938-1.853,1.273-3.295,1.273
		c-3.079,0-4.475-1.635-4.475-5.242c0-3.391,1.396-5.074,4.475-5.074c1.442,0,2.621,0.359,3.295,1.395V287.987z M123.948,297.102
		c0-1.996-0.746-2.887-2.886-2.887c-2.285,0-2.911,1.01-2.911,3.535c0,2.646,0.625,3.656,2.911,3.656
		c2.14,0,2.886-0.892,2.886-2.742V297.102z"/>
	<path fill="#303030" d="M128.635,287.987h2.021v2.355h-2.021V287.987z M128.685,292.844h1.924v9.934h-1.924V292.844z"/>
	<path fill="#303030" d="M136.982,302.85c-1.924,0-2.958-0.096-3.775-0.24v-1.637c0.842,0.145,1.707,0.266,3.703,0.266
		c1.78,0,2.598-0.312,2.598-1.322c0-1.131-0.505-1.299-2.646-1.299c-2.479,0-3.968-0.699-3.968-3.008
		c0-2.213,1.826-2.838,4.497-2.838c1.61,0,2.55,0.096,3.246,0.217v1.611c-0.865-0.119-1.636-0.24-3.127-0.24
		c-2.188,0-2.79,0.289-2.79,1.273c0,1.035,0.555,1.275,2.742,1.275c2.622,0,3.896,0.77,3.896,3.03
		C141.36,302.225,140.036,302.85,136.982,302.85z"/>
	<path fill="#303030" d="M146.77,302.969c-2.356,0-3.801-0.816-3.801-3.006c0-2.309,1.516-2.861,4.018-2.982
		c1.611-0.072,2.573-0.191,3.271-0.312c-0.07-1.684-0.527-2.285-2.524-2.285c-1.805,0-2.599,0.121-3.681,0.289v-1.588
		c1.06-0.19,1.948-0.358,3.85-0.358c3.392,0,4.281,1.586,4.281,4.327v5.726h-1.926V301.6
		C149.632,302.442,148.598,302.969,146.77,302.969z M147.107,298.375c-1.539,0.074-2.164,0.312-2.164,1.492
		c0,1.104,0.553,1.539,2.261,1.539c2.116,0,3.054-0.914,3.054-2.214v-1.153C149.536,298.208,148.598,298.303,147.107,298.375z"/>
	<path fill="#303030" d="M156.607,307.034h-1.925v-14.189h1.925v1.203c0.673-1.035,1.852-1.395,3.295-1.395
		c3.078,0,4.474,1.684,4.474,5.074c0,3.607-1.396,5.242-4.474,5.242c-1.443,0-2.646-0.336-3.295-1.273V307.034z M156.607,298.665
		c0,1.853,0.745,2.742,2.886,2.742c2.285,0,2.91-1.01,2.91-3.656c0-2.524-0.625-3.535-2.91-3.535c-2.141,0-2.886,0.892-2.886,2.888
		V298.665z"/>
	<path fill="#303030" d="M168.51,307.034h-1.924v-14.189h1.924v1.203c0.675-1.035,1.853-1.395,3.296-1.395
		c3.078,0,4.474,1.684,4.474,5.074c0,3.607-1.396,5.242-4.474,5.242c-1.443,0-2.646-0.336-3.296-1.273V307.034z M168.51,298.665
		c0,1.853,0.746,2.742,2.888,2.742c2.284,0,2.91-1.01,2.91-3.656c0-2.524-0.626-3.535-2.91-3.535c-2.142,0-2.888,0.892-2.888,2.888
		V298.665z"/>
	<path fill="#303030" d="M183.567,301.239c1.299,0,2.405-0.096,3.175-0.193v1.638c-0.722,0.097-1.636,0.217-3.319,0.217
		c-3.438,0-5.314-1.396-5.314-5.053c0-3.585,2.021-5.192,4.811-5.192c3.247,0,4.786,1.707,4.786,5.073v0.864h-1.948h-5.651
		C180.271,300.735,181.281,301.239,183.567,301.239z M182.99,294.288c-1.636,0-2.67,0.553-2.862,2.717h5.604
		C185.635,295.01,184.841,294.288,182.99,294.288z"/>
	<path fill="#303030" d="M192.946,302.969c-2.356,0-3.8-0.816-3.8-3.006c0-2.309,1.515-2.861,4.017-2.982
		c1.611-0.072,2.573-0.191,3.271-0.312c-0.072-1.684-0.529-2.285-2.525-2.285c-1.804,0-2.598,0.121-3.68,0.289v-1.588
		c1.059-0.19,1.947-0.358,3.849-0.358c3.392,0,4.28,1.586,4.28,4.327v5.726h-1.924V301.6
		C195.808,302.442,194.774,302.969,192.946,302.969z M193.282,298.375c-1.539,0.074-2.165,0.312-2.165,1.492
		c0,1.104,0.554,1.539,2.261,1.539c2.117,0,3.056-0.914,3.056-2.214v-1.153C195.712,298.208,194.774,298.303,193.282,298.375z"/>
	<path fill="#303030" d="M202.782,302.778h-1.925v-9.934h1.925v1.492c0.553-0.963,1.346-1.564,3.006-1.564
		c0.361,0,0.649,0.049,0.794,0.072v1.779c-0.241-0.023-0.674-0.047-1.251-0.047c-1.899,0-2.549,0.647-2.549,2.838V302.778z"/>
	<path fill="#303030" d="M208.65,287.987h2.021v2.355h-2.021V287.987z M208.698,292.844h1.925v9.934h-1.925V292.844z"/>
	<path fill="#303030" d="M215.36,302.778h-1.924v-9.934h1.924v1.203c0.602-0.986,1.442-1.395,3.247-1.395
		c2.356,0,3.774,0.864,3.774,4.23v5.895h-1.924v-5.677c0-2.117-0.529-2.888-2.549-2.888c-2.021,0-2.55,0.771-2.55,2.888
		L215.36,302.778L215.36,302.778z"/>
	<path fill="#303030" d="M232.316,292.844h1.924v9.934c0,2.861-1.42,4.354-4.449,4.354c-1.949,0-3.199-0.168-3.921-0.264v-1.613
		c0.673,0.099,1.972,0.242,3.752,0.242c2.116,0,2.694-1.131,2.694-2.887v-0.914c-0.65,0.938-1.854,1.273-3.296,1.273
		c-3.078,0-4.475-1.635-4.475-5.242c0-3.391,1.396-5.074,4.475-5.074c1.442,0,2.622,0.359,3.296,1.395V292.844L232.316,292.844z
		 M232.316,297.102c0-1.996-0.746-2.887-2.888-2.887c-2.284,0-2.909,1.01-2.909,3.535c0,2.646,0.625,3.656,2.909,3.656
		c2.142,0,2.888-0.892,2.888-2.742V297.102z"/>
</g>
<g>
	<path fill="#303030" d="M93.694,189.986h-6.979v-6.939h24.368v6.939h-6.979v17.587h-10.41V189.986z"/>
	<path fill="#303030" d="M122.489,207.573h-9.572V181.85h9.572v10.21c1.196-1.954,2.632-2.831,5.384-2.831
		c4.945,0,7.219,2.193,7.219,8.933v9.412h-9.571v-9.532c0-1.834-0.319-2.432-1.517-2.432c-1.195,0-1.515,0.558-1.515,2.393V207.573z
		"/>
	<path fill="#303030" d="M150.882,202.349c3.231,0,5.466-0.199,7.379-0.358v5.225c-1.235,0.199-3.787,0.558-8.215,0.558
		c-9.571,0-12.962-3.03-12.962-9.332c0-6.54,4.068-9.212,11.565-9.212c7.578,0,10.888,3.03,10.888,8.613v2.473h-8.494h-4.146
		C147.214,201.949,148.171,202.349,150.882,202.349z M148.85,193.895c-1.477,0-2.194,0.438-2.313,3.031h4.467
		C150.882,194.452,150.245,193.895,148.85,193.895z"/>
	<path fill="#303030" d="M167.992,181.85h9.73v25.724h-9.73V181.85z"/>
	<path fill="#303030" d="M180.714,181.491h10.13v6.659h-10.13V181.491z M180.913,189.707h9.731v17.866h-9.731V189.707z"/>
	<path fill="#303030" d="M208.71,189.229c4.945,0,7.219,2.193,7.219,8.933v9.412h-9.571v-9.532c0-1.834-0.318-2.432-1.516-2.432
		c-1.196,0-1.516,0.558-1.516,2.393v9.571h-9.571v-17.866h9.571v2.353C204.523,190.105,205.958,189.229,208.71,189.229z"/>
	<path fill="#303030" d="M231.722,202.349c3.229,0,5.463-0.199,7.377-0.358v5.225c-1.235,0.199-3.788,0.558-8.216,0.558
		c-9.57,0-12.961-3.03-12.961-9.332c0-6.54,4.067-9.212,11.564-9.212c7.578,0,10.889,3.03,10.889,8.613v2.473h-8.495h-4.146
		C228.052,201.949,229.009,202.349,231.722,202.349z M229.688,193.895c-1.477,0-2.193,0.438-2.313,3.031h4.467
		C231.722,194.452,231.083,193.895,229.688,193.895z"/>
</g>
<g>
	<path fill="#FFFFFF" d="M100.69,283.401v-23.625h-3.646v23.625h-8.791v-41.307c0-4.344,0.214-10.137,10.649-10.137
		c10.435,0,10.648,5.793,10.648,10.137v41.307H100.69z M100.69,239.883c0-1.066-0.786-1.98-1.787-1.98c-1,0-1.858,0.914-1.858,1.98
		v13.719h3.646V239.883z"/>
	<path fill="#FFFFFF" d="M126.419,240.417v42.984h-8.861v-42.984h-5.646v-7.85h20.155v7.85H126.419z"/>
	<path fill="#FFFFFF" d="M134.423,283.401v-50.833h8.791v42.981h5.861v7.853L134.423,283.401L134.423,283.401z"/>
</g>
<g>
	<path fill="#FFFFFF" d="M202.118,273.264c0,4.268-0.214,10.137-10.648,10.137h-10.648v-50.833h10.648
		c10.436,0,10.648,5.792,10.648,10.06v8.231c0,2.211-1.357,4.726-4.002,5.718c2.645,0.989,4.002,3.582,4.002,5.715V273.264z
		 M193.257,240.417c0-1.067-0.787-1.905-1.787-1.905h-1.857v15.09h1.857c1,0,1.787-0.838,1.787-1.906V240.417z M193.257,261.528
		c0-1.066-0.787-1.98-1.787-1.98h-1.857v17.832h1.857c1,0,1.787-0.838,1.787-1.905V261.528z"/>
	<path fill="#FFFFFF" d="M218.7,240.417v42.984h-8.862v-42.984h-5.646v-7.85h20.155v7.85H218.7z"/>
	<path fill="#FFFFFF" d="M226.704,283.401v-50.833h8.791v42.981h5.861v7.853L226.704,283.401L226.704,283.401z"/>
</g>
<g>
	<g>
		<path fill="#F2F2F2" d="M38.979,247.142V236.17h8.716c3.307,0,4.209-1.502,4.209-6.161v-22.544
			c0-19.688,7.514-24.797,24.948-24.797h6.162v10.369H75.65c-9.019,0-11.724,2.255-11.724,12.926v23.445
			c0,10.069-4.959,11.572-9.018,12.323c4.058,0.751,9.018,2.255,9.018,12.324v24.348c0,10.67,2.705,12.926,11.724,12.926h7.364
			v10.369h-6.162c-17.435,0-24.948-5.109-24.948-24.799v-23.594c0-4.661-0.902-6.164-4.209-6.164L38.979,247.142L38.979,247.142z"/>
	</g>
</g>
<g>
	<g>
		<path fill="#F2F2F2" d="M280.997,247.142c-3.307,0-4.208,1.503-4.208,6.164V276.9c0,19.688-7.515,24.8-24.948,24.8h-6.162v-10.369
			h7.364c9.019,0,11.724-2.256,11.724-12.926v-24.349c0-10.069,4.96-11.573,9.018-12.324c-4.058-0.751-9.018-2.254-9.018-12.323
			v-23.445c0-10.671-2.705-12.926-11.724-12.926h-7.364v-10.369h6.162c17.435,0,24.948,5.109,24.948,24.797v22.544
			c0,4.659,0.901,6.161,4.208,6.161h8.717v10.972L280.997,247.142L280.997,247.142z"/>
	</g>
</g>
<g>
	<rect x="87.927" y="216.098" fill="#F2F2F2" width="85.149" height="9.1"/>
</g>
</svg>
