<?xml version="1.0" encoding="utf-8"?>
<!-- Generator: Adobe Illustrator 16.0.0, SVG Export Plug-In . SVG Version: 6.00 Build 0)  -->
<!DOCTYPE svg PUBLIC "-//W3C//DTD SVG 1.1//EN" "http://www.w3.org/Graphics/SVG/1.1/DTD/svg11.dtd">
<svg version="1.1" xmlns="http://www.w3.org/2000/svg" xmlns:xlink="http://www.w3.org/1999/xlink" x="0px" y="0px" width="134px"
	 height="204px" viewBox="0 0 134 204" enable-background="new 0 0 134 204" xml:space="preserve">
<g id="Layer_2" display="none">
	<rect x="-41.5" y="11.5" display="inline" fill="#009447" stroke="#000000" stroke-miterlimit="10" width="204" height="273"/>
</g>
<g id="Layer_1">
	<g id="XMLID_1_">
		<g>
			<path fill="#FFFFFF" d="M89.39,43.34c2.49,0.22,2.16,1.63,2.16,1.63s-0.43,3.79-0.75,5.09c-0.33,1.3-0.55,1.41-2.06,1.3
				c-1.521-0.11-1.521-1.3-1.521-1.3s0.33-4.01,0.761-5.53C88.41,43.02,89.39,43.34,89.39,43.34z"/>
			<path fill="#303030" d="M82.51,138.36c0.03-0.36,0.05-0.551,0.05-0.551c-0.21,0-0.42,0-0.63-0.01c0.4-2.71,0.811-5.53,1.23-8.439
				c1.39-0.021,2.33,0,2.33,0c0.1-0.13,0.2-0.271,0.3-0.431c3.13-4.989,5.87-23.62,5.87-23.62c-2.92,2.271-4.44,2.921-4.44,2.921
				l0.641-4.591l0.88-6.24c0,0,1.62-0.87,5.52-4.44c3.9-3.58,11.7-3.58,11.7-3.58c1.63-0.65,0.65-3.57,0.65-3.57
				c-6.17-1.95-4.87-11.38-4.221-17.23c0.65-5.85,6.17-18.85,17.87-15.92c11.7,2.92,10.08,20.15,5.851,28.6
				c-4.221,8.45-11.37,7.15-11.37,7.15c-1.63,3.25,0.319,4.87,0.319,4.87s6.83,4.23,9.101,7.48c2.28,3.25-0.32,10.721-0.32,10.721
				c-5.2,10.399-9.43,32.18-10.729,36.079c-1.301,3.9,0.33,23.4,2.6,28.601c2.28,5.2,14.63,17.22,15.93,18.85
				c1.301,1.62,2.601,7.15,2.601,7.15c-8.78,2.92-21.45,0.97-21.45,0.97c0.65-3.57,9.42-5.85,9.42-5.85s-9.1-11.05-13-16.57
				c-3.9-5.53-6.82-16.25-7.47-19.83c-0.65-3.57-1.95-8.45-6.181-8.45c-4.22,0-5.85,6.181-5.85,6.181
				c-4.22,12.67-0.65,40.62-0.65,40.62c-12.35,1.63-19.5-0.32-19.5-0.32c0.98-4.23,11.051-5.851,11.051-5.851
				C79.11,176.45,82.08,143.02,82.51,138.36z"/>
			<path fill="#FFFFFF" d="M81.85,138.35c-2.33,15.74-4.29,27.67-5.25,30.551C73.14,179.3,62.74,174.97,62.74,174.97
				c-19.94-3.04-50.73-9.04-56.77-11.27c-4.98-1.84-3.47-8.67-3.47-8.67l21.24-135.2c0.81-8.12,9.1-7.31,9.1-7.31
				s39.811,1.46,42.09,1.46c2.271,0,2.761-3.25,2.761-3.25s0.649-2.11,1.3-5.85C79.64,1.15,82.24,2.28,85,3.1
				c2.76,0.81,1.57,3.3,1.57,3.3l-1.301,6.07c0,3.46,4.771,5.2,4.771,5.2c8.45,1.84,6.5,12.56,6.5,12.56s-4.79,37.27-9.74,73.26
				c-1.21,8.779-2.43,17.479-3.59,25.54c-0.02,0.109-0.03,0.22-0.05,0.33c-3.07,0.02-8.37,0.199-10.891,1.12
				C77.1,93.58,85.33,28.12,85.33,28.12s0.24-1.02-0.13-2.31c-0.061-0.19-0.12-0.38-0.21-0.58c-0.04-0.1-0.08-0.19-0.13-0.29
				c-0.051-0.1-0.11-0.21-0.17-0.31c-0.051-0.08-0.101-0.17-0.16-0.25c-0.19-0.3-0.431-0.59-0.73-0.88
				c-0.06-0.07-0.14-0.14-0.21-0.2c-0.39-0.35-0.859-0.68-1.43-0.98c-0.141-0.08-0.29-0.16-0.45-0.23c-0.16-0.07-0.33-0.14-0.5-0.21
				c-0.1-0.05-0.21-0.09-0.32-0.12c-0.29-0.11-0.6-0.21-0.93-0.3c-6.5-1.79-37.05-3.9-44.68-4.71c0,0-6.34-1.03-7.43,4.17
				C26.65,26.68,8.3,149.51,8.3,149.51s-0.4,1.221-0.2,2.51c0.01,0.091,0.03,0.171,0.05,0.261c0.01,0.05,0.02,0.09,0.03,0.13
				c0.02,0.1,0.05,0.2,0.09,0.3c0.13,0.39,0.34,0.76,0.64,1.1c0.07,0.091,0.16,0.171,0.25,0.24c0.06,0.061,0.13,0.12,0.2,0.16
				c0.05,0.05,0.11,0.09,0.18,0.13c0.21,0.141,0.46,0.271,0.74,0.37c0.11,0.05,0.24,0.09,0.37,0.13c0.27,0.08,0.57,0.15,0.9,0.19
				c4.88,0.649,34.78,4.88,52,5.529c0,0,4.23-0.489,5.36-5.689c0.27-1.21,1.3-8.76,2.729-19.62c1.2,1.39,4.021,2.49,10.29,2.55
				C81.91,137.98,81.88,138.17,81.85,138.35z M94.8,27.96c0,0,0.11-1.3-0.859-1.84c-0.98-0.55-3.69-0.44-3.69-0.44
				s-0.75,0.11-1.08,1.52l-1.08,11.59c0,0-0.54,1.95,0.97,2.28c1.521,0.32,2.49,0.43,2.49,0.43s1.3,0.11,1.74-1.84
				C93.72,37.71,94.8,27.96,94.8,27.96z M91.55,44.97c0,0,0.33-1.41-2.16-1.63c0,0-0.979-0.32-1.409,1.19
				c-0.431,1.52-0.761,5.53-0.761,5.53s0,1.19,1.521,1.3c1.51,0.11,1.729,0,2.06-1.3C91.12,48.76,91.55,44.97,91.55,44.97z
				 M42.15,164.78c0.22-1.73-2.16-2.271-2.16-2.271l-14.19-2.06c-2.06-0.22-1.95,1.729-1.95,1.729l-0.44,1.95
				c-0.11,1.521,1.3,1.41,1.3,1.41s13.24,2.71,14.74,3.03c1.51,0.33,2.38-1.4,2.38-1.4S41.94,166.52,42.15,164.78z"/>
			<path fill="#FFFFFF" d="M93.94,26.12c0.97,0.54,0.859,1.84,0.859,1.84s-1.08,9.75-1.51,11.7c-0.44,1.95-1.74,1.84-1.74,1.84
				s-0.97-0.11-2.49-0.43c-1.51-0.33-0.97-2.28-0.97-2.28l1.08-11.59c0.33-1.41,1.08-1.52,1.08-1.52S92.96,25.57,93.94,26.12z"/>
			<path fill="#EF6A2E" d="M85.2,25.81c0.37,1.29,0.13,2.31,0.13,2.31S77.1,93.58,72.27,130.48c-0.819,0.3-1.35,0.68-1.409,1.149
				c-0.141,1.15-0.221,2.48,0.779,3.62c-1.43,10.86-2.46,18.41-2.729,19.62c-1.13,5.2-5.36,5.689-5.36,5.689
				c-17.22-0.649-47.12-4.88-52-5.529c-0.33-0.04-0.63-0.11-0.9-0.19c-0.07-1.12,0.25-2.08,0.25-2.08S29.25,29.93,30.45,24.17
				c1.09-5.2,7.43-4.17,7.43-4.17c7.63,0.81,38.18,2.92,44.68,4.71C83.64,25,84.5,25.38,85.2,25.81z"/>
			<path fill="#F2F2F2" d="M84.99,25.23c0.09,0.2,0.149,0.39,0.21,0.58c-0.7-0.43-1.561-0.81-2.641-1.1
				c-6.5-1.79-37.05-3.9-44.68-4.71c0,0-6.34-1.03-7.43,4.17c-1.2,5.76-19.55,128.59-19.55,128.59s-0.32,0.96-0.25,2.08
				c-0.13-0.04-0.26-0.08-0.37-0.13c-0.28-0.1-0.53-0.229-0.74-0.37c-0.06-0.04-0.12-0.08-0.18-0.13c-0.07-0.04-0.14-0.1-0.2-0.16
				c-0.09-0.08-0.17-0.16-0.25-0.24c-0.3-0.34-0.51-0.71-0.64-1.1c-0.04-0.1-0.07-0.2-0.09-0.3c-0.01-0.04-0.02-0.08-0.03-0.13
				c-0.02-0.08-0.04-0.17-0.05-0.261c-0.2-1.289,0.2-2.51,0.2-2.51S26.65,26.68,27.85,20.92c1.09-5.2,7.43-4.17,7.43-4.17
				c7.63,0.81,38.18,2.92,44.68,4.71c0.33,0.09,0.64,0.19,0.93,0.3c0.11,0.03,0.21,0.07,0.32,0.12c0.17,0.07,0.34,0.14,0.5,0.21
				c0.16,0.07,0.31,0.15,0.45,0.23c0.57,0.3,1.04,0.63,1.43,0.98c0.07,0.06,0.141,0.13,0.21,0.2c0.3,0.29,0.54,0.58,0.73,0.88
				c0.06,0.08,0.109,0.17,0.16,0.25c0.06,0.1,0.119,0.21,0.17,0.31C84.91,25.04,84.95,25.14,84.99,25.23z"/>
			<path fill="#EF6A2E" d="M84.99,25.23c-0.04-0.09-0.08-0.19-0.13-0.29C84.91,25.04,84.95,25.13,84.99,25.23z"/>
			<path fill="#EF6A2E" d="M84.69,24.63c-0.051-0.08-0.101-0.17-0.16-0.25C84.59,24.46,84.64,24.55,84.69,24.63z"/>
			<path fill="#F2F2F2" d="M83.59,23.3c0.07,0.06,0.15,0.13,0.21,0.2C83.73,23.43,83.66,23.36,83.59,23.3z"/>
			<path fill="#EF6A2E" d="M82.16,22.32c-0.141-0.08-0.29-0.16-0.45-0.23C81.87,22.16,82.02,22.24,82.16,22.32z"/>
			<path fill="#303030" d="M83.16,129.36c-0.42,2.909-0.83,5.729-1.23,8.439c-6.27-0.06-9.09-1.16-10.29-2.55
				c0.2-1.53,0.41-3.12,0.63-4.77C74.79,129.56,80.09,129.38,83.16,129.36z"/>
			<path fill="#F2F2F2" d="M81.21,21.88c-0.11-0.05-0.21-0.09-0.32-0.12C81,21.79,81.11,21.83,81.21,21.88z"/>
			<path fill="#303030" d="M72.27,130.48c-0.22,1.649-0.43,3.239-0.63,4.77c-1-1.14-0.92-2.47-0.779-3.62
				C70.92,131.16,71.45,130.78,72.27,130.48z"/>
			<path fill="#FFFFFF" d="M39.99,162.51c0,0,2.38,0.54,2.16,2.271c-0.21,1.739-0.32,2.39-0.32,2.39s-0.87,1.73-2.38,1.4
				c-1.5-0.32-14.74-3.03-14.74-3.03s-1.41,0.11-1.3-1.41l0.44-1.95c0,0-0.11-1.949,1.95-1.729L39.99,162.51z"/>
			<path fill="#EF6A2E" d="M10.28,154.71c0.11,0.05,0.24,0.09,0.37,0.13C10.52,154.8,10.39,154.76,10.28,154.71z"/>
			<path fill="#EF6A2E" d="M9.36,154.21c0.06,0.05,0.12,0.09,0.18,0.13C9.47,154.3,9.41,154.26,9.36,154.21z"/>
			<path fill="#F2F2F2" d="M8.91,153.81c0.08,0.08,0.16,0.16,0.25,0.24C9.07,153.98,8.98,153.9,8.91,153.81z"/>
			<path fill="#F2F2F2" d="M8.18,152.41c0.02,0.1,0.05,0.2,0.09,0.3C8.23,152.61,8.2,152.51,8.18,152.41z"/>
			<path fill="#EF6A2E" d="M8.1,152.02c0.01,0.091,0.03,0.181,0.05,0.261C8.13,152.19,8.11,152.11,8.1,152.02z"/>
		</g>
		<g>
			<path fill="none" stroke="#EF6A2E" stroke-width="3" stroke-miterlimit="10" d="M83.16,129.36c0.02-0.11,0.03-0.221,0.05-0.33
				c1.16-8.061,2.38-16.761,3.59-25.54c4.95-35.99,9.74-73.26,9.74-73.26s1.95-10.72-6.5-12.56c0,0-4.771-1.74-4.771-5.2L86.57,6.4
				c0,0,1.189-2.49-1.57-3.3c-2.76-0.82-5.36-1.95-6.01,1.78c-0.65,3.74-1.3,5.85-1.3,5.85s-0.49,3.25-2.761,3.25
				c-2.279,0-42.09-1.46-42.09-1.46s-8.29-0.81-9.1,7.31L2.5,155.03c0,0-1.51,6.83,3.47,8.67c6.04,2.229,36.83,8.229,56.77,11.27
				c0,0,10.399,4.33,13.859-6.069c0.96-2.881,2.92-14.811,5.25-30.551c0.03-0.18,0.061-0.369,0.08-0.55"/>
			<path fill="none" stroke="#EF6A2E" stroke-width="3" stroke-miterlimit="10" d="M82.16,22.32c-0.141-0.08-0.29-0.16-0.45-0.23"/>
			<path fill="none" stroke="#EF6A2E" stroke-width="3" stroke-miterlimit="10" d="M84.69,24.63c-0.051-0.08-0.101-0.17-0.16-0.25"
				/>
			<path fill="none" stroke="#EF6A2E" stroke-width="3" stroke-miterlimit="10" d="M84.99,25.23c-0.04-0.1-0.08-0.19-0.13-0.29"/>
			<path fill="none" stroke="#EF6A2E" stroke-width="3" stroke-miterlimit="10" d="M72.27,130.48
				C77.1,93.58,85.33,28.12,85.33,28.12s0.24-1.02-0.13-2.31"/>
			<path fill="none" stroke="#EF6A2E" stroke-width="3" stroke-miterlimit="10" d="M10.28,154.71c0.11,0.05,0.24,0.09,0.37,0.13
				c0.27,0.08,0.57,0.15,0.9,0.19c4.88,0.649,34.78,4.88,52,5.529c0,0,4.23-0.489,5.36-5.689c0.27-1.21,1.3-8.76,2.729-19.62"/>
			<path fill="none" stroke="#EF6A2E" stroke-width="3" stroke-miterlimit="10" d="M9.36,154.21c0.05,0.05,0.11,0.09,0.18,0.13"/>
			<path fill="none" stroke="#EF6A2E" stroke-width="3" stroke-miterlimit="10" d="M8.1,152.02c0.01,0.091,0.03,0.171,0.05,0.261"/>
			<path fill="none" stroke="#EF6A2E" stroke-miterlimit="10" d="M89.17,27.2l-1.08,11.59c0,0-0.54,1.95,0.97,2.28
				c1.521,0.32,2.49,0.43,2.49,0.43s1.3,0.11,1.74-1.84c0.43-1.95,1.51-11.7,1.51-11.7s0.11-1.3-0.859-1.84
				c-0.98-0.55-3.69-0.44-3.69-0.44S89.5,25.79,89.17,27.2z"/>
			<path fill="none" stroke="#EF6A2E" stroke-miterlimit="10" d="M89.39,43.34c0,0-0.979-0.32-1.409,1.19
				c-0.431,1.52-0.761,5.53-0.761,5.53s0,1.19,1.521,1.3c1.51,0.11,1.729,0,2.06-1.3c0.32-1.3,0.75-5.09,0.75-5.09
				S91.88,43.56,89.39,43.34z"/>
			<path fill="none" stroke="#EF6A2E" stroke-miterlimit="10" d="M25.8,160.45l14.19,2.06c0,0,2.38,0.54,2.16,2.271
				c-0.21,1.739-0.32,2.39-0.32,2.39s-0.87,1.73-2.38,1.4c-1.5-0.32-14.74-3.03-14.74-3.03s-1.41,0.11-1.3-1.41l0.44-1.95
				C23.85,162.18,23.74,160.23,25.8,160.45z"/>
			<path fill="none" stroke="#EF6A2E" stroke-miterlimit="10" d="M52.34,169.98l0.65-3.25c0,0,0.32-1.62,2.06-1.41
				c1.73,0.22,6.17,0.649,6.17,0.649"/>
			<path fill="none" stroke="#EF6A2E" stroke-miterlimit="10" d="M14.96,163.27l0.44-2.71c0,0,0.32-1.409-1.09-1.52
				c0,0-4.11-1.08-5.41-1.3"/>
			<path fill="none" stroke="#EF6A2E" stroke-width="3" stroke-miterlimit="10" d="M10.65,154.84c-0.07-1.12,0.25-2.08,0.25-2.08
				S29.25,29.93,30.45,24.17c1.09-5.2,7.43-4.17,7.43-4.17c7.63,0.81,38.18,2.92,44.68,4.71c1.08,0.29,1.94,0.67,2.641,1.1
				c-0.061-0.19-0.12-0.38-0.21-0.58c-0.04-0.09-0.08-0.19-0.13-0.29c-0.051-0.1-0.11-0.21-0.17-0.31
				c-0.051-0.08-0.101-0.17-0.16-0.25c-0.19-0.3-0.431-0.59-0.73-0.88c-0.06-0.07-0.14-0.14-0.21-0.2
				c-0.39-0.35-0.859-0.68-1.43-0.98c-0.141-0.08-0.29-0.16-0.45-0.23c-0.16-0.07-0.33-0.14-0.5-0.21c-0.1-0.05-0.21-0.09-0.32-0.12
				c-0.29-0.11-0.6-0.21-0.93-0.3c-6.5-1.79-37.05-3.9-44.68-4.71c0,0-6.34-1.03-7.43,4.17C26.65,26.68,8.3,149.51,8.3,149.51
				s-0.4,1.221-0.2,2.51c0.01,0.091,0.03,0.181,0.05,0.261c0.01,0.05,0.02,0.09,0.03,0.13c0.02,0.1,0.05,0.2,0.09,0.3
				c0.13,0.39,0.34,0.76,0.64,1.1c0.07,0.091,0.16,0.171,0.25,0.24c0.06,0.061,0.13,0.12,0.2,0.16c0.06,0.05,0.12,0.09,0.18,0.13
				c0.21,0.141,0.46,0.271,0.74,0.37C10.39,154.76,10.52,154.8,10.65,154.84z"/>
			<path fill="none" stroke="#EF6A2E" stroke-miterlimit="10" d="M112.14,108.88c0,0-9.21,18.53-26.35,20.05
				c-0.84,0.08-1.7,0.11-2.58,0.101c-0.04,0-0.07,0-0.11,0"/>
			<path fill="none" stroke="#EF6A2E" stroke-miterlimit="10" d="M81.8,138.35c0,0,0.021,0,0.05,0c0.101,0,0.32,0.011,0.66,0.011
				c3.66-0.011,20.83-0.82,31.9-14.2"/>
			<polyline fill="none" stroke="#EF6A2E" stroke-miterlimit="10" points="108.4,67.62 107.45,76.02 111.15,76.01 			"/>
		</g>
	</g>
</g>
</svg>
