<?xml version="1.0" encoding="utf-8"?>
<!-- Generator: Adobe Illustrator 16.0.0, SVG Export Plug-In . SVG Version: 6.00 Build 0)  -->
<!DOCTYPE svg PUBLIC "-//W3C//DTD SVG 1.1//EN" "http://www.w3.org/Graphics/SVG/1.1/DTD/svg11.dtd">
<svg version="1.1" id="Layer_1" xmlns="http://www.w3.org/2000/svg" xmlns:xlink="http://www.w3.org/1999/xlink" x="0px" y="0px"
	 width="203px" height="221px" viewBox="0 0 203 221" enable-background="new 0 0 203 221" xml:space="preserve">
<polygon fill="none" stroke="#EF6A2E" stroke-width="3" stroke-miterlimit="10" points="96.321,52.798 64.688,5.999 91.121,54.532 
	"/>
<g id="XMLID_1_">
	<g>
		<path fill="#F2F2F2" d="M15.71,73.82c0.01-0.01,0.01-0.01,0.01-0.01c2.17-3.89,11.7-4.76,11.7-4.76
			c22.95-4.3,51.41-5.95,68.02-6.57l24.58-0.4h0.171c22.26,0.26,58.5,1.91,63.229,2.63c5.63,0.87,11.7,3.47,14.3,7.81
			c2.601,4.33,3.471,13,3.471,13c0.43,50.26-3.471,112.23-3.471,112.23s-0.87,9.53-3.47,14.73c-3.03,6.069-12.56,6.939-12.56,6.939
			S42.15,218.98,31.32,218.55c-10.83-0.43-13.43-5.2-18.2-12.13c-4.77-6.939-5.2-15.17-5.2-15.17s-6.5-78-6.07-92.3
			C2.28,84.88,15.29,74.16,15.71,73.82z M45.4,189.3c0-3.229-2.81-5.85-6.28-5.85c-3.47,0-6.28,2.62-6.28,5.85
			c0,3.23,2.81,5.851,6.28,5.851C42.59,195.15,45.4,192.53,45.4,189.3z M43.45,165.9c0-3.23-2.81-5.851-6.28-5.851
			c-3.47,0-6.28,2.62-6.28,5.851c0,3.229,2.81,5.85,6.28,5.85C40.64,171.75,43.45,169.13,43.45,165.9z"/>
		<path fill="#F2F2F2" d="M124.26,62.01l-4.069,0.07h-0.171c-4.17-0.04-7.829-0.04-10.699,0.03c0,0-5.4,0.05-13.88,0.37l-11.46,0.18
			c0.17-6.06,9.12-10.94,20.14-10.94c4.35,0,8.38,0.66,11.67,1.83l-0.58,1.19l4.43,3.22l0.771-2.09
			C122.78,57.54,124.2,59.63,124.26,62.01z"/>
		<path fill="#F2F2F2" d="M120.41,55.87l-0.771,2.09l-4.43-3.22l0.58-1.19C117.57,54.18,119.13,54.96,120.41,55.87z"/>
		<path fill="#F2F2F2" d="M120.02,62.08l-24.58,0.4c8.48-0.32,13.88-0.37,13.88-0.37C112.19,62.04,115.85,62.04,120.02,62.08z"/>
		<ellipse fill="#F2F2F2" cx="39.12" cy="189.3" rx="6.28" ry="5.85"/>
		<ellipse fill="#F2F2F2" cx="37.17" cy="165.9" rx="6.28" ry="5.85"/>
	</g>
	<g>
		<polyline fill="none" stroke="#EF6A2E" stroke-width="3" stroke-miterlimit="10" points="120.41,55.87 139.29,5 115.79,53.55 		
			"/>
		<path fill="none" stroke="#EF6A2E" stroke-width="3" stroke-miterlimit="10" d="M15.71,73.82C15.29,74.16,2.28,84.88,1.85,98.95
			c-0.43,14.3,6.07,92.3,6.07,92.3s0.43,8.23,5.2,15.17c4.77,6.93,7.37,11.7,18.2,12.13c10.83,0.431,150.371,0.87,150.371,0.87
			s9.529-0.87,12.56-6.939c2.6-5.2,3.47-14.73,3.47-14.73s3.9-61.97,3.471-112.23c0,0-0.87-8.67-3.471-13
			c-2.6-4.34-8.67-6.94-14.3-7.81c-4.729-0.72-40.97-2.37-63.229-2.63"/>
		<path fill="none" stroke="#EF6A2E" stroke-width="3" stroke-miterlimit="10" d="M95.44,62.48c-16.61,0.62-45.07,2.27-68.02,6.57
			c0,0-9.53,0.87-11.7,4.76"/>
		<path fill="none" stroke="#EF6A2E" stroke-width="3" stroke-miterlimit="10" d="M115.79,53.55c-3.29-1.17-7.32-1.83-11.67-1.83
			c-11.02,0-19.97,4.88-20.14,10.94l11.46-0.18l24.58-0.4h0.171l4.069-0.07c-0.06-2.38-1.479-4.47-3.85-6.14
			C119.13,54.96,117.57,54.18,115.79,53.55z"/>
		<ellipse fill="none" stroke="#EF6A2E" stroke-miterlimit="10" cx="37.17" cy="165.9" rx="6.28" ry="5.85"/>
		<ellipse fill="none" stroke="#EF6A2E" stroke-miterlimit="10" cx="39.12" cy="189.3" rx="6.28" ry="5.851"/>
		<path fill="none" stroke="#EF6A2E" stroke-miterlimit="10" d="M15.72,73.81c0,0,0,0-0.01,0.01c-0.1,0.38-2.14,7.65-1.29,18.63"/>
		<path fill="none" stroke="#EF6A2E" stroke-miterlimit="10" d="M24.39,217.25c0,0-5.2-0.43-5.2-20.37"/>
	</g>
</g>
<circle fill="#F2F2F2" stroke="#EF6A2E" stroke-width="3" stroke-miterlimit="10" cx="65.555" cy="5.782" r="4.117"/>
<circle fill="#F2F2F2" stroke="#EF6A2E" stroke-width="3" stroke-miterlimit="10" cx="139.975" cy="5.575" r="4.117"/>
</svg>
