<?xml version="1.0" encoding="utf-8"?>
<!-- Generator: Adobe Illustrator 16.0.0, SVG Export Plug-In . SVG Version: 6.00 Build 0)  -->
<!DOCTYPE svg PUBLIC "-//W3C//DTD SVG 1.1//EN" "http://www.w3.org/Graphics/SVG/1.1/DTD/svg11.dtd">
<svg version="1.1" id="Layer_1" xmlns="http://www.w3.org/2000/svg" xmlns:xlink="http://www.w3.org/1999/xlink" x="0px" y="0px"
	 width="298.886px" height="197.502px" viewBox="0 0 298.886 197.502" enable-background="new 0 0 298.886 197.502"
	 xml:space="preserve">
<path opacity="0.25" fill="#EF6A2E" d="M14.021,70.825c30.929,13.801,42.271,5.421,30.105-22.921
	C61.858,66.388,75.262,66.143,67.22,20.548c18.969,45.839,31.96,38.201,30.722,7.887c9.897,26.37,21.857,26.123,25.156-10.597
	c9.279,40.171,23.507,32.038,31.137-11.338c4.948,50.523,19.795,48.305,32.373,9.119c0.826,37.708,12.989,38.446,27.838,5.668
	c-5.775,35.983,4.535,41.157,30.721,5.423c-14.021,39.924-2.473,41.404,25.982,22.92c-17.939,23.412-13.609,37.707,21.237,39.434
	c-34.229,8.377-36.703,19.467-13.196,42.389c-33.197-12.321-36.496,1.972-25.567,23.908c-25.362-19.227-34.23-13.062-28.868,26.369
	c-20.824-37.709-31.548-30.807-30.93-2.22c-15.052-37.459-28.043-25.628-29.074,17.992c-10.103-36.476-25.362-36.476-31.136-4.931
	c-5.36-34.994-15.462-34.994-28.248,4.438c1.031-36.229-10.516-44.854-27.012-11.581c1.445-29.577-8.866-31.055-32.578-4.931
	c11.752-33.763,3.505-41.651-28.661-22.182C37.733,131.452,34.434,120.361,0,114.938C34.229,106.808,37.733,95.472,14.021,70.825z"
	/>
<path fill="#F5F5F5" d="M20.521,64.325c30.929,13.801,42.271,5.421,30.105-22.921C68.358,59.888,81.762,59.643,73.72,14.048
	c18.969,45.839,31.96,38.201,30.722,7.887c9.897,26.37,21.857,26.123,25.156-10.597C138.877,51.509,153.104,43.376,160.734,0
	c4.948,50.523,19.795,48.305,32.373,9.119c0.826,37.708,12.989,38.446,27.838,5.668c-5.775,35.983,4.535,41.157,30.721,5.423
	c-14.021,39.924-2.473,41.404,25.982,22.92c-17.939,23.412-13.609,37.707,21.237,39.434c-34.229,8.377-36.703,19.467-13.196,42.389
	c-33.197-12.321-36.496,1.972-25.567,23.908c-25.362-19.227-34.23-13.062-28.868,26.369c-20.824-37.709-31.548-30.807-30.93-2.22
	c-15.052-37.459-28.043-25.628-29.074,17.992c-10.103-36.476-25.362-36.476-31.136-4.931c-5.36-34.994-15.462-34.994-28.248,4.438
	c1.031-36.229-10.516-44.854-27.012-11.581c1.445-29.577-8.866-31.055-32.578-4.931c11.752-33.763,3.505-41.651-28.661-22.182
	c20.619-26.863,17.319-37.954-17.114-43.377C40.729,100.308,44.233,88.972,20.521,64.325z"/>
<g>
	<path d="M65.262,77.701c-0.618-0.882-0.559-1.911-0.088-3.235c1.147-3.205,4.323-9.233,4.146-11.027
		c0.823,0.324,1.647,0.883,2.206,1.412c0.647,0.588,0.882,1.47,0.5,2.999c-0.793,3.029-4,10.263-4.235,12.058
		C66.938,79.466,65.762,78.407,65.262,77.701z M70.085,60.38c0-1.882,0.882-3.205,2.206-3.205c1.5,0,2.706,1.176,2.706,2.764
		c0,2-1.059,3.588-2.323,3.588C71.173,63.526,70.085,62.233,70.085,60.38z"/>
	<path d="M88.258,63.203c0,6.94-3.822,14.351-8.352,16.115c0.412-0.059,0.765-0.088,1-0.088c0.794-0.03,1.323,0.206,1.588,0.765
		c0.353,0.764,0.559,1.676,0.529,2.529c-1.265-0.383-5.852,0.911-7.528,0.911c-0.765,0-1.294-0.294-1.559-0.911
		c-0.294-0.677-0.471-1.706-0.441-2.529c0.706,0.088,2.264-0.088,3.823-0.294c-2.705-0.265-4.382-2.353-4.382-6.146
		c0-7.558,5.382-16.204,10.793-16.204C86.553,57.351,88.258,59.763,88.258,63.203z M77.524,72.085c0,1.882,0.647,2.852,1.588,2.852
		c1.971,0,5.176-6.439,5.176-11.527c0-1.471-0.323-2.176-1.088-2.176C81.2,61.233,77.524,66.938,77.524,72.085z"/>
	<path d="M98.432,65.702c0.618,0.736,0.765,1.795,0.206,3.441c-0.823,2.471-3.558,8.734-3.146,10.469
		c-0.882-0.205-1.794-0.529-2.471-1.117c-0.529-0.441-0.765-1.088-0.676-1.941c-1.206,1.677-2.794,2.883-4.088,2.883
		c-0.941,0-1.853-0.912-1.853-2.559c0-3.617,3.794-9.322,4.234-12.527c0.794,0.294,1.735,0.822,2.176,1.352
		c0.765,0.912,0.647,1.824,0.206,3.206c-0.617,1.911-1.882,4.088-2.293,5.97c-0.176,0.765,0.176,0.823,0.706,0.265
		c1.794-1.911,4.794-9.087,4.911-10.821C97.197,64.674,97.991,65.173,98.432,65.702z"/>
	<path d="M107.782,73.731c-0.294,3.264-2.44,5.646-5.382,5.646c-2.146,0-3.999-1.412-3.882-4.5
		c0.088-4.676,4.294-10.763,8.587-10.763c2.117,0,3.029,1.206,3,2.794c-0.029,3.088-3.44,5.969-7.087,6.322
		c0.029,1.323,0.529,1.853,1.646,1.853C105.694,75.084,107.018,74.466,107.782,73.731z M106.371,66.791
		c-0.941,0-2.5,2.235-3.118,4.47c1.912-0.646,3.558-2.646,3.558-3.881C106.812,66.997,106.635,66.791,106.371,66.791z"/>
	<path d="M122.631,58.733c0.647,0.882,0.588,1.911,0.118,3.234c-1.5,4.294-6.205,15.704-6.117,17.733
		c-0.823-0.265-1.765-0.765-2.323-1.294c-0.647-0.588-0.94-1.529-0.5-3.059c1.235-4.529,6.323-16.762,6.558-18.557
		C121.22,57.233,122.131,58.028,122.631,58.733z"/>
	<path d="M126.365,78.437c-0.647-0.529-0.853-1.323-0.588-2.471c-1.294,2.383-2.676,3.383-3.881,3.383
		c-1.089,0-2.088-0.736-2.118-3.088c-0.059-4.294,3.941-11.822,7.646-11.822c1.176,0,1.94,0.853,2.088,2
		c0.353-0.795,0.617-1.471,0.765-1.794c0.646,0.294,1.265,0.823,1.617,1.353c0.5,0.765,0.618,1.559,0.059,3.205
		c-0.823,2.471-3.411,8.41-3.058,10.469C128.012,79.466,127.042,79.024,126.365,78.437z M124.013,74.525
		c0,0.265,0.118,0.44,0.382,0.44c0.735,0,2-2,3.206-4.41c0.353-0.677,0.735-1.5,1.118-2.324c-0.088-0.44-0.323-0.764-0.647-0.764
		C126.747,67.468,124.013,72.819,124.013,74.525z"/>
	<path d="M139.655,76.702c-1.029,3.176-2.205,7.263-2.059,8.086c-0.735-0.471-1.706-1.146-2.264-1.646
		c-0.559-0.5-0.765-1.146-0.471-2.588c0.941-4.588,5.264-14.469,5.823-16.674c0.647,0.441,1.411,1.146,1.676,1.676
		c0.206,0.441,0.324,0.883,0.294,1.412c0.911-1.559,2.352-2.765,3.646-2.765c1.353,0,2.147,1.471,2.147,3.528
		c0,5.265-3.088,11.41-5.94,11.41C141.185,79.142,140.067,78.29,139.655,76.702z M140.302,74.761
		c0.147,0.471,0.441,0.705,0.794,0.705c1.176,0,3.323-4.764,3.323-6.969c0-0.324-0.088-0.471-0.323-0.471
		C143.361,68.026,141.42,71.496,140.302,74.761z"/>
	<path d="M159.739,65.702c0.618,0.736,0.765,1.795,0.206,3.441c-0.823,2.471-3.559,8.734-3.146,10.469
		c-0.883-0.205-1.794-0.529-2.471-1.117c-0.529-0.441-0.765-1.088-0.676-1.941c-1.206,1.677-2.794,2.883-4.088,2.883
		c-0.941,0-1.853-0.912-1.853-2.559c0-3.617,3.794-9.322,4.234-12.527c0.794,0.294,1.735,0.822,2.177,1.352
		c0.764,0.912,0.646,1.824,0.205,3.206c-0.617,1.911-1.882,4.088-2.293,5.97c-0.177,0.765,0.176,0.823,0.705,0.265
		c1.794-1.911,4.794-9.087,4.911-10.821C158.504,64.674,159.298,65.173,159.739,65.702z"/>
	<path d="M166.031,67.056c1.294-1.853,2.471-2.734,3.294-2.882c1.765-0.294,2.558,1.676,2.558,3.558
		c0,4.883-3.587,11.705-7.175,11.705c-1.765,0-3.47-1.029-4.265-2.295c-0.676-1.058-0.822-2.058-0.234-4.087
		c1.234-4.528,5.588-14.38,5.822-16.175c0.854,0.441,1.588,1.089,2.059,1.736c0.646,0.882,0.646,1.822,0.147,3.146
		C167.767,63.026,166.885,65.144,166.031,67.056z M163.12,75.202c0.235,0.264,0.529,0.382,0.853,0.382
		c1.383,0,3.941-5.528,3.941-7.146c0-0.295-0.118-0.471-0.354-0.471C166.854,67.968,164.355,71.585,163.12,75.202z"/>
	<path d="M180.499,58.733c0.646,0.882,0.588,1.911,0.117,3.234c-1.5,4.294-6.205,15.704-6.116,17.733
		c-0.824-0.265-1.766-0.765-2.324-1.294c-0.646-0.588-0.94-1.529-0.499-3.059c1.234-4.529,6.322-16.762,6.558-18.557
		C179.087,57.233,179.998,58.028,180.499,58.733z"/>
	<path d="M178.175,78.407c-0.706-0.647-0.882-1.588-0.412-3.294c0.941-3.588,3.529-8.293,4.088-10.675
		c0.794,0.441,1.559,1.146,1.97,1.823c0.529,0.882,0.5,1.911,0.03,3.294c-1.177,3.44-3.206,8.852-2.853,10.175
		C180.027,79.524,178.792,78.966,178.175,78.407z M187.35,61.175c0,1.793-0.941,3.205-2.176,3.205c-1.412,0-2.706-1.354-2.706-2.765
		c0-1.765,1.06-3.587,2.323-3.587C186.291,58.028,187.35,59.469,187.35,61.175z"/>
	<path d="M191.437,70.026c-0.529-0.441-0.529-1.029-0.206-1.971c0.147-0.412,0.265-0.794,0.324-1.117
		c-1.56,0.705-3.118,3.705-3.118,5.822c0,1.529,0.647,2.059,1.735,2.059c0.794,0,1.912-0.5,2.676-1.117
		c-0.264,3.264-2.411,5.676-5.028,5.676c-2.029,0-3.882-1.412-3.882-4.383c0-4.705,4-10.88,8.058-10.88
		c1.588,0,2.735,1.235,2.735,2.735c0,1.234-0.971,3.234-1.088,3.998C192.818,70.819,191.907,70.468,191.437,70.026z"/>
	<path d="M194.141,78.407c-0.705-0.647-0.882-1.588-0.411-3.294c0.94-3.588,3.528-8.293,4.087-10.675
		c0.795,0.441,1.559,1.146,1.971,1.823c0.529,0.882,0.5,1.911,0.029,3.294c-1.176,3.44-3.205,8.852-2.853,10.175
		C195.994,79.524,194.758,78.966,194.141,78.407z M203.316,61.175c0,1.793-0.941,3.205-2.177,3.205
		c-1.411,0-2.705-1.354-2.705-2.765c0-1.765,1.059-3.587,2.323-3.587C202.258,58.028,203.316,59.469,203.316,61.175z"/>
	<path d="M214.166,59.615c0.647,0.882,0.588,1.911,0.118,3.235c-1.5,4.293-5.793,14.586-5.765,16.791
		c-0.822-0.264-1.822-0.822-2.293-1.382c-0.471-0.528-0.765-1.353-0.529-2.587c-1.323,2.587-2.823,3.616-4.059,3.616
		c-1.088,0-2.088-0.735-2.117-3.087c-0.059-4.294,3.882-11.764,7.587-11.764c1.089,0,1.823,0.734,2.029,1.764
		c1.44-3.705,2.735-7.557,2.853-8.469C212.844,58.175,213.666,58.91,214.166,59.615z M203.756,74.525c0,0.265,0.147,0.44,0.412,0.44
		c0.735,0,1.971-1.676,3.176-4.41c0.323-0.736,0.677-1.559,1.029-2.412c-0.117-0.412-0.323-0.676-0.617-0.676
		C206.433,67.468,203.756,72.819,203.756,74.525z"/>
	<path d="M218.018,78.437c-0.646-0.529-0.853-1.323-0.588-2.471c-1.294,2.383-2.676,3.383-3.882,3.383
		c-1.088,0-2.088-0.736-2.117-3.088c-0.059-4.294,3.94-11.822,7.646-11.822c1.177,0,1.941,0.853,2.088,2
		c0.354-0.795,0.618-1.471,0.766-1.794c0.646,0.294,1.264,0.823,1.617,1.353c0.5,0.765,0.617,1.559,0.059,3.205
		c-0.823,2.471-3.411,8.41-3.059,10.469C219.665,79.466,218.694,79.024,218.018,78.437z M215.665,74.525
		c0,0.265,0.118,0.44,0.383,0.44c0.735,0,1.999-2,3.205-4.41c0.353-0.677,0.735-1.5,1.118-2.324
		c-0.089-0.44-0.324-0.764-0.647-0.764C218.4,67.468,215.665,72.819,215.665,74.525z"/>
	<path d="M237.603,59.615c0.646,0.882,0.588,1.911,0.117,3.235c-1.5,4.293-5.793,14.586-5.764,16.791
		c-0.823-0.264-1.823-0.822-2.294-1.382c-0.471-0.528-0.765-1.353-0.529-2.587c-1.323,2.587-2.823,3.616-4.059,3.616
		c-1.088,0-2.088-0.735-2.117-3.087c-0.059-4.294,3.882-11.764,7.588-11.764c1.088,0,1.822,0.734,2.029,1.764
		c1.44-3.705,2.734-7.557,2.852-8.469C236.279,58.175,237.103,58.91,237.603,59.615z M227.192,74.525c0,0.265,0.146,0.44,0.411,0.44
		c0.735,0,1.971-1.676,3.176-4.41c0.324-0.736,0.677-1.559,1.029-2.412c-0.117-0.412-0.323-0.676-0.617-0.676
		C229.868,67.468,227.192,72.819,227.192,74.525z"/>
</g>
<g>
	<path fill="#EF6A2E" d="M124.02,84.986c0.462,0.629,0.42,1.364,0.084,2.308c-1.07,3.064-4.134,10.41-4.113,11.984
		c-0.588-0.189-1.301-0.588-1.637-0.986c-0.336-0.379-0.545-0.966-0.378-1.848c-0.944,1.848-2.015,2.582-2.896,2.582
		c-0.776,0-1.49-0.525-1.511-2.203c-0.042-3.064,2.771-8.396,5.415-8.396c0.776,0,1.301,0.524,1.448,1.259
		c1.028-2.644,1.952-5.393,2.036-6.043C123.076,83.958,123.663,84.481,124.02,84.986z M116.591,95.626
		c0,0.189,0.104,0.315,0.294,0.315c0.524,0,1.406-1.196,2.267-3.148c0.23-0.524,0.482-1.112,0.734-1.721
		c-0.084-0.294-0.231-0.483-0.441-0.483C118.5,90.589,116.591,94.409,116.591,95.626z"/>
	<path fill="#EF6A2E" d="M128.995,95.06c-0.21,2.33-1.742,4.029-3.841,4.029c-1.532,0-2.854-1.007-2.771-3.211
		c0.063-3.337,3.064-7.681,6.128-7.681c1.512,0,2.162,0.86,2.141,1.993c-0.021,2.204-2.455,4.261-5.058,4.512
		c0.021,0.945,0.378,1.322,1.175,1.322C127.505,96.024,128.449,95.585,128.995,95.06z M127.987,90.106
		c-0.671,0-1.784,1.596-2.225,3.19c1.364-0.462,2.539-1.889,2.539-2.771C128.302,90.254,128.176,90.106,127.987,90.106z"/>
	<path fill="#EF6A2E" d="M132.626,88.491c0.546,0.272,1.07,0.755,1.322,1.133c0.356,0.545,0.356,1.238,0.126,2.183
		c-0.525,2.077-1.784,5.813-2.833,8.332c-1.176,2.833-2.351,3.841-3.736,3.841c-1.154,0-2.099-0.818-2.099-2.477
		c0-0.547,0.105-1.217,0.315-1.742c0.377,0.504,0.839,0.756,1.301,0.756c0.965,0,1.658-1.217,3.232-5.205
		C131.283,92.71,132.605,89.058,132.626,88.491z M136.571,86.099c0,1.279-0.692,2.287-1.574,2.287c-1.007,0-1.952-0.965-1.952-1.973
		c0-1.26,0.776-2.561,1.679-2.561C135.795,83.853,136.571,84.881,136.571,86.099z"/>
	<path fill="#EF6A2E" d="M140.895,95.06c-0.209,2.33-1.742,4.029-3.84,4.029c-1.532,0-2.854-1.007-2.771-3.211
		c0.063-3.337,3.063-7.681,6.128-7.681c1.511,0,2.162,0.86,2.141,1.993c-0.021,2.204-2.455,4.261-5.058,4.512
		c0.021,0.945,0.378,1.322,1.175,1.322C139.405,96.024,140.349,95.585,140.895,95.06z M139.888,90.106
		c-0.672,0-1.784,1.596-2.225,3.19c1.364-0.462,2.54-1.889,2.54-2.771C140.203,90.254,140.076,90.106,139.888,90.106z"/>
	<path fill="#EF6A2E" d="M155.545,84.986c0.461,0.629,0.419,1.364,0.083,2.308c-1.069,3.064-4.134,10.41-4.113,11.984
		c-0.587-0.189-1.301-0.588-1.637-0.986c-0.336-0.379-0.546-0.966-0.378-1.848c-0.944,1.848-2.015,2.582-2.896,2.582
		c-0.776,0-1.49-0.525-1.511-2.203c-0.042-3.064,2.771-8.396,5.415-8.396c0.776,0,1.301,0.524,1.447,1.259
		c1.029-2.644,1.952-5.393,2.036-6.043C154.6,83.958,155.188,84.481,155.545,84.986z M148.115,95.626
		c0,0.189,0.104,0.315,0.293,0.315c0.525,0,1.406-1.196,2.267-3.148c0.23-0.524,0.482-1.112,0.734-1.721
		c-0.084-0.294-0.23-0.483-0.441-0.483C150.025,90.589,148.115,94.409,148.115,95.626z"/>
	<path fill="#EF6A2E" d="M160.52,95.06c-0.211,2.33-1.742,4.029-3.841,4.029c-1.532,0-2.854-1.007-2.771-3.211
		c0.062-3.337,3.064-7.681,6.128-7.681c1.511,0,2.162,0.86,2.141,1.993c-0.021,2.204-2.455,4.261-5.058,4.512
		c0.021,0.945,0.378,1.322,1.175,1.322C159.029,96.024,159.973,95.585,160.52,95.06z M159.512,90.106
		c-0.672,0-1.784,1.596-2.225,3.19c1.364-0.462,2.539-1.889,2.539-2.771C159.826,90.254,159.701,90.106,159.512,90.106z"/>
	<path fill="#EF6A2E" d="M170.09,92.646c-0.336-0.314-0.398-0.566-0.294-1.027c0.104-0.504,0.44-1.154,0.63-1.596
		c-0.944,0.357-1.805,1.176-1.805,1.91c0,1.133,2.623,1.553,2.623,3.841c0,1.805-1.428,3.253-3.777,3.253
		c-1.848,0-3.106-0.902-3.106-2.309c0-0.944,0.335-1.868,1.007-2.371c0,0.713,0.693,1.385,1.91,1.385c0.84,0,1.26-0.252,1.26-0.588
		c0-0.84-2.456-1.427-2.456-3.169c0-1.763,2.477-3.777,4.345-3.757c1.07,0,2.203,1.07,2.203,1.91c0,0.902-1.028,2.561-0.986,3.316
		C171.139,93.339,170.426,92.961,170.09,92.646z"/>
	<path fill="#EF6A2E" d="M178.569,95.06c-0.21,2.33-1.742,4.029-3.841,4.029c-1.531,0-2.854-1.007-2.771-3.211
		c0.063-3.337,3.064-7.681,6.129-7.681c1.511,0,2.161,0.86,2.14,1.993c-0.021,2.204-2.455,4.261-5.058,4.512
		c0.021,0.945,0.378,1.322,1.176,1.322C177.079,96.024,178.023,95.585,178.569,95.06z M177.562,90.106
		c-0.671,0-1.783,1.596-2.225,3.19c1.364-0.462,2.54-1.889,2.54-2.771C177.877,90.254,177.751,90.106,177.562,90.106z"/>
	<path fill="#EF6A2E" d="M186.797,89.036c0.272,0.818,0.104,2.309-0.357,3.127c-0.251-0.377-0.545-0.607-0.986-0.607
		c-0.734,0-1.679,0.839-2.833,3.084c-0.882,1.721-1.511,3.693-1.511,4.66c-0.546-0.147-1.386-0.588-1.742-0.967
		c-0.378-0.42-0.545-1.007-0.273-2.077c0.693-2.749,2.729-6.674,2.918-7.911c0.504,0.23,0.944,0.566,1.238,0.965
		c0.294,0.44,0.377,0.902,0.188,1.615c0.399-0.924,1.028-1.867,1.595-2.309C185.811,88.029,186.503,88.176,186.797,89.036z"/>
</g>
<g>
	<path fill="#303030" d="M64.93,105.651h13.546c8.69,0,13.589,2.344,13.589,10.139c0,7.582-4.941,10.734-13.631,10.734h-2.386v5.325
		H64.93V105.651z M77.582,119.453c2.727,0,3.621-0.554,3.621-3.364c0-2.812-0.895-3.366-3.621-3.366h-1.534v6.73H77.582z"/>
	<path fill="#303030" d="M101.223,131.85H90.615l9.415-26.198h13.972l9.415,26.198h-11.714l-1.065-3.749h-8.349L101.223,131.85z
		 M107.527,117.195c-0.554-1.917-1.065-5.708-1.065-5.708s-0.511,3.748-1.064,5.708c0,0-1.278,4.558-1.321,4.558h4.729
		L107.527,117.195z"/>
	<path fill="#303030" d="M124.777,131.466v-7.242c1.363,0.172,4.729,0.428,9.031,0.428c3.28,0,3.749-0.256,3.749-1.364
		c0-1.107-0.426-1.448-4.515-1.448c-7.157,0-9.159-3.067-9.159-7.881s1.576-8.52,13.291-8.52c5.069,0,8.562,0.383,9.84,0.596v7.242
		c-1.49-0.127-4.643-0.426-9.073-0.426c-2.727,0-3.408,0.256-3.408,1.363s0.256,1.447,5.069,1.447c6.773,0,8.775,2.685,8.775,7.882
		c0,5.196-1.704,8.521-13.504,8.521C130.315,132.063,126.056,131.636,124.777,131.466z"/>
	<path fill="#303030" d="M151.314,105.651h11.118v26.198h-11.118V105.651z"/>
	<path fill="#303030" d="M164.902,105.651h11.672l3.578,13.035c0.853,3.152,1.278,7.327,1.278,7.327s0.426-4.175,1.192-7.327
		l3.238-13.035h10.564l-8.648,26.24h-13.972L164.902,105.651z"/>
	<path fill="#303030" d="M203.623,131.85h-10.606l9.414-26.198h13.973l9.414,26.198h-11.715l-1.064-3.749h-8.35L203.623,131.85z
		 M209.928,117.195c-0.554-1.917-1.064-5.708-1.064-5.708s-0.512,3.748-1.065,5.708c0,0-1.278,4.558-1.32,4.558h4.729
		L209.928,117.195z"/>
	<path fill="#303030" d="M227.264,124.097h10.352v7.753h-10.352V124.097z M227.434,105.651h10.011v16.443h-10.011V105.651z"/>
</g>
</svg>
