<?xml version="1.0" encoding="utf-8"?>
<!-- Generator: Adobe Illustrator 16.0.0, SVG Export Plug-In . SVG Version: 6.00 Build 0)  -->
<!DOCTYPE svg PUBLIC "-//W3C//DTD SVG 1.1//EN" "http://www.w3.org/Graphics/SVG/1.1/DTD/svg11.dtd">
<svg version="1.1" id="Layer_1" xmlns="http://www.w3.org/2000/svg" xmlns:xlink="http://www.w3.org/1999/xlink" x="0px" y="0px"
	 width="308px" height="111.467px" viewBox="0 0 308 111.467" enable-background="new 0 0 308 111.467" xml:space="preserve">
<g opacity="0.25">
	<path fill="#EF6A2E" d="M299.713,104.324c0,3.59-2.91,6.5-6.5,6.5h-286c-3.59,0-6.5-2.91-6.5-6.5v-90.35c0-3.59,2.91-6.5,6.5-6.5
		h286c3.59,0,6.5,2.91,6.5,6.5V104.324z"/>
</g>
<g>
	<path fill="#303030" d="M306.213,97.824c0,3.59-2.91,6.5-6.5,6.5h-286c-3.59,0-6.5-2.91-6.5-6.5V7.475c0-3.59,2.91-6.5,6.5-6.5h286
		c3.59,0,6.5,2.91,6.5,6.5V97.824z"/>
	<path fill="#EF6A2E" d="M299.713,105.299h-286c-4.122,0-7.475-3.354-7.475-7.475V7.475C6.238,3.353,9.591,0,13.713,0h286
		c4.122,0,7.475,3.353,7.475,7.475v90.35C307.188,101.945,303.835,105.299,299.713,105.299z M13.713,1.949
		c-3.047,0-5.525,2.479-5.525,5.525v90.35c0,3.047,2.479,5.525,5.525,5.525h286c3.047,0,5.525-2.479,5.525-5.525V7.475
		c0-3.047-2.479-5.525-5.525-5.525H13.713z"/>
</g>
<g>
	<path fill="#F5F5F5" d="M56.007,55.559c5.241,0,8.683,3.286,8.683,7.824c0,7.743-8.604,14.627-21.824,14.627
		c-12.438,0-18.93-5.24-18.93-12.516c0-6.258,3.833-11.029,13.298-14.783c6.728-2.66,7.509-3.677,7.509-5.319
		c0-0.782-0.548-1.408-1.486-1.8c0.861-0.547,2.035-0.782,3.207-0.782c3.208,0,5.554,2.19,5.554,5.397
		c0,2.737-1.252,4.929-6.023,8.215c-4.302,2.971-6.179,6.021-6.101,9.619c0.079,3.285,1.799,5.711,5.788,5.711
		c1.878,0,3.52-0.781,4.381-1.721c-3.364,0.156-5.867-2.503-5.867-5.397C44.195,59.471,49.905,55.559,56.007,55.559z M54.677,33.111
		c0,4.614-3.912,8.056-9.543,8.056c-5.945,0-10.247-3.363-10.247-7.901c0-4.301,4.224-7.82,9.778-7.82
		C50.923,25.445,54.677,28.965,54.677,33.111z"/>
</g>
<g>
	<path fill="#F5F5F5" d="M258.819,47.894c-5.241,0-8.683-3.285-8.683-7.823c-0.001-7.743,8.604-14.627,21.823-14.627
		c12.438,0,18.93,5.241,18.931,12.516c0,6.258-3.834,11.029-13.298,14.783c-6.728,2.66-7.51,3.678-7.51,5.319
		c0,0.782,0.548,1.408,1.486,1.8c-0.86,0.547-2.034,0.782-3.207,0.782c-3.208,0-5.554-2.19-5.554-5.397
		c0-2.738,1.251-4.929,6.022-8.214c4.303-2.973,6.179-6.022,6.102-9.621c-0.079-3.284-1.799-5.71-5.788-5.71
		c-1.878,0-3.52,0.782-4.381,1.721c3.364-0.156,5.867,2.503,5.867,5.397C270.631,43.982,264.92,47.894,258.819,47.894z
		 M260.148,70.343c0-4.615,3.911-8.056,9.544-8.056c5.944,0,10.247,3.362,10.247,7.9c0,4.301-4.225,7.82-9.778,7.82
		C263.903,78.008,260.148,74.488,260.148,70.343z"/>
</g>
<g>
	<path fill="#EF6A2E" d="M69.102,32.416c0-4.531,2.493-6.787,7.805-6.787c2.082,0,3.274,0.174,3.859,0.26v3.687
		c-0.498-0.065-1.518-0.195-3.23-0.195c-1.799,0-2.645,0.606-2.645,3.036c0,2.428,0.802,3.013,2.688,3.013
		c1.344,0,2.58-0.108,3.187-0.194v3.686c-0.542,0.086-2.016,0.26-3.859,0.26C71.595,39.18,69.102,36.925,69.102,32.416z"/>
	<path fill="#EF6A2E" d="M81.59,34.172c0-3.557,2.71-5.074,6.418-5.074c3.686,0,6.418,1.518,6.418,5.074
		c0,3.556-2.71,5.16-6.418,5.16C84.322,39.332,81.59,37.728,81.59,34.172z M85.449,28.557l2.818-4.12h5.03l-2.818,4.12H85.449z
		 M89.027,34.215c0-1.518-0.282-1.908-1.019-1.908c-0.716,0-1.02,0.391-1.02,1.908c0,1.496,0.304,1.93,1.041,1.93
		C88.723,36.145,89.027,35.711,89.027,34.215z"/>
	<path fill="#EF6A2E" d="M110.426,29.098c2.688,0,3.859,1.193,3.859,4.857v5.116h-5.203V33.89c0-0.997-0.13-1.323-0.759-1.323
		c-0.629,0-0.759,0.305-0.759,1.302c0,0.021,0,0.065,0,0.087v5.116h-5.204V33.89c0-0.997-0.13-1.323-0.759-1.323
		c-0.628,0-0.759,0.305-0.759,1.302v5.203H95.64v-9.713h5.203v1.301c0.607-1.062,1.388-1.562,2.862-1.562
		c1.647,0,2.71,0.434,3.295,1.627C107.803,29.51,108.713,29.098,110.426,29.098z"/>
	<path fill="#EF6A2E" d="M115.37,34.172c0-3.557,2.71-5.074,6.417-5.074c3.686,0,6.418,1.518,6.418,5.074
		c0,3.556-2.71,5.16-6.418,5.16C118.102,39.332,115.37,37.728,115.37,34.172z M122.806,34.215c0-1.518-0.282-1.908-1.019-1.908
		c-0.716,0-1.02,0.391-1.02,1.908c0,1.496,0.304,1.93,1.041,1.93C122.502,36.145,122.806,35.711,122.806,34.215z"/>
	<path fill="#EF6A2E" d="M132.714,25.087h5.291v13.984h-5.291V25.087z"/>
	<path fill="#EF6A2E" d="M139.262,34.172c0-3.557,2.71-5.074,6.417-5.074c3.686,0,6.418,1.518,6.418,5.074
		c0,3.556-2.71,5.16-6.418,5.16C141.994,39.332,139.262,37.728,139.262,34.172z M146.699,34.215c0-1.518-0.282-1.908-1.019-1.908
		c-0.716,0-1.02,0.391-1.02,1.908c0,1.496,0.304,1.93,1.041,1.93C146.395,36.145,146.699,35.711,146.699,34.215z"/>
	<path fill="#EF6A2E" d="M155.653,29.358h5.681l0.932,3.014c0.26,0.867,0.521,3.687,0.521,3.687s0.26-2.841,0.521-3.687l0.932-3.014
		h5.139l-4.141,9.713h-5.42L155.653,29.358z"/>
	<path fill="#EF6A2E" d="M174.407,32.328c-1.756,0-3.403,0.152-4.163,0.282v-3.057c0.781-0.151,2.385-0.347,5.248-0.347
		c4.51,0,5.767,1.43,5.767,4.661v5.203h-4.986V38.27c-0.759,0.715-1.735,0.976-3.101,0.976c-2.797,0-3.902-0.954-3.902-2.97
		c0-2.299,1.539-2.775,4.184-2.885c1.105-0.043,1.974-0.086,2.819-0.151C176.229,32.416,175.86,32.328,174.407,32.328z
		 M176.272,35.169c-0.304,0.021-0.629,0.065-0.954,0.065c-1.02,0.043-1.171,0.194-1.171,0.65c0,0.368,0.195,0.65,0.976,0.65
		c0.693,0,1.149-0.152,1.149-0.694V35.169z"/>
	<path fill="#EF6A2E" d="M197.562,29.098c2.689,0,3.859,1.193,3.859,4.857v5.116h-5.203V33.89c0-0.997-0.13-1.323-0.759-1.323
		s-0.759,0.305-0.759,1.302c0,0.021,0,0.065,0,0.087v5.116h-5.203V33.89c0-0.997-0.131-1.323-0.759-1.323
		c-0.629,0-0.759,0.305-0.759,1.302v5.203h-5.204v-9.713h5.204v1.301c0.606-1.062,1.387-1.562,2.861-1.562
		c1.648,0,2.71,0.434,3.296,1.627C194.939,29.51,195.85,29.098,197.562,29.098z"/>
	<path fill="#EF6A2E" d="M202.507,34.172c0-3.557,2.71-5.074,6.417-5.074c3.686,0,6.418,1.518,6.418,5.074
		c0,3.556-2.71,5.16-6.418,5.16C205.238,39.332,202.507,37.728,202.507,34.172z M209.943,34.215c0-1.518-0.282-1.908-1.02-1.908
		c-0.715,0-1.019,0.391-1.019,1.908c0,1.496,0.304,1.93,1.04,1.93C209.64,36.145,209.943,35.711,209.943,34.215z"/>
	<path fill="#EF6A2E" d="M216.252,38.984v-2.753c0.694,0.087,1.887,0.194,3.687,0.194c1.409,0,1.712-0.129,1.712-0.562
		c0-0.435-0.26-0.478-1.646-0.478c-2.668,0-3.946-0.737-3.946-2.97c0-2.125,1.278-3.166,5.225-3.166
		c2.731,0,4.293,0.152,4.943,0.238v2.754c-0.563-0.087-1.821-0.195-3.643-0.195c-1.214,0-1.409,0.13-1.409,0.498
		c0,0.369,0.152,0.456,1.539,0.456c2.624,0,4.076,0.628,4.076,2.97c0,2.385-1.322,3.209-5.767,3.209
		C218.334,39.18,216.946,39.071,216.252,38.984z"/>
	<path fill="#EF6A2E" d="M235.917,32.328c-1.756,0-3.403,0.152-4.163,0.282v-3.057c0.781-0.151,2.385-0.347,5.248-0.347
		c4.509,0,5.767,1.43,5.767,4.661v5.203h-4.987V38.27c-0.758,0.715-1.734,0.976-3.1,0.976c-2.797,0-3.902-0.954-3.902-2.97
		c0-2.299,1.539-2.775,4.184-2.885c1.105-0.043,1.974-0.086,2.818-0.151C237.738,32.416,237.37,32.328,235.917,32.328z
		 M237.781,35.169c-0.303,0.021-0.628,0.065-0.953,0.065c-1.02,0.043-1.171,0.194-1.171,0.65c0,0.368,0.194,0.65,0.976,0.65
		c0.693,0,1.148-0.152,1.148-0.694V35.169z"/>
</g>
<g>
	<path fill="#FFFFFF" d="M69.103,44.592h13.606v11.209h6.516V44.592h13.606v32.061H89.225V65.08h-6.516v11.572H69.103V44.592z"/>
	<path fill="#FFFFFF" d="M118.002,76.652h-12.98l11.521-32.061h17.099l11.521,32.061h-14.336l-1.303-4.588h-10.217L118.002,76.652z
		 M125.717,58.719c-0.677-2.346-1.303-6.984-1.303-6.984s-0.626,4.586-1.303,6.984c0,0-1.564,5.578-1.616,5.578h5.787
		L125.717,58.719z"/>
	<path fill="#FFFFFF" d="M144.798,60.648c0-10.896,5.995-16.316,18.767-16.316c5.005,0,7.871,0.416,9.279,0.625v8.861
		c-1.199-0.156-3.648-0.469-7.768-0.469c-4.326,0-6.359,1.46-6.359,7.299c0,5.838,1.929,7.246,6.464,7.246
		c3.232,0,6.203-0.261,7.663-0.469v8.861c-1.303,0.209-4.848,0.625-9.279,0.625C150.793,76.912,144.798,71.491,144.798,60.648z"/>
	<path fill="#FFFFFF" d="M176.337,44.592h29.142v9.07h-15.535v3.076h13.032v7.507h-13.032v3.337h16.16v9.07h-29.767V44.592z"/>
	<path fill="#FFFFFF" d="M241.812,68.572l3.336,8.08h-14.022l-3.44-8.602c-0.573-1.459-1.407-2.086-3.18-2.086
		c0.052,0-1.147,0-1.147,0v10.688h-13.606V44.592h19.811c10.947,0,14.805,3.701,14.805,10.947c0,5.057-2.764,7.559-6.464,8.967
		C239.467,65.131,240.875,66.33,241.812,68.572z M226.955,59.033c3.076,0,4.432-0.783,4.432-3.39c0-2.397-1.146-3.18-3.962-3.18
		h-4.066v6.569H226.955z"/>
</g>
<g>
	<circle fill="#EF6A2E" cx="18.263" cy="10.725" r="2.234"/>
</g>
<g>
	<circle fill="#EF6A2E" cx="18.263" cy="93.274" r="2.234"/>
</g>
<g>
	<circle fill="#EF6A2E" cx="295.163" cy="10.725" r="2.234"/>
</g>
<g>
	<circle fill="#EF6A2E" cx="295.163" cy="93.274" r="2.234"/>
</g>
<g>
	<rect x="21.838" y="84.5" fill="#EF6A2E" width="269.75" height="1.949"/>
</g>
<g>
	<rect x="21.838" y="18.199" fill="#EF6A2E" width="269.75" height="1.95"/>
</g>
</svg>
