<?xml version="1.0" encoding="utf-8"?>
<!-- Generator: Adobe Illustrator 16.0.0, SVG Export Plug-In . SVG Version: 6.00 Build 0)  -->
<!DOCTYPE svg PUBLIC "-//W3C//DTD SVG 1.1//EN" "http://www.w3.org/Graphics/SVG/1.1/DTD/svg11.dtd">
<svg version="1.1" id="Layer_1" xmlns="http://www.w3.org/2000/svg" xmlns:xlink="http://www.w3.org/1999/xlink" x="0px" y="0px"
	 width="295px" height="133px" viewBox="0 0 295 133" enable-background="new 0 0 295 133" xml:space="preserve">
<g opacity="0.25">
	<path fill="#EF6A2E" d="M286.439,71.701l-43.877,58.606c-1.3,1.95-3.114,2.601-4.55,2.601H3.363c-1.436,0-2.6-1.164-2.6-2.601
		V10.707c0-1.436,1.164-2.6,2.6-2.6h228.15c1.436,0,3.575,1.301,4.55,2.6l50.012,56.576c0,0,1.095,1.438,1.095,2.412
		C287.169,70.832,286.439,71.701,286.439,71.701z"/>
</g>
<g>
	<path fill="#EF6A2E" d="M292.939,65.201l-43.877,58.606c-1.3,1.95-3.114,2.601-4.55,2.601H9.863c-1.436,0-2.6-1.164-2.6-2.601
		V4.207c0-1.436,1.164-2.6,2.6-2.6h228.15c1.436,0,3.575,1.301,4.55,2.6l50.012,56.576c0,0,1.095,1.438,1.095,2.412
		C293.669,64.332,292.939,65.201,292.939,65.201z"/>
	<path fill="#FFFFFF" d="M244.513,127.383H9.863c-1.971,0-3.575-1.604-3.575-3.575V4.207c0-1.971,1.604-3.574,3.575-3.574h228.15
		c1.833,0,4.21,1.522,5.305,2.957l50.032,56.602c0.216,0.284,1.294,1.763,1.294,3.004c0,1.451-0.859,2.516-0.958,2.633
		l-43.842,58.564C248.049,127.087,245.517,127.383,244.513,127.383z M9.863,2.582c-0.896,0-1.625,0.729-1.625,1.625v119.601
		c0,0.896,0.729,1.625,1.625,1.625h234.65c0.69,0,2.436-0.211,3.739-2.166l43.907-58.65c0.034-0.042,0.534-0.669,0.534-1.421
		c0-0.414-0.501-1.296-0.875-1.794L241.783,4.793c-0.837-1.115-2.704-2.211-3.771-2.211H9.863z"/>
</g>
<g>
	<path fill="#303030" d="M27.892,21.666h-5.286v-3.959h5.286V21.666z M27.805,31.084h-5.111v-8.396h5.111V31.084z"/>
	<path fill="#303030" d="M43.746,34.043h-5.873l-1.544-2.719c-4.567-0.152-7.091-2.545-7.091-6.939c0-4.59,2.719-6.981,7.613-6.981
		c4.916,0,7.635,2.392,7.635,6.981c0,2.784-1,4.764-2.915,5.873L43.746,34.043z M38.722,24.385c0-2.566-0.435-3.262-1.871-3.262
		s-1.871,0.695-1.871,3.262c0,2.807,0.435,3.459,1.871,3.459S38.722,27.191,38.722,24.385z"/>
	<path fill="#303030" d="M45.875,25.386v-7.679h5.676v7.092c0,2.175,0.218,2.827,1.458,2.827c1.262,0,1.479-0.587,1.479-2.827
		v-7.092h5.677v7.679c0,4.459-2.567,5.96-7.33,5.96C48.397,31.346,45.875,29.845,45.875,25.386z"/>
	<path fill="#303030" d="M62.076,17.707h12.159v3.785h-6.481v1.283h5.438v3.133h-5.438V27.3h6.742v3.784H62.076V17.707z"/>
	<path fill="#303030" d="M79.277,17.707h5.677v9.549h5.416v3.828H79.277V17.707z"/>
	<path fill="#303030" d="M96.262,31.084h-5.416l4.807-13.377h7.135l4.807,13.377h-5.981l-0.544-1.914h-4.263L96.262,31.084z
		 M99.48,23.602c-0.283-0.979-0.544-2.914-0.544-2.914s-0.261,1.914-0.543,2.914c0,0-0.653,2.328-0.675,2.328h2.414L99.48,23.602z"
		/>
	<path fill="#303030" d="M111.896,17.707h5.678v13.377h-5.678V17.707z"/>
	<path fill="#303030" d="M119.746,17.707h5.786l2.349,4.459c0.587,1.088,1.109,2.61,1.109,2.61s-0.109-1.696-0.109-3.22v-3.85h4.763
		v13.377h-5.72l-2.393-4.523c-0.566-1.088-1.131-2.61-1.131-2.61s0.109,1.522,0.109,2.979v4.154h-4.764V17.707z"/>
	<path fill="#303030" d="M138.644,21.492h-3.806v-3.785h13.289v3.785h-3.806v9.592h-5.677V21.492z"/>
	<path fill="#303030" d="M149.321,17.707h12.158v3.785h-6.481v1.283h5.438v3.133h-5.438V27.3h6.742v3.784h-12.419V17.707z"/>
	<path fill="#303030" d="M163.195,17.707h5.785l2.35,4.459c0.587,1.088,1.109,2.61,1.109,2.61s-0.109-1.696-0.109-3.22v-3.85h4.764
		v13.377h-5.721l-2.393-4.523c-0.565-1.088-1.131-2.61-1.131-2.61s0.109,1.522,0.109,2.979v4.154h-4.764V17.707z"/>
	<path fill="#303030" d="M178.613,24.406c0-4.545,2.501-6.807,7.83-6.807c2.088,0,3.284,0.174,3.871,0.26v3.697
		c-0.5-0.064-1.521-0.195-3.24-0.195c-1.806,0-2.654,0.609-2.654,3.045c0,2.437,0.806,3.023,2.697,3.023
		c1.349,0,2.589-0.108,3.197-0.195v3.697c-0.543,0.088-2.022,0.262-3.871,0.262C181.114,31.193,178.613,28.931,178.613,24.406z"/>
	<path fill="#303030" d="M191.9,17.707h5.677v13.377H191.9V17.707z"/>
	<path fill="#303030" d="M199.229,24.385c0-4.59,2.719-6.981,7.612-6.981c4.916,0,7.635,2.392,7.635,6.981
		c0,4.568-2.719,6.961-7.635,6.961C201.947,31.346,199.229,28.953,199.229,24.385z M204.318,16.62l2.827-4.133h5.046l-2.827,4.133
		H204.318z M208.712,24.385c0-2.566-0.436-3.262-1.871-3.262s-1.87,0.695-1.87,3.262c0,2.545,0.435,3.241,1.87,3.241
		S208.712,26.93,208.712,24.385z"/>
	<path fill="#303030" d="M215.995,17.707h5.785l2.35,4.459c0.587,1.088,1.109,2.61,1.109,2.61s-0.109-1.696-0.109-3.22v-3.85h4.764
		v13.377h-5.72l-2.394-4.523c-0.565-1.088-1.131-2.61-1.131-2.61s0.108,1.522,0.108,2.979v4.154h-4.763V17.707z"/>
</g>
<g>
	<path fill="#303030" d="M23.176,59.752v-6.516c1.227,0.152,4.255,0.383,8.127,0.383c2.952,0,3.373-0.23,3.373-1.227
		s-0.383-1.304-4.063-1.304c-6.44,0-8.241-2.76-8.241-7.092c0-4.331,1.418-7.667,11.96-7.667c4.562,0,7.705,0.346,8.855,0.537v6.517
		C41.844,43.27,39.008,43,35.021,43c-2.453,0-3.066,0.23-3.066,1.228s0.23,1.304,4.562,1.304c6.096,0,7.897,2.414,7.897,7.092
		c0,4.676-1.534,7.666-12.152,7.666C28.159,60.289,24.326,59.906,23.176,59.752z"/>
	<path fill="#303030" d="M46.829,36.522h21.428v6.669H56.834v2.263h9.583v5.521h-9.583v2.453h11.884v6.67H46.829V36.522z"/>
	<path fill="#303030" d="M75.427,36.522h10.504l3.22,11.729c0.767,2.837,1.15,6.594,1.15,6.594s0.383-3.757,1.073-6.594
		l2.913-11.729h9.507l-7.782,23.613H83.438L75.427,36.522z"/>
	<path fill="#303030" d="M105.56,50.054V36.522h10.005V49.02c0,3.832,0.384,4.982,2.568,4.982c2.224,0,2.606-1.035,2.606-4.982
		V36.522h10.005v13.531c0,7.858-4.523,10.504-12.918,10.504C110.006,60.558,105.56,57.912,105.56,50.054z"/>
	<path fill="#303030" d="M134.12,36.522h21.429v6.669h-11.424v2.263h9.584v5.521h-9.584v2.453h11.884v6.67H134.12V36.522z"/>
	<path fill="#303030" d="M158.693,36.522h10.005v16.828h9.545v6.747h-19.55V36.522z"/>
	<path fill="#303030" d="M176.021,36.522h10.504l3.22,11.729c0.767,2.837,1.15,6.594,1.15,6.594s0.383-3.757,1.073-6.594
		l2.913-11.729h9.507l-7.782,23.613h-12.573L176.021,36.522z"/>
	<path fill="#303030" d="M210.869,60.098h-9.546l8.472-23.575h12.574l8.472,23.575h-10.542l-0.959-3.373h-7.513L210.869,60.098z
		 M216.542,46.91c-0.499-1.725-0.958-5.137-0.958-5.137s-0.461,3.373-0.959,5.137c0,0-1.149,4.103-1.188,4.103h4.256L216.542,46.91z
		"/>
</g>
<g>
	<path fill="#FFFFFF" d="M34.546,107.771h-12.98l11.521-32.06h17.099l11.521,32.06H47.37l-1.304-4.587H35.849L34.546,107.771z
		 M42.261,89.84c-0.677-2.347-1.303-6.986-1.303-6.986s-0.625,4.588-1.303,6.986c0,0-1.564,5.577-1.616,5.577h5.786L42.261,89.84z"
		/>
	<path fill="#FFFFFF" d="M61.342,91.769c0-10.896,5.995-16.317,18.767-16.317c5.004,0,7.872,0.418,9.279,0.626v8.862
		c-1.199-0.156-3.649-0.47-7.767-0.47c-4.327,0-6.36,1.46-6.36,7.299s1.929,7.245,6.464,7.245c3.232,0,6.204-0.26,7.663-0.469v8.862
		c-1.303,0.209-4.848,0.626-9.279,0.626C67.337,108.033,61.342,102.611,61.342,91.769z"/>
	<path fill="#FFFFFF" d="M91.63,91.769c0-10.896,5.995-16.317,18.767-16.317c5.005,0,7.872,0.418,9.279,0.626v8.862
		c-1.199-0.156-3.648-0.47-7.767-0.47c-4.327,0-6.36,1.46-6.36,7.299s1.929,7.245,6.464,7.245c3.232,0,6.203-0.26,7.663-0.469v8.862
		c-1.303,0.209-4.848,0.626-9.279,0.626C97.625,108.033,91.63,102.611,91.63,91.769z"/>
	<path fill="#FFFFFF" d="M123.481,75.712h13.606v32.06h-13.606V75.712z"/>
	<path fill="#FFFFFF" d="M141.05,91.717c0-11,6.516-16.734,18.245-16.734c11.781,0,18.298,5.734,18.298,16.734
		c0,10.947-6.517,16.682-18.298,16.682C147.566,108.398,141.05,102.664,141.05,91.717z M153.248,73.105l6.777-9.904h12.094
		l-6.777,9.904H153.248z M163.778,91.717c0-6.152-1.042-7.82-4.483-7.82c-3.44,0-4.482,1.668-4.482,7.82
		c0,6.099,1.042,7.767,4.482,7.767C162.736,99.483,163.778,97.815,163.778,91.717z"/>
	<path fill="#FFFFFF" d="M181.243,75.712h13.866l5.63,10.687c1.407,2.607,2.659,6.256,2.659,6.256s-0.261-4.066-0.261-7.715v-9.228
		h11.416v32.06h-13.71l-5.734-10.842c-1.355-2.607-2.711-6.256-2.711-6.256s0.261,3.648,0.261,7.142v9.956h-11.416V75.712z"/>
	<path fill="#FFFFFF" d="M219.037,98.284h12.668v9.487h-12.668V98.284z M219.246,75.712h12.25v20.122h-12.25V75.712z"/>
</g>
<g>
	<g>
		<path fill="#FFFFFF" d="M265.799,70.518c-5.756,1.806-11.795,4.289-17.437,7.279c-0.282-8.295-1.523-17.661-3.668-25.393
			c5.191,1.58,13.543,2.99,19.863,3.611c-0.564-4.288-1.298-8.352-2.145-11.455c4.175,5.812,11.737,13.543,16.364,17.549
			c-3.555,4.12-10.27,13.713-12.922,18.904C266.024,78.418,265.968,74.693,265.799,70.518z"/>
	</g>
</g>
</svg>
