<?xml version="1.0" encoding="utf-8"?>
<!-- Generator: Adobe Illustrator 16.0.0, SVG Export Plug-In . SVG Version: 6.00 Build 0)  -->
<!DOCTYPE svg PUBLIC "-//W3C//DTD SVG 1.1//EN" "http://www.w3.org/Graphics/SVG/1.1/DTD/svg11.dtd">
<svg version="1.1" id="Layer_1" xmlns="http://www.w3.org/2000/svg" xmlns:xlink="http://www.w3.org/1999/xlink" x="0px" y="0px"
	 width="263.266px" height="80.55px" viewBox="0 0 263.266 80.55" enable-background="new 0 0 263.266 80.55" xml:space="preserve">
<g>
	<path fill="#303030" d="M0,35.147c0-6.771,3.725-10.139,11.661-10.139c3.11,0,4.892,0.259,5.766,0.389v5.506
		c-0.745-0.098-2.268-0.291-4.827-0.291c-2.688,0-3.952,0.906-3.952,4.535c0,3.628,1.199,4.502,4.017,4.502
		c2.008,0,3.855-0.161,4.762-0.291v5.507c-0.81,0.13-3.012,0.388-5.766,0.388C3.725,45.253,0,41.885,0,35.147z"/>
	<path fill="#303030" d="M18.82,35.114c0-6.834,4.049-10.398,11.337-10.398c7.321,0,11.37,3.564,11.37,10.398
		c0,6.803-4.049,10.366-11.37,10.366C22.869,45.48,18.82,41.917,18.82,35.114z M32.943,35.114c0-3.822-0.648-4.858-2.786-4.858
		c-2.138,0-2.786,1.036-2.786,4.858c0,3.791,0.648,4.827,2.786,4.827C32.295,39.941,32.943,38.905,32.943,35.114z"/>
	<path fill="#303030" d="M43.794,25.171h10.69l2.203,8.422c0.615,2.332,0.907,5.021,0.907,5.021s0.292-2.688,0.939-5.021
		l2.365-8.422h10.56v19.921h-7.904v-6.446c0-2.754,0.324-6.381,0.324-6.381s-0.81,4.017-1.49,6.381l-1.847,6.446h-6.284
		l-1.878-6.446c-0.681-2.364-1.49-6.381-1.49-6.381s0.324,3.627,0.324,6.381v6.446h-7.418V25.171z"/>
	<path fill="#303030" d="M74.309,36.604V25.171h8.455v10.56c0,3.239,0.324,4.211,2.17,4.211c1.879,0,2.203-0.875,2.203-4.211v-10.56
		h8.455v11.434c0,6.641-3.822,8.876-10.917,8.876C78.066,45.48,74.309,43.245,74.309,36.604z"/>
	<path fill="#303030" d="M98.441,25.171h8.616l3.499,6.64c0.875,1.62,1.652,3.888,1.652,3.888s-0.162-2.527-0.162-4.795v-5.732
		h7.095v19.921h-8.52l-3.563-6.737c-0.842-1.62-1.685-3.887-1.685-3.887s0.162,2.267,0.162,4.438v6.187h-7.094V25.171z"/>
	<path fill="#303030" d="M122.379,25.171h8.455v19.921h-8.455V25.171z"/>
	<path fill="#303030" d="M133.296,35.147c0-6.771,3.725-10.139,11.661-10.139c3.109,0,4.892,0.259,5.766,0.389v5.506
		c-0.745-0.098-2.268-0.291-4.827-0.291c-2.688,0-3.951,0.906-3.951,4.535c0,3.628,1.198,4.502,4.017,4.502
		c2.009,0,3.854-0.161,4.762-0.291v5.507c-0.81,0.13-3.013,0.388-5.766,0.388C137.021,45.253,133.296,41.885,133.296,35.147z"/>
	<path fill="#303030" d="M159.76,45.092h-8.065l7.158-19.921h10.625l7.159,19.921h-8.908l-0.81-2.851h-6.35L159.76,45.092z
		 M164.554,33.948c-0.421-1.457-0.81-4.34-0.81-4.34s-0.389,2.85-0.81,4.34c0,0-0.972,3.467-1.004,3.467h3.596L164.554,33.948z"/>
	<path fill="#303030" d="M176.41,35.147c0-6.771,3.725-10.139,11.661-10.139c3.109,0,4.892,0.259,5.766,0.389v5.506
		c-0.745-0.098-2.268-0.291-4.826-0.291c-2.688,0-3.952,0.906-3.952,4.535c0,3.628,1.198,4.502,4.017,4.502
		c2.009,0,3.855-0.161,4.762-0.291v5.507c-0.81,0.13-3.012,0.388-5.766,0.388C180.135,45.253,176.41,41.885,176.41,35.147z"/>
	<path fill="#303030" d="M196.202,25.171h8.454v19.921h-8.454V25.171z"/>
	<path fill="#303030" d="M207.118,35.114c0-6.834,4.049-10.398,11.338-10.398c7.32,0,11.369,3.564,11.369,10.398
		c0,6.803-4.049,10.366-11.369,10.366C211.167,45.48,207.118,41.917,207.118,35.114z M214.698,23.55l4.211-6.154h7.515l-4.211,6.154
		H214.698z M221.241,35.114c0-3.822-0.648-4.858-2.785-4.858c-2.139,0-2.786,1.036-2.786,4.858c0,3.791,0.647,4.827,2.786,4.827
		C220.593,39.941,221.241,38.905,221.241,35.114z"/>
	<path fill="#303030" d="M232.093,25.171h8.616l3.499,6.64c0.874,1.62,1.651,3.888,1.651,3.888s-0.162-2.527-0.162-4.795v-5.732
		h7.095v19.921h-8.52l-3.563-6.737c-0.842-1.62-1.685-3.887-1.685-3.887s0.162,2.267,0.162,4.438v6.187h-7.094V25.171z"/>
	<path fill="#303030" d="M255.479,47.489c2.462-0.453,3.078-1.264,3.078-2.397h-3.078v-6.771h7.58v5.346
		c0,4.826-2.3,6.737-7.58,7.094V47.489z"/>
</g>
<g>
	<path fill="#EF6A2E" d="M17.897,1.333c0.86,0.832,0.833,1.72,0.36,3.19c-1.609,4.856-5.938,15.29-5.716,16.706
		c-1.027-0.25-2.609-0.943-3.497-1.554c-1.027-0.722-1.499-1.638-1.526-3.524c-0.028-1.555,0.555-6.189,0.86-9.436
		c-2.831,7.77-4.385,13.043-4.302,14.431c-0.722-0.222-1.388-0.527-1.998-0.944c-0.888-0.61-1.221-1.442-0.833-3.107
		C2.19,13.071,7.158,1.721,7.38,0.028C8.545,0.388,9.6,0.86,10.432,1.415c1.249,0.832,1.582,1.748,1.582,3.691
		c0,1.832-0.721,7.298-1.027,10.351C12.125,11.267,15.844,1.165,15.816,0C16.565,0.306,17.37,0.833,17.897,1.333z"/>
	<path fill="#EF6A2E" d="M26.804,7.909c0.583,0.693,0.722,1.693,0.194,3.246c-0.777,2.332-3.358,8.242-2.97,9.881
		c-0.832-0.195-1.692-0.5-2.332-1.055c-0.499-0.417-0.721-1.027-0.637-1.832c-1.138,1.582-2.637,2.72-3.857,2.72
		c-0.888,0-1.749-0.86-1.749-2.415c0-3.412,3.58-8.797,3.996-11.821c0.75,0.277,1.637,0.776,2.054,1.276
		c0.721,0.859,0.61,1.721,0.193,3.024c-0.582,1.804-1.775,3.857-2.164,5.634c-0.167,0.722,0.166,0.777,0.666,0.25
		c1.692-1.805,4.523-8.575,4.634-10.213C25.638,6.938,26.388,7.409,26.804,7.909z"/>
	<path fill="#EF6A2E" d="M35.627,15.485c-0.277,3.08-2.303,5.328-5.078,5.328c-2.026,0-3.774-1.332-3.663-4.246
		c0.083-4.412,4.052-10.156,8.104-10.156c1.998,0,2.858,1.137,2.83,2.635c-0.027,2.915-3.247,5.635-6.688,5.967
		c0.027,1.25,0.499,1.749,1.554,1.749C33.657,16.762,34.906,16.179,35.627,15.485z M34.295,8.936c-0.888,0-2.358,2.109-2.941,4.219
		c1.804-0.61,3.358-2.498,3.358-3.663C34.711,9.13,34.545,8.936,34.295,8.936z"/>
	<path fill="#EF6A2E" d="M41.814,7.271c1.083,0.527,1.277,1.388,1.11,2.498c-0.333,2.164-1.137,4.385-1.442,6.576
		c-0.056,0.389,0.139,0.417,0.36,0.14c1.277-1.582,4.218-7.493,4.246-9.88c0.638,0.139,1.11,0.361,1.526,0.693
		c0.61,0.5,0.693,1.166,0.5,2.165c-0.583,2.915-3.33,7.687-5.717,9.907c-0.944,0.86-2.054,1.471-3.164,1.415
		c-1.276-0.056-1.804-0.86-1.804-2.524c0-3.441,2.081-9.824,1.915-11.6C40.177,6.716,41.12,6.938,41.814,7.271z"/>
	<path fill="#EF6A2E" d="M57.714,10.712c0,5.078-3.33,10.018-6.993,10.018c-1.998,0-3.441-1.387-3.441-4.273
		c0-4.912,3.802-10.018,7.271-10.018C56.327,6.438,57.714,7.853,57.714,10.712z M50.915,15.374c0,0.971,0.361,1.471,0.805,1.471
		c1.027,0,2.747-3.524,2.747-6.244c0-0.693-0.194-1.166-0.555-1.166C52.857,9.435,50.915,12.683,50.915,15.374z"/>
	<path fill="#EF6A2E" d="M64.595,12.294c-0.444-0.416-0.527-0.75-0.389-1.36c0.139-0.665,0.583-1.526,0.833-2.108
		c-1.249,0.472-2.387,1.554-2.387,2.525c0,1.498,3.469,2.053,3.469,5.078c0,2.387-1.887,4.301-4.996,4.301
		c-2.442,0-4.107-1.193-4.107-3.052c0-1.249,0.444-2.47,1.332-3.136c0,0.943,0.916,1.831,2.525,1.831
		c1.11,0,1.665-0.333,1.665-0.776c0-1.111-3.247-1.888-3.247-4.191c0-2.33,3.274-4.994,5.744-4.967c1.416,0,2.914,1.414,2.914,2.525
		c0,1.193-1.36,3.385-1.305,4.385C65.982,13.21,65.039,12.71,64.595,12.294z"/>
	<path fill="#EF6A2E" d="M77.331,7.853c0.36,0.473,0.499,1.027,0.416,1.777c0.999-1.609,2.692-3.053,4.246-3.053
		c1.11,0,1.832,1.027,1.748,2.275c1.027-1.248,2.137-1.971,3.358-1.971c1.221,0,1.887,0.889,1.887,2.248
		c0,1.693-1.083,4.052-1.942,6.133c-1.138,2.692-2.109,5.218-1.887,5.911c-0.833-0.194-1.693-0.555-2.331-1.109
		c-0.722-0.61-0.86-1.61-0.305-3.108c0.888-2.387,2.47-5.494,2.47-6.328c0-0.193-0.056-0.305-0.222-0.305
		c-0.583,0-1.776,1.859-3.164,4.939c-1.221,2.692-2.109,5.218-1.887,5.911c-0.833-0.194-1.638-0.526-2.276-1.083
		c-0.722-0.609-0.86-1.581-0.305-3.079c0.916-2.442,2.692-5.661,2.692-6.521c0-0.194-0.056-0.306-0.222-0.306
		c-0.61,0-2.054,2.054-3.274,4.828c-1.221,2.775-1.915,5.273-1.915,6.105c-0.693-0.222-1.665-0.721-2.109-1.109
		c-0.611-0.555-0.888-1.332-0.555-2.691c0.86-3.498,3.691-9.02,3.913-10.713C76.359,6.91,76.942,7.354,77.331,7.853z"/>
	<path fill="#EF6A2E" d="M97.199,15.485c-0.277,3.08-2.303,5.328-5.079,5.328c-2.025,0-3.774-1.332-3.663-4.246
		c0.083-4.412,4.052-10.156,8.104-10.156c1.998,0,2.858,1.137,2.831,2.635c-0.028,2.915-3.247,5.635-6.688,5.967
		c0.028,1.25,0.5,1.749,1.554,1.749C95.229,16.762,96.478,16.179,97.199,15.485z M95.867,8.936c-0.888,0-2.359,2.109-2.942,4.219
		c1.804-0.61,3.358-2.498,3.358-3.663C96.283,9.13,96.117,8.936,95.867,8.936z"/>
	<path fill="#EF6A2E" d="M111.712,2.165c0.61,0.832,0.555,1.803,0.111,3.053c-1.416,4.051-5.467,13.764-5.439,15.846
		c-0.777-0.25-1.72-0.777-2.165-1.305c-0.444-0.5-0.722-1.276-0.5-2.441c-1.249,2.441-2.664,3.412-3.83,3.412
		c-1.027,0-1.97-0.693-1.998-2.914c-0.056-4.051,3.663-11.1,7.159-11.1c1.027,0,1.721,0.693,1.916,1.665
		c1.36-3.497,2.581-7.132,2.692-7.993C110.463,0.805,111.24,1.499,111.712,2.165z M101.888,16.235c0,0.249,0.139,0.415,0.389,0.415
		c0.694,0,1.859-1.581,2.997-4.163c0.305-0.693,0.639-1.471,0.971-2.274c-0.111-0.389-0.305-0.639-0.583-0.639
		C104.413,9.574,101.888,14.625,101.888,16.235z"/>
	<path fill="#EF6A2E" d="M109.629,19.897c-0.666-0.61-0.833-1.498-0.389-3.107c0.888-3.387,3.33-7.826,3.857-10.074
		c0.75,0.416,1.471,1.082,1.859,1.721c0.5,0.832,0.472,1.803,0.028,3.107c-1.11,3.247-3.025,8.354-2.692,9.603
		C111.377,20.952,110.212,20.425,109.629,19.897z M118.287,3.636c0,1.692-0.888,3.025-2.053,3.025c-1.332,0-2.553-1.277-2.553-2.609
		c0-1.665,0.999-3.386,2.192-3.386C117.288,0.666,118.287,2.026,118.287,3.636z"/>
	<path fill="#EF6A2E" d="M125.613,10.712c0,5.078-3.33,10.018-6.993,10.018c-1.999,0-3.441-1.387-3.441-4.273
		c0-4.912,3.802-10.018,7.271-10.018C124.226,6.438,125.613,7.853,125.613,10.712z M118.813,15.374c0,0.971,0.361,1.471,0.805,1.471
		c1.027,0,2.747-3.524,2.747-6.244c0-0.693-0.194-1.166-0.555-1.166C120.756,9.435,118.813,12.683,118.813,15.374z"/>
	<path fill="#EF6A2E" d="M132.494,12.294c-0.444-0.416-0.527-0.75-0.389-1.36c0.139-0.665,0.583-1.526,0.833-2.108
		c-1.249,0.472-2.387,1.554-2.387,2.525c0,1.498,3.47,2.053,3.47,5.078c0,2.387-1.888,4.301-4.996,4.301
		c-2.442,0-4.107-1.193-4.107-3.052c0-1.249,0.444-2.47,1.332-3.136c0,0.943,0.916,1.831,2.525,1.831
		c1.11,0,1.665-0.333,1.665-0.776c0-1.111-3.247-1.888-3.247-4.191c0-2.33,3.274-4.994,5.745-4.967c1.415,0,2.914,1.414,2.914,2.525
		c0,1.193-1.359,3.385-1.304,4.385C133.882,13.21,132.938,12.71,132.494,12.294z"/>
	<path fill="#EF6A2E" d="M153.499,2.165c0.611,0.832,0.556,1.803,0.111,3.053c-1.415,4.051-5.467,13.764-5.439,15.846
		c-0.776-0.25-1.721-0.777-2.164-1.305c-0.444-0.5-0.722-1.276-0.5-2.441c-1.248,2.441-2.664,3.412-3.829,3.412
		c-1.027,0-1.971-0.693-1.998-2.914c-0.056-4.051,3.663-11.1,7.159-11.1c1.027,0,1.721,0.693,1.915,1.665
		c1.36-3.497,2.581-7.132,2.692-7.993C152.251,0.805,153.027,1.499,153.499,2.165z M143.676,16.235c0,0.249,0.139,0.415,0.388,0.415
		c0.694,0,1.859-1.581,2.998-4.163c0.305-0.693,0.638-1.471,0.971-2.274c-0.111-0.389-0.305-0.639-0.582-0.639
		C146.201,9.574,143.676,14.625,143.676,16.235z"/>
	<path fill="#EF6A2E" d="M160.075,15.485c-0.277,3.08-2.303,5.328-5.078,5.328c-2.026,0-3.774-1.332-3.664-4.246
		c0.084-4.412,4.053-10.156,8.104-10.156c1.998,0,2.858,1.137,2.831,2.635c-0.028,2.915-3.247,5.635-6.688,5.967
		c0.028,1.25,0.5,1.749,1.555,1.749C158.104,16.762,159.354,16.179,160.075,15.485z M158.743,8.936
		c-0.889,0-2.359,2.109-2.941,4.219c1.804-0.61,3.357-2.498,3.357-3.663C159.159,9.13,158.993,8.936,158.743,8.936z"/>
</g>
<g>
	<path fill="#303030" d="M2.33,63.442H1.062v-6.551H2.33v0.794c0.396-0.649,0.952-0.921,2.141-0.921c1.554,0,2.49,0.572,2.49,2.792
		v3.886H5.692v-3.743c0-1.396-0.35-1.903-1.682-1.903S2.33,58.304,2.33,59.699V63.442z"/>
	<path fill="#303030" d="M11.559,63.569c-1.872,0-2.982-0.81-2.982-2.949v-3.729h1.269v3.585c0,1.491,0.365,2.062,1.697,2.062
		s1.744-0.57,1.744-2.062v-3.585h1.27v3.729C14.557,62.76,13.43,63.569,11.559,63.569z"/>
	<path fill="#303030" d="M19.614,62.427c0.856,0,1.586-0.062,2.093-0.127v1.079c-0.476,0.063-1.079,0.143-2.188,0.143
		c-2.268,0-3.505-0.92-3.505-3.331c0-2.363,1.332-3.426,3.172-3.426c2.141,0,3.156,1.127,3.156,3.348v0.57h-1.285H17.33
		C17.441,62.095,18.107,62.427,19.614,62.427z M19.233,57.845c-1.079,0-1.76,0.363-1.887,1.791h3.695
		C20.978,58.319,20.455,57.845,19.233,57.845z"/>
	<path fill="#303030" d="M22.864,56.892h1.348l1.666,3.887c0.285,0.682,0.507,1.395,0.507,1.395s0.238-0.713,0.523-1.395
		l1.649-3.887h1.269l-2.839,6.551h-1.269L22.864,56.892z"/>
	<path fill="#303030" d="M30.38,60.19c0-2.41,1.475-3.426,3.362-3.426s3.347,1.016,3.347,3.426c0,2.411-1.476,3.379-3.362,3.379
		C31.839,63.569,30.38,62.602,30.38,60.19z M35.788,60.207c0-1.84-0.682-2.442-2.062-2.442c-1.364,0-2.046,0.603-2.046,2.442
		c0,1.839,0.698,2.379,2.062,2.379C35.074,62.586,35.788,62.046,35.788,60.207z"/>
	<path fill="#303030" d="M40.894,63.489c-1.269,0-1.951-0.062-2.49-0.158v-1.078c0.555,0.095,1.125,0.174,2.442,0.174
		c1.173,0,1.713-0.206,1.713-0.871c0-0.746-0.333-0.857-1.745-0.857c-1.633,0-2.617-0.459-2.617-1.982
		c0-1.459,1.206-1.871,2.966-1.871c1.062,0,1.681,0.064,2.141,0.143v1.062c-0.571-0.078-1.078-0.158-2.062-0.158
		c-1.443,0-1.84,0.189-1.84,0.84c0,0.683,0.365,0.842,1.808,0.842c1.729,0,2.569,0.507,2.569,1.998
		C43.78,63.077,42.907,63.489,40.894,63.489z"/>
	<path fill="#303030" d="M51.295,57.907c-1.253,0-2.078,0.46-2.078,2.315c0,1.823,0.904,2.22,2.11,2.22
		c1.031,0,1.539-0.078,2.03-0.143v1.047c-0.301,0.048-0.952,0.159-2.046,0.159c-1.982,0-3.394-0.952-3.394-3.315
		s1.427-3.361,3.314-3.361c0.967,0,1.729,0.095,2.125,0.189v1.048C52.881,57.986,52.405,57.907,51.295,57.907z"/>
	<path fill="#303030" d="M54.45,60.19c0-2.41,1.475-3.426,3.362-3.426s3.347,1.016,3.347,3.426c0,2.411-1.475,3.379-3.362,3.379
		S54.45,62.602,54.45,60.19z M59.858,60.207c0-1.84-0.682-2.442-2.062-2.442c-1.364,0-2.046,0.603-2.046,2.442
		c0,1.839,0.698,2.379,2.062,2.379C59.145,62.586,59.858,62.046,59.858,60.207z"/>
	<path fill="#303030" d="M63.885,63.442h-1.269v-6.551h1.269v0.794c0.396-0.649,0.952-0.921,2.141-0.921
		c1.554,0,2.49,0.572,2.49,2.792v3.886h-1.269v-3.743c0-1.396-0.349-1.903-1.681-1.903c-1.333,0-1.682,0.508-1.682,1.903V63.442z"/>
	<path fill="#303030" d="M72.543,63.489c-1.269,0-1.951-0.062-2.49-0.158v-1.078c0.555,0.095,1.126,0.174,2.442,0.174
		c1.173,0,1.713-0.206,1.713-0.871c0-0.746-0.333-0.857-1.745-0.857c-1.633,0-2.617-0.459-2.617-1.982
		c0-1.459,1.205-1.871,2.966-1.871c1.062,0,1.681,0.064,2.141,0.143v1.062c-0.571-0.078-1.078-0.158-2.062-0.158
		c-1.443,0-1.84,0.189-1.84,0.84c0,0.683,0.365,0.842,1.808,0.842c1.729,0,2.569,0.507,2.569,1.998
		C75.429,63.077,74.557,63.489,72.543,63.489z"/>
	<path fill="#303030" d="M79.726,63.569c-1.871,0-2.981-0.81-2.981-2.949v-3.729h1.269v3.585c0,1.491,0.365,2.062,1.697,2.062
		c1.332,0,1.744-0.57,1.744-2.062v-3.585h1.269v3.729C82.723,62.76,81.597,63.569,79.726,63.569z"/>
	<path fill="#303030" d="M85.703,63.442h-1.269v-6.551h1.269v0.777c0.365-0.633,0.761-0.904,1.888-0.904
		c0.983,0,1.665,0.254,2.014,1.095c0.413-0.761,0.967-1.095,2.141-1.095c1.475,0,2.268,0.572,2.268,2.792v3.886h-1.269v-3.743
		c0-1.396-0.127-1.903-1.428-1.903c-1.316,0-1.459,0.508-1.459,1.903v3.743H88.59v-3.743c0-1.396-0.127-1.903-1.428-1.903
		c-1.316,0-1.459,0.508-1.459,1.903V63.442z"/>
	<path fill="#303030" d="M95.804,53.688h1.332v1.555h-1.332V53.688z M95.835,56.892h1.269v6.551h-1.269V56.892z"/>
	<path fill="#303030" d="M103.828,53.688h1.269v9.754h-1.269v-0.715c-0.428,0.619-1.221,0.842-2.173,0.842
		c-2.029,0-2.949-1.078-2.949-3.457c0-2.236,0.92-3.348,2.949-3.348c0.952,0,1.729,0.239,2.173,0.921V53.688z M103.828,59.699
		c0-1.315-0.492-1.903-1.903-1.903c-1.507,0-1.919,0.666-1.919,2.332c0,1.744,0.412,2.41,1.919,2.41
		c1.412,0,1.903-0.587,1.903-1.809V59.699z"/>
	<path fill="#303030" d="M106.555,60.19c0-2.41,1.475-3.426,3.362-3.426c1.887,0,3.346,1.016,3.346,3.426
		c0,2.411-1.475,3.379-3.362,3.379C108.014,63.569,106.555,62.602,106.555,60.19z M111.963,60.207c0-1.84-0.682-2.442-2.062-2.442
		c-1.364,0-2.046,0.603-2.046,2.442c0,1.839,0.698,2.379,2.062,2.379C111.249,62.586,111.963,62.046,111.963,60.207z"/>
	<path fill="#303030" d="M115.99,63.442h-1.269v-6.551h1.269v0.984c0.365-0.635,0.888-1.031,1.982-1.031
		c0.238,0,0.428,0.032,0.523,0.047v1.175c-0.158-0.017-0.444-0.032-0.824-0.032c-1.253,0-1.681,0.428-1.681,1.871V63.442z"/>
	<path fill="#303030" d="M122.855,62.427c0.856,0,1.586-0.062,2.094-0.127v1.079c-0.476,0.063-1.079,0.143-2.189,0.143
		c-2.268,0-3.505-0.92-3.505-3.331c0-2.363,1.333-3.426,3.172-3.426c2.141,0,3.155,1.127,3.155,3.348v0.57h-1.284h-3.727
		C120.683,62.095,121.349,62.427,122.855,62.427z M122.475,57.845c-1.078,0-1.76,0.363-1.887,1.791h3.695
		C124.219,58.319,123.696,57.845,122.475,57.845z"/>
	<path fill="#303030" d="M129.356,63.489c-1.269,0-1.951-0.062-2.49-0.158v-1.078c0.555,0.095,1.125,0.174,2.442,0.174
		c1.173,0,1.712-0.206,1.712-0.871c0-0.746-0.333-0.857-1.744-0.857c-1.634,0-2.617-0.459-2.617-1.982
		c0-1.459,1.206-1.871,2.966-1.871c1.062,0,1.681,0.064,2.141,0.143v1.062c-0.571-0.078-1.079-0.158-2.062-0.158
		c-1.443,0-1.839,0.189-1.839,0.84c0,0.683,0.365,0.842,1.808,0.842c1.729,0,2.569,0.507,2.569,1.998
		C132.243,63.077,131.371,63.489,129.356,63.489z"/>
	<path fill="#303030" d="M135.968,56.892h1.38l1.729,3.87c0.302,0.667,0.491,1.349,0.491,1.349s0.19-0.682,0.461-1.349l1.602-3.87
		h1.301l-2.998,7.09c-0.635,1.507-1.205,2.299-2.712,2.299c-0.254,0-0.444-0.031-0.556-0.062v-1.047
		c0.064,0.016,0.191,0.031,0.334,0.031c1.062,0,1.443-0.539,1.967-1.823L135.968,56.892z"/>
	<path fill="#303030" d="M148.257,63.442h-1.27v-6.551h1.27v0.794c0.396-0.649,0.951-0.921,2.141-0.921
		c1.555,0,2.49,0.572,2.49,2.792v3.886h-1.269v-3.743c0-1.396-0.349-1.903-1.681-1.903s-1.682,0.508-1.682,1.903V63.442z"/>
	<path fill="#303030" d="M157.485,63.569c-1.871,0-2.981-0.81-2.981-2.949v-3.729h1.269v3.585c0,1.491,0.365,2.062,1.697,2.062
		s1.744-0.57,1.744-2.062v-3.585h1.27v3.729C160.483,62.76,159.357,63.569,157.485,63.569z"/>
	<path fill="#303030" d="M165.541,62.427c0.856,0,1.586-0.062,2.094-0.127v1.079c-0.476,0.063-1.079,0.143-2.188,0.143
		c-2.269,0-3.506-0.92-3.506-3.331c0-2.363,1.332-3.426,3.172-3.426c2.142,0,3.156,1.127,3.156,3.348v0.57h-1.284h-3.728
		C163.368,62.095,164.034,62.427,165.541,62.427z M165.16,57.845c-1.078,0-1.761,0.363-1.888,1.791h3.695
		C166.905,58.319,166.382,57.845,165.16,57.845z"/>
	<path fill="#303030" d="M168.791,56.892h1.348l1.665,3.887c0.286,0.682,0.508,1.395,0.508,1.395s0.238-0.713,0.523-1.395
		l1.649-3.887h1.269l-2.838,6.551h-1.27L168.791,56.892z"/>
	<path fill="#303030" d="M178.67,63.569c-1.554,0-2.505-0.539-2.505-1.982c0-1.522,0.998-1.888,2.648-1.967
		c1.062-0.047,1.696-0.127,2.156-0.206c-0.047-1.11-0.349-1.507-1.665-1.507c-1.189,0-1.713,0.079-2.427,0.191v-1.048
		c0.698-0.127,1.285-0.237,2.538-0.237c2.235,0,2.821,1.046,2.821,2.854v3.775h-1.268v-0.777
		C180.558,63.22,179.876,63.569,178.67,63.569z M178.893,60.54c-1.015,0.048-1.428,0.207-1.428,0.983
		c0,0.729,0.365,1.015,1.491,1.015c1.396,0,2.014-0.602,2.014-1.459v-0.762C180.494,60.429,179.876,60.493,178.893,60.54z"/>
	<path fill="#303030" d="M186.234,63.489c-1.269,0-1.951-0.062-2.49-0.158v-1.078c0.555,0.095,1.126,0.174,2.442,0.174
		c1.174,0,1.713-0.206,1.713-0.871c0-0.746-0.333-0.857-1.744-0.857c-1.634,0-2.617-0.459-2.617-1.982
		c0-1.459,1.205-1.871,2.965-1.871c1.063,0,1.682,0.064,2.142,0.143v1.062c-0.571-0.078-1.078-0.158-2.062-0.158
		c-1.443,0-1.84,0.189-1.84,0.84c0,0.683,0.365,0.842,1.808,0.842c1.729,0,2.569,0.507,2.569,1.998
		C189.12,63.077,188.248,63.489,186.234,63.489z"/>
	<path fill="#303030" d="M192.877,57.939v-1.048h1.205v-1.839h1.269v1.839h2.173v1.048h-2.173v2.743
		c0,1.316,0.334,1.713,1.285,1.713c0.254,0,0.46-0.016,0.682-0.048v1.063c-0.174,0.031-0.459,0.062-0.856,0.062
		c-1.396,0-2.379-0.602-2.379-2.68v-2.854H192.877z"/>
	<path fill="#303030" d="M202.026,62.427c0.856,0,1.586-0.062,2.094-0.127v1.079c-0.477,0.063-1.078,0.143-2.188,0.143
		c-2.269,0-3.505-0.92-3.505-3.331c0-2.363,1.332-3.426,3.172-3.426c2.141,0,3.156,1.127,3.156,3.348v0.57h-1.285h-3.727
		C199.854,62.095,200.52,62.427,202.026,62.427z M201.646,57.845c-1.078,0-1.76,0.363-1.887,1.791h3.695
		C203.391,58.319,202.867,57.845,201.646,57.845z"/>
	<path fill="#303030" d="M209.305,57.907c-1.253,0-2.077,0.46-2.077,2.315c0,1.823,0.904,2.22,2.109,2.22
		c1.031,0,1.539-0.078,2.029-0.143v1.047c-0.301,0.048-0.951,0.159-2.045,0.159c-1.982,0-3.395-0.952-3.395-3.315
		s1.428-3.361,3.314-3.361c0.968,0,1.729,0.095,2.125,0.189v1.048C210.892,57.986,210.415,57.907,209.305,57.907z"/>
	<path fill="#303030" d="M214.142,63.442h-1.27v-6.551h1.27v0.794c0.396-0.649,0.951-0.921,2.141-0.921
		c1.554,0,2.49,0.572,2.49,2.792v3.886h-1.269v-3.743c0-1.396-0.351-1.903-1.682-1.903c-1.332,0-1.681,0.508-1.681,1.903V63.442z"/>
	<path fill="#303030" d="M220.198,60.19c0-2.41,1.475-3.426,3.362-3.426s3.347,1.016,3.347,3.426c0,2.411-1.476,3.379-3.362,3.379
		C221.657,63.569,220.198,62.602,220.198,60.19z M225.606,60.207c0-1.84-0.682-2.442-2.062-2.442c-1.364,0-2.046,0.603-2.046,2.442
		c0,1.839,0.697,2.379,2.062,2.379C224.893,62.586,225.606,62.046,225.606,60.207z"/>
	<path fill="#303030" d="M228.507,53.688h1.27v9.754h-1.27V53.688z"/>
	<path fill="#303030" d="M231.377,60.19c0-2.41,1.476-3.426,3.362-3.426s3.347,1.016,3.347,3.426c0,2.411-1.476,3.379-3.362,3.379
		S231.377,62.602,231.377,60.19z M236.785,60.207c0-1.84-0.682-2.442-2.062-2.442c-1.364,0-2.046,0.603-2.046,2.442
		c0,1.839,0.697,2.379,2.062,2.379C236.071,62.586,236.785,62.046,236.785,60.207z"/>
	<path fill="#303030" d="M244.412,56.892h1.269v6.551c0,1.887-0.936,2.87-2.934,2.87c-1.285,0-2.109-0.11-2.585-0.175v-1.062
		c0.444,0.064,1.3,0.159,2.474,0.159c1.396,0,1.776-0.745,1.776-1.903v-0.604c-0.428,0.619-1.221,0.842-2.173,0.842
		c-2.03,0-2.95-1.078-2.95-3.457c0-2.236,0.92-3.348,2.95-3.348c0.952,0,1.729,0.239,2.173,0.921V56.892z M244.412,59.699
		c0-1.315-0.491-1.903-1.903-1.903c-1.506,0-1.919,0.666-1.919,2.332c0,1.744,0.413,2.41,1.919,2.41
		c1.412,0,1.903-0.587,1.903-1.809V59.699z"/>
	<path fill="#303030" d="M249.058,53.688h1.428l-1.586,2.221h-1.428L249.058,53.688z M247.503,56.892h1.27v6.551h-1.27V56.892z"/>
	<path fill="#303030" d="M252.815,63.569c-1.554,0-2.506-0.539-2.506-1.982c0-1.522,0.999-1.888,2.648-1.967
		c1.062-0.047,1.697-0.127,2.157-0.206c-0.048-1.11-0.349-1.507-1.665-1.507c-1.189,0-1.713,0.079-2.427,0.191v-1.048
		c0.698-0.127,1.284-0.237,2.537-0.237c2.236,0,2.823,1.046,2.823,2.854v3.775h-1.269v-0.777
		C254.702,63.22,254.021,63.569,252.815,63.569z M253.038,60.54c-1.016,0.048-1.428,0.207-1.428,0.983
		c0,0.729,0.365,1.015,1.491,1.015c1.396,0,2.014-0.602,2.014-1.459v-0.762C254.64,60.429,254.021,60.493,253.038,60.54z"/>
	<path fill="#303030" d="M260.38,63.489c-1.27,0-1.951-0.062-2.49-0.158v-1.078c0.555,0.095,1.126,0.174,2.442,0.174
		c1.174,0,1.712-0.206,1.712-0.871c0-0.746-0.332-0.857-1.744-0.857c-1.633,0-2.617-0.459-2.617-1.982
		c0-1.459,1.206-1.871,2.967-1.871c1.062,0,1.681,0.064,2.141,0.143v1.062c-0.571-0.078-1.078-0.158-2.062-0.158
		c-1.443,0-1.84,0.189-1.84,0.84c0,0.683,0.364,0.842,1.808,0.842c1.729,0,2.569,0.507,2.569,1.998
		C263.266,63.077,262.394,63.489,260.38,63.489z"/>
	<path fill="#303030" d="M2.33,77.742H1.062v-9.753H2.33v3.996c0.396-0.65,0.952-0.92,2.141-0.92c1.554,0,2.49,0.57,2.49,2.791
		v3.886H5.692v-3.743c0-1.395-0.302-1.902-1.682-1.902c-1.379,0-1.681,0.508-1.681,1.902V77.742z"/>
	<path fill="#303030" d="M10.829,77.869c-1.554,0-2.506-0.539-2.506-1.982c0-1.522,1-1.888,2.649-1.966
		c1.062-0.049,1.697-0.127,2.157-0.207c-0.047-1.109-0.349-1.506-1.665-1.506c-1.189,0-1.713,0.078-2.427,0.189v-1.047
		c0.698-0.127,1.285-0.237,2.538-0.237c2.236,0,2.823,1.046,2.823,2.854v3.774h-1.269v-0.776
		C12.716,77.521,12.035,77.869,10.829,77.869z M11.052,74.84c-1.015,0.048-1.428,0.206-1.428,0.983c0,0.729,0.365,1.016,1.491,1.016
		c1.396,0,2.014-0.604,2.014-1.46v-0.761C12.653,74.729,12.035,74.792,11.052,74.84z"/>
	<path fill="#303030" d="M17.314,77.742h-1.269v-6.55h1.269v0.793c0.396-0.65,0.952-0.92,2.142-0.92c1.554,0,2.489,0.57,2.489,2.791
		v3.886h-1.269v-3.743c0-1.395-0.349-1.902-1.681-1.902c-1.333,0-1.682,0.508-1.682,1.902V77.742z"/>
	<path fill="#303030" d="M29.762,72.208c-1.253,0-2.078,0.459-2.078,2.314c0,1.824,0.904,2.221,2.109,2.221
		c1.031,0,1.538-0.08,2.03-0.143v1.047c-0.301,0.047-0.952,0.158-2.045,0.158c-1.982,0-3.395-0.951-3.395-3.314
		s1.428-3.363,3.315-3.363c0.967,0,1.729,0.096,2.125,0.191v1.047C31.348,72.286,30.872,72.208,29.762,72.208z"/>
	<path fill="#303030" d="M35.359,77.869c-1.554,0-2.506-0.539-2.506-1.982c0-1.522,1-1.888,2.649-1.966
		c1.062-0.049,1.697-0.127,2.157-0.207c-0.048-1.109-0.349-1.506-1.665-1.506c-1.189,0-1.713,0.078-2.427,0.189v-1.047
		c0.698-0.127,1.285-0.237,2.538-0.237c2.236,0,2.823,1.046,2.823,2.854v3.774h-1.269v-0.776
		C37.247,77.521,36.565,77.869,35.359,77.869z M35.582,74.84c-1.015,0.048-1.428,0.206-1.428,0.983c0,0.729,0.365,1.016,1.491,1.016
		c1.396,0,2.015-0.604,2.015-1.46v-0.761C37.183,74.729,36.565,74.792,35.582,74.84z"/>
	<path fill="#303030" d="M41.845,77.742h-1.269v-6.55h1.269v0.777c0.365-0.635,0.761-0.904,1.887-0.904
		c0.983,0,1.666,0.254,2.014,1.094c0.412-0.761,0.968-1.094,2.141-1.094c1.475,0,2.268,0.57,2.268,2.791v3.886h-1.269v-3.743
		c0-1.395-0.127-1.902-1.427-1.902c-1.316,0-1.459,0.508-1.459,1.902v3.743h-1.269v-3.743c0-1.395-0.127-1.902-1.428-1.902
		c-1.316,0-1.459,0.508-1.459,1.902V77.742z"/>
	<path fill="#303030" d="M53.103,77.742h-1.269v-9.753h1.269v3.996c0.444-0.682,1.221-0.92,2.173-0.92c2.03,0,2.95,1.11,2.95,3.346
		c0,2.379-0.92,3.458-2.95,3.458c-0.952,0-1.745-0.222-2.173-0.841V77.742z M53.103,75.03c0,1.221,0.492,1.809,1.903,1.809
		c1.507,0,1.919-0.666,1.919-2.41c0-1.666-0.412-2.332-1.919-2.332c-1.411,0-1.903,0.586-1.903,1.902V75.03z"/>
	<path fill="#303030" d="M59.794,67.989h1.332v1.554h-1.332V67.989z M59.826,71.192h1.269v6.55h-1.269V71.192z"/>
	<path fill="#303030" d="M65.139,77.869c-1.554,0-2.506-0.539-2.506-1.982c0-1.522,0.999-1.888,2.648-1.966
		c1.062-0.049,1.697-0.127,2.157-0.207c-0.047-1.109-0.349-1.506-1.665-1.506c-1.189,0-1.713,0.078-2.426,0.189v-1.047
		c0.697-0.127,1.284-0.237,2.537-0.237c2.236,0,2.823,1.046,2.823,2.854v3.774h-1.269v-0.776
		C67.026,77.521,66.344,77.869,65.139,77.869z M65.361,74.84c-1.015,0.048-1.428,0.206-1.428,0.983c0,0.729,0.365,1.016,1.491,1.016
		c1.396,0,2.014-0.604,2.014-1.46v-0.761C66.962,74.729,66.344,74.792,65.361,74.84z"/>
	<path fill="#303030" d="M75.224,67.989h1.269v9.753h-1.269v-0.714c-0.428,0.619-1.221,0.841-2.173,0.841
		c-2.029,0-2.949-1.079-2.949-3.458c0-2.235,0.92-3.346,2.949-3.346c0.952,0,1.729,0.238,2.173,0.92V67.989z M75.224,73.999
		c0-1.316-0.492-1.902-1.903-1.902c-1.507,0-1.919,0.666-1.919,2.332c0,1.744,0.412,2.41,1.919,2.41
		c1.412,0,1.903-0.588,1.903-1.809V73.999z"/>
	<path fill="#303030" d="M77.951,74.491c0-2.41,1.475-3.426,3.362-3.426c1.888,0,3.347,1.016,3.347,3.426s-1.475,3.378-3.362,3.378
		S77.951,76.901,77.951,74.491z M83.358,74.507c0-1.84-0.682-2.442-2.062-2.442c-1.364,0-2.046,0.603-2.046,2.442
		s0.698,2.379,2.062,2.379C82.645,76.886,83.358,76.347,83.358,74.507z"/>
	<path fill="#303030" d="M89.272,67.989h1.269v9.753h-1.269V67.989z"/>
	<path fill="#303030" d="M94.584,77.869c-1.555,0-2.506-0.539-2.506-1.982c0-1.522,0.999-1.888,2.649-1.966
		c1.062-0.049,1.696-0.127,2.156-0.207c-0.047-1.109-0.349-1.506-1.665-1.506c-1.19,0-1.713,0.078-2.426,0.189v-1.047
		c0.698-0.127,1.285-0.237,2.538-0.237c2.236,0,2.823,1.046,2.823,2.854v3.774h-1.269v-0.776
		C96.472,77.521,95.79,77.869,94.584,77.869z M94.807,74.84c-1.015,0.048-1.428,0.206-1.428,0.983c0,0.729,0.365,1.016,1.491,1.016
		c1.396,0,2.014-0.604,2.014-1.46v-0.761C96.408,74.729,95.79,74.792,94.807,74.84z"/>
	<path fill="#303030" d="M104.083,80.55h-1.269v-9.357h1.269v0.793c0.444-0.682,1.221-0.92,2.172-0.92c2.03,0,2.95,1.11,2.95,3.346
		c0,2.379-0.92,3.458-2.95,3.458c-0.952,0-1.744-0.222-2.172-0.841V80.55z M104.083,75.03c0,1.221,0.492,1.809,1.903,1.809
		c1.507,0,1.918-0.666,1.918-2.41c0-1.666-0.412-2.332-1.918-2.332c-1.411,0-1.903,0.586-1.903,1.902V75.03z"/>
	<path fill="#303030" d="M113.581,77.869c-1.872,0-2.982-0.81-2.982-2.95v-3.727h1.269v3.584c0,1.491,0.365,2.062,1.697,2.062
		c1.332,0,1.744-0.571,1.744-2.062v-3.584h1.269v3.727C116.578,77.06,115.452,77.869,113.581,77.869z"/>
	<path fill="#303030" d="M119.559,77.742h-1.269v-9.753h1.269v3.996c0.444-0.682,1.22-0.92,2.173-0.92c2.03,0,2.95,1.11,2.95,3.346
		c0,2.379-0.919,3.458-2.95,3.458c-0.953,0-1.745-0.222-2.173-0.841V77.742z M119.559,75.03c0,1.221,0.491,1.809,1.903,1.809
		c1.506,0,1.919-0.666,1.919-2.41c0-1.666-0.413-2.332-1.919-2.332c-1.412,0-1.903,0.586-1.903,1.902V75.03z"/>
	<path fill="#303030" d="M126.282,67.989h1.269v9.753h-1.269V67.989z"/>
	<path fill="#303030" d="M129.517,67.989h1.332v1.554h-1.332V67.989z M129.548,71.192h1.269v6.55h-1.269V71.192z"/>
	<path fill="#303030" d="M135.796,72.208c-1.252,0-2.077,0.459-2.077,2.314c0,1.824,0.903,2.221,2.109,2.221
		c1.03,0,1.538-0.08,2.03-0.143v1.047c-0.302,0.047-0.952,0.158-2.047,0.158c-1.982,0-3.393-0.951-3.393-3.314
		s1.427-3.363,3.315-3.363c0.967,0,1.729,0.096,2.125,0.191v1.047C137.382,72.286,136.906,72.208,135.796,72.208z"/>
	<path fill="#303030" d="M139.475,67.989h1.332v1.554h-1.332V67.989z M139.506,71.192h1.269v6.55h-1.269V71.192z"/>
	<path fill="#303030" d="M147.499,67.989h1.269v9.753h-1.269v-0.714c-0.429,0.619-1.222,0.841-2.173,0.841
		c-2.03,0-2.95-1.079-2.95-3.458c0-2.235,0.92-3.346,2.95-3.346c0.951,0,1.729,0.238,2.173,0.92V67.989z M147.499,73.999
		c0-1.316-0.492-1.902-1.903-1.902c-1.507,0-1.919,0.666-1.919,2.332c0,1.744,0.412,2.41,1.919,2.41
		c1.411,0,1.903-0.588,1.903-1.809V73.999z"/>
	<path fill="#303030" d="M152.668,77.869c-1.556,0-2.506-0.539-2.506-1.982c0-1.522,0.999-1.888,2.648-1.966
		c1.062-0.049,1.696-0.127,2.156-0.207c-0.047-1.109-0.349-1.506-1.665-1.506c-1.189,0-1.713,0.078-2.426,0.189v-1.047
		c0.697-0.127,1.284-0.237,2.537-0.237c2.236,0,2.823,1.046,2.823,2.854v3.774h-1.27v-0.776
		C154.555,77.521,153.873,77.869,152.668,77.869z M152.89,74.84c-1.015,0.048-1.428,0.206-1.428,0.983
		c0,0.729,0.365,1.016,1.491,1.016c1.396,0,2.014-0.604,2.014-1.46v-0.761C154.491,74.729,153.873,74.792,152.89,74.84z"/>
	<path fill="#303030" d="M162.753,67.989h1.269v9.753h-1.269v-0.714c-0.428,0.619-1.221,0.841-2.173,0.841
		c-2.03,0-2.949-1.079-2.949-3.458c0-2.235,0.919-3.346,2.949-3.346c0.952,0,1.729,0.238,2.173,0.92V67.989z M162.753,73.999
		c0-1.316-0.491-1.902-1.903-1.902c-1.507,0-1.919,0.666-1.919,2.332c0,1.744,0.412,2.41,1.919,2.41
		c1.412,0,1.903-0.588,1.903-1.809V73.999z"/>
	<path fill="#303030" d="M165.765,76.077h1.491v1.665h-1.491V76.077z"/>
</g>
</svg>
