<?xml version="1.0" encoding="utf-8"?>
<!-- Generator: Adobe Illustrator 16.0.0, SVG Export Plug-In . SVG Version: 6.00 Build 0)  -->
<!DOCTYPE svg PUBLIC "-//W3C//DTD SVG 1.1//EN" "http://www.w3.org/Graphics/SVG/1.1/DTD/svg11.dtd">
<svg version="1.1" id="Layer_2" xmlns="http://www.w3.org/2000/svg" xmlns:xlink="http://www.w3.org/1999/xlink" x="0px" y="0px"
	 width="298.886px" height="197.502px" viewBox="0 0 298.886 197.502" enable-background="new 0 0 298.886 197.502"
	 xml:space="preserve">
<g opacity="0.25">
	<path fill="#EF6A2E" d="M14.455,70.938c30.929,13.801,42.271,5.421,30.105-22.921C62.292,66.5,75.696,66.255,67.654,20.661
		c18.969,45.839,31.96,38.201,30.722,7.887c9.897,26.37,21.857,26.123,25.156-10.597c9.279,40.171,23.507,32.038,31.137-11.338
		c4.948,50.523,19.795,48.305,32.373,9.119c0.826,37.708,12.989,38.446,27.838,5.668c-5.775,35.983,4.535,41.157,30.721,5.423
		c-14.021,39.924-2.473,41.404,25.982,22.92c-17.939,23.412-13.609,37.707,21.237,39.434c-34.229,8.377-36.703,19.467-13.196,42.389
		c-33.197-12.322-36.496,1.971-25.567,23.908c-25.362-19.227-34.23-13.062-28.868,26.369c-20.824-37.709-31.548-30.807-30.93-2.221
		c-15.052-37.459-28.043-25.627-29.074,17.992c-10.103-36.475-25.361-36.475-31.136-4.93c-5.36-34.994-15.462-34.994-28.248,4.438
		c1.031-36.229-10.516-44.854-27.012-11.582c1.445-29.576-8.866-31.055-32.578-4.93c11.752-33.764,3.505-41.652-28.661-22.182
		c20.619-26.863,17.319-37.955-17.114-43.377C34.663,106.921,38.167,95.584,14.455,70.938z"/>
</g>
<g>
	<path fill="#F5F5F5" d="M20.955,64.438c30.929,13.801,42.271,5.421,30.105-22.921C68.792,60,82.196,59.755,74.154,14.161
		c18.969,45.839,31.96,38.201,30.722,7.887c9.897,26.37,21.857,26.123,25.156-10.597c9.279,40.171,23.507,32.038,31.137-11.338
		c4.948,50.523,19.795,48.305,32.373,9.119c0.826,37.708,12.989,38.446,27.838,5.668c-5.775,35.983,4.535,41.157,30.721,5.423
		c-14.021,39.924-2.473,41.404,25.982,22.92c-17.939,23.412-13.609,37.707,21.237,39.434c-34.229,8.377-36.703,19.467-13.196,42.389
		c-33.197-12.322-36.496,1.971-25.567,23.908c-25.362-19.227-34.23-13.062-28.868,26.369c-20.824-37.709-31.548-30.807-30.93-2.221
		c-15.052-37.459-28.043-25.627-29.074,17.992c-10.103-36.475-25.361-36.475-31.137-4.93c-5.359-34.994-15.462-34.994-28.248,4.438
		c1.031-36.229-10.516-44.854-27.012-11.582c1.445-29.576-8.866-31.055-32.578-4.93c11.752-33.764,3.505-41.652-28.661-22.182
		c20.619-26.863,17.319-37.955-17.114-43.377C41.163,100.421,44.667,89.084,20.955,64.438z"/>
</g>
<g>
	<path d="M107.156,64.795c-0.504-0.416-0.656-0.81-0.46-1.619c0.219-0.875,1.116-2.319,1.356-3.107
		c-1.794,0.263-3.522,2.429-3.522,3.676c0,2.014,3.829,3.282,3.829,6.061c0,2.275-1.859,4.42-5.01,4.42
		c-2.844,0-4.485-1.51-4.485-3.457c0-1.27,0.438-2.275,1.444-3.041c0.021,1.443,1.312,2.646,3.129,2.646
		c0.984,0,1.619-0.459,1.619-1.158c0-1.488-3.72-2.867-3.72-5.471c0-3.041,3.522-6.191,6.783-6.148c1.62,0,2.866,1.423,2.844,2.648
		c-0.021,1.137-1.75,4.244-1.685,5.382C108.534,65.583,107.637,65.211,107.156,64.795z"/>
	<path d="M117.328,65.999c0,4.004-2.625,7.898-5.514,7.898c-1.575,0-2.713-1.094-2.713-3.369c0-3.873,2.997-7.898,5.732-7.898
		C116.234,62.629,117.328,63.745,117.328,65.999z M111.967,69.674c0,0.766,0.284,1.16,0.635,1.16c0.809,0,2.166-2.779,2.166-4.924
		c0-0.547-0.153-0.918-0.438-0.918C113.499,64.993,111.967,67.552,111.967,69.674z"/>
	<path d="M125.88,73.262c-0.481-0.394-0.635-0.984-0.438-1.838c-0.963,1.772-1.991,2.516-2.889,2.516
		c-0.81,0-1.553-0.546-1.575-2.297c-0.044-3.193,2.932-8.795,5.689-8.795c0.875,0,1.444,0.635,1.553,1.488
		c0.263-0.592,0.46-1.095,0.569-1.336c0.481,0.219,0.941,0.613,1.204,1.007c0.372,0.569,0.459,1.159,0.044,2.386
		c-0.613,1.838-2.538,6.257-2.276,7.789C127.105,74.028,126.383,73.7,125.88,73.262z M124.13,70.352
		c0,0.197,0.087,0.328,0.285,0.328c0.547,0,1.487-1.487,2.385-3.281c0.262-0.504,0.547-1.116,0.831-1.729
		c-0.065-0.328-0.241-0.568-0.481-0.568C126.165,65.102,124.13,69.083,124.13,70.352z"/>
	<path d="M140.45,59.259c0.481,0.657,0.438,1.423,0.088,2.407c-1.115,3.194-4.31,10.852-4.288,12.493
		c-0.613-0.197-1.356-0.612-1.707-1.028c-0.35-0.395-0.569-1.006-0.394-1.926c-0.985,1.926-2.101,2.691-3.02,2.691
		c-0.81,0-1.553-0.547-1.575-2.297c-0.044-3.195,2.888-8.752,5.645-8.752c0.809,0,1.356,0.547,1.509,1.312
		c1.072-2.757,2.035-5.623,2.123-6.301C139.465,58.188,140.079,58.735,140.45,59.259z M132.705,70.352
		c0,0.197,0.11,0.328,0.307,0.328c0.547,0,1.466-1.246,2.363-3.281c0.241-0.547,0.503-1.16,0.766-1.795
		c-0.088-0.306-0.241-0.502-0.46-0.502C134.696,65.102,132.705,69.083,132.705,70.352z"/>
	<path d="M142.527,63.286c0.854,0.416,1.007,1.094,0.875,1.969c-0.263,1.707-0.896,3.457-1.138,5.186
		c-0.043,0.307,0.109,0.328,0.285,0.109c1.006-1.247,3.325-5.907,3.347-7.789c0.504,0.109,0.876,0.284,1.204,0.547
		c0.48,0.395,0.547,0.919,0.394,1.707c-0.46,2.297-2.626,6.061-4.508,7.811c-0.743,0.679-1.618,1.16-2.494,1.115
		c-1.007-0.043-1.422-0.678-1.422-1.99c0-2.713,1.642-7.746,1.51-9.146C141.236,62.848,141.98,63.023,142.527,63.286z"/>
	<path d="M153.684,69.762c-0.219,2.428-1.816,4.2-4.004,4.2c-1.598,0-2.977-1.05-2.889-3.347c0.066-3.479,3.194-8.008,6.389-8.008
		c1.575,0,2.254,0.896,2.231,2.078c-0.021,2.297-2.56,4.441-5.272,4.703c0.021,0.984,0.394,1.379,1.226,1.379
		C152.13,70.768,153.115,70.309,153.684,69.762z M152.633,64.598c-0.7,0-1.859,1.662-2.319,3.326
		c1.423-0.482,2.647-1.97,2.647-2.889C152.961,64.751,152.831,64.598,152.633,64.598z"/>
	<path d="M162.259,63.483c0.284,0.854,0.109,2.406-0.372,3.26c-0.263-0.395-0.569-0.635-1.028-0.635
		c-0.767,0-1.751,0.875-2.954,3.217c-0.919,1.793-1.575,3.85-1.575,4.857c-0.569-0.154-1.444-0.613-1.816-1.008
		c-0.394-0.438-0.568-1.049-0.284-2.166c0.723-2.865,2.845-6.957,3.041-8.248c0.525,0.24,0.984,0.591,1.291,1.006
		c0.307,0.46,0.394,0.941,0.197,1.686c0.416-0.963,1.072-1.947,1.662-2.407C161.231,62.432,161.953,62.585,162.259,63.483z"/>
	<path d="M164.577,63.373c0.766-1.772,1.444-3.282,1.641-4.025c0.656,0.415,1.16,0.984,1.467,1.597
		c0.284,0.569,0.219,1.182-0.044,1.97c-0.022,0.044-0.044,0.087-0.044,0.131c0.438,0.044,0.722,0.22,0.919,0.569
		c0.196,0.459,0.328,1.203,0.328,1.838c-0.372-0.153-1.226-0.109-2.144-0.021c-0.701,1.815-1.379,3.609-1.379,4.332
		c-0.021,0.699,0.35,0.896,0.744,0.896c0.35,0,0.787-0.152,1.159-0.394c-0.394,1.969-1.772,3.632-3.369,3.632
		c-1.247,0-2.013-0.854-1.991-2.429c0.043-1.4,0.854-3.653,1.771-5.886c-0.24-0.088-0.415-0.262-0.502-0.525
		c-0.176-0.415-0.285-0.984-0.285-1.597C163.155,63.504,163.833,63.438,164.577,63.373z"/>
	<path d="M168.12,73.241c-0.525-0.481-0.656-1.182-0.307-2.451c0.701-2.669,2.626-6.17,3.042-7.941
		c0.591,0.328,1.159,0.854,1.466,1.355c0.394,0.657,0.372,1.423,0.021,2.451c-0.875,2.561-2.385,6.586-2.122,7.57
		C169.499,74.073,168.579,73.657,168.12,73.241z M174.946,60.419c0,1.335-0.7,2.385-1.619,2.385c-1.05,0-2.013-1.007-2.013-2.057
		c0-1.313,0.788-2.669,1.729-2.669C174.159,58.079,174.946,59.151,174.946,60.419z"/>
	<path d="M177.723,67.246c-0.35-0.328-0.415-0.591-0.306-1.072c0.109-0.524,0.459-1.203,0.656-1.663
		c-0.984,0.372-1.882,1.226-1.882,1.992c0,1.181,2.735,1.618,2.735,4.004c0,1.881-1.487,3.391-3.938,3.391
		c-1.926,0-3.238-0.941-3.238-2.406c0-0.984,0.35-1.947,1.051-2.473c0,0.744,0.722,1.443,1.99,1.443
		c0.875,0,1.312-0.262,1.312-0.612c0-0.875-2.56-1.487-2.56-3.304c0-1.838,2.582-3.938,4.529-3.916c1.116,0,2.298,1.115,2.298,1.99
		c0,0.941-1.072,2.67-1.029,3.457C178.818,67.967,178.074,67.574,177.723,67.246z"/>
	<path d="M179.954,73.241c-0.525-0.481-0.656-1.182-0.306-2.451c0.7-2.669,2.625-6.17,3.041-7.941
		c0.591,0.328,1.159,0.854,1.466,1.355c0.395,0.657,0.372,1.423,0.021,2.451c-0.875,2.561-2.385,6.586-2.122,7.57
		C181.333,74.073,180.414,73.657,179.954,73.241z M186.78,60.419c0,1.335-0.7,2.385-1.618,2.385c-1.051,0-2.013-1.007-2.013-2.057
		c0-1.313,0.787-2.669,1.729-2.669C185.993,58.079,186.78,59.151,186.78,60.419z"/>
	<path d="M188.311,63.766c0.284,0.416,0.416,0.92,0.284,1.664c1.007-1.729,2.275-2.626,3.282-2.626c1.05,0,1.531,0.875,1.531,1.947
		c0,1.116-0.656,2.866-1.488,4.835c-0.896,2.123-1.618,4.113-1.443,4.66c-0.656-0.152-1.379-0.48-1.882-0.918
		c-0.569-0.482-0.678-1.27-0.241-2.451c0.635-1.729,1.86-4.223,1.86-4.9c0-0.153-0.044-0.241-0.175-0.241
		c-0.395,0-1.619,1.685-2.473,3.653c-0.919,2.123-1.531,4.114-1.531,4.793c-0.569-0.154-1.422-0.613-1.795-1.008
		c-0.394-0.438-0.568-1.049-0.284-2.166c0.723-2.865,2.845-6.914,3.02-8.248C187.567,63.023,188.004,63.351,188.311,63.766z"/>
	<path d="M201.459,64.03c0.371,0.568,0.327,1.334,0.065,2.318c-0.569,2.166-2.101,6.324-3.107,8.445
		c-1.226,2.67-2.363,4.333-3.981,4.333c-1.4,0-2.561-1.028-2.626-2.866c0-0.46,0.065-1.094,0.219-1.531
		c0.459,0.525,1.094,0.939,1.706,0.939c1.116,0,2.275-1.422,3.392-4.2c-0.854,1.466-1.947,2.429-2.866,2.429
		c-0.787,0-1.575-0.635-1.619-2.101c-0.153-3.347,3.02-9.08,5.535-9.08c0.854,0,1.423,0.612,1.598,1.444
		c0.176-0.438,0.328-0.854,0.459-1.225C200.758,63.198,201.196,63.614,201.459,64.03z M199.205,65.54
		c-0.087-0.328-0.262-0.569-0.48-0.569c-0.985,0-2.998,4.113-2.954,5.382c0,0.197,0.088,0.328,0.284,0.328
		c0.548,0,1.488-1.487,2.341-3.281C198.636,66.895,198.92,66.217,199.205,65.54z"/>
</g>
<g>
	<path fill="#EF6A2E" d="M100.617,91.407c-0.519-0.486-0.616-0.875-0.454-1.589c0.162-0.778,0.681-1.784,0.973-2.465
		c-1.459,0.552-2.789,1.816-2.789,2.951c0,1.751,4.054,2.399,4.054,5.936c0,2.789-2.205,5.027-5.838,5.027
		c-2.854,0-4.8-1.395-4.8-3.567c0-1.46,0.519-2.887,1.557-3.666c0,1.104,1.07,2.141,2.951,2.141c1.298,0,1.946-0.389,1.946-0.908
		c0-1.297-3.794-2.205-3.794-4.896c0-2.725,3.827-5.838,6.713-5.806c1.654,0,3.405,1.653,3.405,2.951
		c0,1.395-1.589,3.957-1.524,5.124C102.238,92.477,101.135,91.893,100.617,91.407z"/>
	<path fill="#EF6A2E" d="M108.044,85.667c1.135-2.627,2.14-4.865,2.432-5.968c0.973,0.616,1.719,1.46,2.173,2.368
		c0.422,0.843,0.325,1.751-0.065,2.918c-0.032,0.065-0.064,0.131-0.064,0.195c0.648,0.064,1.07,0.324,1.362,0.844
		c0.292,0.68,0.487,1.783,0.487,2.724c-0.552-0.228-1.816-0.162-3.179-0.032c-1.038,2.691-2.043,5.352-2.043,6.422
		c-0.032,1.037,0.519,1.33,1.103,1.33c0.519,0,1.167-0.228,1.719-0.584c-0.583,2.918-2.627,5.383-4.994,5.383
		c-1.849,0-2.984-1.264-2.951-3.6c0.064-2.076,1.265-5.416,2.627-8.725c-0.357-0.129-0.617-0.389-0.746-0.777
		c-0.26-0.617-0.422-1.461-0.422-2.368C105.936,85.862,106.941,85.764,108.044,85.667z"/>
	<path fill="#EF6A2E" d="M125.136,89.559c0,5.935-3.892,11.708-8.173,11.708c-2.335,0-4.021-1.621-4.021-4.995
		c0-5.74,4.443-11.708,8.498-11.708C123.515,84.564,125.136,86.217,125.136,89.559z M117.191,95.006c0,1.136,0.421,1.72,0.94,1.72
		c1.2,0,3.211-4.118,3.211-7.298c0-0.811-0.228-1.361-0.648-1.361C119.461,88.067,117.191,91.861,117.191,95.006z"/>
	<path fill="#EF6A2E" d="M128.413,98.413c-1.135,3.502-2.432,8.01-2.27,8.918c-0.811-0.518-1.881-1.264-2.498-1.814
		c-0.616-0.553-0.843-1.266-0.519-2.855c1.038-5.059,5.806-15.958,6.422-18.389c0.713,0.486,1.557,1.266,1.849,1.849
		c0.227,0.486,0.356,0.974,0.324,1.557c1.005-1.719,2.595-3.049,4.021-3.049c1.492,0,2.368,1.622,2.368,3.892
		c0,5.807-3.406,12.584-6.551,12.584C130.1,101.104,128.867,100.163,128.413,98.413z M129.126,96.272
		c0.162,0.52,0.486,0.778,0.875,0.778c1.297,0,3.665-5.254,3.665-7.687c0-0.356-0.097-0.52-0.357-0.52
		C132.5,88.844,130.359,92.672,129.126,96.272z"/>
	<path fill="#EF6A2E" d="M145.927,91.407c-0.519-0.486-0.616-0.875-0.454-1.589c0.162-0.778,0.681-1.784,0.973-2.465
		c-1.459,0.552-2.789,1.816-2.789,2.951c0,1.751,4.054,2.399,4.054,5.936c0,2.789-2.205,5.027-5.838,5.027
		c-2.854,0-4.8-1.395-4.8-3.567c0-1.46,0.519-2.887,1.557-3.666c0,1.104,1.07,2.141,2.951,2.141c1.298,0,1.946-0.389,1.946-0.908
		c0-1.297-3.794-2.205-3.794-4.896c0-2.725,3.826-5.838,6.713-5.806c1.654,0,3.405,1.653,3.405,2.951
		c0,1.395-1.589,3.957-1.524,5.124C147.548,92.477,146.446,91.893,145.927,91.407z"/>
	<path fill="#EF6A2E" d="M161.658,87.775c1.427-2.044,2.724-3.017,3.632-3.179c1.946-0.324,2.822,1.849,2.822,3.924
		c0,5.385-3.957,12.909-7.914,12.909c-1.945,0-3.827-1.135-4.703-2.53c-0.745-1.168-0.907-2.27-0.259-4.508
		c1.362-4.994,6.162-15.859,6.422-17.838c0.94,0.486,1.751,1.199,2.271,1.913c0.713,0.974,0.713,2.011,0.162,3.471
		C163.571,83.332,162.598,85.667,161.658,87.775z M158.447,96.758c0.259,0.292,0.584,0.422,0.94,0.422
		c1.524,0,4.346-6.098,4.346-7.881c0-0.324-0.13-0.52-0.389-0.52C162.565,88.78,159.809,92.77,158.447,96.758z"/>
	<path fill="#EF6A2E" d="M178.426,95.137c-0.324,3.6-2.692,6.227-5.936,6.227c-2.367,0-4.411-1.557-4.281-4.962
		c0.098-5.157,4.735-11.87,9.471-11.87c2.335,0,3.34,1.33,3.308,3.081c-0.032,3.405-3.794,6.583-7.815,6.973
		c0.031,1.46,0.583,2.044,1.816,2.044C176.124,96.629,177.583,95.948,178.426,95.137z M176.87,87.483
		c-1.038,0-2.758,2.465-3.438,4.93c2.108-0.714,3.925-2.919,3.925-4.281C177.356,87.709,177.161,87.483,176.87,87.483z"/>
	<path fill="#EF6A2E" d="M179.821,100.294c-0.778-0.715-0.973-1.752-0.454-3.633c1.038-3.957,3.892-9.146,4.509-11.772
		c0.875,0.486,1.719,1.265,2.173,2.011c0.583,0.973,0.551,2.108,0.032,3.633c-1.297,3.795-3.535,9.762-3.146,11.221
		C181.864,101.526,180.502,100.909,179.821,100.294z M189.94,81.288c0,1.979-1.038,3.535-2.4,3.535
		c-1.557,0-2.983-1.491-2.983-3.049c0-1.945,1.167-3.956,2.562-3.956C188.772,77.818,189.94,79.407,189.94,81.288z"/>
	<path fill="#EF6A2E" d="M192.21,86.25c0.421,0.615,0.616,1.362,0.421,2.465c1.492-2.562,3.373-3.893,4.865-3.893
		c1.557,0,2.271,1.298,2.271,2.887c0,1.654-0.973,4.249-2.205,7.168c-1.33,3.146-2.4,6.098-2.142,6.909
		c-0.973-0.229-2.043-0.713-2.789-1.363c-0.843-0.713-1.005-1.881-0.356-3.631c0.94-2.562,2.757-6.26,2.757-7.266
		c0-0.227-0.064-0.356-0.259-0.356c-0.584,0-2.4,2.497-3.665,5.416c-1.362,3.146-2.271,6.097-2.271,7.103
		c-0.844-0.227-2.108-0.908-2.659-1.492c-0.584-0.648-0.844-1.557-0.422-3.211c1.07-4.248,4.216-10.248,4.476-12.227
		C191.108,85.148,191.756,85.633,192.21,86.25z"/>
	<path fill="#EF6A2E" d="M211.704,86.639c0.551,0.844,0.486,1.979,0.097,3.438c-0.843,3.211-3.113,9.374-4.605,12.52
		c-1.816,3.957-3.503,6.422-5.902,6.422c-2.076,0-3.795-1.525-3.893-4.25c0-0.68,0.098-1.621,0.325-2.27
		c0.681,0.779,1.621,1.395,2.529,1.395c1.654,0,3.373-2.107,5.027-6.227c-1.266,2.172-2.887,3.6-4.249,3.6
		c-1.167,0-2.335-0.939-2.4-3.114c-0.227-4.962,4.476-13.459,8.206-13.459c1.265,0,2.107,0.908,2.367,2.141
		c0.26-0.648,0.486-1.266,0.682-1.816C210.666,85.407,211.314,86.024,211.704,86.639z M208.363,88.877
		c-0.13-0.486-0.39-0.844-0.714-0.844c-1.459,0-4.443,6.098-4.379,7.979c0,0.292,0.131,0.486,0.422,0.486
		c0.811,0,2.205-2.205,3.471-4.864C207.519,90.888,207.941,89.883,208.363,88.877z"/>
</g>
<g>
	<path fill="#303030" d="M65.127,109.995h11.944c7.662,0,11.981,2.066,11.981,8.939c0,6.686-4.357,9.465-12.02,9.465h-2.103v4.695
		h-9.803V109.995z M76.283,122.165c2.404,0,3.192-0.488,3.192-2.967c0-2.48-0.788-2.967-3.192-2.967h-1.352v5.934H76.283z"/>
	<path fill="#303030" d="M97.131,133.095h-9.353l8.301-23.1h12.32l8.301,23.1h-10.329l-0.939-3.305h-7.362L97.131,133.095z
		 M102.691,120.175c-0.489-1.691-0.939-5.033-0.939-5.033s-0.451,3.305-0.938,5.033c0,0-1.127,4.018-1.165,4.018h4.169
		L102.691,120.175z"/>
	<path fill="#303030" d="M117.906,132.757v-6.385c1.202,0.15,4.169,0.375,7.963,0.375c2.892,0,3.305-0.225,3.305-1.201
		s-0.375-1.277-3.981-1.277c-6.31,0-8.075-2.705-8.075-6.949s1.39-7.512,11.719-7.512c4.47,0,7.55,0.338,8.677,0.525v6.385
		c-1.315-0.111-4.094-0.375-8-0.375c-2.404,0-3.005,0.225-3.005,1.203c0,0.975,0.225,1.277,4.469,1.277
		c5.973,0,7.738,2.365,7.738,6.947s-1.502,7.512-11.907,7.512C122.789,133.282,119.033,132.907,117.906,132.757z"/>
	<path fill="#303030" d="M140.708,132.757v-6.385c1.201,0.15,4.169,0.375,7.963,0.375c2.892,0,3.305-0.225,3.305-1.201
		s-0.376-1.277-3.981-1.277c-6.31,0-8.075-2.705-8.075-6.949s1.39-7.512,11.719-7.512c4.47,0,7.55,0.338,8.676,0.525v6.385
		c-1.314-0.111-4.094-0.375-8-0.375c-2.404,0-3.005,0.225-3.005,1.203c0,0.975,0.226,1.277,4.47,1.277
		c5.973,0,7.737,2.365,7.737,6.947s-1.502,7.512-11.906,7.512C145.589,133.282,141.833,132.907,140.708,132.757z"/>
	<path fill="#303030" d="M164.11,109.995h9.803v23.1h-9.803V109.995z"/>
	<path fill="#303030" d="M176.092,109.995h10.291l3.156,11.494c0.751,2.779,1.126,6.459,1.126,6.459s0.376-3.68,1.052-6.459
		l2.854-11.494h9.315l-7.625,23.137h-12.319L176.092,109.995z"/>
	<path fill="#303030" d="M205.843,109.995h20.996v6.535h-11.192v2.217h9.39v5.408h-9.39v2.404h11.643v6.535h-21.446V109.995z"/>
	<path fill="#303030" d="M229.508,126.259h9.127v6.836h-9.127V126.259z M229.659,109.995h8.826v14.498h-8.826V109.995z"/>
</g>
</svg>
