<?xml version="1.0" encoding="utf-8"?>
<!-- Generator: Adobe Illustrator 16.0.0, SVG Export Plug-In . SVG Version: 6.00 Build 0)  -->
<!DOCTYPE svg PUBLIC "-//W3C//DTD SVG 1.1//EN" "http://www.w3.org/Graphics/SVG/1.1/DTD/svg11.dtd">
<svg version="1.1" id="Layer_2" xmlns="http://www.w3.org/2000/svg" xmlns:xlink="http://www.w3.org/1999/xlink" x="0px" y="0px"
	 width="308px" height="111.467px" viewBox="0 0 308 111.467" enable-background="new 0 0 308 111.467" xml:space="preserve">
<g opacity="0.25">
	<path fill="#EF6A2E" d="M299.453,104.551c0,3.59-2.91,6.5-6.5,6.5h-286c-3.59,0-6.5-2.91-6.5-6.5v-90.35c0-3.59,2.91-6.5,6.5-6.5
		h286c3.59,0,6.5,2.91,6.5,6.5V104.551z"/>
</g>
<g>
	<path fill="#303030" d="M305.953,98.051c0,3.59-2.91,6.5-6.5,6.5h-286c-3.59,0-6.5-2.91-6.5-6.5V7.701c0-3.59,2.91-6.5,6.5-6.5h286
		c3.59,0,6.5,2.91,6.5,6.5V98.051z"/>
	<path fill="#EF6A2E" d="M299.453,105.525h-286c-4.122,0-7.475-3.354-7.475-7.475V7.701c0-4.122,3.353-7.475,7.475-7.475h286
		c4.122,0,7.475,3.353,7.475,7.475v90.35C306.928,102.172,303.575,105.525,299.453,105.525z M13.453,2.176
		c-3.047,0-5.525,2.479-5.525,5.525v90.35c0,3.047,2.479,5.525,5.525,5.525h286c3.047,0,5.525-2.479,5.525-5.525V7.701
		c0-3.047-2.479-5.525-5.525-5.525H13.453z"/>
</g>
<g>
	<path fill="#F5F5F5" d="M236.459,48.12c-5.24,0-8.683-3.285-8.683-7.823c0-7.743,8.604-14.627,21.824-14.627
		c12.438,0,18.93,5.241,18.93,12.516c0,6.258-3.833,11.029-13.298,14.783c-6.727,2.66-7.509,3.678-7.509,5.319
		c0,0.782,0.548,1.408,1.485,1.8c-0.86,0.547-2.034,0.782-3.207,0.782c-3.207,0-5.554-2.19-5.554-5.397
		c0-2.738,1.252-4.929,6.023-8.214c4.303-2.973,6.179-6.022,6.102-9.621c-0.079-3.284-1.8-5.71-5.788-5.71
		c-1.879,0-3.521,0.782-4.381,1.721c3.363-0.156,5.867,2.503,5.867,5.397C248.271,44.209,242.561,48.12,236.459,48.12z
		 M237.789,70.569c0-4.615,3.911-8.056,9.543-8.056c5.945,0,10.247,3.362,10.247,7.9c0,4.301-4.224,7.82-9.777,7.82
		C241.543,78.234,237.789,74.715,237.789,70.569z"/>
</g>
<g>
	<path fill="#EF6A2E" d="M46.872,30.713h5.356v4.412h2.565v-4.412h5.356v12.62h-5.356v-4.556h-2.565v4.556h-5.356V30.713z"/>
	<path fill="#EF6A2E" d="M61.483,38.695c0-3.365,2.565-4.802,6.074-4.802c3.489,0,6.074,1.437,6.074,4.802s-2.565,4.884-6.074,4.884
		C64.068,43.579,61.483,42.061,61.483,38.695z M68.521,38.736c0-1.437-0.267-1.807-0.964-1.807c-0.677,0-0.964,0.37-0.964,1.807
		c0,1.416,0.287,1.826,0.985,1.826C68.234,40.562,68.521,40.152,68.521,38.736z"/>
	<path fill="#EF6A2E" d="M82.436,40.521l-0.821,2.812H76.73l-3.263-9.193h5.335l0.555,2.688c0.164,0.82,0.349,3.181,0.349,3.181
		s0.287-2.36,0.492-3.181l0.677-2.688h4.269l0.677,2.688c0.205,0.779,0.492,3.181,0.492,3.181s0.185-2.38,0.349-3.181l0.555-2.688
		h4.904l-3.242,9.193h-4.884l-0.698-2.812c-0.246-1.006-0.41-2.175-0.41-2.175S82.723,39.537,82.436,40.521z"/>
	<path fill="#EF6A2E" d="M100.433,36.951c-1.662,0-3.222,0.143-3.94,0.267v-2.894c0.739-0.144,2.257-0.328,4.966-0.328
		c4.268,0,5.458,1.354,5.458,4.412v4.925h-4.72v-0.759c-0.719,0.676-1.642,0.923-2.935,0.923c-2.647,0-3.694-0.903-3.694-2.812
		c0-2.175,1.457-2.627,3.96-2.729c1.047-0.041,1.868-0.083,2.668-0.145C102.156,37.033,101.808,36.951,100.433,36.951z
		 M102.197,39.639c-0.287,0.021-0.595,0.062-0.903,0.062c-0.964,0.041-1.108,0.185-1.108,0.615c0,0.35,0.185,0.615,0.923,0.615
		c0.657,0,1.088-0.143,1.088-0.656V39.639z"/>
	<path fill="#EF6A2E" d="M115.782,34.017c0.328,0,0.656,0.021,0.841,0.062v4.062c-0.369-0.082-0.882-0.143-1.601-0.143
		c-1.395,0-1.744,0.225-1.744,1.457v3.878h-4.925V34.14h4.925v1.498C113.812,34.488,114.653,34.017,115.782,34.017z"/>
	<path fill="#EF6A2E" d="M124.647,40.645c1.662,0,2.811-0.103,3.796-0.185v2.688c-0.636,0.102-1.949,0.287-4.228,0.287
		c-4.925,0-6.669-1.56-6.669-4.802c0-3.366,2.093-4.74,5.951-4.74c3.899,0,5.602,1.56,5.602,4.433v1.271h-4.371h-2.135
		C122.759,40.439,123.251,40.645,124.647,40.645z M123.601,36.295c-0.759,0-1.129,0.225-1.19,1.559h2.299
		C124.647,36.582,124.318,36.295,123.601,36.295z"/>
	<path fill="#EF6A2E" d="M141.577,40.521l-0.821,2.812h-4.884l-3.263-9.193h5.335l0.554,2.688c0.165,0.82,0.349,3.181,0.349,3.181
		s0.287-2.36,0.492-3.181l0.677-2.688h4.268l0.678,2.688c0.205,0.779,0.492,3.181,0.492,3.181s0.185-2.38,0.349-3.181l0.554-2.688
		h4.905l-3.243,9.193h-4.883l-0.698-2.812c-0.246-1.006-0.41-2.175-0.41-2.175S141.864,39.537,141.577,40.521z"/>
	<path fill="#EF6A2E" d="M158.302,40.645c1.662,0,2.812-0.103,3.797-0.185v2.688c-0.637,0.102-1.95,0.287-4.228,0.287
		c-4.925,0-6.669-1.56-6.669-4.802c0-3.366,2.093-4.74,5.95-4.74c3.899,0,5.603,1.56,5.603,4.433v1.271h-4.371h-2.134
		C156.414,40.439,156.906,40.645,158.302,40.645z M157.256,36.295c-0.76,0-1.129,0.225-1.19,1.559h2.298
		C158.302,36.582,157.974,36.295,157.256,36.295z"/>
	<path fill="#EF6A2E" d="M170.799,43.169c-2.708,0-4.145-1.478-4.145-4.597c0-3.078,1.478-4.679,4.166-4.679
		c1.477,0,2.236,0.431,2.688,1.292V34.14h4.926v8.372c0,2.977-1.231,4.576-6.342,4.576c-1.888,0-3.488-0.123-4.145-0.246v-3.058
		c0.924,0.123,2.031,0.226,3.755,0.226c1.416,0,1.806-0.144,1.806-1.395v-0.534C173.036,42.779,172.256,43.169,170.799,43.169z
		 M172.646,36.869c-0.698,0-0.883,0.492-0.883,1.744c0,1.293,0.185,1.785,0.883,1.785c0.656,0,0.861-0.369,0.861-1.026v-1.374
		C173.508,37.279,173.303,36.869,172.646,36.869z"/>
	<path fill="#EF6A2E" d="M179.459,38.695c0-3.365,2.565-4.802,6.074-4.802c3.489,0,6.074,1.437,6.074,4.802
		s-2.564,4.884-6.074,4.884C182.045,43.579,179.459,42.061,179.459,38.695z M186.498,38.736c0-1.437-0.267-1.807-0.965-1.807
		c-0.677,0-0.964,0.37-0.964,1.807c0,1.416,0.287,1.826,0.985,1.826C186.211,40.562,186.498,40.152,186.498,38.736z"/>
	<path fill="#EF6A2E" d="M192.695,29.912h5.213v3.428h-5.213V29.912z M192.798,34.14h5.007v9.193h-5.007V34.14z"/>
	<path fill="#EF6A2E" d="M207.102,33.894c2.544,0,3.714,1.128,3.714,4.597v4.843h-4.925v-4.905c0-0.943-0.164-1.251-0.78-1.251
		c-0.615,0-0.779,0.287-0.779,1.231v4.925h-4.925V34.14h4.925v1.211C204.946,34.345,205.686,33.894,207.102,33.894z"/>
	<path fill="#EF6A2E" d="M215.986,43.169c-2.708,0-4.145-1.478-4.145-4.597c0-3.078,1.478-4.679,4.166-4.679
		c1.477,0,2.236,0.431,2.688,1.292V34.14h4.926v8.372c0,2.977-1.232,4.576-6.342,4.576c-1.888,0-3.488-0.123-4.145-0.246v-3.058
		c0.923,0.123,2.031,0.226,3.755,0.226c1.416,0,1.806-0.144,1.806-1.395v-0.534C218.224,42.779,217.443,43.169,215.986,43.169z
		 M217.834,36.869c-0.698,0-0.883,0.492-0.883,1.744c0,1.293,0.185,1.785,0.883,1.785c0.656,0,0.861-0.369,0.861-1.026v-1.374
		C218.695,37.279,218.49,36.869,217.834,36.869z"/>
</g>
<g>
	<path fill="#FFFFFF" d="M54.136,55.988h-7.547v-7.505h26.35v7.505h-7.547v19.018H54.136V55.988z"/>
	<path fill="#FFFFFF" d="M73.847,61.723c0-9.1,5.39-13.843,15.093-13.843c9.746,0,15.137,4.743,15.137,13.843
		c0,9.057-5.391,13.8-15.137,13.8C79.237,75.522,73.847,70.779,73.847,61.723z M92.649,61.723c0-5.088-0.863-6.469-3.709-6.469
		s-3.708,1.381-3.708,6.469c0,5.046,0.862,6.426,3.708,6.426S92.649,66.769,92.649,61.723z"/>
	<path fill="#FFFFFF" d="M113.567,48.483h14.188c9.229,0,14.835,3.882,14.835,13.196c0,9.057-5.649,13.326-14.878,13.326h-14.145
		V48.483z M126.764,67.631c3.579,0,4.398-0.906,4.398-5.649s-0.819-6.124-4.398-6.124h-1.941v11.773H126.764z"/>
	<path fill="#FFFFFF" d="M144.577,61.723c0-9.1,5.391-13.843,15.093-13.843c9.746,0,15.137,4.743,15.137,13.843
		c0,9.057-5.391,13.8-15.137,13.8C149.968,75.522,144.577,70.779,144.577,61.723z M163.379,61.723c0-5.088-0.862-6.469-3.709-6.469
		c-2.846,0-3.708,1.381-3.708,6.469c0,5.046,0.862,6.426,3.708,6.426C162.517,68.148,163.379,66.769,163.379,61.723z"/>
	<path fill="#FFFFFF" d="M184.557,48.483h11.256v26.522h-11.256V48.483z"/>
	<path fill="#FFFFFF" d="M205.99,55.988h-7.547v-7.505h26.35v7.505h-7.547v19.018H205.99V55.988z"/>
</g>
<g>
	<circle fill="#EF6A2E" cx="18.003" cy="10.951" r="2.234"/>
</g>
<g>
	<circle fill="#EF6A2E" cx="18.003" cy="93.501" r="2.234"/>
</g>
<g>
	<circle fill="#EF6A2E" cx="294.903" cy="10.951" r="2.234"/>
</g>
<g>
	<circle fill="#EF6A2E" cx="294.903" cy="93.501" r="2.234"/>
</g>
<g>
	<rect x="21.578" y="84.727" fill="#EF6A2E" width="269.75" height="1.949"/>
</g>
<g>
	<rect x="21.578" y="18.426" fill="#EF6A2E" width="269.75" height="1.95"/>
</g>
</svg>
