<?xml version="1.0" encoding="utf-8"?>
<!-- Generator: Adobe Illustrator 16.0.0, SVG Export Plug-In . SVG Version: 6.00 Build 0)  -->
<!DOCTYPE svg PUBLIC "-//W3C//DTD SVG 1.1//EN" "http://www.w3.org/Graphics/SVG/1.1/DTD/svg11.dtd">
<svg version="1.1" id="Layer_2" xmlns="http://www.w3.org/2000/svg" xmlns:xlink="http://www.w3.org/1999/xlink" x="0px" y="0px"
	 width="313.539px" height="133px" viewBox="0 0 313.539 133" enable-background="new 0 0 313.539 133" xml:space="preserve">
<g opacity="0.25">
	<path fill="#EF6A2E" d="M305.335,71.633l-43.877,58.606c-1.3,1.95-3.114,2.601-4.55,2.601H2.758c-1.436,0-2.6-1.164-2.6-2.601
		V10.639c0-1.436,1.164-2.6,2.6-2.6h247.65c1.436,0,3.575,1.301,4.55,2.6l50.011,56.576c0,0,1.096,1.438,1.096,2.412
		C306.064,70.764,305.335,71.633,305.335,71.633z"/>
</g>
<g>
	<path fill="#EF6A2E" d="M311.835,65.133l-43.877,58.606c-1.3,1.95-3.114,2.601-4.55,2.601H9.258c-1.436,0-2.6-1.164-2.6-2.601
		V4.139c0-1.436,1.164-2.6,2.6-2.6h247.65c1.436,0,3.575,1.301,4.55,2.6l50.011,56.576c0,0,1.096,1.438,1.096,2.412
		C312.564,64.264,311.835,65.133,311.835,65.133z"/>
	<path fill="#FFFFFF" d="M263.408,127.314H9.258c-1.971,0-3.575-1.604-3.575-3.575V4.139c0-1.971,1.604-3.574,3.575-3.574h247.65
		c1.833,0,4.211,1.522,5.305,2.957l50.032,56.602c0.216,0.284,1.294,1.762,1.294,3.004c0,1.451-0.859,2.516-0.958,2.633
		l-43.843,58.564C266.943,127.019,264.412,127.314,263.408,127.314z M9.258,2.514c-0.896,0-1.625,0.729-1.625,1.625v119.601
		c0,0.896,0.729,1.625,1.625,1.625h254.15c0.69,0,2.436-0.211,3.738-2.166l43.908-58.65c0.033-0.042,0.535-0.669,0.535-1.421
		c0-0.41-0.502-1.295-0.877-1.795L260.678,4.725c-0.836-1.115-2.703-2.211-3.77-2.211H9.258z"/>
</g>
<g>
	<path fill="#303030" d="M22.09,22.551h-2.536v-2.521h8.854v2.521h-2.536v6.391H22.09V22.551z"/>
	<path fill="#303030" d="M29.203,20.029h3.782v3.115h1.812v-3.115h3.782v8.912h-3.782v-3.218h-1.812v3.218h-3.782V20.029z"/>
	<path fill="#303030" d="M42.794,28.941h-3.608l3.202-8.912h4.753l3.203,8.912h-3.985l-0.362-1.275h-2.84L42.794,28.941z
		 M44.938,23.956c-0.188-0.651-0.362-1.942-0.362-1.942s-0.174,1.275-0.362,1.942c0,0-0.435,1.55-0.449,1.55h1.608L44.938,23.956z"
		/>
	<path fill="#303030" d="M51.907,22.551h-2.536v-2.521h8.854v2.521h-2.536v6.391h-3.782V22.551z"/>
	<path fill="#303030" d="M63.164,22.551h-2.536v-2.521h8.854v2.521h-2.536v6.391h-3.782V22.551z"/>
	<path fill="#303030" d="M70.277,20.029h3.782v3.115h1.812v-3.115h3.782v8.912h-3.782v-3.218H74.06v3.218h-3.782V20.029z"/>
	<path fill="#303030" d="M81.014,20.029h8.1v2.521h-4.318v0.854h3.623v2.087h-3.623v0.928h4.492v2.521h-8.273V20.029z"/>
	<path fill="#303030" d="M92.43,20.029h4.608c2.957,0,4.623,0.797,4.623,3.449c0,2.578-1.681,3.65-4.637,3.65h-0.812v1.812H92.43
		V20.029z M96.733,24.725c0.928,0,1.231-0.189,1.231-1.146s-0.304-1.145-1.231-1.145h-0.521v2.29H96.733z"/>
	<path fill="#303030" d="M102.557,25.145v-5.115h3.782v4.724c0,1.449,0.145,1.884,0.971,1.884c0.841,0,0.985-0.391,0.985-1.884
		v-4.724h3.782v5.115c0,2.971-1.71,3.971-4.883,3.971C104.237,29.115,102.557,28.115,102.557,25.145z"/>
	<path fill="#303030" d="M122.306,26.695l0.927,2.246h-3.897l-0.956-2.392c-0.16-0.405-0.392-0.579-0.884-0.579
		c0.015,0-0.319,0-0.319,0v2.971h-3.782v-8.912h5.506c3.043,0,4.115,1.029,4.115,3.043c0,1.406-0.768,2.102-1.797,2.492
		C121.653,25.738,122.045,26.072,122.306,26.695z M118.176,24.043c0.855,0,1.231-0.217,1.231-0.941c0-0.667-0.318-0.885-1.101-0.885
		h-1.131v1.826H118.176z"/>
	<path fill="#303030" d="M123.709,24.492c0-3.029,1.667-4.535,5.217-4.535c1.392,0,2.188,0.115,2.58,0.174v2.463
		c-0.334-0.043-1.015-0.13-2.16-0.13c-1.202,0-1.768,0.405-1.768,2.028s0.536,2.014,1.797,2.014c0.898,0,1.725-0.072,2.131-0.13
		v2.464c-0.363,0.058-1.348,0.174-2.58,0.174C125.376,29.014,123.709,27.506,123.709,24.492z"/>
	<path fill="#303030" d="M132.475,20.029h3.782v3.115h1.812v-3.115h3.782v8.912h-3.782v-3.218h-1.812v3.218h-3.782V20.029z"/>
	<path fill="#303030" d="M146.065,28.941h-3.608l3.203-8.912h4.752l3.203,8.912h-3.985l-0.362-1.275h-2.84L146.065,28.941z
		 M148.21,23.956c-0.188-0.651-0.362-1.942-0.362-1.942s-0.174,1.275-0.362,1.942c0,0-0.435,1.55-0.449,1.55h1.608L148.21,23.956z"
		/>
	<path fill="#303030" d="M154.076,28.811v-2.463c0.464,0.057,1.609,0.145,3.072,0.145c1.116,0,1.275-0.088,1.275-0.464
		c0-0.377-0.145-0.493-1.536-0.493c-2.435,0-3.115-1.043-3.115-2.681s0.536-2.897,4.521-2.897c1.725,0,2.913,0.13,3.348,0.203v2.463
		c-0.507-0.043-1.579-0.145-3.086-0.145c-0.928,0-1.16,0.086-1.16,0.463s0.088,0.493,1.725,0.493c2.305,0,2.985,0.913,2.985,2.681
		s-0.579,2.898-4.594,2.898C155.961,29.014,154.512,28.869,154.076,28.811z"/>
	<path fill="#303030" d="M163.016,20.029h8.101v2.521h-4.318v0.854h3.623v2.087h-3.623v0.928h4.492v2.521h-8.274V20.029z"/>
	<path fill="#303030" d="M174.52,20.029h3.781v8.912h-3.781V20.029z"/>
	<path fill="#303030" d="M179.749,20.029h3.854L185.169,23c0.392,0.725,0.739,1.738,0.739,1.738s-0.072-1.13-0.072-2.145v-2.564
		h3.173v8.912h-3.812l-1.594-3.015c-0.377-0.725-0.753-1.739-0.753-1.739s0.072,1.015,0.072,1.986v2.768h-3.174V20.029z"/>
	<path fill="#303030" d="M192.34,22.551h-2.536v-2.521h8.854v2.521h-2.535v6.391h-3.782V22.551z"/>
	<path fill="#303030" d="M199.453,20.029h8.1v2.521h-4.317v0.854h3.622v2.087h-3.622v0.928h4.491v2.521h-8.273V20.029z"/>
	<path fill="#303030" d="M208.696,20.029h3.854L214.116,23c0.391,0.725,0.738,1.738,0.738,1.738s-0.072-1.13-0.072-2.145v-2.564
		h3.174v8.912h-3.812l-1.594-3.015c-0.377-0.725-0.754-1.739-0.754-1.739s0.073,1.015,0.073,1.986v2.768h-3.174V20.029z"/>
	<path fill="#303030" d="M221.287,22.551h-2.536v-2.521h8.854v2.521h-2.536v6.391h-3.781V22.551z"/>
	<path fill="#303030" d="M228.487,20.029h3.782v8.912h-3.782V20.029z"/>
	<path fill="#303030" d="M233.369,24.479c0-3.059,1.812-4.652,5.072-4.652c3.274,0,5.086,1.594,5.086,4.652
		c0,3.043-1.812,4.637-5.086,4.637C235.181,29.115,233.369,27.521,233.369,24.479z M239.688,24.479c0-1.711-0.29-2.174-1.246-2.174
		c-0.957,0-1.246,0.463-1.246,2.174c0,1.695,0.289,2.158,1.246,2.158C239.397,26.637,239.688,26.174,239.688,24.479z"/>
	<path fill="#303030" d="M244.54,20.029h3.854L249.959,23c0.392,0.725,0.739,1.738,0.739,1.738s-0.072-1.13-0.072-2.145v-2.564
		h3.173v8.912h-3.811l-1.594-3.015c-0.377-0.725-0.754-1.739-0.754-1.739s0.072,1.015,0.072,1.986v2.768h-3.173V20.029z"/>
</g>
<g>
	<path fill="#303030" d="M21.709,34.715h17.693c9.668,0,13.487,2.418,13.487,7.832c0,3.964-1.644,5.414-5.124,6.332
		c3.964,0.919,5.946,2.997,5.946,7.348c0,5.56-5.511,8.219-13.681,8.219H21.709V34.715z M37.565,46.656
		c2.659,0,3.191-0.822,3.191-2.707c0-1.887-0.677-2.611-3.529-2.611h-3.384v5.318H37.565z M37.71,57.822
		c3.433,0,3.819-0.918,3.819-2.949c0-1.981-0.483-2.9-3.723-2.9h-3.964v5.85H37.71z"/>
	<path fill="#303030" d="M56.66,34.715h27.023v8.412H69.277v2.852h12.085v6.961H69.277v3.094h14.985v8.412H56.66V34.715z"/>
	<path fill="#303030" d="M86.341,49.604c0-10.104,5.559-15.131,17.403-15.131c4.641,0,7.3,0.387,8.605,0.58v8.218
		c-1.112-0.145-3.384-0.436-7.203-0.436c-4.013,0-5.898,1.354-5.898,6.769s1.789,6.72,5.995,6.72c2.997,0,5.752-0.242,7.106-0.436
		v8.219c-1.208,0.193-4.496,0.58-8.605,0.58C91.9,64.688,86.341,59.66,86.341,49.604z"/>
	<path fill="#303030" d="M114.428,49.557c0-10.201,6.043-15.519,16.92-15.519c10.925,0,16.968,5.317,16.968,15.519
		c0,10.151-6.043,15.469-16.968,15.469C120.471,65.025,114.428,59.708,114.428,49.557z M135.505,49.557
		c0-5.705-0.967-7.252-4.157-7.252s-4.158,1.547-4.158,7.252c0,5.655,0.968,7.202,4.158,7.202S135.505,55.212,135.505,49.557z"/>
	<path fill="#303030" d="M151.699,34.715h15.953l3.287,12.569c0.918,3.48,1.354,7.493,1.354,7.493s0.436-4.013,1.402-7.493
		l3.528-12.569h15.759v29.73h-11.795v-9.62c0-4.108,0.483-9.523,0.483-9.523s-1.208,5.994-2.224,9.523l-2.755,9.62h-9.379
		l-2.804-9.62c-1.015-3.529-2.224-9.523-2.224-9.523s0.483,5.415,0.483,9.523v9.62h-11.07V34.715z"/>
	<path fill="#303030" d="M197.527,34.715h27.023v8.412h-14.406v2.852h12.086v6.961h-12.086v3.094h14.986v8.412h-27.604V34.715z"/>
	<path fill="#303030" d="M227.886,64.01v-8.218c1.547,0.194,5.366,0.483,10.249,0.483c3.722,0,4.254-0.289,4.254-1.547
		c0-1.256-0.484-1.644-5.125-1.644c-8.121,0-10.393-3.48-10.393-8.942c0-5.463,1.788-9.669,15.082-9.669
		c5.753,0,9.717,0.435,11.167,0.677v8.219c-1.692-0.146-5.27-0.484-10.297-0.484c-3.094,0-3.867,0.29-3.867,1.547
		c0,1.258,0.29,1.644,5.753,1.644c7.686,0,9.958,3.046,9.958,8.944c0,5.896-1.934,9.668-15.324,9.668
		C234.17,64.688,229.336,64.203,227.886,64.01z"/>
</g>
<g>
	<path fill="#FFFFFF" d="M33.49,103.945H19.228l12.658-35.227h18.787l12.658,35.227H47.58l-1.432-5.041H34.922L33.49,103.945z
		 M41.967,84.24c-0.745-2.576-1.432-7.674-1.432-7.674s-0.688,5.04-1.432,7.674c0,0-1.718,6.129-1.776,6.129h6.358L41.967,84.24z"/>
	<path fill="#FFFFFF" d="M62.933,86.36c0-11.972,6.587-17.928,20.62-17.928c5.498,0,8.648,0.458,10.195,0.688v9.737
		c-1.317-0.172-4.01-0.516-8.535-0.516c-4.754,0-6.988,1.604-6.988,8.019s2.119,7.962,7.103,7.962c3.551,0,6.816-0.287,8.42-0.516
		v9.736c-1.432,0.229-5.327,0.688-10.195,0.688C69.52,104.23,62.933,98.274,62.933,86.36z"/>
	<path fill="#FFFFFF" d="M105.377,78.686H95.353v-9.967h34.997v9.967h-10.023v25.26h-14.949V78.686z"/>
	<path fill="#FFFFFF" d="M133.846,68.719h14.949v35.227h-14.949V68.719z"/>
	<path fill="#FFFFFF" d="M153.148,86.303c0-12.086,7.16-18.385,20.047-18.385c12.945,0,20.104,6.299,20.104,18.385
		c0,12.029-7.159,18.33-20.104,18.33C160.309,104.633,153.148,98.332,153.148,86.303z M178.121,86.303
		c0-6.758-1.146-8.591-4.926-8.591s-4.926,1.833-4.926,8.591c0,6.701,1.146,8.535,4.926,8.535S178.121,93.004,178.121,86.303z"/>
	<path fill="#FFFFFF" d="M197.311,68.719h15.236l6.186,11.742c1.547,2.864,2.922,6.873,2.922,6.873s-0.287-4.467-0.287-8.477V68.719
		h12.545v35.227h-15.064l-6.301-11.914c-1.489-2.863-2.979-6.873-2.979-6.873s0.287,4.01,0.287,7.846v10.941h-12.545V68.719z"/>
	<path fill="#FFFFFF" d="M238.839,93.52h13.919v10.426h-13.919V93.52z M239.068,68.719h13.46v22.109h-13.46V68.719z"/>
</g>
<g>
	<g>
		<path fill="#FFFFFF" d="M284.694,70.449c-5.756,1.806-11.794,4.289-17.437,7.279c-0.282-8.295-1.523-17.661-3.668-25.393
			c5.191,1.58,13.543,2.99,19.863,3.611c-0.564-4.288-1.299-8.352-2.145-11.455c4.176,5.812,11.736,13.543,16.363,17.549
			c-3.554,4.12-10.27,13.713-12.921,18.904C284.92,78.35,284.863,74.625,284.694,70.449z"/>
	</g>
</g>
</svg>
