<?xml version="1.0" encoding="utf-8"?>
<!-- Generator: Adobe Illustrator 16.0.0, SVG Export Plug-In . SVG Version: 6.00 Build 0)  -->
<!DOCTYPE svg PUBLIC "-//W3C//DTD SVG 1.1//EN" "http://www.w3.org/Graphics/SVG/1.1/DTD/svg11.dtd">
<svg version="1.1" id="Layer_2" xmlns="http://www.w3.org/2000/svg" xmlns:xlink="http://www.w3.org/1999/xlink" x="0px" y="0px"
	 width="345.074px" height="80.55px" viewBox="0 0 345.074 80.55" enable-background="new 0 0 345.074 80.55" xml:space="preserve">
<g>
	<path fill="#303030" d="M0,34.986c0-6.771,3.725-10.139,11.661-10.139c3.11,0,4.892,0.259,5.766,0.389v5.506
		c-0.745-0.098-2.268-0.291-4.827-0.291c-2.688,0-3.952,0.906-3.952,4.535c0,3.628,1.199,4.502,4.017,4.502
		c2.008,0,3.855-0.161,4.762-0.291v5.507c-0.81,0.129-3.012,0.387-5.766,0.387C3.725,45.091,0,41.724,0,34.986z"/>
	<path fill="#303030" d="M18.82,34.953c0-6.834,4.049-10.398,11.337-10.398c7.321,0,11.37,3.564,11.37,10.398
		c0,6.802-4.049,10.367-11.37,10.367C22.869,45.32,18.82,41.755,18.82,34.953z M32.944,34.953c0-3.822-0.648-4.858-2.786-4.858
		c-2.138,0-2.786,1.036-2.786,4.858c0,3.791,0.648,4.827,2.786,4.827C32.296,39.78,32.944,38.744,32.944,34.953z"/>
	<path fill="#303030" d="M43.795,25.01h10.69l2.203,8.422c0.615,2.332,0.907,5.021,0.907,5.021s0.292-2.688,0.939-5.021l2.365-8.422
		h10.56v19.921h-7.904v-6.447c0-2.754,0.324-6.381,0.324-6.381s-0.81,4.017-1.49,6.381l-1.847,6.447h-6.284l-1.878-6.447
		c-0.681-2.364-1.49-6.381-1.49-6.381s0.324,3.627,0.324,6.381v6.447h-7.418V25.01z"/>
	<path fill="#303030" d="M74.503,25.01h10.689l2.203,8.422c0.615,2.332,0.907,5.021,0.907,5.021s0.292-2.688,0.939-5.021
		l2.365-8.422h10.56v19.921h-7.904v-6.447c0-2.754,0.324-6.381,0.324-6.381s-0.81,4.017-1.49,6.381l-1.847,6.447h-6.284
		l-1.879-6.447c-0.68-2.364-1.49-6.381-1.49-6.381s0.324,3.627,0.324,6.381v6.447h-7.418V25.01z"/>
	<path fill="#303030" d="M105.017,36.443V25.01h8.455v10.56c0,3.239,0.324,4.211,2.17,4.211c1.879,0,2.203-0.875,2.203-4.211V25.01
		h8.454v11.434c0,6.64-3.822,8.876-10.916,8.876C108.775,45.32,105.017,43.083,105.017,36.443z"/>
	<path fill="#303030" d="M129.15,25.01h8.616l3.499,6.64c0.874,1.62,1.652,3.888,1.652,3.888s-0.162-2.527-0.162-4.795V25.01h7.094
		v19.921h-8.52l-3.563-6.738c-0.842-1.62-1.684-3.887-1.684-3.887s0.162,2.267,0.162,4.438v6.187h-7.095V25.01z"/>
	<path fill="#303030" d="M153.088,25.01h8.454v19.921h-8.454V25.01z"/>
	<path fill="#303030" d="M164.004,34.986c0-6.771,3.725-10.139,11.661-10.139c3.109,0,4.892,0.259,5.766,0.389v5.506
		c-0.744-0.098-2.268-0.291-4.826-0.291c-2.688,0-3.952,0.906-3.952,4.535c0,3.628,1.198,4.502,4.017,4.502
		c2.009,0,3.855-0.161,4.762-0.291v5.507c-0.81,0.129-3.012,0.387-5.766,0.387C167.729,45.091,164.004,41.724,164.004,34.986z"/>
	<path fill="#303030" d="M190.468,44.931h-8.065l7.159-19.921h10.625l7.158,19.921h-8.908l-0.81-2.852h-6.349L190.468,44.931z
		 M195.263,33.787c-0.422-1.457-0.811-4.34-0.811-4.34s-0.389,2.85-0.81,4.34c0,0-0.972,3.467-1.004,3.467h3.596L195.263,33.787z"/>
	<path fill="#303030" d="M210.844,30.645h-5.669V25.01h19.792v5.635h-5.669v14.287h-8.454V30.645z"/>
	<path fill="#303030" d="M226.943,25.01h8.455v19.921h-8.455V25.01z"/>
	<path fill="#303030" d="M237.859,34.953c0-6.834,4.05-10.398,11.338-10.398c7.32,0,11.37,3.564,11.37,10.398
		c0,6.802-4.05,10.367-11.37,10.367C241.908,45.32,237.859,41.755,237.859,34.953z M251.983,34.953c0-3.822-0.647-4.858-2.786-4.858
		c-2.138,0-2.785,1.036-2.785,4.858c0,3.791,0.647,4.827,2.785,4.827C251.335,39.78,251.983,38.744,251.983,34.953z"/>
	<path fill="#303030" d="M262.833,25.01h8.617l3.498,6.64c0.875,1.62,1.652,3.888,1.652,3.888s-0.162-2.527-0.162-4.795V25.01h7.094
		v19.921h-8.519l-3.563-6.738c-0.842-1.62-1.685-3.887-1.685-3.887s0.162,2.267,0.162,4.438v6.187h-7.095V25.01z"/>
</g>
<g>
	<path fill="#EF6A2E" d="M17.898,1.172c0.86,0.832,0.833,1.72,0.36,3.19c-1.609,4.856-5.938,15.29-5.716,16.706
		c-1.027-0.25-2.609-0.943-3.497-1.554c-1.027-0.722-1.499-1.638-1.526-3.524c-0.028-1.555,0.555-6.189,0.86-9.436
		c-2.831,7.77-4.385,13.043-4.302,14.431c-0.722-0.222-1.388-0.527-1.998-0.944c-0.888-0.61-1.221-1.442-0.833-3.107
		C2.191,12.91,7.158,1.56,7.38-0.133c1.165,0.359,2.22,0.832,3.052,1.387c1.249,0.832,1.582,1.748,1.582,3.691
		c0,1.832-0.721,7.298-1.027,10.351c1.138-4.19,4.856-14.292,4.829-15.457C16.566,0.145,17.37,0.672,17.898,1.172z"/>
	<path fill="#EF6A2E" d="M24.889,15.324c-0.277,3.08-2.303,5.328-5.078,5.328c-2.026,0-3.774-1.332-3.663-4.246
		c0.083-4.412,4.052-10.156,8.103-10.156c1.999,0,2.858,1.137,2.831,2.635c-0.027,2.915-3.247,5.635-6.688,5.967
		c0.027,1.25,0.499,1.749,1.553,1.749C22.919,16.601,24.168,16.018,24.889,15.324z M23.557,8.774c-0.888,0-2.358,2.109-2.941,4.219
		c1.804-0.61,3.358-2.498,3.358-3.663C23.973,8.969,23.807,8.774,23.557,8.774z"/>
	<path fill="#EF6A2E" d="M25.665,16.988c0.444-3.496,3.302-8.408,3.69-10.6c0.639,0.249,1.526,0.748,2.026,1.303
		c0.583,0.667,0.583,1.361,0.333,2.305c-0.5,1.859-1.776,4.605-2.082,5.938c-0.166,0.722,0.083,0.776,0.556,0.222
		c1.221-1.498,3.885-7.076,3.94-9.436c0.777,0.334,1.721,0.777,2.137,1.277c0.527,0.609,0.555,1.221,0.361,2.191
		c-0.417,2.054-1.526,4.523-1.859,6.244c-0.083,0.444,0.083,0.639,0.472,0.195c1.887-2.137,3.913-7.715,4.052-10.213
		c1.36,0.499,2.192,1.498,1.943,2.969c-0.555,3.414-2.692,7.66-5.079,9.936c-1.027,0.971-2.165,1.443-3.053,1.443
		c-1.416,0-2.165-1.193-1.942-3.469c-0.833,1.637-2.276,3.135-3.386,3.135C26.525,20.43,25.415,19.043,25.665,16.988z"/>
</g>
<g>
	<path fill="#EF6A2E" d="M292.408,32.393c0.36,0.472,0.499,1.026,0.417,1.775c0.998-1.609,2.691-3.053,4.246-3.053
		c1.109,0,1.831,1.027,1.748,2.275c1.026-1.248,2.137-1.97,3.357-1.97s1.887,0.888,1.887,2.249c0,1.691-1.082,4.051-1.942,6.132
		c-1.138,2.692-2.108,5.217-1.887,5.911c-0.833-0.193-1.692-0.555-2.331-1.109c-0.722-0.611-0.86-1.609-0.306-3.109
		c0.888-2.386,2.47-5.494,2.47-6.326c0-0.195-0.055-0.307-0.222-0.307c-0.583,0-1.776,1.86-3.163,4.94
		c-1.222,2.692-2.109,5.217-1.888,5.911c-0.833-0.193-1.638-0.527-2.275-1.082c-0.722-0.609-0.86-1.582-0.306-3.08
		c0.916-2.443,2.692-5.662,2.692-6.521c0-0.195-0.056-0.306-0.222-0.306c-0.611,0-2.055,2.054-3.275,4.829
		c-1.221,2.775-1.914,5.271-1.914,6.105c-0.694-0.223-1.666-0.723-2.109-1.111c-0.611-0.555-0.889-1.332-0.555-2.691
		c0.859-3.496,3.69-9.019,3.912-10.711C291.437,31.449,292.02,31.893,292.408,32.393z"/>
	<path fill="#EF6A2E" d="M312.277,40.023c-0.277,3.082-2.303,5.328-5.078,5.328c-2.026,0-3.774-1.33-3.664-4.246
		c0.084-4.412,4.053-10.156,8.104-10.156c1.998,0,2.858,1.139,2.831,2.637c-0.028,2.914-3.247,5.633-6.688,5.967
		c0.028,1.248,0.5,1.748,1.555,1.748C310.306,41.3,311.555,40.718,312.277,40.023z M310.945,33.475
		c-0.889,0-2.359,2.109-2.941,4.219c1.804-0.611,3.357-2.498,3.357-3.664C311.361,33.67,311.195,33.475,310.945,33.475z"/>
	<path fill="#EF6A2E" d="M326.789,26.703c0.61,0.833,0.555,1.805,0.11,3.053c-1.415,4.052-5.467,13.765-5.438,15.845
		c-0.777-0.25-1.721-0.777-2.165-1.303c-0.443-0.5-0.721-1.277-0.499-2.443c-1.249,2.443-2.664,3.414-3.83,3.414
		c-1.026,0-1.97-0.693-1.998-2.914c-0.056-4.051,3.663-11.101,7.16-11.101c1.026,0,1.721,0.694,1.915,1.666
		c1.359-3.496,2.58-7.133,2.691-7.992C325.54,25.344,326.318,26.037,326.789,26.703z M316.965,40.773c0,0.25,0.14,0.416,0.389,0.416
		c0.694,0,1.859-1.582,2.997-4.163c0.306-0.692,0.639-1.471,0.972-2.274c-0.111-0.389-0.306-0.639-0.583-0.639
		C319.49,34.113,316.965,39.164,316.965,40.773z"/>
	<path fill="#EF6A2E" d="M324.706,44.435c-0.666-0.609-0.832-1.498-0.389-3.107c0.889-3.385,3.331-7.826,3.857-10.074
		c0.75,0.417,1.472,1.083,1.859,1.722c0.5,0.832,0.473,1.804,0.028,3.108c-1.11,3.246-3.024,8.351-2.692,9.601
		C326.455,45.492,325.289,44.964,324.706,44.435z M333.365,28.174c0,1.693-0.888,3.025-2.053,3.025
		c-1.332,0-2.553-1.277-2.553-2.609c0-1.664,0.998-3.385,2.191-3.385C332.366,25.205,333.365,26.564,333.365,28.174z"/>
	<path fill="#EF6A2E" d="M336.001,44.464c-0.611-0.5-0.806-1.25-0.556-2.332c-1.221,2.248-2.525,3.191-3.663,3.191
		c-1.027,0-1.971-0.693-1.998-2.914c-0.056-4.05,3.719-11.156,7.215-11.156c1.11,0,1.832,0.806,1.971,1.888
		c0.333-0.749,0.583-1.388,0.722-1.692c0.61,0.277,1.193,0.776,1.526,1.276c0.472,0.722,0.582,1.471,0.055,3.024
		c-0.776,2.332-3.219,7.937-2.886,9.878C337.555,45.435,336.639,45.019,336.001,44.464z M333.781,40.773
		c0,0.25,0.111,0.416,0.361,0.416c0.693,0,1.887-1.886,3.024-4.163c0.333-0.638,0.693-1.415,1.055-2.192
		c-0.083-0.416-0.306-0.721-0.61-0.721C336.362,34.113,333.781,39.164,333.781,40.773z"/>
	<path fill="#EF6A2E" d="M341.993,45.658c-0.999-0.277-1.693-1.389-1.693-2.803c0-1.777,1.027-3.025,2.359-3.025
		c1.388,0,2.414,1.275,2.414,3.523c0,3.191-2.053,5.828-4.023,5.828c-0.75,0-1.416-0.25-1.804-0.637
		C340.217,48.322,341.466,47.599,341.993,45.658z"/>
</g>
<g>
	<path fill="#303030" d="M2.33,63.931H1.062V57.38H2.33v0.793c0.396-0.648,0.952-0.92,2.141-0.92c1.554,0,2.49,0.572,2.49,2.793
		v3.885H5.693v-3.744c0-1.395-0.35-1.902-1.682-1.902S2.33,58.792,2.33,60.187V63.931z"/>
	<path fill="#303030" d="M11.988,62.916c0.855,0,1.586-0.062,2.093-0.127v1.078c-0.476,0.064-1.079,0.143-2.189,0.143
		c-2.268,0-3.505-0.918-3.505-3.33c0-2.363,1.333-3.426,3.172-3.426c2.141,0,3.156,1.127,3.156,3.348v0.57H13.43H9.703
		C9.815,62.583,10.481,62.916,11.988,62.916z M11.607,58.333c-1.078,0-1.76,0.363-1.887,1.791h3.695
		C13.351,58.808,12.828,58.333,11.607,58.333z"/>
	<path fill="#303030" d="M22.088,60.964c0.223,0.682,0.492,1.713,0.492,1.713s0.27-1.014,0.491-1.713l1.126-3.584h1.301l-2.22,6.551
		h-1.38l-1.11-3.346c-0.159-0.492-0.365-1.301-0.365-1.301s-0.206,0.809-0.365,1.301l-1.094,3.346h-1.38l-2.236-6.551h1.379
		l1.11,3.584c0.206,0.652,0.476,1.713,0.476,1.713s0.285-1.031,0.507-1.713l1.174-3.584h0.936L22.088,60.964z"/>
	<path fill="#303030" d="M32.712,58.396c-1.252,0-2.078,0.459-2.078,2.314c0,1.824,0.904,2.221,2.109,2.221
		c1.031,0,1.539-0.078,2.03-0.143v1.047c-0.301,0.047-0.952,0.158-2.046,0.158c-1.982,0-3.394-0.951-3.394-3.314
		s1.427-3.361,3.314-3.361c0.967,0,1.729,0.094,2.125,0.189v1.047C34.298,58.474,33.822,58.396,32.712,58.396z"/>
	<path fill="#303030" d="M35.866,60.679c0-2.41,1.475-3.426,3.362-3.426c1.887,0,3.347,1.016,3.347,3.426
		c0,2.412-1.476,3.379-3.363,3.379S35.866,63.091,35.866,60.679z M41.275,60.695c0-1.84-0.682-2.441-2.062-2.441
		c-1.364,0-2.045,0.602-2.045,2.441s0.698,2.379,2.062,2.379C40.561,63.074,41.275,62.535,41.275,60.695z"/>
	<path fill="#303030" d="M45.301,63.931h-1.269V57.38h1.269v0.793c0.397-0.648,0.952-0.92,2.142-0.92c1.554,0,2.49,0.572,2.49,2.793
		v3.885h-1.269v-3.744c0-1.395-0.349-1.902-1.681-1.902c-1.332,0-1.681,0.508-1.681,1.902V63.931z"/>
	<path fill="#303030" d="M53.959,63.978c-1.269,0-1.951-0.062-2.49-0.158v-1.078c0.555,0.096,1.125,0.174,2.442,0.174
		c1.173,0,1.712-0.205,1.712-0.871c0-0.746-0.333-0.857-1.744-0.857c-1.634,0-2.617-0.459-2.617-1.982
		c0-1.459,1.205-1.871,2.966-1.871c1.062,0,1.681,0.064,2.141,0.143v1.062c-0.571-0.078-1.079-0.158-2.062-0.158
		c-1.443,0-1.84,0.189-1.84,0.84c0,0.682,0.365,0.842,1.809,0.842c1.729,0,2.569,0.506,2.569,1.998
		C56.845,63.566,55.973,63.978,53.959,63.978z"/>
	<path fill="#303030" d="M61.142,64.058c-1.872,0-2.982-0.811-2.982-2.949V57.38h1.269v3.584c0,1.492,0.365,2.062,1.697,2.062
		s1.745-0.57,1.745-2.062V57.38h1.269v3.729C64.14,63.248,63.014,64.058,61.142,64.058z"/>
	<path fill="#303030" d="M67.12,63.931h-1.269V57.38h1.269v0.777c0.365-0.633,0.761-0.904,1.887-0.904
		c0.983,0,1.665,0.254,2.014,1.094c0.412-0.76,0.967-1.094,2.141-1.094c1.475,0,2.268,0.572,2.268,2.793v3.885h-1.269v-3.744
		c0-1.395-0.127-1.902-1.427-1.902c-1.316,0-1.459,0.508-1.459,1.902v3.744h-1.269v-3.744c0-1.395-0.127-1.902-1.427-1.902
		c-1.316,0-1.459,0.508-1.459,1.902V63.931z"/>
	<path fill="#303030" d="M80.456,62.916c0.856,0,1.586-0.062,2.093-0.127v1.078c-0.476,0.064-1.078,0.143-2.188,0.143
		c-2.269,0-3.505-0.918-3.505-3.33c0-2.363,1.332-3.426,3.172-3.426c2.141,0,3.156,1.127,3.156,3.348v0.57h-1.285h-3.727
		C78.283,62.583,78.949,62.916,80.456,62.916z M80.075,58.333c-1.078,0-1.76,0.363-1.887,1.791h3.695
		C81.82,58.808,81.296,58.333,80.075,58.333z"/>
	<path fill="#303030" d="M85.878,63.931H84.61V57.38h1.269v0.984c0.365-0.635,0.888-1.031,1.982-1.031
		c0.238,0,0.428,0.031,0.523,0.047v1.174c-0.159-0.016-0.444-0.031-0.825-0.031c-1.252,0-1.681,0.428-1.681,1.871V63.931z"/>
	<path fill="#303030" d="M91.983,63.978c-1.269,0-1.951-0.062-2.49-0.158v-1.078c0.555,0.096,1.125,0.174,2.442,0.174
		c1.173,0,1.713-0.205,1.713-0.871c0-0.746-0.333-0.857-1.745-0.857c-1.633,0-2.617-0.459-2.617-1.982
		c0-1.459,1.206-1.871,2.965-1.871c1.063,0,1.682,0.064,2.142,0.143v1.062c-0.572-0.078-1.079-0.158-2.062-0.158
		c-1.443,0-1.839,0.189-1.839,0.84c0,0.682,0.364,0.842,1.808,0.842c1.729,0,2.569,0.506,2.569,1.998
		C94.869,63.566,93.997,63.978,91.983,63.978z"/>
	<path fill="#303030" d="M101.449,64.058c-1.554,0-2.506-0.539-2.506-1.982c0-1.521,1-1.889,2.649-1.967
		c1.062-0.047,1.696-0.127,2.156-0.207c-0.047-1.109-0.349-1.506-1.665-1.506c-1.189,0-1.713,0.078-2.426,0.191v-1.049
		c0.698-0.127,1.285-0.236,2.538-0.236c2.236,0,2.823,1.045,2.823,2.854v3.775h-1.269v-0.777
		C103.336,63.708,102.654,64.058,101.449,64.058z M101.671,61.029c-1.015,0.047-1.428,0.207-1.428,0.982
		c0,0.73,0.365,1.016,1.491,1.016c1.396,0,2.014-0.602,2.014-1.459v-0.762C103.273,60.917,102.654,60.982,101.671,61.029z"/>
	<path fill="#303030" d="M107.934,63.931h-1.269V57.38h1.269v0.793c0.396-0.648,0.952-0.92,2.141-0.92
		c1.554,0,2.49,0.572,2.49,2.793v3.885h-1.269v-3.744c0-1.395-0.349-1.902-1.681-1.902c-1.332,0-1.681,0.508-1.681,1.902V63.931z"/>
	<path fill="#303030" d="M119.114,54.177h1.269v9.754h-1.269v-0.715c-0.428,0.619-1.221,0.842-2.173,0.842
		c-2.03,0-2.95-1.078-2.95-3.457c0-2.236,0.92-3.348,2.95-3.348c0.952,0,1.729,0.238,2.173,0.92V54.177z M119.114,60.187
		c0-1.314-0.492-1.902-1.903-1.902c-1.507,0-1.919,0.666-1.919,2.332c0,1.744,0.412,2.41,1.919,2.41
		c1.412,0,1.903-0.588,1.903-1.809V60.187z"/>
	<path fill="#303030" d="M126.375,63.931h-1.269V57.38h1.269v0.793c0.396-0.648,0.952-0.92,2.142-0.92
		c1.554,0,2.489,0.572,2.489,2.793v3.885h-1.269v-3.744c0-1.395-0.349-1.902-1.681-1.902s-1.682,0.508-1.682,1.902V63.931z"/>
	<path fill="#303030" d="M136.032,62.916c0.856,0,1.586-0.062,2.094-0.127v1.078c-0.476,0.064-1.079,0.143-2.188,0.143
		c-2.269,0-3.505-0.918-3.505-3.33c0-2.363,1.332-3.426,3.172-3.426c2.141,0,3.155,1.127,3.155,3.348v0.57h-1.284h-3.728
		C133.86,62.583,134.526,62.916,136.032,62.916z M135.652,58.333c-1.078,0-1.76,0.363-1.887,1.791h3.695
		C137.397,58.808,136.873,58.333,135.652,58.333z"/>
	<path fill="#303030" d="M146.134,60.964c0.222,0.682,0.491,1.713,0.491,1.713s0.27-1.014,0.491-1.713l1.127-3.584h1.301
		l-2.221,6.551h-1.38l-1.11-3.346c-0.158-0.492-0.365-1.301-0.365-1.301s-0.205,0.809-0.364,1.301l-1.095,3.346h-1.38l-2.235-6.551
		h1.38l1.109,3.584c0.207,0.652,0.477,1.713,0.477,1.713s0.285-1.031,0.507-1.713l1.174-3.584h0.936L146.134,60.964z"/>
	<path fill="#303030" d="M152.999,58.427V57.38h1.205v-1.84h1.269v1.84h2.173v1.047h-2.173v2.744c0,1.316,0.333,1.713,1.284,1.713
		c0.254,0,0.46-0.016,0.682-0.047V63.9c-0.174,0.031-0.459,0.062-0.855,0.062c-1.396,0-2.379-0.602-2.379-2.68v-2.855H152.999z"/>
	<path fill="#303030" d="M162.149,62.916c0.856,0,1.586-0.062,2.093-0.127v1.078c-0.476,0.064-1.078,0.143-2.188,0.143
		c-2.268,0-3.505-0.918-3.505-3.33c0-2.363,1.332-3.426,3.172-3.426c2.141,0,3.156,1.127,3.156,3.348v0.57h-1.285h-3.727
		C159.976,62.583,160.642,62.916,162.149,62.916z M161.768,58.333c-1.078,0-1.761,0.363-1.888,1.791h3.695
		C163.512,58.808,162.99,58.333,161.768,58.333z"/>
	<path fill="#303030" d="M169.427,58.396c-1.254,0-2.078,0.459-2.078,2.314c0,1.824,0.904,2.221,2.109,2.221
		c1.031,0,1.538-0.078,2.029-0.143v1.047c-0.301,0.047-0.951,0.158-2.045,0.158c-1.982,0-3.395-0.951-3.395-3.314
		s1.428-3.361,3.314-3.361c0.968,0,1.729,0.094,2.125,0.189v1.047C171.013,58.474,170.536,58.396,169.427,58.396z"/>
	<path fill="#303030" d="M174.263,63.931h-1.27v-9.754h1.27v3.996c0.396-0.648,0.951-0.92,2.141-0.92c1.555,0,2.49,0.572,2.49,2.793
		v3.885h-1.27v-3.744c0-1.395-0.301-1.902-1.682-1.902c-1.379,0-1.68,0.508-1.68,1.902V63.931z"/>
	<path fill="#303030" d="M181.842,63.931h-1.269V57.38h1.269v0.793c0.396-0.648,0.951-0.92,2.141-0.92
		c1.555,0,2.49,0.572,2.49,2.793v3.885h-1.269v-3.744c0-1.395-0.35-1.902-1.682-1.902s-1.681,0.508-1.681,1.902V63.931z"/>
	<path fill="#303030" d="M187.899,60.679c0-2.41,1.475-3.426,3.362-3.426c1.887,0,3.346,1.016,3.346,3.426
		c0,2.412-1.475,3.379-3.361,3.379C189.358,64.058,187.899,63.091,187.899,60.679z M193.307,60.695c0-1.84-0.683-2.441-2.062-2.441
		c-1.364,0-2.047,0.602-2.047,2.441s0.698,2.379,2.062,2.379C192.593,63.074,193.307,62.535,193.307,60.695z"/>
	<path fill="#303030" d="M196.207,54.177h1.269v9.754h-1.269V54.177z"/>
	<path fill="#303030" d="M199.077,60.679c0-2.41,1.475-3.426,3.362-3.426c1.887,0,3.347,1.016,3.347,3.426
		c0,2.412-1.476,3.379-3.363,3.379C200.536,64.058,199.077,63.091,199.077,60.679z M204.486,60.695c0-1.84-0.682-2.441-2.062-2.441
		c-1.363,0-2.045,0.602-2.045,2.441s0.697,2.379,2.062,2.379C203.772,63.074,204.486,62.535,204.486,60.695z"/>
	<path fill="#303030" d="M212.113,57.38h1.269v6.551c0,1.887-0.936,2.869-2.935,2.869c-1.284,0-2.108-0.109-2.584-0.174v-1.062
		c0.443,0.064,1.3,0.158,2.474,0.158c1.396,0,1.776-0.744,1.776-1.902v-0.604c-0.428,0.619-1.221,0.842-2.173,0.842
		c-2.03,0-2.95-1.078-2.95-3.457c0-2.236,0.92-3.348,2.95-3.348c0.952,0,1.729,0.238,2.173,0.92V57.38z M212.113,60.187
		c0-1.314-0.492-1.902-1.903-1.902c-1.507,0-1.919,0.666-1.919,2.332c0,1.744,0.412,2.41,1.919,2.41
		c1.411,0,1.903-0.588,1.903-1.809V60.187z"/>
	<path fill="#303030" d="M215.171,54.177h1.333v1.555h-1.333V54.177z M215.203,57.38h1.269v6.551h-1.269V57.38z"/>
	<path fill="#303030" d="M221.673,62.916c0.857,0,1.586-0.062,2.094-0.127v1.078c-0.476,0.064-1.078,0.143-2.188,0.143
		c-2.269,0-3.505-0.918-3.505-3.33c0-2.363,1.332-3.426,3.172-3.426c2.141,0,3.156,1.127,3.156,3.348v0.57h-1.285h-3.727
		C219.501,62.583,220.167,62.916,221.673,62.916z M221.292,58.333c-1.078,0-1.76,0.363-1.887,1.791h3.695
		C223.038,58.808,222.514,58.333,221.292,58.333z"/>
	<path fill="#303030" d="M228.175,63.978c-1.27,0-1.951-0.062-2.49-0.158v-1.078c0.555,0.096,1.126,0.174,2.442,0.174
		c1.174,0,1.713-0.205,1.713-0.871c0-0.746-0.333-0.857-1.745-0.857c-1.633,0-2.616-0.459-2.616-1.982
		c0-1.459,1.205-1.871,2.966-1.871c1.062,0,1.681,0.064,2.141,0.143v1.062c-0.57-0.078-1.078-0.158-2.062-0.158
		c-1.443,0-1.84,0.189-1.84,0.84c0,0.682,0.365,0.842,1.809,0.842c1.729,0,2.569,0.506,2.569,1.998
		C231.062,63.566,230.189,63.978,228.175,63.978z"/>
	<path fill="#303030" d="M236.722,63.931h-1.27v-9.754h1.27v3.996c0.396-0.648,0.951-0.92,2.141-0.92
		c1.554,0,2.489,0.572,2.489,2.793v3.885h-1.269v-3.744c0-1.395-0.301-1.902-1.682-1.902c-1.379,0-1.68,0.508-1.68,1.902V63.931z"/>
	<path fill="#303030" d="M245.221,64.058c-1.554,0-2.506-0.539-2.506-1.982c0-1.521,0.999-1.889,2.647-1.967
		c1.063-0.047,1.697-0.127,2.158-0.207c-0.048-1.109-0.35-1.506-1.666-1.506c-1.188,0-1.713,0.078-2.426,0.191v-1.049
		c0.697-0.127,1.285-0.236,2.537-0.236c2.236,0,2.822,1.045,2.822,2.854v3.775h-1.268v-0.777
		C247.109,63.708,246.426,64.058,245.221,64.058z M245.443,61.029c-1.015,0.047-1.428,0.207-1.428,0.982
		c0,0.73,0.365,1.016,1.492,1.016c1.395,0,2.014-0.602,2.014-1.459v-0.762C247.044,60.917,246.426,60.982,245.443,61.029z"/>
	<path fill="#303030" d="M249.613,57.38h1.348l1.666,3.887c0.285,0.682,0.507,1.395,0.507,1.395s0.238-0.713,0.524-1.395
		l1.648-3.887h1.27l-2.839,6.551h-1.27L249.613,57.38z"/>
	<path fill="#303030" d="M260.73,62.916c0.855,0,1.586-0.062,2.094-0.127v1.078c-0.477,0.064-1.079,0.143-2.189,0.143
		c-2.268,0-3.505-0.918-3.505-3.33c0-2.363,1.332-3.426,3.172-3.426c2.142,0,3.156,1.127,3.156,3.348v0.57h-1.285h-3.727
		C258.557,62.583,259.222,62.916,260.73,62.916z M260.349,58.333c-1.078,0-1.761,0.363-1.888,1.791h3.695
		C262.093,58.808,261.57,58.333,260.349,58.333z"/>
	<path fill="#303030" d="M271.021,58.396c-1.254,0-2.078,0.459-2.078,2.314c0,1.824,0.904,2.221,2.109,2.221
		c1.031,0,1.539-0.078,2.03-0.143v1.047c-0.302,0.047-0.952,0.158-2.046,0.158c-1.982,0-3.395-0.951-3.395-3.314
		s1.428-3.361,3.314-3.361c0.968,0,1.729,0.094,2.126,0.189v1.047C272.607,58.474,272.13,58.396,271.021,58.396z"/>
	<path fill="#303030" d="M275.857,63.931h-1.27v-9.754h1.27v3.996c0.396-0.648,0.951-0.92,2.141-0.92c1.555,0,2.49,0.572,2.49,2.793
		v3.885h-1.269v-3.744c0-1.395-0.302-1.902-1.682-1.902s-1.681,0.508-1.681,1.902V63.931z"/>
	<path fill="#303030" d="M284.357,64.058c-1.555,0-2.507-0.539-2.507-1.982c0-1.521,0.999-1.889,2.649-1.967
		c1.062-0.047,1.696-0.127,2.156-0.207c-0.047-1.109-0.349-1.506-1.665-1.506c-1.189,0-1.713,0.078-2.427,0.191v-1.049
		c0.698-0.127,1.285-0.236,2.537-0.236c2.236,0,2.823,1.045,2.823,2.854v3.775h-1.269v-0.777
		C286.243,63.708,285.562,64.058,284.357,64.058z M284.578,61.029c-1.015,0.047-1.428,0.207-1.428,0.982
		c0,0.73,0.365,1.016,1.491,1.016c1.395,0,2.014-0.602,2.014-1.459v-0.762C286.18,60.917,285.562,60.982,284.578,61.029z"/>
	<path fill="#303030" d="M290.841,63.931h-1.269V57.38h1.269v0.793c0.396-0.648,0.952-0.92,2.142-0.92
		c1.554,0,2.489,0.572,2.489,2.793v3.885h-1.268v-3.744c0-1.395-0.35-1.902-1.682-1.902s-1.682,0.508-1.682,1.902V63.931z"/>
	<path fill="#303030" d="M302.021,57.38h1.27v6.551c0,1.887-0.936,2.869-2.935,2.869c-1.284,0-2.109-0.109-2.585-0.174v-1.062
		c0.444,0.064,1.301,0.158,2.475,0.158c1.396,0,1.775-0.744,1.775-1.902v-0.604c-0.428,0.619-1.221,0.842-2.173,0.842
		c-2.03,0-2.949-1.078-2.949-3.457c0-2.236,0.919-3.348,2.949-3.348c0.952,0,1.729,0.238,2.173,0.92V57.38z M302.021,60.187
		c0-1.314-0.492-1.902-1.902-1.902c-1.507,0-1.92,0.666-1.92,2.332c0,1.744,0.413,2.41,1.92,2.41c1.41,0,1.902-0.588,1.902-1.809
		V60.187z"/>
	<path fill="#303030" d="M308.316,62.916c0.856,0,1.586-0.062,2.094-0.127v1.078c-0.477,0.064-1.078,0.143-2.188,0.143
		c-2.269,0-3.505-0.918-3.505-3.33c0-2.363,1.332-3.426,3.172-3.426c2.141,0,3.155,1.127,3.155,3.348v0.57h-1.284h-3.727
		C306.143,62.583,306.809,62.916,308.316,62.916z M307.935,58.333c-1.078,0-1.76,0.363-1.887,1.791h3.695
		C309.68,58.808,309.156,58.333,307.935,58.333z"/>
	<path fill="#303030" d="M317.339,54.177h1.269v9.754h-1.269v-0.715c-0.429,0.619-1.221,0.842-2.173,0.842
		c-2.03,0-2.95-1.078-2.95-3.457c0-2.236,0.92-3.348,2.95-3.348c0.952,0,1.729,0.238,2.173,0.92V54.177z M317.339,60.187
		c0-1.314-0.492-1.902-1.903-1.902c-1.507,0-1.919,0.666-1.919,2.332c0,1.744,0.412,2.41,1.919,2.41
		c1.411,0,1.903-0.588,1.903-1.809V60.187z"/>
	<path fill="#303030" d="M0.427,72.728v-1.047h1.206v-1.84h1.269v1.84h2.172v1.047H2.902v2.744c0,1.316,0.333,1.713,1.284,1.713
		c0.254,0,0.46-0.018,0.682-0.049v1.062c-0.175,0.031-0.46,0.064-0.857,0.064c-1.396,0-2.378-0.604-2.378-2.682v-2.854H0.427z"/>
	<path fill="#303030" d="M7.499,78.23H6.231v-9.752h1.269v3.996c0.396-0.65,0.952-0.92,2.142-0.92c1.554,0,2.49,0.57,2.49,2.791
		v3.885h-1.269v-3.742c0-1.395-0.301-1.902-1.681-1.902c-1.38,0-1.682,0.508-1.682,1.902V78.23z"/>
	<path fill="#303030" d="M17.156,77.216c0.856,0,1.586-0.064,2.094-0.127v1.078c-0.476,0.062-1.079,0.143-2.189,0.143
		c-2.268,0-3.505-0.92-3.505-3.33c0-2.363,1.332-3.426,3.172-3.426c2.141,0,3.156,1.125,3.156,3.346v0.572H18.6h-3.727
		C14.984,76.882,15.65,77.216,17.156,77.216z M16.776,72.632c-1.079,0-1.76,0.365-1.887,1.793h3.695
		C18.52,73.109,17.997,72.632,16.776,72.632z"/>
	<path fill="#303030" d="M30.428,75.265c0.222,0.682,0.492,1.713,0.492,1.713s0.27-1.016,0.492-1.713l1.126-3.584h1.301l-2.22,6.549
		h-1.38l-1.11-3.346c-0.159-0.492-0.365-1.301-0.365-1.301s-0.206,0.809-0.365,1.301l-1.095,3.346h-1.379l-2.236-6.549h1.38
		l1.11,3.584c0.206,0.65,0.476,1.713,0.476,1.713s0.286-1.031,0.508-1.713l1.173-3.584h0.936L30.428,75.265z"/>
	<path fill="#303030" d="M36.786,78.357c-1.554,0-2.505-0.537-2.505-1.982c0-1.521,0.999-1.887,2.648-1.965
		c1.063-0.049,1.697-0.127,2.157-0.207c-0.047-1.109-0.349-1.506-1.665-1.506c-1.189,0-1.713,0.078-2.426,0.189v-1.047
		c0.698-0.127,1.284-0.238,2.538-0.238c2.236,0,2.822,1.047,2.822,2.855v3.773h-1.269v-0.775
		C38.674,78.009,37.992,78.357,36.786,78.357z M37.009,75.33c-1.015,0.047-1.428,0.205-1.428,0.982c0,0.729,0.365,1.016,1.491,1.016
		c1.396,0,2.014-0.604,2.014-1.461v-0.76C38.611,75.218,37.992,75.281,37.009,75.33z"/>
	<path fill="#303030" d="M41.179,71.681h1.38l1.729,3.869c0.301,0.666,0.492,1.348,0.492,1.348s0.19-0.682,0.46-1.348l1.602-3.869
		h1.3l-2.997,7.088c-0.635,1.508-1.206,2.301-2.712,2.301c-0.254,0-0.444-0.031-0.555-0.062v-1.049
		c0.063,0.018,0.19,0.033,0.333,0.033c1.062,0,1.443-0.539,1.966-1.824L41.179,71.681z"/>
	<path fill="#303030" d="M51.534,78.279c-1.269,0-1.951-0.064-2.49-0.158v-1.08c0.555,0.096,1.125,0.176,2.442,0.176
		c1.173,0,1.712-0.207,1.712-0.873c0-0.744-0.333-0.857-1.745-0.857c-1.633,0-2.617-0.459-2.617-1.98
		c0-1.459,1.206-1.871,2.966-1.871c1.062,0,1.681,0.062,2.141,0.143v1.062c-0.571-0.08-1.079-0.16-2.062-0.16
		c-1.443,0-1.839,0.191-1.839,0.842c0,0.682,0.365,0.84,1.808,0.84c1.729,0,2.569,0.508,2.569,1.998
		C54.42,77.867,53.548,78.279,51.534,78.279z"/>
	<path fill="#303030" d="M58.558,74.98c0-2.41,1.475-3.426,3.362-3.426s3.346,1.016,3.346,3.426s-1.475,3.377-3.362,3.377
		C60.017,78.357,58.558,77.39,58.558,74.98z M63.966,74.996c0-1.84-0.682-2.443-2.062-2.443c-1.364,0-2.046,0.604-2.046,2.443
		s0.698,2.379,2.062,2.379C63.252,77.375,63.966,76.835,63.966,74.996z"/>
	<path fill="#303030" d="M66.089,72.728v-1.047h1.205v-0.555c0-2.078,1-2.713,2.379-2.713c0.523,0,0.809,0.047,1.015,0.096v1.047
		c-0.19-0.033-0.46-0.08-0.84-0.08c-0.952,0-1.285,0.365-1.285,1.762v0.443h1.855v1.047h-1.855v5.502h-1.269v-5.502H66.089z"/>
	<path fill="#303030" d="M76.777,78.357c-1.554,0-2.505-0.537-2.505-1.982c0-1.521,0.999-1.887,2.648-1.965
		c1.063-0.049,1.697-0.127,2.157-0.207c-0.047-1.109-0.349-1.506-1.665-1.506c-1.189,0-1.713,0.078-2.426,0.189v-1.047
		c0.698-0.127,1.284-0.238,2.538-0.238c2.236,0,2.822,1.047,2.822,2.855v3.773h-1.269v-0.775
		C78.664,78.009,77.983,78.357,76.777,78.357z M76.999,75.33c-1.015,0.047-1.428,0.205-1.428,0.982c0,0.729,0.366,1.016,1.491,1.016
		c1.396,0,2.014-0.604,2.014-1.461v-0.76C78.601,75.218,77.983,75.281,76.999,75.33z"/>
	<path fill="#303030" d="M86.863,68.478h1.269v9.752h-1.269v-0.713c-0.428,0.619-1.222,0.84-2.173,0.84
		c-2.03,0-2.95-1.078-2.95-3.457c0-2.234,0.919-3.346,2.95-3.346c0.951,0,1.729,0.238,2.173,0.92V68.478z M86.863,74.488
		c0-1.316-0.492-1.902-1.903-1.902c-1.507,0-1.919,0.666-1.919,2.332c0,1.744,0.412,2.41,1.919,2.41
		c1.412,0,1.903-0.588,1.903-1.809V74.488z"/>
	<path fill="#303030" d="M89.177,71.681h1.348l1.665,3.885c0.286,0.682,0.507,1.396,0.507,1.396s0.238-0.715,0.524-1.396
		l1.649-3.885h1.269L93.3,78.23h-1.269L89.177,71.681z"/>
	<path fill="#303030" d="M100.293,77.216c0.856,0,1.586-0.064,2.093-0.127v1.078c-0.476,0.062-1.079,0.143-2.188,0.143
		c-2.268,0-3.505-0.92-3.505-3.33c0-2.363,1.332-3.426,3.172-3.426c2.141,0,3.156,1.125,3.156,3.346v0.572h-1.285h-3.727
		C98.12,76.882,98.786,77.216,100.293,77.216z M99.912,72.632c-1.078,0-1.76,0.365-1.887,1.793h3.695
		C101.657,73.109,101.134,72.632,99.912,72.632z"/>
	<path fill="#303030" d="M105.716,78.23h-1.269v-6.549h1.269v0.984c0.365-0.635,0.888-1.031,1.982-1.031
		c0.238,0,0.428,0.031,0.523,0.047v1.174c-0.159-0.016-0.444-0.031-0.825-0.031c-1.253,0-1.681,0.428-1.681,1.871V78.23z"/>
	<path fill="#303030" d="M108.839,72.728v-1.047h1.205v-1.84h1.269v1.84h2.173v1.047h-2.173v2.744c0,1.316,0.333,1.713,1.285,1.713
		c0.254,0,0.46-0.018,0.682-0.049v1.062c-0.174,0.031-0.459,0.064-0.856,0.064c-1.396,0-2.379-0.604-2.379-2.682v-2.854H108.839z"/>
	<path fill="#303030" d="M114.753,68.478h1.332v1.553h-1.332V68.478z M114.785,71.681h1.269v6.549h-1.269V71.681z"/>
	<path fill="#303030" d="M120.256,78.279c-1.269,0-1.951-0.064-2.49-0.158v-1.08c0.555,0.096,1.125,0.176,2.442,0.176
		c1.174,0,1.713-0.207,1.713-0.873c0-0.744-0.333-0.857-1.744-0.857c-1.634,0-2.617-0.459-2.617-1.98
		c0-1.459,1.206-1.871,2.966-1.871c1.062,0,1.682,0.062,2.141,0.143v1.062c-0.57-0.08-1.078-0.16-2.062-0.16
		c-1.443,0-1.839,0.191-1.839,0.842c0,0.682,0.365,0.84,1.808,0.84c1.729,0,2.569,0.508,2.569,1.998
		C123.143,77.867,122.27,78.279,120.256,78.279z"/>
	<path fill="#303030" d="M124.632,68.478h1.332v1.553h-1.332V68.478z M124.663,71.681h1.27v6.549h-1.27V71.681z"/>
	<path fill="#303030" d="M129.056,78.23h-1.269v-6.549h1.269v0.793c0.396-0.65,0.952-0.92,2.142-0.92c1.554,0,2.49,0.57,2.49,2.791
		v3.885h-1.27v-3.742c0-1.395-0.349-1.902-1.682-1.902c-1.332,0-1.681,0.508-1.681,1.902V78.23z"/>
	<path fill="#303030" d="M140.236,71.681h1.269v6.549c0,1.889-0.936,2.871-2.934,2.871c-1.285,0-2.109-0.111-2.585-0.174v-1.062
		c0.444,0.062,1.3,0.158,2.474,0.158c1.396,0,1.776-0.746,1.776-1.902v-0.604c-0.428,0.619-1.222,0.84-2.173,0.84
		c-2.029,0-2.949-1.078-2.949-3.457c0-2.234,0.92-3.346,2.949-3.346c0.951,0,1.729,0.238,2.173,0.92V71.681z M140.236,74.488
		c0-1.316-0.491-1.902-1.903-1.902c-1.507,0-1.919,0.666-1.919,2.332c0,1.744,0.412,2.41,1.919,2.41
		c1.412,0,1.903-0.588,1.903-1.809V74.488z"/>
	<path fill="#303030" d="M143.216,76.566h1.49v1.664h-1.49V76.566z"/>
</g>
</svg>
